<svg width="41" height="40" viewBox="0 0 41 40" fill="none" xmlns="http://www.w3.org/2000/svg">
<path d="M35.4081 12.6823C34.8317 12.9294 34.5611 13.6 34.8199 14.1882C35.7022 16.2235 36.1493 18.3764 36.1493 20.5764C36.1493 29.3882 28.9846 36.5529 20.1728 36.5529C11.3611 36.5529 4.20813 29.3764 4.20813 20.5647C4.20813 11.7647 11.3728 4.59998 20.1728 4.59998C22.3846 4.59998 24.5258 5.04704 26.5611 5.92939C27.1375 6.18821 27.8081 5.91763 28.067 5.34116C28.314 4.76469 28.0552 4.0941 27.4787 3.83527C25.1611 2.82351 22.7023 2.31763 20.1846 2.31763C10.114 2.31763 1.92578 10.5059 1.92578 20.5647C1.92578 30.6353 10.114 38.8235 20.1728 38.8235C30.2317 38.8235 38.4199 30.6353 38.4199 20.5764C38.4199 18.0588 37.914 15.6 36.9022 13.2823C36.6552 12.6941 35.9846 12.4235 35.4081 12.6823Z" fill="#FFB114"/>
<path d="M26.2667 9.52938C26.5138 8.95291 26.2549 8.28232 25.6785 8.0235C23.9373 7.2588 22.0902 6.88232 20.1844 6.88232C12.6314 6.88232 6.49023 13.0235 6.49023 20.5764C6.49023 28.1294 12.6314 34.2706 20.1844 34.2706C27.7373 34.2706 33.8785 28.1294 33.8785 20.5764C33.8785 18.6706 33.4902 16.8117 32.7373 15.0823C32.4902 14.5059 31.8079 14.247 31.2314 14.4941C30.6549 14.7411 30.3961 15.4235 30.6432 16C31.2785 17.447 31.5961 18.9882 31.5961 20.5882C31.5961 26.8823 26.4785 32 20.1844 32C13.8902 32 8.77259 26.8823 8.77259 20.5882C8.77259 14.2941 13.8902 9.17644 20.1844 9.17644C21.7726 9.17644 23.3255 9.49409 24.7726 10.1294C25.3373 10.3647 26.0079 10.1059 26.2667 9.52938Z" fill="#FFB114"/>
<path d="M20.1724 13.7294C20.5606 13.7294 20.9724 13.7647 21.3841 13.8353C22.0077 13.9412 22.5959 13.5294 22.7018 12.9059C22.8077 12.2823 22.3959 11.6941 21.7724 11.5882C16.0077 10.5765 11.043 15.0235 11.043 20.5765C11.043 25.6118 15.1371 29.7059 20.1724 29.7059C25.2077 29.7059 29.3018 25.6118 29.3018 20.5765C29.3018 20.0588 29.2547 19.5176 29.1606 18.9765C29.0547 18.3529 28.4665 17.9412 27.843 18.047C27.2194 18.1529 26.8077 18.7412 26.9136 19.3647C26.9841 19.7765 27.0194 20.1882 27.0194 20.5765C27.0194 24.3529 23.9489 27.4235 20.1724 27.4235C16.3959 27.4235 13.3253 24.3529 13.3253 20.5765C13.3371 16.8 16.4077 13.7294 20.1724 13.7294Z" fill="#FFB114"/>
<path d="M39.4783 5.21173C39.29 4.78821 38.9018 4.50585 38.4077 4.52938L36.1489 4.57644V2.31762C36.1489 1.85879 35.8783 1.43526 35.443 1.27056C35.0195 1.08232 34.5253 1.18821 34.1959 1.50585L30.7724 4.92938C30.5724 5.14115 30.443 5.43526 30.443 5.74115V8.69409L19.3724 19.7647C18.9253 20.2117 18.9253 20.9294 19.3724 21.3764C19.5959 21.6 19.8901 21.7059 20.1842 21.7059C20.4783 21.7059 20.7724 21.6 20.9959 21.3764L32.0665 10.3059H35.0195C35.3253 10.3059 35.6195 10.1764 35.8312 9.96468L39.2548 6.47056C39.5724 6.14115 39.6665 5.63526 39.4783 5.21173Z" fill="#FFB114"/>
</svg>
