<svg width="41" height="40" viewBox="0 0 41 40" fill="none" xmlns="http://www.w3.org/2000/svg">
<path fill-rule="evenodd" clip-rule="evenodd" d="M15.0225 17.6088C12.9075 16.2813 11.5 13.9288 11.5 11.25C11.5 7.11125 14.8612 3.75 19 3.75C23.1388 3.75 26.5 7.11125 26.5 11.25C26.5 13.9288 25.0925 16.2813 22.9775 17.6088C25.5375 17.9875 27.7825 19.3375 29.3238 21.2725C30.965 20.76 32.725 21.2362 33.825 22.2812C35.5175 23.89 35.765 27.1 34.0775 30.3175C33.0187 32.4562 30.3563 34.6313 28.1063 36.0563L27.4375 36.48L26.7687 36.0563C25.7562 35.415 24.6613 34.6225 23.6663 33.75H6.5V27.5C6.5 22.4788 10.2 18.3225 15.0225 17.6088ZM21.355 31.25C21.1388 30.94 20.9513 30.6287 20.7975 30.3175C19.11 27.1 19.3575 23.89 21.05 22.2812C22.2087 21.1812 24.0975 20.7112 25.8113 21.3625C24.5913 20.5037 23.105 20 21.5 20H16.5C12.3575 20 9 23.3575 9 27.5V31.25H21.355ZM19 6.25C16.24 6.25 14 8.49 14 11.25C14 14.01 16.24 16.25 19 16.25C21.76 16.25 24 14.01 24 11.25C24 8.49 21.76 6.25 19 6.25ZM26.3313 25.0825C25.4325 23.375 23.6713 23.24 22.7725 24.0937C22.31 24.5325 22.125 25.2075 22.125 25.9763C22.125 26.9488 22.4325 28.0562 23.025 29.1838L23.0338 29.1987C23.8125 30.785 25.7038 32.3412 27.4375 33.5075C29.1712 32.3412 31.0625 30.785 31.85 29.1838L31.8575 29.1675C32.4425 28.0562 32.75 26.9488 32.75 25.9763C32.75 25.2075 32.565 24.5325 32.1025 24.0937C31.205 23.24 29.4425 23.375 28.5437 25.0825L27.4375 27.1837L26.3313 25.0825Z" fill="#FFB114"/>
</svg>
