<svg width="40" height="40" viewBox="0 0 40 40" fill="none" xmlns="http://www.w3.org/2000/svg">
<path d="M20.0008 23.4734C19.3138 23.4734 18.6422 23.2697 18.071 22.888C17.4998 22.5063 17.0546 21.9638 16.7917 21.3292C16.5288 20.6945 16.4601 19.9961 16.5941 19.3223C16.7281 18.6485 17.0589 18.0296 17.5447 17.5438C18.0305 17.0581 18.6494 16.7273 19.3231 16.5932C19.9969 16.4592 20.6953 16.528 21.33 16.7909C21.9647 17.0538 22.5072 17.499 22.8888 18.0702C23.2705 18.6414 23.4742 19.3129 23.4742 19.9999C23.4734 20.9209 23.1072 21.8039 22.456 22.4551C21.8047 23.1063 20.9217 23.4725 20.0008 23.4734ZM20.0008 17.7765C19.561 17.7765 19.1312 17.9069 18.7655 18.1512C18.3999 18.3955 18.1149 18.7428 17.9466 19.1491C17.7783 19.5553 17.7343 20.0024 17.8201 20.4337C17.9059 20.865 18.1176 21.2612 18.4286 21.5721C18.7395 21.8831 19.1357 22.0949 19.567 22.1806C19.9983 22.2664 20.4454 22.2224 20.8517 22.0541C21.2579 21.8858 21.6052 21.6008 21.8495 21.2352C22.0938 20.8696 22.2242 20.4397 22.2242 19.9999C22.2234 19.4105 21.9889 18.8454 21.5721 18.4286C21.1553 18.0118 20.5902 17.7773 20.0008 17.7765Z" fill="#FFB114"/>
<path d="M20.0016 30.496C19.4375 30.496 19.25 29.9101 19.1891 29.7148C19.1109 29.4718 19.0383 29.1507 18.9547 28.7773C18.732 27.8007 18.4078 26.3695 17.7578 25.4179C16.6258 25.6335 15.3828 26.4148 14.5352 26.9476C14.2117 27.1507 13.9328 27.3265 13.7063 27.4429C13.5266 27.5359 12.9797 27.8179 12.5813 27.4187C12.1828 27.0195 12.4641 26.4734 12.557 26.2937C12.6734 26.0671 12.8492 25.7882 13.0523 25.4648C13.5852 24.6171 14.3664 23.3742 14.582 22.2421C13.6297 21.5937 12.1984 21.2679 11.2227 21.0453C10.85 20.9601 10.5289 20.889 10.2852 20.8109C10.093 20.75 9.50391 20.5625 9.50391 19.9984C9.50391 19.4343 10.0898 19.2468 10.2852 19.1859C10.5281 19.1078 10.8492 19.0351 11.2227 18.9515C12.1992 18.7289 13.6305 18.4046 14.582 17.7546C14.3664 16.6226 13.5852 15.3796 13.0523 14.532C12.8492 14.2085 12.6734 13.9296 12.557 13.7031C12.4641 13.5234 12.182 12.9765 12.5813 12.5781C12.9805 12.1796 13.5266 12.4609 13.7063 12.5539C13.9328 12.6703 14.2117 12.846 14.5352 13.0492C15.3828 13.582 16.6258 14.3632 17.7578 14.5789C18.4062 13.6265 18.732 12.1953 18.9547 11.2195C19.0398 10.8468 19.1109 10.5257 19.1891 10.282C19.25 10.0898 19.4375 9.50073 20.0016 9.50073C20.5656 9.50073 20.7531 10.0867 20.8141 10.282C20.8922 10.525 20.9648 10.846 21.0484 11.2195C21.2711 12.196 21.5953 13.6273 22.2453 14.5789C23.3773 14.3632 24.6203 13.582 25.468 13.0492C25.7914 12.846 26.0703 12.6703 26.2969 12.5539C26.4766 12.4609 27.0234 12.1789 27.4219 12.5781C27.8203 12.9773 27.5391 13.5234 27.4461 13.7031C27.3297 13.9296 27.1539 14.2085 26.9508 14.532C26.418 15.3796 25.6367 16.6226 25.4211 17.7546C26.3734 18.4031 27.8047 18.7289 28.7805 18.9515C29.1531 19.0367 29.4742 19.1078 29.718 19.1859C29.9102 19.2468 30.4992 19.4343 30.4992 19.9984C30.4992 20.5625 29.9133 20.75 29.718 20.8109C29.475 20.889 29.1539 20.9617 28.7805 21.0453C27.8039 21.2679 26.3727 21.5921 25.4211 22.2421C25.6367 23.3742 26.418 24.6171 26.9508 25.4648C27.1539 25.7882 27.3297 26.0671 27.4461 26.2937C27.5391 26.4734 27.8211 27.0203 27.4219 27.4187C27.0227 27.8171 26.4766 27.5359 26.2969 27.4429C26.0703 27.3265 25.7914 27.1507 25.468 26.9476C24.6203 26.4148 23.3773 25.6335 22.2453 25.4179C21.5969 26.3703 21.2711 27.8015 21.0484 28.7773C20.9633 29.15 20.8922 29.471 20.8141 29.7148C20.7531 29.9101 20.5656 30.496 20.0016 30.496ZM18.0336 24.1273C18.1247 24.1273 18.2147 24.1473 18.2973 24.1857C18.3799 24.2242 18.4531 24.2802 18.5117 24.35C19.307 25.296 19.7266 26.6601 20.0016 27.7765C20.2766 26.6601 20.6961 25.296 21.4914 24.35C21.556 24.2731 21.6381 24.213 21.7309 24.1747C21.8236 24.1363 21.9242 24.1209 22.0242 24.1296C23.2547 24.2359 24.5164 24.9039 25.5008 25.4992C24.9055 24.5148 24.2375 23.2531 24.1312 22.0226C24.1225 21.9226 24.1379 21.822 24.1763 21.7293C24.2146 21.6365 24.2748 21.5544 24.3516 21.4898C25.2977 20.6945 26.6617 20.275 27.7781 20C26.6617 19.725 25.2977 19.3054 24.3516 18.5101C24.2748 18.4455 24.2146 18.3634 24.1763 18.2706C24.1379 18.1779 24.1225 18.0773 24.1312 17.9773C24.2375 16.7468 24.9055 15.4851 25.5008 14.5007C24.5164 15.096 23.2547 15.764 22.0242 15.8703C21.9242 15.879 21.8236 15.8636 21.7309 15.8252C21.6381 15.7869 21.556 15.7268 21.4914 15.65C20.6961 14.7039 20.2766 13.3398 20.0016 12.2234C19.7266 13.3398 19.307 14.7039 18.5117 15.65C18.4471 15.7268 18.365 15.7869 18.2722 15.8252C18.1795 15.8636 18.0789 15.879 17.9789 15.8703C16.7484 15.764 15.4867 15.096 14.5023 14.5007C15.0977 15.4851 15.7656 16.7468 15.8719 17.9773C15.8806 18.0773 15.8652 18.1779 15.8268 18.2706C15.7885 18.3634 15.7284 18.4455 15.6516 18.5101C14.7055 19.3054 13.3414 19.725 12.225 20C13.3414 20.275 14.7055 20.6945 15.6516 21.4898C15.7284 21.5544 15.7885 21.6365 15.8268 21.7293C15.8652 21.822 15.8806 21.9226 15.8719 22.0226C15.7656 23.2531 15.0977 24.5148 14.5023 25.4992C15.4867 24.9039 16.7484 24.2359 17.9789 24.1296L18.0336 24.1273Z" fill="#FFB114"/>
<path d="M20.0016 34.561C11.9727 34.561 5.44147 28.0289 5.44147 20C5.4345 17.7061 5.97527 15.4436 7.01882 13.4008C8.02805 11.4284 9.47027 9.70974 11.2376 8.37345C11.3054 8.32216 11.3831 8.28526 11.4657 8.26502C11.5483 8.24478 11.6342 8.24162 11.7181 8.25574C11.802 8.26985 11.8821 8.30095 11.9536 8.34712C12.025 8.39329 12.0863 8.45356 12.1337 8.52423C12.2737 8.73228 12.4877 8.8791 12.7323 8.93477C12.9768 8.99045 13.2333 8.95079 13.4496 8.82387C13.6659 8.69695 13.8256 8.49233 13.8962 8.25172C13.9669 8.01111 13.9431 7.75261 13.8298 7.52892C13.7905 7.45305 13.7672 7.36993 13.7614 7.28471C13.7555 7.19949 13.7672 7.11398 13.7957 7.03345C13.8242 6.95291 13.8688 6.87907 13.927 6.81648C13.9851 6.75389 14.0554 6.70389 14.1337 6.66955C15.9822 5.85401 17.9812 5.4351 20.0016 5.43986C28.0305 5.43986 34.5626 11.9711 34.5626 20C34.5632 22.3843 33.9782 24.7323 32.8588 26.8375C31.7395 28.9427 30.1201 30.7407 28.143 32.0735C28.0725 32.121 27.993 32.1537 27.9095 32.1695C27.8259 32.1853 27.7399 32.1839 27.6569 32.1653C27.5739 32.1467 27.4956 32.1114 27.4267 32.0615C27.3578 32.0116 27.2998 31.9481 27.2563 31.875C27.1288 31.6573 26.9226 31.4969 26.6802 31.4268C26.4379 31.3566 26.1779 31.3821 25.9538 31.498C25.7297 31.6139 25.5586 31.8114 25.4758 32.0497C25.393 32.288 25.4047 32.549 25.5087 32.7789C25.5435 32.8568 25.5621 32.941 25.5632 33.0263C25.5643 33.1117 25.5479 33.1963 25.5151 33.2751C25.4822 33.3539 25.4335 33.425 25.3721 33.4843C25.3107 33.5435 25.2378 33.5896 25.1579 33.6195C23.5105 34.2437 21.7633 34.5627 20.0016 34.561ZM11.5485 9.7172C10.0239 10.961 8.79651 12.5298 7.95615 14.3089C7.1158 16.088 6.6837 18.0324 6.69147 20C6.69147 27.3438 12.6618 33.311 20.0016 33.311C21.4242 33.3124 22.8378 33.0853 24.1883 32.6383C24.1783 32.5522 24.1734 32.4656 24.1735 32.3789C24.1733 31.9472 24.2982 31.5247 24.533 31.1624C24.7679 30.8002 25.1026 30.5137 25.4968 30.3377C25.891 30.1617 26.3278 30.1036 26.7543 30.1706C27.1808 30.2375 27.5787 30.4265 27.9001 30.7149C29.5788 29.478 30.9433 27.8638 31.8835 26.0026C32.8237 24.1414 33.3132 22.0852 33.3126 20C33.3126 12.6602 27.3454 6.68986 20.0016 6.68986C18.3442 6.68672 16.7011 6.99548 15.1579 7.60002C15.2338 8.04738 15.172 8.50727 14.9804 8.91863C14.7889 9.32999 14.4767 9.67336 14.0855 9.90316C13.6942 10.133 13.2423 10.2383 12.7897 10.2052C12.3371 10.1722 11.9053 10.0022 11.5516 9.71798L11.5485 9.7172Z" fill="#FFB114"/>
<path d="M20.0008 38.2031C17.2685 38.2085 14.5704 37.596 12.1081 36.4116C9.6459 35.2271 7.48331 33.5013 5.7821 31.3632C5.69467 31.254 5.64646 31.1185 5.64518 30.9785C5.64391 30.8386 5.68965 30.7022 5.77507 30.5914C5.90795 30.4197 5.97971 30.2085 5.97897 29.9914C5.97867 29.8402 5.94368 29.6911 5.87668 29.5556C5.80968 29.4201 5.71247 29.3018 5.59254 29.2098C5.47261 29.1178 5.33315 29.0546 5.18492 29.025C5.03669 28.9953 4.88364 29.0002 4.73757 29.039C4.60246 29.0752 4.45914 29.0649 4.33053 29.01C4.20193 28.955 4.09547 28.8585 4.02819 28.7359C2.03215 25.0928 1.34221 20.8766 2.07293 16.7873C2.80365 12.698 4.91107 8.98158 8.04528 6.2552C11.1795 3.52883 15.1519 1.95647 19.303 1.79919C23.4541 1.64192 27.5342 2.90919 30.8657 5.39059C30.9335 5.44107 30.9904 5.50478 31.0329 5.57788C31.0754 5.65097 31.1026 5.73193 31.1129 5.81584C31.1232 5.89976 31.1163 5.98489 31.0928 6.06609C31.0692 6.14729 31.0295 6.22287 30.9758 6.28825C30.8304 6.46388 30.7515 6.6852 30.7532 6.91325C30.753 7.10878 30.8111 7.29993 30.92 7.46233C31.0288 7.62474 31.1836 7.75104 31.3646 7.82513C31.5455 7.89922 31.7444 7.91774 31.936 7.87833C32.1275 7.83893 32.3029 7.74338 32.4399 7.60387C32.4992 7.54368 32.5701 7.49613 32.6483 7.46411C32.7265 7.43209 32.8104 7.41625 32.8949 7.41757C32.9794 7.41888 33.0627 7.43732 33.1399 7.47176C33.217 7.50619 33.2864 7.55592 33.3438 7.61793C35.7534 10.2145 37.353 13.4577 37.9465 16.95C38.54 20.4423 38.1017 24.0319 36.6852 27.2787C35.2688 30.5255 32.9358 33.2885 29.9722 35.229C27.0086 37.1695 23.5432 38.2031 20.0008 38.2031ZM7.0321 30.914C8.61948 32.8091 10.6038 34.3323 12.8449 35.3758C15.0859 36.4194 17.5288 36.9578 20.0008 36.9531C29.3485 36.9531 36.954 29.3476 36.954 20C36.9593 15.9139 35.4832 11.9645 32.7993 8.88356C32.3939 9.10228 31.9309 9.19042 31.4735 9.13593C31.0161 9.08144 30.5868 8.88698 30.2441 8.57915C29.9015 8.27132 29.6623 7.86515 29.5593 7.4162C29.4564 6.96725 29.4946 6.49745 29.6688 6.07106C26.834 4.09245 23.4579 3.03638 20.0008 3.04684C10.6532 3.04684 3.04772 10.6523 3.04772 20C3.0472 22.6979 3.68997 25.3571 4.92272 27.757H4.99147C5.58408 27.7574 6.15233 27.9929 6.57151 28.4118C6.9907 28.8307 7.22658 29.3988 7.22741 29.9914C7.22952 30.3094 7.1629 30.6241 7.0321 30.914Z" fill="#FFB114"/>
<path d="M26.407 34.6133C25.965 34.6133 25.5328 34.4822 25.1652 34.2366C24.7977 33.991 24.5112 33.6419 24.342 33.2335C24.1728 32.825 24.1286 32.3756 24.2148 31.942C24.3011 31.5085 24.5139 31.1102 24.8265 30.7976C25.1391 30.485 25.5374 30.2721 25.971 30.1859C26.4046 30.0996 26.854 30.1439 27.2624 30.3131C27.6708 30.4823 28.0199 30.7687 28.2655 31.1363C28.5111 31.5039 28.6422 31.936 28.6422 32.3781C28.6416 32.9707 28.4059 33.5389 27.9868 33.9579C27.5678 34.3769 26.9996 34.6126 26.407 34.6133ZM26.407 31.3929C26.2122 31.3929 26.0217 31.4507 25.8597 31.559C25.6977 31.6672 25.5714 31.8211 25.4969 32.0011C25.4223 32.1811 25.4028 32.3792 25.4408 32.5703C25.4788 32.7614 25.5726 32.9369 25.7104 33.0747C25.8482 33.2125 26.0237 33.3063 26.2148 33.3443C26.4059 33.3823 26.604 33.3628 26.784 33.2883C26.9641 33.2137 27.1179 33.0874 27.2262 32.9254C27.3344 32.7634 27.3922 32.5729 27.3922 32.3781C27.3918 32.1169 27.2878 31.8666 27.1032 31.6819C26.9185 31.4973 26.6682 31.3934 26.407 31.3929Z" fill="#FFB114"/>
<path d="M12.95 10.2116C12.5079 10.2116 12.0758 10.0806 11.7082 9.83495C11.3406 9.58935 11.0542 9.24027 10.885 8.83185C10.7158 8.42343 10.6715 7.97401 10.7578 7.54043C10.844 7.10685 11.0569 6.70859 11.3695 6.396C11.6821 6.0834 12.0804 5.87053 12.5139 5.78428C12.9475 5.69804 13.3969 5.7423 13.8054 5.91148C14.2138 6.08065 14.5629 6.36713 14.8085 6.7347C15.0541 7.10227 15.1852 7.53442 15.1852 7.97649C15.1845 8.5691 14.9488 9.13726 14.5298 9.5563C14.1108 9.97534 13.5426 10.211 12.95 10.2116ZM12.95 6.99133C12.7552 6.99133 12.5647 7.04911 12.4027 7.15736C12.2407 7.26561 12.1144 7.41947 12.0398 7.59949C11.9653 7.7795 11.9458 7.97758 11.9838 8.16868C12.0218 8.35979 12.1156 8.53532 12.2534 8.6731C12.3912 8.81088 12.5667 8.9047 12.7578 8.94272C12.9489 8.98073 13.147 8.96122 13.327 8.88666C13.507 8.81209 13.6609 8.68582 13.7691 8.52381C13.8774 8.36181 13.9352 8.17134 13.9352 7.97649C13.9349 7.71527 13.8311 7.46482 13.6464 7.28011C13.4617 7.0954 13.2112 6.99154 12.95 6.99133Z" fill="#FFB114"/>
<path d="M4.99297 32.2265C4.5509 32.2265 4.11875 32.0954 3.75118 31.8498C3.38361 31.6042 3.09713 31.2552 2.92795 30.8467C2.75878 30.4383 2.71452 29.9889 2.80076 29.5553C2.88701 29.1217 3.09988 28.7235 3.41248 28.4109C3.72507 28.0983 4.12333 27.8854 4.55691 27.7992C4.99049 27.7129 5.43991 27.7572 5.84833 27.9264C6.25675 28.0955 6.60583 28.382 6.85143 28.7496C7.09704 29.1172 7.22813 29.5493 7.22813 29.9914C7.2273 30.5839 6.99154 31.152 6.57255 31.571C6.15356 31.99 5.58552 32.2257 4.99297 32.2265ZM4.99297 29.0062C4.79812 29.0062 4.60765 29.064 4.44565 29.1723C4.28364 29.2805 4.15737 29.4344 4.0828 29.6144C4.00824 29.7944 3.98873 29.9925 4.02674 30.1836C4.06476 30.3747 4.15858 30.5502 4.29636 30.688C4.43414 30.8258 4.60967 30.9196 4.80078 30.9576C4.99188 30.9956 5.18996 30.9761 5.36997 30.9015C5.54999 30.827 5.70385 30.7007 5.8121 30.5387C5.92035 30.3767 5.97813 30.1862 5.97813 29.9914C5.97792 29.7302 5.87406 29.4797 5.68935 29.295C5.50464 29.1103 5.25419 29.0064 4.99297 29.0062Z" fill="#FFB114"/>
<path d="M31.7391 9.15C31.297 9.15 30.8648 9.01891 30.4973 8.77331C30.1297 8.52771 29.8432 8.17862 29.674 7.7702C29.5049 7.36178 29.4606 6.91237 29.5469 6.47879C29.6331 6.04521 29.846 5.64694 30.1586 5.33435C30.4712 5.02176 30.8694 4.80888 31.303 4.72264C31.7366 4.63639 32.186 4.68066 32.5944 4.84983C33.0028 5.019 33.3519 5.30549 33.5975 5.67306C33.8431 6.04063 33.9742 6.47277 33.9742 6.91484C33.9736 7.50745 33.7379 8.07562 33.3189 8.49465C32.8998 8.91369 32.3317 9.14938 31.7391 9.15ZM31.7391 5.92969C31.5442 5.92969 31.3537 5.98747 31.1917 6.09572C31.0297 6.20397 30.9035 6.35783 30.8289 6.53784C30.7543 6.71786 30.7348 6.91594 30.7728 7.10704C30.8108 7.29814 30.9047 7.47368 31.0425 7.61146C31.1802 7.74923 31.3558 7.84306 31.5469 7.88107C31.738 7.91908 31.9361 7.89957 32.1161 7.82501C32.2961 7.75045 32.4499 7.62418 32.5582 7.46217C32.6664 7.30016 32.7242 7.10969 32.7242 6.91484C32.724 6.65363 32.6202 6.40317 32.4354 6.21846C32.2507 6.03375 32.0003 5.9299 31.7391 5.92969Z" fill="#FFB114"/>
</svg>
