<svg width="16" height="16" viewBox="0 0 16 16" fill="none" xmlns="http://www.w3.org/2000/svg">
<path d="M8.28023 12.8702C5.10883 12.8702 2.52881 10.2902 2.52881 7.11861C2.52881 3.94721 5.10883 1.36719 8.28023 1.36719C11.4518 1.36719 14.0318 3.94721 14.0318 7.11861C14.0318 10.2902 11.4516 12.8702 8.28023 12.8702ZM8.28023 2.01296C5.46498 2.01296 3.17458 4.30336 3.17458 7.11861C3.17458 9.93385 5.46498 12.2244 8.28023 12.2244C11.0955 12.2244 13.386 9.93385 13.386 7.11861C13.386 4.30336 11.0955 2.01296 8.28023 2.01296Z" fill="black"/>
<path d="M13.4655 15.752H3.09535C2.91711 15.752 2.77246 15.6074 2.77246 15.4291V14.11C2.77246 13.9318 2.91711 13.7871 3.09535 13.7871H13.4655C13.6437 13.7871 13.7884 13.9318 13.7884 14.11V15.4291C13.7884 15.6074 13.6437 15.752 13.4655 15.752ZM3.41823 15.1063H13.1426V14.4329H3.41823V15.1063Z" fill="black"/>
<path d="M4.40311 14.3048C4.23666 14.241 4.16337 14.0447 4.23359 13.8808L4.999 12.0961C5.04985 11.9774 5.16657 11.9004 5.29573 11.9004H6.42503C6.60326 11.9004 6.74791 12.045 6.74791 12.2233C6.74791 12.4015 6.60326 12.5462 6.42503 12.5462H5.50851L4.82706 14.1353C4.77475 14.2576 4.59959 14.38 4.40311 14.3048Z" fill="black"/>
<path d="M11.734 14.1353L11.0524 12.5462H10.1359C9.95764 12.5462 9.81299 12.4015 9.81299 12.2233C9.81299 12.045 9.95764 11.9004 10.1359 11.9004H11.2652C11.3943 11.9004 11.5109 11.9774 11.5619 12.0961L12.3273 13.8808C12.3977 14.0447 12.3234 14.2386 12.1578 14.3048C11.9502 14.3879 11.7866 14.2578 11.734 14.1353Z" fill="black"/>
<path d="M8.28054 8.9975C6.71777 8.9975 5.50468 7.37968 5.45383 7.31075C5.36956 7.1966 5.36956 7.04113 5.45383 6.92699C5.50468 6.85806 6.71793 5.24023 8.28054 5.24023C9.84315 5.24023 11.0564 6.85806 11.1074 6.92699C11.1917 7.04113 11.1917 7.1966 11.1074 7.31075C11.0566 7.37968 9.84331 8.9975 8.28054 8.9975ZM6.13189 7.11879C6.47351 7.50771 7.32528 8.35173 8.28054 8.35173C9.2358 8.35173 10.0874 7.50787 10.4294 7.11879C10.0876 6.72971 9.2358 5.88601 8.28054 5.88601C7.32528 5.88601 6.47367 6.72987 6.13189 7.11879Z" fill="black"/>
<path d="M8.28046 8.61365C7.4571 8.61365 6.78711 7.94383 6.78711 7.1203C6.78711 6.29678 7.45694 5.62695 8.28046 5.62695C9.10398 5.62695 9.77381 6.29678 9.77381 7.1203C9.77381 7.94383 9.10382 8.61365 8.28046 8.61365ZM8.28046 6.27273C7.81308 6.27273 7.43288 6.65293 7.43288 7.1203C7.43288 7.58768 7.81308 7.96788 8.28046 7.96788C8.74784 7.96788 9.12804 7.58768 9.12804 7.1203C9.12804 6.65293 8.74768 6.27273 8.28046 6.27273Z" fill="black"/>
<path d="M8.28047 7.45547C8.46557 7.45547 8.61563 7.30541 8.61563 7.12031C8.61563 6.93521 8.46557 6.78516 8.28047 6.78516C8.09537 6.78516 7.94531 6.93521 7.94531 7.12031C7.94531 7.30541 8.09537 7.45547 8.28047 7.45547Z" fill="black"/>
<path d="M3.09549 3.565C2.91726 3.565 2.7726 3.42035 2.7726 3.24212C2.7726 2.87725 2.34074 2.44523 1.97572 2.44523C1.79749 2.44523 1.65283 2.30058 1.65283 2.12235C1.65283 1.94411 1.79749 1.79946 1.97572 1.79946C2.34058 1.79946 2.7726 1.3676 2.7726 1.00257C2.7726 0.824341 2.91726 0.679688 3.09549 0.679688C3.27372 0.679688 3.41838 0.824341 3.41838 1.00257C3.41838 1.36744 3.85024 1.79946 4.21526 1.79946C4.39349 1.79946 4.53815 1.94411 4.53815 2.12235C4.53815 2.30058 4.39349 2.44523 4.21526 2.44523C3.8504 2.44523 3.41838 2.87709 3.41838 3.24212C3.41838 3.42035 3.27388 3.565 3.09549 3.565ZM2.8191 2.12235C2.92097 2.20355 3.01428 2.29687 3.09549 2.39874C3.1767 2.29687 3.27001 2.20355 3.37188 2.12235C3.27001 2.04114 3.1767 1.94782 3.09549 1.84595C3.01428 1.94782 2.92097 2.04114 2.8191 2.12235Z" fill="black"/>
<path d="M14.5574 13.3306C14.3792 13.3306 14.2345 13.186 14.2345 13.0077C14.2345 12.6429 13.8025 12.2109 13.4376 12.2109C13.2594 12.2109 13.1147 12.0662 13.1147 11.888C13.1147 11.7097 13.2594 11.5651 13.4376 11.5651C13.8025 11.5651 14.2345 11.1331 14.2345 10.7682C14.2345 10.59 14.3792 10.4453 14.5574 10.4453C14.7356 10.4453 14.8803 10.59 14.8803 10.7682C14.8803 11.1331 15.3123 11.5651 15.6772 11.5651C15.8554 11.5651 16.0001 11.7097 16.0001 11.888C16.0001 12.0662 15.8554 12.2109 15.6772 12.2109C15.3123 12.2109 14.8803 12.6429 14.8803 13.0077C14.8803 13.186 14.7356 13.3306 14.5574 13.3306ZM14.281 11.888C14.3829 11.9692 14.4762 12.0625 14.5574 12.1644C14.6386 12.0625 14.7319 11.9692 14.8338 11.888C14.7319 11.8068 14.6386 11.7134 14.5574 11.6116C14.4762 11.7134 14.3829 11.8069 14.281 11.888Z" fill="black"/>
<path d="M11.0833 6.15875C10.905 6.15875 10.7604 6.0141 10.7604 5.83587C10.7604 5.471 10.3284 5.03898 9.96351 5.03898C9.78528 5.03898 9.64062 4.89433 9.64062 4.7161C9.64062 4.53786 9.78528 4.39321 9.96351 4.39321C10.3284 4.39321 10.7604 3.96135 10.7604 3.59632C10.7604 3.41809 10.905 3.27344 11.0833 3.27344C11.2615 3.27344 11.4062 3.41809 11.4062 3.59632C11.4062 3.96119 11.8382 4.39321 12.2031 4.39321C12.3813 4.39321 12.5259 4.53786 12.5259 4.7161C12.5259 4.89433 12.3813 5.03898 12.2031 5.03898C11.8382 5.03898 11.4062 5.47084 11.4062 5.83587C11.4062 6.01426 11.2617 6.15875 11.0833 6.15875ZM10.8069 4.71626C10.9088 4.79746 11.0021 4.89078 11.0833 4.99265C11.1645 4.89078 11.2578 4.79746 11.3597 4.71626C11.2578 4.63505 11.1645 4.54174 11.0833 4.43987C11.0021 4.54174 10.9088 4.63505 10.8069 4.71626Z" fill="black"/>
<path d="M1.44266 11.2857C1.26442 11.2857 1.11977 11.1411 1.11977 10.9628C1.11977 10.598 0.68791 10.1659 0.322887 10.1659C0.144653 10.1659 0 10.0213 0 9.84305C0 9.66481 0.144653 9.52016 0.322887 9.52016C0.687748 9.52016 1.11977 9.08814 1.11977 8.72328C1.11977 8.54504 1.26442 8.40039 1.44266 8.40039C1.62089 8.40039 1.76554 8.54504 1.76554 8.72328C1.76554 9.08814 2.19757 9.52016 2.56243 9.52016C2.74066 9.52016 2.88531 9.66481 2.88531 9.84305C2.88531 10.0213 2.74066 10.1659 2.56243 10.1659C2.19757 10.1659 1.76554 10.598 1.76554 10.9628C1.76554 11.1411 1.62105 11.2857 1.44266 11.2857ZM1.16627 9.84305C1.26814 9.92425 1.36145 10.0176 1.44266 10.1196C1.52386 10.0176 1.61718 9.92425 1.71905 9.84305C1.61718 9.76184 1.52386 9.66853 1.44266 9.5665C1.36145 9.66853 1.26814 9.76184 1.16627 9.84305Z" fill="black"/>
<path d="M13.8455 3.13336C13.6673 3.13336 13.5226 2.98871 13.5226 2.81048C13.5226 2.44561 13.0906 2.01359 12.7257 2.01359C12.5475 2.01359 12.4028 1.86894 12.4028 1.6907C12.4028 1.51247 12.5475 1.36782 12.7257 1.36782C13.0906 1.36782 13.5226 0.935957 13.5226 0.570933C13.5226 0.3927 13.6673 0.248047 13.8455 0.248047C14.0237 0.248047 14.1684 0.3927 14.1684 0.570933C14.1684 0.935795 14.6004 1.36782 14.9653 1.36782C15.1435 1.36782 15.2881 1.51247 15.2881 1.6907C15.2881 1.86894 15.1435 2.01359 14.9653 2.01359C14.6004 2.01359 14.1684 2.44545 14.1684 2.81048C14.1684 2.98887 14.0239 3.13336 13.8455 3.13336ZM13.5693 1.69087C13.6711 1.77207 13.7644 1.86539 13.8457 1.96726C13.9269 1.86539 14.0202 1.77207 14.122 1.69087C14.0202 1.60966 13.9269 1.51635 13.8457 1.41447C13.7644 1.51635 13.671 1.60966 13.5693 1.69087Z" fill="black"/>
</svg>
