<svg width="24" height="25" viewBox="0 0 24 25" fill="none" xmlns="http://www.w3.org/2000/svg">
<g clip-path="url(#clip0_13_9449)">
<path d="M12 24.3333C11.1828 24.3333 10.3662 24.2506 9.57276 24.0877C9.38254 24.0486 9.26006 23.8627 9.29915 23.6725C9.3382 23.4823 9.52401 23.3599 9.71428 23.3989C10.4613 23.5524 11.2303 23.6302 12.0001 23.6302C15.0176 23.6302 17.8545 22.4552 19.9882 20.3214C22.1219 18.1878 23.2969 15.3509 23.2969 12.3334C23.2969 10.7593 22.9795 9.23638 22.3535 7.80673C21.7488 6.42554 20.886 5.19563 19.7892 4.15119C19.6486 4.01732 19.6431 3.79475 19.777 3.65413C19.9109 3.51345 20.1335 3.50811 20.2741 3.64194C21.4389 4.75115 22.3552 6.05748 22.9977 7.52473C23.6628 9.04382 24 10.6617 24 12.3334C24 15.5387 22.7518 18.5522 20.4853 20.8187C18.2188 23.0852 15.2053 24.3333 12 24.3333ZM8.30108 23.7338C8.2641 23.7338 8.2265 23.728 8.18947 23.7156C5.82362 22.9238 3.79058 21.4361 2.31007 19.4132C0.798851 17.3482 0 14.9 0 12.3333C0 9.12801 1.2482 6.11453 3.51472 3.848C5.78124 1.58148 8.79468 0.333328 12 0.333328C14.4933 0.333328 16.884 1.09084 18.9138 2.52396C19.0724 2.63599 19.1102 2.85532 18.9982 3.01395C18.8862 3.17257 18.6668 3.21031 18.5082 3.09837C16.5978 1.74948 14.3472 1.03646 12 1.03646C8.98251 1.03646 6.14561 2.21153 4.01193 4.34521C1.87821 6.47889 0.703132 9.31579 0.703132 12.3333C0.703132 14.7497 1.45501 17.0543 2.8775 18.998C4.27157 20.9028 6.18559 22.3036 8.4126 23.0488C8.59672 23.1104 8.69605 23.3096 8.63441 23.4937C8.58519 23.6409 8.44813 23.7338 8.30108 23.7338ZM11.8749 22.8232C11.4591 22.8232 11.0433 22.7228 10.7193 22.522C10.5542 22.4197 10.5034 22.203 10.6057 22.038C10.7079 21.873 10.9246 21.822 11.0897 21.9244C11.5154 22.1881 12.2345 22.1881 12.6601 21.9244C12.7977 21.8391 12.822 21.722 12.7989 21.6408C12.7833 21.5861 12.7384 21.5208 12.6131 21.5208C12.4189 21.5208 12.2615 21.3634 12.2615 21.1692C12.2615 20.975 12.4189 20.8176 12.6131 20.8176C13.0277 20.8176 13.3661 21.0651 13.4751 21.4482C13.5907 21.854 13.4121 22.2855 13.0305 22.522C12.7065 22.7228 12.2907 22.8232 11.8749 22.8232ZM15.9137 21.879C15.854 21.879 15.7936 21.8639 15.7382 21.8319C15.5701 21.7348 15.5124 21.5198 15.6095 21.3517C15.6592 21.2655 15.7163 21.1815 15.7799 21.1001L15.1336 19.9807C15.0314 19.9951 14.9301 20.0025 14.8307 20.0025C14.8306 20.0025 14.8306 20.0025 14.8306 20.0025C14.6364 20.0025 14.479 19.8451 14.479 19.6509C14.479 19.4567 14.6364 19.2994 14.8306 19.2994C14.9513 19.2994 15.0782 19.2828 15.2067 19.2523C15.2207 19.2479 15.2349 19.2443 15.2492 19.2417C15.6519 19.1368 16.066 18.8976 16.3582 18.6014C16.3676 18.5904 16.3778 18.5798 16.3887 18.5698C16.4794 18.4738 16.5571 18.3723 16.6174 18.2677C16.7145 18.0995 16.9295 18.0418 17.0977 18.139C17.2658 18.2361 17.3235 18.4511 17.2264 18.6192C17.1767 18.7054 17.1196 18.7894 17.056 18.8707L17.7023 19.9903C17.8045 19.9759 17.9058 19.9684 18.0051 19.9684H18.0053C18.1995 19.9685 18.3569 20.1258 18.3568 20.32C18.3568 20.5142 18.1994 20.6716 18.0053 20.6716C18.0052 20.6715 18.0051 20.6715 18.0051 20.6716C17.3594 20.6716 16.5412 21.1439 16.2184 21.7031C16.1534 21.8159 16.0352 21.879 15.9137 21.879ZM15.8316 19.7833L16.2998 20.5944C16.5152 20.4312 16.7553 20.2926 17.0043 20.1876L16.5361 19.3766C16.3207 19.5397 16.0806 19.6783 15.8316 19.7833ZM7.49393 21.7515C7.26026 21.7515 7.02011 21.6908 6.79924 21.5632C6.49816 21.3894 6.27587 21.1175 6.17336 20.7976C6.0669 20.4654 6.10098 20.122 6.26922 19.8306C6.48531 19.4562 6.85338 19.2458 7.14912 19.0769C7.33924 18.9682 7.53584 18.8558 7.59818 18.7478C7.65326 18.6524 7.63268 18.6106 7.62593 18.5969C7.59964 18.5435 7.51146 18.4813 7.39371 18.4656C7.20124 18.4401 7.06591 18.2634 7.09146 18.0709C7.11701 17.8784 7.29382 17.7425 7.4862 17.7687C7.82647 17.8138 8.12174 18.0121 8.25669 18.2862C8.38133 18.5393 8.36371 18.8281 8.2071 19.0994C8.04973 19.3719 7.76923 19.5323 7.49801 19.6873C7.24151 19.8339 6.99921 19.9724 6.87813 20.1821C6.81025 20.2997 6.79778 20.4421 6.84293 20.583C6.892 20.7362 7.00132 20.868 7.15076 20.9543C7.44785 21.1259 7.80898 21.0586 7.9558 20.8043C8.07983 20.5895 8.18455 20.2134 8.21445 20.0865C8.23995 19.9783 8.3151 19.8885 8.41719 19.8444C8.51929 19.8004 8.63615 19.8071 8.73243 19.8627L8.97834 20.0047C9.14648 20.1017 9.20409 20.3167 9.10701 20.4849C9.03782 20.6048 8.90835 20.6685 8.77926 20.66C8.72413 20.8225 8.65157 21.0055 8.56475 21.1559C8.34294 21.54 7.92978 21.7515 7.49393 21.7515ZM11.3869 21.5208C10.9723 21.5208 10.634 21.2733 10.5249 20.8902C10.4093 20.4844 10.588 20.0529 10.9695 19.8165C11.6174 19.4147 12.6327 19.4147 13.2807 19.8165C13.4458 19.9188 13.4966 20.1355 13.3943 20.3005C13.292 20.4655 13.0753 20.5164 12.9102 20.4141C12.4846 20.1503 11.7655 20.1503 11.3399 20.4141C11.2023 20.4994 11.178 20.6165 11.2011 20.6977C11.2167 20.7524 11.2616 20.8177 11.3869 20.8177C11.5811 20.8177 11.7385 20.9751 11.7385 21.1693C11.7385 21.3635 11.5811 21.5208 11.3869 21.5208ZM4.2659 18.774C4.18223 18.774 4.09926 18.7442 4.03345 18.6862C3.99201 18.6498 3.62347 18.3205 3.43841 17.9999C3.13841 17.4803 3.26281 16.9338 3.45894 16.4613L2.70467 16.4145C2.51088 16.4025 2.36351 16.2357 2.37551 16.0419C2.38751 15.8481 2.55438 15.7009 2.74817 15.7128L3.78543 15.7771L4.24837 14.8466C4.33485 14.6728 4.54589 14.6018 4.71975 14.6884C4.89356 14.7749 4.96439 14.986 4.87791 15.1598L4.54729 15.8243L5.28802 15.8702C5.4818 15.8822 5.62918 16.049 5.61718 16.2428C5.60513 16.4365 5.43844 16.5832 5.24452 16.5719L4.20974 16.5078C3.96051 17.0379 3.8818 17.3617 4.04732 17.6484C4.1091 17.7553 4.2201 17.8825 4.31943 17.9855L5.79362 17.1344C5.96176 17.0374 6.17678 17.0949 6.27386 17.2631C6.37094 17.4312 6.31333 17.6463 6.14518 17.7433L4.44164 18.7268C4.38684 18.7585 4.32623 18.774 4.2659 18.774ZM12 18.7084C8.48479 18.7084 5.62496 15.8485 5.62496 12.3333C5.62496 12.1391 5.78237 11.9817 5.97653 11.9817C6.17068 11.9817 6.32809 12.1391 6.32809 12.3333C6.32809 15.4608 8.87249 18.0052 12 18.0052C15.1276 18.0052 17.672 15.4608 17.672 12.3333C17.672 9.20577 15.1276 6.66137 12 6.66137C10.6992 6.66137 9.47573 7.08968 8.46191 7.89992C7.47743 8.68668 6.77482 9.79078 6.48353 11.0088C6.43839 11.1976 6.24859 11.3141 6.05982 11.269C5.87101 11.2238 5.75452 11.0341 5.79967 10.8453C6.12718 9.47573 6.9168 8.2347 8.02292 7.35063C9.14648 6.45273 10.5589 5.95824 12 5.95824C15.5153 5.95824 18.3751 8.81811 18.3751 12.3333C18.3751 15.8485 15.5152 18.7084 12 18.7084ZM20.4269 18.6472C20.3672 18.6472 20.3068 18.6321 20.2514 18.6001C19.9273 18.4129 19.714 18.1063 19.6351 17.7677C19.3024 17.8687 18.9304 17.8374 18.6062 17.6502C17.9847 17.2914 17.771 16.4938 18.1298 15.8723C18.4886 15.2508 19.2861 15.0371 19.9076 15.396C20.2087 15.5698 20.4241 15.8504 20.514 16.1862C20.5177 16.1999 20.5211 16.2137 20.5244 16.2275C20.5379 16.2234 20.5516 16.2195 20.5653 16.2158C20.9011 16.1259 21.2518 16.172 21.5529 16.3458C21.7211 16.4429 21.7787 16.6579 21.6816 16.826C21.5845 16.9942 21.3694 17.0517 21.2013 16.9547C21.0629 16.8748 20.9017 16.8536 20.7474 16.895C20.593 16.9363 20.4639 17.0353 20.384 17.1738C20.2191 17.4595 20.3173 17.8261 20.603 17.9911C20.7712 18.0882 20.8288 18.3032 20.7317 18.4714C20.6665 18.5842 20.5484 18.6472 20.4269 18.6472ZM19.2579 15.9249C19.0509 15.9249 18.8494 16.0322 18.7387 16.2239C18.5737 16.5097 18.672 16.8763 18.9577 17.0413C19.2434 17.2062 19.6101 17.1079 19.7751 16.8223C19.855 16.6839 19.8762 16.5226 19.8348 16.3683C19.7935 16.2138 19.6944 16.0848 19.5561 16.0049C19.4621 15.9507 19.3593 15.9249 19.2579 15.9249ZM12 17.3021C11.8059 17.3021 11.6485 17.1447 11.6485 16.9505V15.4459C11.3319 15.4104 11.0294 15.3275 10.7483 15.2045L9.99586 16.5078C9.89878 16.6759 9.68377 16.7334 9.51562 16.6364C9.34748 16.5393 9.28987 16.3243 9.38695 16.1562L10.1399 14.852C9.88917 14.6663 9.66703 14.4442 9.4814 14.1934L8.17719 14.9464C8.00909 15.0434 7.79403 14.9859 7.69695 14.8177C7.59987 14.6496 7.65748 14.4345 7.82562 14.3375L9.1289 13.585C9.00585 13.304 8.92298 13.0015 8.88745 12.6849H7.38279C7.18863 12.6849 7.03122 12.5275 7.03122 12.3333C7.03122 12.1391 7.18863 11.9817 7.38279 11.9817H8.88745C8.92298 11.6651 9.00585 11.3627 9.1289 11.0816L7.82562 10.3291C7.65748 10.2321 7.59987 10.017 7.69695 9.84891C7.79403 9.68072 8.00905 9.62315 8.17719 9.72023L9.4814 10.4732C9.66703 10.2225 9.88927 10.0003 10.14 9.81464L9.387 8.51047C9.28992 8.34233 9.34753 8.12731 9.51567 8.03023C9.68377 7.93325 9.89883 7.99072 9.99591 8.1589L10.7484 9.46214C11.0294 9.33914 11.3319 9.25621 11.6485 9.22073V7.71607C11.6485 7.52187 11.8059 7.36451 12.0001 7.36451C12.1942 7.36451 12.3516 7.52187 12.3516 7.71607V9.22087C12.6624 9.25593 12.9662 9.33712 13.2521 9.46171L14.0042 8.15895C14.1013 7.99072 14.3163 7.93325 14.4845 8.03028C14.6526 8.12736 14.7102 8.34238 14.6131 8.51052L13.6966 10.0979C13.6941 10.1024 13.6915 10.1068 13.6887 10.1112C13.5871 10.2738 13.3738 10.3252 13.2094 10.2264C13.2077 10.2254 13.2061 10.2244 13.2045 10.2234C12.8396 10.0146 12.4234 9.90427 12 9.90427C10.6607 9.90427 9.57098 10.9939 9.57098 12.3333C9.57098 13.6727 10.6607 14.7624 12 14.7624C13.3394 14.7624 14.4291 13.6727 14.4291 12.3333C14.4291 11.9102 14.3189 11.4942 14.1103 11.1294C14.1075 11.125 14.1049 11.1206 14.1024 11.1162C14.0073 10.9482 14.0651 10.735 14.2323 10.6386L15.8229 9.72023C15.991 9.6232 16.206 9.68072 16.3031 9.84891C16.4002 10.017 16.3426 10.2321 16.1744 10.3291L14.8717 11.0813C14.9962 11.3672 15.0774 11.6709 15.1124 11.9817H16.6172C16.8114 11.9817 16.9688 12.1391 16.9688 12.3333C16.9688 12.5275 16.8114 12.6849 16.6172 12.6849H15.1126C15.077 13.0015 14.9941 13.304 14.8711 13.585L16.1744 14.3375C16.3425 14.4345 16.4001 14.6496 16.303 14.8177C16.206 14.9858 15.991 15.0433 15.8228 14.9464L14.5185 14.1934C14.3329 14.4442 14.1107 14.6663 13.86 14.852L14.613 16.1562C14.7101 16.3243 14.6525 16.5393 14.4843 16.6364C14.3162 16.7334 14.1012 16.6759 14.0041 16.5078L13.2516 15.2045C12.9705 15.3275 12.6681 15.4104 12.3515 15.4459V16.9505C12.3516 17.1447 12.1942 17.3021 12 17.3021ZM21.2122 14.0911C21.0181 14.0911 20.8607 13.9338 20.8607 13.7396C20.8607 13.5454 21.0181 13.388 21.2122 13.388C21.4061 13.388 21.5638 13.2303 21.5638 13.0364C21.5638 12.8426 21.4061 12.6849 21.2122 12.6849H19.9039C19.7098 12.6849 19.5524 12.5275 19.5524 12.3333C19.5524 12.1391 19.7098 11.9817 19.9039 11.9817H21.2122C21.4061 11.9817 21.5638 11.824 21.5638 11.6302C21.5638 11.4363 21.4061 11.2786 21.2122 11.2786C21.0181 11.2786 20.8607 11.1212 20.8607 10.927C20.8607 10.7328 21.0181 10.5755 21.2122 10.5755C21.7938 10.5755 22.2669 11.0486 22.2669 11.6302C22.2669 11.9 22.1651 12.1466 21.9977 12.3333C22.1651 12.52 22.2669 12.7666 22.2669 13.0364C22.2669 13.618 21.7938 14.0911 21.2122 14.0911ZM4.14848 14.0911C3.95432 14.0911 3.79691 13.9338 3.79691 13.7396V10.8306C3.79691 10.6364 3.95432 10.479 4.14848 10.479C4.34264 10.479 4.50004 10.6364 4.50004 10.8306V13.7396C4.50004 13.9338 4.34264 14.0911 4.14848 14.0911ZM2.74221 14.0911C2.54806 14.0911 2.39065 13.9338 2.39065 13.7396V13.3278C1.98143 13.1826 1.68752 12.7917 1.68752 12.3333C1.68752 11.875 1.98143 11.484 2.39065 11.3388V10.927C2.39065 10.7328 2.54806 10.5755 2.74221 10.5755C2.93637 10.5755 3.09378 10.7328 3.09378 10.927V11.6302C3.09378 11.8244 2.93637 11.9817 2.74221 11.9817C2.54834 11.9817 2.39065 12.1394 2.39065 12.3333C2.39065 12.5272 2.54834 12.6849 2.74221 12.6849C2.93637 12.6849 3.09378 12.8422 3.09378 13.0364V13.7396C3.09378 13.9338 2.93637 14.0911 2.74221 14.0911ZM4.56281 10.0151C4.50318 10.0151 4.44272 9.99989 4.38735 9.96792L2.68381 8.98438C2.55312 8.90896 2.48515 8.75854 2.51491 8.61055C2.52579 8.55646 2.62662 8.07265 2.81173 7.75207C3.07147 7.30226 3.43456 7.24347 3.69374 7.27329C3.97644 7.30586 4.25878 7.45793 4.52372 7.61093L5.07947 7.93184C5.12841 7.96006 5.17163 7.96906 5.2081 7.9587C5.24025 7.94951 5.26946 7.92443 5.29041 7.88811C5.35402 7.77785 5.32716 7.65279 5.21049 7.51629L4.11426 6.2334C3.98816 6.08579 4.00555 5.86388 4.15317 5.73774C4.30078 5.61165 4.52264 5.62904 4.64883 5.77665L5.74506 7.05949C6.05734 7.42498 6.115 7.86612 5.89937 8.23962C5.78677 8.43467 5.61001 8.57497 5.40165 8.63464C5.18133 8.69774 4.94208 8.66436 4.72795 8.54075L4.17215 8.21984C3.96576 8.10069 3.75519 7.98814 3.61321 7.97178C3.5571 7.96526 3.50408 7.95917 3.42069 8.10364C3.35895 8.21061 3.30434 8.37031 3.26473 8.50789L4.73892 9.35901C4.90706 9.45609 4.96467 9.67111 4.86759 9.83925C4.80248 9.95203 4.68431 10.0151 4.56281 10.0151ZM19.1249 9.85903C19.0897 9.85903 19.0538 9.85373 19.0185 9.84248C18.8334 9.78375 18.731 9.58612 18.7897 9.40106C18.9211 8.98644 19.1782 8.63183 19.5074 8.36788L19.1879 7.81442C18.7947 7.96756 18.3591 8.01284 17.9342 7.91942C17.7446 7.8777 17.6247 7.69015 17.6664 7.50049C17.7081 7.31093 17.8958 7.19121 18.0853 7.23265C18.3366 7.28801 18.5936 7.27197 18.8324 7.19852L18.6445 6.87321C18.5474 6.70506 18.6051 6.49004 18.7732 6.39297C18.9413 6.29593 19.1564 6.3535 19.2534 6.52164L19.4413 6.84695C19.6243 6.67689 19.7665 6.46234 19.8443 6.21704C19.903 6.03193 20.1006 5.92946 20.2858 5.9882C20.4708 6.04693 20.5733 6.24456 20.5146 6.42962C20.3831 6.84424 20.1261 7.19885 19.7968 7.4628L20.1163 8.01626C20.5096 7.86303 20.9452 7.81779 21.37 7.91121C21.5596 7.95293 21.6796 8.14048 21.6378 8.33014C21.5961 8.51975 21.4085 8.63971 21.219 8.59799C20.9676 8.54263 20.7106 8.55866 20.4719 8.63211L20.6597 8.95743C20.7568 9.12557 20.6992 9.34059 20.531 9.43767C20.3629 9.53465 20.1479 9.47718 20.0508 9.30899L19.863 8.98372C19.6799 9.15374 19.5377 9.36829 19.4599 9.61364C19.4124 9.76336 19.274 9.85903 19.1249 9.85903ZM7.13712 6.69423C7.10698 6.69423 7.07637 6.69034 7.0459 6.68214C6.85835 6.63189 6.74707 6.43909 6.79727 6.25154L7.07224 5.22544L7.0429 5.21756C6.85535 5.16736 6.74407 4.97451 6.79427 4.78697C6.84452 4.59942 7.03736 4.4879 7.22487 4.53838L7.25426 4.54626L7.46801 3.74858L7.29377 3.84917C7.12563 3.94621 6.91061 3.88864 6.81354 3.7205C6.71646 3.55236 6.77407 3.33734 6.94221 3.24026L7.85145 2.7153C8.01378 2.61762 8.23977 2.67804 8.33169 2.84398L8.85665 3.75322C8.95373 3.92136 8.89612 4.13638 8.72798 4.23346C8.55983 4.33045 8.34482 4.27293 8.24774 4.10479L8.14714 3.93055L7.93339 4.72823L7.96273 4.73611C8.15028 4.78631 8.26156 4.97916 8.21136 5.1667C8.16111 5.35425 7.96831 5.46582 7.78076 5.41528L7.75137 5.40741L7.47645 6.43356C7.4344 6.59064 7.29232 6.69423 7.13712 6.69423ZM16.5581 6.19623C16.4251 6.19623 16.3025 6.1209 16.243 6.00048L15.9723 5.45307L15.3629 5.49235C15.2213 5.50177 15.088 5.42457 15.0251 5.29735L14.6506 4.53984C14.5645 4.36579 14.6359 4.15494 14.8099 4.06888C14.984 3.98286 15.1949 4.05421 15.2809 4.22816L15.5515 4.77557L16.161 4.73629C16.3028 4.72692 16.4358 4.80412 16.4988 4.93129L16.7694 5.47871L17.3788 5.43942C17.5728 5.42658 17.7398 5.57386 17.7523 5.76765C17.7648 5.96143 17.6179 6.12859 17.4241 6.1411L16.5808 6.19548C16.5731 6.19599 16.5656 6.19623 16.5581 6.19623ZM12.8158 5.25525C12.6077 5.25525 12.4103 5.18864 12.245 5.06269C12.0906 4.94494 12.0608 4.72434 12.1785 4.56993C12.2962 4.41557 12.5169 4.38576 12.6713 4.50346C12.7004 4.52568 12.7491 4.55212 12.8158 4.55212C12.9475 4.55212 13.0547 4.44496 13.0547 4.3132C13.0547 4.19333 13.0143 3.89638 12.7619 3.21397H12.2163L11.6106 4.41341C11.5509 4.53182 11.4295 4.6065 11.2968 4.6065C11.1641 4.6065 11.0428 4.53182 10.983 4.41341L10.2798 3.02089C10.1923 2.84754 10.2619 2.63609 10.4352 2.54857C10.6085 2.46119 10.8199 2.53066 10.9074 2.70391L11.2968 3.47492L11.6861 2.70391C11.7458 2.58551 11.8672 2.51083 11.9999 2.51083H12.8236L13.1203 2.09655C13.2333 1.93872 13.4529 1.90234 13.6108 2.01541C13.7687 2.12842 13.805 2.34808 13.6919 2.50591L13.4002 2.91335C13.6406 3.55414 13.7577 4.01315 13.7577 4.3132C13.7579 4.83262 13.3352 5.25525 12.8158 5.25525ZM17.2612 4.9784C17.1281 4.9784 17.0057 4.90308 16.9461 4.78265L16.6755 4.23524L16.066 4.27452C15.9244 4.28441 15.7912 4.20674 15.7283 4.07952L15.3537 3.32201C15.2677 3.14797 15.339 2.93707 15.5131 2.85106C15.6872 2.76499 15.898 2.83638 15.984 3.01034L16.2547 3.55775L16.8641 3.51847C17.0059 3.50956 17.139 3.58625 17.2019 3.71347L17.4725 4.26088L18.082 4.2216C18.2757 4.20876 18.4429 4.35604 18.4554 4.54982C18.4679 4.74356 18.321 4.91076 18.1273 4.92328L17.2839 4.97765C17.2763 4.97817 17.2687 4.9784 17.2612 4.9784Z" fill="#3B3B3B"/>
</g>
<defs>
<clipPath id="clip0_13_9449">
<rect width="24" height="24" fill="white" transform="translate(0 0.333328)"/>
</clipPath>
</defs>
</svg>
