<svg width="24" height="25" viewBox="0 0 24 25" fill="none" xmlns="http://www.w3.org/2000/svg">
<g clip-path="url(#clip0_13_9457)">
<path d="M19.6121 7.79263C18.4338 7.34526 17.1449 7.27903 15.927 7.60327C15.858 7.22995 15.7785 6.86252 15.6776 6.51434C15.1023 4.42132 13.9265 2.54268 12.2954 1.11048C12.2136 1.03924 12.1088 1 12.0003 1C11.8918 1 11.787 1.03924 11.7052 1.11048C10.0749 2.54148 8.89933 4.41854 8.32351 6.50998C8.22087 6.86201 8.1421 7.22995 8.07308 7.60327C6.85523 7.27886 5.56625 7.34509 4.38806 7.79263C4.30274 7.82487 4.22927 7.88233 4.17741 7.95737C4.12555 8.0324 4.09778 8.12144 4.09778 8.21265C4.09778 8.30386 4.12555 8.39291 4.17741 8.46794C4.22927 8.54297 4.30274 8.60043 4.38806 8.63268C5.60398 9.09051 6.60122 9.99213 7.1789 11.1559C6.89333 11.2465 6.644 11.4256 6.46701 11.6673C6.29001 11.909 6.19453 12.2008 6.19439 12.5004V12.5943C6.19449 12.8447 6.26126 13.0905 6.38784 13.3065C6.51442 13.5225 6.69624 13.7009 6.91462 13.8233C6.91 13.8282 6.90615 13.8338 6.90153 13.8387C6.14929 14.6132 5.58323 15.5487 5.24625 16.5744C4.90927 17.6001 4.81021 18.6891 4.95659 19.7588C5.10297 20.8285 5.49094 21.8508 6.0911 22.7483C6.69126 23.6457 7.48785 24.3948 8.42049 24.9387C8.48913 24.9789 8.56725 25 8.6468 25H15.3533C15.4328 25 15.5108 24.979 15.5794 24.9389C16.6291 24.324 17.504 23.4508 18.1209 22.4022C18.7379 21.3537 19.0763 20.1648 19.104 18.9485C19.1067 18.9315 19.1084 18.9144 19.1092 18.8972C19.1092 18.8885 19.1071 18.8803 19.1066 18.8716C19.1066 18.8459 19.1092 18.8202 19.1092 18.7946C19.114 16.9431 18.3922 15.1636 17.0988 13.8387C17.0942 13.8338 17.0904 13.8284 17.086 13.8238C17.3047 13.7015 17.4869 13.5231 17.6139 13.307C17.7408 13.0909 17.8079 12.8449 17.8083 12.5943V12.5004C17.8081 12.2005 17.7123 11.9084 17.5348 11.6666C17.3574 11.4248 17.1075 11.2458 16.8215 11.1556C17.3989 9.99183 18.3961 9.09024 19.6121 8.63268C19.6974 8.60043 19.7709 8.54297 19.8227 8.46794C19.8746 8.39291 19.9023 8.30386 19.9023 8.21265C19.9023 8.12144 19.8746 8.0324 19.8227 7.95737C19.7709 7.88233 19.6974 7.82487 19.6121 7.79263ZM12.0001 2.05547C13.348 3.33872 14.3209 4.96503 14.814 6.75963C14.9208 7.13877 15.0065 7.52355 15.0706 7.9122C14.6339 8.10121 14.2213 8.34179 13.8418 8.62883C13.5044 7.79084 12.9748 7.04381 12.2959 6.44789C12.2142 6.37655 12.1093 6.33724 12.0008 6.33724C11.8923 6.33724 11.7875 6.37655 11.7058 6.44789C11.0267 7.04371 10.4972 7.79077 10.1599 8.62883C9.78037 8.34172 9.36784 8.10112 8.93109 7.9122C8.99504 7.52208 9.0807 7.13584 9.18767 6.75527C9.6809 4.96232 10.6532 3.33758 12.0001 2.05547ZM10.5968 10.9665V10.9068C10.601 10.4355 10.6693 9.96705 10.8 9.51429C11.0185 8.72221 11.4309 7.99707 12.0001 7.40442C12.5699 7.99821 12.9827 8.72469 13.2011 9.51814C13.3308 9.96872 13.3989 10.4348 13.4033 10.9037V10.9655C13.4033 11.0068 13.4033 11.0484 13.4018 11.0897H10.5984C10.5973 11.0497 10.5968 11.0078 10.5968 10.9665ZM5.81388 8.34633C6.5361 8.24445 7.2718 8.29944 7.97085 8.50754C8.6699 8.71564 9.31588 9.07197 9.86479 9.55226C9.7593 9.99471 9.70362 10.4476 9.69878 10.9024V10.9665C9.69878 11.0081 9.70109 11.0492 9.70186 11.0907H8.13235C7.65726 9.96103 6.84832 9.00349 5.81388 8.34633ZM18.2009 18.4482H16.4076C16.2885 18.4482 16.1743 18.4955 16.0901 18.5797C16.0059 18.6639 15.9586 18.7781 15.9586 18.8972C15.9586 19.0163 16.0059 19.1305 16.0901 19.2147C16.1743 19.2989 16.2885 19.3462 16.4076 19.3462H18.1837C18.0961 20.3143 17.7834 21.2485 17.2706 22.0743C16.7577 22.9 16.0589 23.5944 15.2299 24.102H8.77047C7.94155 23.5943 7.24276 22.8999 6.72987 22.0742C6.21698 21.2485 5.90419 20.3143 5.81645 19.3462H7.76929C7.88838 19.3462 8.00259 19.2989 8.08679 19.2147C8.171 19.1305 8.21831 19.0163 8.21831 18.8972C8.21831 18.7781 8.171 18.6639 8.08679 18.5797C8.00259 18.4955 7.88838 18.4482 7.76929 18.4482H5.79926C5.87849 16.9522 6.49928 15.5362 7.54581 14.4643C7.68515 14.3204 7.81378 14.1666 7.93068 14.004H16.0697C16.1864 14.1672 16.315 14.3216 16.4546 14.4658C17.5005 15.5374 18.1212 16.9528 18.2009 18.4482ZM16.9103 12.5943C16.9099 12.7299 16.8558 12.8598 16.76 12.9556C16.6641 13.0515 16.5342 13.1055 16.3986 13.1059H7.60149C7.46618 13.1054 7.33658 13.0513 7.24115 12.9554C7.14571 12.8595 7.09222 12.7296 7.09243 12.5943V12.5004C7.09222 12.3651 7.14571 12.2352 7.24115 12.1393C7.33658 12.0434 7.46618 11.9892 7.60149 11.9888H16.3986C16.5342 11.9892 16.6641 12.0432 16.76 12.1391C16.8558 12.2349 16.9099 12.3648 16.9103 12.5004V12.5943ZM15.8678 11.0907H14.298C14.298 11.0492 14.3013 11.0081 14.3013 10.9665V10.8983C14.2964 10.4447 14.2407 9.99317 14.1353 9.55201C14.6842 9.07174 15.3301 8.71542 16.0291 8.50731C16.7282 8.29921 17.4638 8.24422 18.186 8.34607C17.1516 9.00331 16.3427 9.96096 15.8678 11.0907Z" fill="#3B3B3B"/>
<path d="M13.8523 17.496C13.9714 17.496 14.0856 17.4487 14.1698 17.3645C14.254 17.2803 14.3013 17.1661 14.3013 17.047C14.3013 16.9279 14.254 16.8137 14.1698 16.7295C14.0856 16.6453 13.9714 16.598 13.8523 16.598H12.0018C11.8827 16.598 11.7685 16.6453 11.6843 16.7295C11.6001 16.8137 11.5528 16.9279 11.5528 17.047V18.4482H10.5996V17.0467C10.5996 16.9276 10.5523 16.8134 10.4681 16.7292C10.3839 16.645 10.2697 16.5977 10.1506 16.5977C10.0315 16.5977 9.91728 16.645 9.83308 16.7292C9.74887 16.8134 9.70156 16.9276 9.70156 17.0467V18.8972C9.70156 19.0163 9.74887 19.1305 9.83308 19.2147C9.91728 19.2989 10.0315 19.3462 10.1506 19.3462H11.5518V20.2992H10.1501C10.031 20.2992 9.91677 20.3465 9.83256 20.4307C9.74836 20.5149 9.70105 20.6291 9.70105 20.7482C9.70105 20.8673 9.74836 20.9815 9.83256 21.0657C9.91677 21.1499 10.031 21.1972 10.1501 21.1972H12C12.1191 21.1972 12.2333 21.1499 12.3175 21.0657C12.4017 20.9815 12.449 20.8673 12.449 20.7482V19.3472H13.402V20.7484C13.402 20.8675 13.4493 20.9817 13.5335 21.0659C13.6177 21.1501 13.7319 21.1975 13.851 21.1975C13.9701 21.1975 14.0843 21.1501 14.1685 21.0659C14.2527 20.9817 14.3 20.8675 14.3 20.7484V18.8982C14.3 18.8392 14.2885 18.7808 14.2659 18.7264C14.2434 18.6719 14.2103 18.6223 14.1686 18.5806C14.1269 18.5389 14.0774 18.5059 14.0229 18.4833C13.9684 18.4608 13.91 18.4492 13.851 18.4492H12.4501V17.496H13.8523Z" fill="#3B3B3B"/>
</g>
<defs>
<clipPath id="clip0_13_9457">
<rect width="24" height="24" fill="white" transform="translate(0 0.666687)"/>
</clipPath>
</defs>
</svg>
