<svg width="24" height="25" viewBox="0 0 24 25" fill="none" xmlns="http://www.w3.org/2000/svg">
<g clip-path="url(#clip0_222_21335)">
<path d="M12 24.333C11.1828 24.333 10.3662 24.2503 9.57276 24.0873C9.38254 24.0482 9.26006 23.8624 9.29915 23.6722C9.3382 23.482 9.52401 23.3595 9.71428 23.3986C10.4613 23.5521 11.2303 23.6299 12.0001 23.6299C15.0176 23.6299 17.8545 22.4548 19.9882 20.3211C22.1219 18.1874 23.2969 15.3505 23.2969 12.333C23.2969 10.759 22.9795 9.23606 22.3535 7.80641C21.7488 6.42522 20.886 5.19531 19.7892 4.15087C19.6486 4.017 19.6431 3.79443 19.777 3.65381C19.9109 3.51313 20.1335 3.50779 20.2741 3.64162C21.4389 4.75083 22.3552 6.05716 22.9977 7.52441C23.6628 9.0435 24 10.6614 24 12.333C24 15.5384 22.7518 18.5519 20.4853 20.8184C18.2188 23.0849 15.2053 24.333 12 24.333ZM8.30108 23.7335C8.2641 23.7335 8.2265 23.7277 8.18947 23.7152C5.82362 22.9235 3.79058 21.4358 2.31007 19.4129C0.798851 17.3479 0 14.8997 0 12.333C0 9.12769 1.2482 6.1142 3.51472 3.84768C5.78124 1.58116 8.79468 0.333008 12 0.333008C14.4933 0.333008 16.884 1.09052 18.9138 2.52364C19.0724 2.63567 19.1102 2.855 18.9982 3.01363C18.8862 3.17225 18.6668 3.20999 18.5082 3.09805C16.5978 1.74916 14.3472 1.03614 12 1.03614C8.98251 1.03614 6.14561 2.21121 4.01193 4.34489C1.87821 6.47857 0.703132 9.31547 0.703132 12.333C0.703132 14.7494 1.45501 17.054 2.8775 18.9976C4.27157 20.9025 6.18559 22.3033 8.4126 23.0485C8.59672 23.1101 8.69605 23.3093 8.63441 23.4934C8.58519 23.6406 8.44813 23.7335 8.30108 23.7335ZM11.8749 22.8229C11.4591 22.8229 11.0433 22.7225 10.7193 22.5217C10.5542 22.4194 10.5034 22.2027 10.6057 22.0377C10.7079 21.8727 10.9246 21.8217 11.0897 21.924C11.5154 22.1878 12.2345 22.1878 12.6601 21.924C12.7977 21.8388 12.822 21.7217 12.7989 21.6405C12.7833 21.5857 12.7384 21.5204 12.6131 21.5204C12.4189 21.5204 12.2615 21.3631 12.2615 21.1689C12.2615 20.9747 12.4189 20.8173 12.6131 20.8173C13.0277 20.8173 13.3661 21.0648 13.4751 21.4479C13.5907 21.8537 13.4121 22.2852 13.0305 22.5216C12.7065 22.7225 12.2907 22.8229 11.8749 22.8229ZM15.9137 21.8787C15.854 21.8787 15.7936 21.8636 15.7382 21.8315C15.5701 21.7345 15.5124 21.5195 15.6095 21.3514C15.6592 21.2652 15.7163 21.1812 15.7799 21.0998L15.1336 19.9803C15.0314 19.9947 14.9301 20.0022 14.8307 20.0022C14.8306 20.0022 14.8306 20.0022 14.8306 20.0022C14.6364 20.0022 14.479 19.8448 14.479 19.6506C14.479 19.4564 14.6364 19.2991 14.8306 19.2991C14.9513 19.2991 15.0782 19.2825 15.2067 19.252C15.2207 19.2475 15.2349 19.244 15.2492 19.2414C15.6519 19.1364 16.066 18.8973 16.3582 18.6011C16.3676 18.5901 16.3778 18.5795 16.3887 18.5695C16.4794 18.4735 16.5571 18.3719 16.6174 18.2674C16.7145 18.0992 16.9295 18.0415 17.0977 18.1387C17.2658 18.2357 17.3235 18.4507 17.2264 18.6189C17.1767 18.705 17.1196 18.789 17.056 18.8704L17.7023 19.99C17.8045 19.9756 17.9058 19.9681 18.0051 19.9681H18.0053C18.1995 19.9682 18.3569 20.1255 18.3568 20.3197C18.3568 20.5139 18.1994 20.6712 18.0053 20.6712C18.0052 20.6712 18.0051 20.6712 18.0051 20.6712C17.3594 20.6712 16.5412 21.1436 16.2184 21.7028C16.1534 21.8156 16.0352 21.8787 15.9137 21.8787ZM15.8316 19.783L16.2998 20.594C16.5152 20.4309 16.7553 20.2922 17.0043 20.1873L16.5361 19.3763C16.3207 19.5394 16.0806 19.678 15.8316 19.783ZM7.49393 21.7512C7.26026 21.7512 7.02011 21.6905 6.79924 21.5629C6.49816 21.3891 6.27587 21.1172 6.17336 20.7972C6.0669 20.4651 6.10098 20.1217 6.26922 19.8302C6.48531 19.4559 6.85338 19.2455 7.14912 19.0765C7.33924 18.9679 7.53584 18.8555 7.59818 18.7475C7.65326 18.6521 7.63268 18.6103 7.62593 18.5966C7.59964 18.5432 7.51146 18.481 7.39371 18.4653C7.20124 18.4398 7.06591 18.2631 7.09146 18.0705C7.11701 17.8781 7.29382 17.7422 7.4862 17.7683C7.82647 17.8135 8.12174 18.0118 8.25669 18.2859C8.38133 18.539 8.36371 18.8278 8.2071 19.099C8.04973 19.3716 7.76923 19.5319 7.49801 19.687C7.24151 19.8336 6.99921 19.972 6.87813 20.1818C6.81025 20.2994 6.79778 20.4417 6.84293 20.5827C6.892 20.7359 7.00132 20.8677 7.15076 20.954C7.44785 21.1256 7.80898 21.0582 7.9558 20.804C8.07983 20.5892 8.18455 20.213 8.21445 20.0862C8.23995 19.978 8.3151 19.8882 8.41719 19.8441C8.51929 19.8001 8.63615 19.8068 8.73243 19.8624L8.97834 20.0043C9.14648 20.1014 9.20409 20.3164 9.10701 20.4846C9.03782 20.6045 8.90835 20.6682 8.77926 20.6597C8.72413 20.8222 8.65157 21.0051 8.56475 21.1556C8.34294 21.5397 7.92978 21.7512 7.49393 21.7512ZM11.3869 21.5205C10.9723 21.5205 10.634 21.273 10.5249 20.8899C10.4093 20.4841 10.588 20.0526 10.9695 19.8161C11.6174 19.4144 12.6327 19.4144 13.2807 19.8161C13.4458 19.9185 13.4966 20.1352 13.3943 20.3002C13.292 20.4652 13.0753 20.516 12.9102 20.4138C12.4846 20.1499 11.7655 20.1499 11.3399 20.4138C11.2023 20.4991 11.178 20.6162 11.2011 20.6973C11.2167 20.7521 11.2616 20.8174 11.3869 20.8174C11.5811 20.8174 11.7385 20.9748 11.7385 21.169C11.7385 21.3632 11.5811 21.5205 11.3869 21.5205ZM4.2659 18.7737C4.18223 18.7737 4.09926 18.7439 4.03345 18.6859C3.99201 18.6495 3.62347 18.3202 3.43841 17.9996C3.13841 17.48 3.26281 16.9334 3.45894 16.4609L2.70467 16.4142C2.51088 16.4022 2.36351 16.2354 2.37551 16.0416C2.38751 15.8478 2.55438 15.7006 2.74817 15.7125L3.78543 15.7767L4.24837 14.8463C4.33485 14.6724 4.54589 14.6015 4.71975 14.6881C4.89356 14.7746 4.96439 14.9857 4.87791 15.1595L4.54729 15.8239L5.28802 15.8698C5.4818 15.8818 5.62918 16.0487 5.61718 16.2424C5.60513 16.4362 5.43844 16.5829 5.24452 16.5716L4.20974 16.5075C3.96051 17.0375 3.8818 17.3614 4.04732 17.6481C4.1091 17.755 4.2201 17.8821 4.31943 17.9852L5.79362 17.1341C5.96176 17.0371 6.17678 17.0946 6.27386 17.2628C6.37094 17.4309 6.31333 17.6459 6.14518 17.743L4.44164 18.7265C4.38684 18.7582 4.32623 18.7737 4.2659 18.7737ZM12 18.708C8.48479 18.708 5.62496 15.8482 5.62496 12.333C5.62496 12.1388 5.78237 11.9814 5.97653 11.9814C6.17068 11.9814 6.32809 12.1388 6.32809 12.333C6.32809 15.4605 8.87249 18.0049 12 18.0049C15.1276 18.0049 17.672 15.4605 17.672 12.333C17.672 9.20545 15.1276 6.66105 12 6.66105C10.6992 6.66105 9.47573 7.08936 8.46191 7.8996C7.47743 8.68636 6.77482 9.79046 6.48353 11.0085C6.43839 11.1973 6.24859 11.3138 6.05982 11.2686C5.87101 11.2235 5.75452 11.0338 5.79967 10.845C6.12718 9.47541 6.9168 8.23438 8.02292 7.35031C9.14648 6.45241 10.5589 5.95792 12 5.95792C15.5153 5.95792 18.3751 8.81779 18.3751 12.333C18.3751 15.8482 15.5152 18.708 12 18.708ZM20.4269 18.6469C20.3672 18.6469 20.3068 18.6317 20.2514 18.5998C19.9273 18.4126 19.714 18.106 19.6351 17.7674C19.3024 17.8684 18.9304 17.8371 18.6062 17.6498C17.9847 17.291 17.771 16.4935 18.1298 15.872C18.4886 15.2505 19.2861 15.0368 19.9076 15.3956C20.2087 15.5695 20.4241 15.8501 20.514 16.1859C20.5177 16.1996 20.5211 16.2134 20.5244 16.2272C20.5379 16.2231 20.5516 16.2192 20.5653 16.2155C20.9011 16.1255 21.2518 16.1717 21.5529 16.3455C21.7211 16.4426 21.7787 16.6576 21.6816 16.8257C21.5845 16.9939 21.3694 17.0514 21.2013 16.9544C21.0629 16.8745 20.9017 16.8532 20.7474 16.8947C20.593 16.936 20.4639 17.035 20.384 17.1734C20.2191 17.4591 20.3173 17.8258 20.603 17.9908C20.7712 18.0879 20.8288 18.3029 20.7317 18.471C20.6665 18.5839 20.5484 18.6469 20.4269 18.6469ZM19.2579 15.9246C19.0509 15.9246 18.8494 16.0319 18.7387 16.2236C18.5737 16.5094 18.672 16.876 18.9577 17.041C19.2434 17.2059 19.6101 17.1076 19.7751 16.822C19.855 16.6835 19.8762 16.5223 19.8348 16.3679C19.7935 16.2135 19.6944 16.0845 19.5561 16.0046C19.4621 15.9504 19.3593 15.9246 19.2579 15.9246ZM12 17.3018C11.8059 17.3018 11.6485 17.1444 11.6485 16.9502V15.4456C11.3319 15.4101 11.0294 15.3272 10.7483 15.2042L9.99586 16.5074C9.89878 16.6756 9.68377 16.733 9.51562 16.6361C9.34748 16.539 9.28987 16.324 9.38695 16.1559L10.1399 14.8516C9.88917 14.666 9.66703 14.4438 9.4814 14.1931L8.17719 14.9461C8.00909 15.043 7.79403 14.9856 7.69695 14.8174C7.59987 14.6492 7.65748 14.4342 7.82562 14.3371L9.1289 13.5847C9.00585 13.3036 8.92298 13.0011 8.88745 12.6846H7.38279C7.18863 12.6846 7.03122 12.5272 7.03122 12.333C7.03122 12.1388 7.18863 11.9814 7.38279 11.9814H8.88745C8.92298 11.6648 9.00585 11.3624 9.1289 11.0813L7.82562 10.3288C7.65748 10.2317 7.59987 10.0167 7.69695 9.84859C7.79403 9.6804 8.00905 9.62283 8.17719 9.71991L9.4814 10.4729C9.66703 10.2222 9.88927 9.99999 10.14 9.81432L9.387 8.51015C9.28992 8.34201 9.34753 8.12699 9.51567 8.02991C9.68377 7.93293 9.89883 7.9904 9.99591 8.15858L10.7484 9.46182C11.0294 9.33881 11.3319 9.25589 11.6485 9.22041V7.71575C11.6485 7.52155 11.8059 7.36419 12.0001 7.36419C12.1942 7.36419 12.3516 7.52155 12.3516 7.71575V9.22055C12.6624 9.25561 12.9662 9.3368 13.2521 9.46139L14.0042 8.15863C14.1013 7.9904 14.3163 7.93293 14.4845 8.02996C14.6526 8.12704 14.7102 8.34206 14.6131 8.5102L13.6966 10.0975C13.6941 10.102 13.6915 10.1065 13.6887 10.1109C13.5871 10.2735 13.3738 10.3248 13.2094 10.2261C13.2077 10.2251 13.2061 10.2241 13.2045 10.2231C12.8396 10.0143 12.4234 9.90394 12 9.90394C10.6607 9.90394 9.57098 10.9936 9.57098 12.333C9.57098 13.6724 10.6607 14.7621 12 14.7621C13.3394 14.7621 14.4291 13.6724 14.4291 12.333C14.4291 11.9098 14.3189 11.4939 14.1103 11.129C14.1075 11.1247 14.1049 11.1203 14.1024 11.1159C14.0073 10.9479 14.0651 10.7347 14.2323 10.6382L15.8229 9.71991C15.991 9.62288 16.206 9.6804 16.3031 9.84859C16.4002 10.0167 16.3426 10.2317 16.1744 10.3288L14.8717 11.081C14.9962 11.3669 15.0774 11.6706 15.1124 11.9814H16.6172C16.8114 11.9814 16.9688 12.1388 16.9688 12.333C16.9688 12.5272 16.8114 12.6846 16.6172 12.6846H15.1126C15.077 13.0011 14.9941 13.3036 14.8711 13.5847L16.1744 14.3371C16.3425 14.4342 16.4001 14.6492 16.303 14.8174C16.206 14.9855 15.991 15.043 15.8228 14.9461L14.5185 14.1931C14.3329 14.4438 14.1107 14.666 13.86 14.8516L14.613 16.1559C14.7101 16.324 14.6525 16.539 14.4843 16.6361C14.3162 16.7331 14.1012 16.6756 14.0041 16.5074L13.2516 15.2042C12.9705 15.3272 12.6681 15.4101 12.3515 15.4456V16.9502C12.3516 17.1444 12.1942 17.3018 12 17.3018ZM21.2122 14.0908C21.0181 14.0908 20.8607 13.9335 20.8607 13.7392C20.8607 13.545 21.0181 13.3877 21.2122 13.3877C21.4061 13.3877 21.5638 13.23 21.5638 13.0361C21.5638 12.8422 21.4061 12.6846 21.2122 12.6846H19.9039C19.7098 12.6846 19.5524 12.5272 19.5524 12.333C19.5524 12.1388 19.7098 11.9814 19.9039 11.9814H21.2122C21.4061 11.9814 21.5638 11.8237 21.5638 11.6299C21.5638 11.436 21.4061 11.2783 21.2122 11.2783C21.0181 11.2783 20.8607 11.1209 20.8607 10.9267C20.8607 10.7325 21.0181 10.5752 21.2122 10.5752C21.7938 10.5752 22.2669 11.0483 22.2669 11.6299C22.2669 11.8997 22.1651 12.1463 21.9977 12.333C22.1651 12.5197 22.2669 12.7663 22.2669 13.0361C22.2669 13.6177 21.7938 14.0908 21.2122 14.0908ZM4.14848 14.0908C3.95432 14.0908 3.79691 13.9335 3.79691 13.7392V10.8303C3.79691 10.636 3.95432 10.4787 4.14848 10.4787C4.34264 10.4787 4.50004 10.636 4.50004 10.8303V13.7392C4.50004 13.9335 4.34264 14.0908 4.14848 14.0908ZM2.74221 14.0908C2.54806 14.0908 2.39065 13.9335 2.39065 13.7392V13.3274C1.98143 13.1823 1.68752 12.7913 1.68752 12.333C1.68752 11.8746 1.98143 11.4836 2.39065 11.3385V10.9267C2.39065 10.7325 2.54806 10.5752 2.74221 10.5752C2.93637 10.5752 3.09378 10.7325 3.09378 10.9267V11.6299C3.09378 11.8241 2.93637 11.9814 2.74221 11.9814C2.54834 11.9814 2.39065 12.1391 2.39065 12.333C2.39065 12.5269 2.54834 12.6846 2.74221 12.6846C2.93637 12.6846 3.09378 12.8419 3.09378 13.0361V13.7392C3.09378 13.9335 2.93637 14.0908 2.74221 14.0908ZM4.56281 10.0148C4.50318 10.0148 4.44272 9.99957 4.38735 9.9676L2.68381 8.98406C2.55312 8.90864 2.48515 8.75821 2.51491 8.61023C2.52579 8.55614 2.62662 8.07233 2.81173 7.75175C3.07147 7.30194 3.43456 7.24315 3.69374 7.27297C3.97644 7.30554 4.25878 7.45761 4.52372 7.61061L5.07947 7.93152C5.12841 7.95974 5.17163 7.96874 5.2081 7.95838C5.24025 7.94919 5.26946 7.92411 5.29041 7.88778C5.35402 7.77753 5.32716 7.65247 5.21049 7.51597L4.11426 6.23308C3.98816 6.08547 4.00555 5.86356 4.15317 5.73742C4.30078 5.61132 4.52264 5.62872 4.64883 5.77633L5.74506 7.05917C6.05734 7.42466 6.115 7.8658 5.89937 8.2393C5.78677 8.43435 5.61001 8.57465 5.40165 8.63432C5.18133 8.69742 4.94208 8.66404 4.72795 8.54043L4.17215 8.21952C3.96576 8.10037 3.75519 7.98782 3.61321 7.97146C3.5571 7.96494 3.50408 7.95885 3.42069 8.10332C3.35895 8.21029 3.30434 8.36999 3.26473 8.50757L4.73892 9.35869C4.90706 9.45577 4.96467 9.67079 4.86759 9.83893C4.80248 9.95171 4.68431 10.0148 4.56281 10.0148ZM19.1249 9.85871C19.0897 9.85871 19.0538 9.85341 19.0185 9.84216C18.8334 9.78343 18.731 9.5858 18.7897 9.40074C18.9211 8.98612 19.1782 8.63151 19.5074 8.36755L19.1879 7.8141C18.7947 7.96724 18.3591 8.01252 17.9342 7.9191C17.7446 7.87738 17.6247 7.68983 17.6664 7.50017C17.7081 7.31061 17.8958 7.19089 18.0853 7.23233C18.3366 7.28769 18.5936 7.27165 18.8324 7.1982L18.6445 6.87288C18.5474 6.70474 18.6051 6.48972 18.7732 6.39264C18.9413 6.29561 19.1564 6.35318 19.2534 6.52132L19.4413 6.84663C19.6243 6.67657 19.7665 6.46202 19.8443 6.21672C19.903 6.03161 20.1006 5.92914 20.2858 5.98788C20.4708 6.04661 20.5733 6.24424 20.5146 6.4293C20.3831 6.84391 20.1261 7.19853 19.7968 7.46248L20.1163 8.01594C20.5096 7.86271 20.9452 7.81747 21.37 7.91089C21.5596 7.95261 21.6796 8.14016 21.6378 8.32982C21.5961 8.51943 21.4085 8.63939 21.219 8.59767C20.9676 8.54231 20.7106 8.55834 20.4719 8.63179L20.6597 8.95711C20.7568 9.12525 20.6992 9.34027 20.531 9.43735C20.3629 9.53433 20.1479 9.47686 20.0508 9.30867L19.863 8.9834C19.6799 9.15342 19.5377 9.36797 19.4599 9.61332C19.4124 9.76304 19.274 9.85871 19.1249 9.85871ZM7.13712 6.69391C7.10698 6.69391 7.07637 6.69002 7.0459 6.68182C6.85835 6.63157 6.74707 6.43877 6.79727 6.25122L7.07224 5.22512L7.0429 5.21724C6.85535 5.16704 6.74407 4.97419 6.79427 4.78665C6.84452 4.5991 7.03736 4.48758 7.22487 4.53806L7.25426 4.54594L7.46801 3.74826L7.29377 3.84885C7.12563 3.94589 6.91061 3.88832 6.81354 3.72018C6.71646 3.55204 6.77407 3.33702 6.94221 3.23994L7.85145 2.71498C8.01378 2.6173 8.23977 2.67772 8.33169 2.84366L8.85665 3.7529C8.95373 3.92104 8.89612 4.13606 8.72798 4.23314C8.55983 4.33013 8.34482 4.27261 8.24774 4.10447L8.14714 3.93023L7.93339 4.72791L7.96273 4.73579C8.15028 4.78599 8.26156 4.97883 8.21136 5.16638C8.16111 5.35393 7.96831 5.4655 7.78076 5.41496L7.75137 5.40709L7.47645 6.43324C7.4344 6.59032 7.29232 6.69391 7.13712 6.69391ZM16.5581 6.19591C16.4251 6.19591 16.3025 6.12058 16.243 6.00016L15.9723 5.45275L15.3629 5.49203C15.2213 5.50145 15.088 5.42425 15.0251 5.29703L14.6506 4.53952C14.5645 4.36547 14.6359 4.15462 14.8099 4.06856C14.984 3.98254 15.1949 4.05389 15.2809 4.22784L15.5515 4.77525L16.161 4.73597C16.3028 4.7266 16.4358 4.8038 16.4988 4.93097L16.7694 5.47839L17.3788 5.4391C17.5728 5.42626 17.7398 5.57354 17.7523 5.76733C17.7648 5.96111 17.6179 6.12827 17.4241 6.14078L16.5808 6.19516C16.5731 6.19567 16.5656 6.19591 16.5581 6.19591ZM12.8158 5.25493C12.6077 5.25493 12.4103 5.18832 12.245 5.06237C12.0906 4.94462 12.0608 4.72402 12.1785 4.56961C12.2962 4.41525 12.5169 4.38544 12.6713 4.50314C12.7004 4.52536 12.7491 4.5518 12.8158 4.5518C12.9475 4.5518 13.0547 4.44464 13.0547 4.31287C13.0547 4.19301 13.0143 3.89606 12.7619 3.21365H12.2163L11.6106 4.41309C11.5509 4.5315 11.4295 4.60617 11.2968 4.60617C11.1641 4.60617 11.0428 4.5315 10.983 4.41309L10.2798 3.02057C10.1923 2.84722 10.2619 2.63576 10.4352 2.54825C10.6085 2.46087 10.8199 2.53034 10.9074 2.70359L11.2968 3.4746L11.6861 2.70359C11.7458 2.58519 11.8672 2.51051 11.9999 2.51051H12.8236L13.1203 2.09623C13.2333 1.9384 13.4529 1.90202 13.6108 2.01509C13.7687 2.1281 13.805 2.34776 13.6919 2.50559L13.4002 2.91303C13.6406 3.55382 13.7577 4.01283 13.7577 4.31287C13.7579 4.8323 13.3352 5.25493 12.8158 5.25493ZM17.2612 4.97808C17.1281 4.97808 17.0057 4.90276 16.9461 4.78233L16.6755 4.23492L16.066 4.2742C15.9244 4.28409 15.7912 4.20642 15.7283 4.0792L15.3537 3.32169C15.2677 3.14764 15.339 2.93675 15.5131 2.85074C15.6872 2.76467 15.898 2.83606 15.984 3.01002L16.2547 3.55743L16.8641 3.51815C17.0059 3.50924 17.139 3.58593 17.2019 3.71315L17.4725 4.26056L18.082 4.22128C18.2757 4.20844 18.4429 4.35572 18.4554 4.5495C18.4679 4.74324 18.321 4.91044 18.1273 4.92296L17.2839 4.97733C17.2763 4.97785 17.2687 4.97808 17.2612 4.97808Z" fill="#3B3B3B"/>
</g>
<defs>
<clipPath id="clip0_222_21335">
<rect width="24" height="24" fill="white" transform="translate(0 0.333008)"/>
</clipPath>
</defs>
</svg>
