<svg width="152" height="18" viewBox="0 0 152 18" fill="none" xmlns="http://www.w3.org/2000/svg">
<g clip-path="url(#clip0_703_15)">
<path d="M0.646347 16.8815L7.63292 0.951218H7.78591L14.7266 16.8815H12.0645L7.00056 4.49455L8.65796 3.41679L2.9616 16.8815H0.646347Z" fill="#240028"/>
<path d="M25.8184 4.51424C25.2676 4.24849 24.671 4.01226 24.0284 3.80557C23.3859 3.59887 22.7688 3.50045 22.1721 3.50045C21.3562 3.50045 20.7085 3.67762 20.2292 4.03687C19.7498 4.39612 19.5101 4.88333 19.5101 5.50342C19.5101 5.93649 19.6682 6.32035 19.9895 6.64024C20.3107 6.96504 20.7238 7.24556 21.2338 7.49654C21.7438 7.74261 22.2792 7.96406 22.8504 8.16092C23.3298 8.32824 23.8091 8.53001 24.2783 8.76131C24.7526 8.99262 25.1809 9.27805 25.5685 9.61762C25.9561 9.95227 26.2621 10.3706 26.4865 10.8676C26.7109 11.3696 26.8231 11.9798 26.8231 12.7131C26.8231 13.5104 26.614 14.2387 26.2009 14.8932C25.7878 15.5429 25.1861 16.0694 24.4007 16.4582C23.6153 16.8519 22.677 17.0488 21.5857 17.0488C20.9023 17.0488 20.2445 16.975 19.6223 16.8273C18.995 16.6797 18.4035 16.4877 17.8425 16.2466C17.2815 16.0055 16.7818 15.7299 16.3483 15.4247L17.3733 13.6531C17.7201 13.9188 18.123 14.1551 18.5718 14.3617C19.0205 14.5684 19.4897 14.7358 19.9793 14.8637C20.4688 14.9966 20.9278 15.0655 21.3664 15.0655C21.8458 15.0655 22.32 14.9818 22.7841 14.8244C23.2482 14.6619 23.6408 14.411 23.9519 14.0665C24.263 13.722 24.4211 13.2692 24.4211 12.7082C24.4211 12.2308 24.2834 11.8273 24.008 11.4926C23.7326 11.1629 23.3757 10.8775 22.9371 10.6412C22.4985 10.4001 22.0191 10.1934 21.4939 10.0064C21.0145 9.83908 20.5147 9.64223 19.9997 9.41585C19.4846 9.19439 19.0052 8.9188 18.5718 8.59399C18.1332 8.26918 17.7813 7.87548 17.511 7.40304C17.2407 6.93059 17.1081 6.34988 17.1081 5.66582C17.1081 4.84888 17.307 4.1353 17.7099 3.51521C18.1128 2.90005 18.6686 2.41284 19.3826 2.06343C20.0966 1.71402 20.9125 1.52701 21.8254 1.51717C22.9014 1.51717 23.8346 1.6402 24.62 1.88626C25.4053 2.13233 26.104 2.43745 26.716 2.80162L25.8184 4.50931V4.51424Z" fill="#240028"/>
<path d="M29.0516 1.60575H39.5978V3.75636H35.4262V16.8815H33.0906V3.75636H29.0516V1.60575Z" fill="#240028"/>
<path d="M47.2371 1.60575C48.0683 1.60575 48.8333 1.71402 49.5421 1.92071C50.251 2.12741 50.8579 2.44237 51.3627 2.84592C51.8727 3.25439 52.2654 3.75636 52.5408 4.35676C52.8161 4.95715 52.9538 5.63629 52.9538 6.40894C52.9538 7.01426 52.862 7.61465 52.6836 8.21013C52.5051 8.80561 52.1991 9.34695 51.7758 9.82432C51.3525 10.3017 50.7967 10.6905 50.1031 10.9857C49.4096 11.281 48.5579 11.4287 47.538 11.4287H45.2227V16.8864H42.9075V1.60575H47.232H47.2371ZM47.5227 9.23376C48.104 9.23376 48.5936 9.14518 48.9965 8.96801C49.3943 8.79084 49.7104 8.56446 49.9348 8.29379C50.1592 8.0182 50.3173 7.72292 50.4142 7.40796C50.5111 7.08808 50.557 6.7928 50.557 6.50736C50.557 6.22193 50.5111 5.92665 50.4142 5.61169C50.3173 5.29672 50.1592 4.99652 49.9348 4.70617C49.7104 4.41581 49.4045 4.18943 49.0271 4.01226C48.6497 3.8351 48.1805 3.75144 47.6298 3.75144H45.2278V9.22884H47.5227V9.23376ZM50.1847 10.5822L54.29 16.8815H51.582L47.4105 10.6216L50.1847 10.5822Z" fill="#240028"/>
<path d="M56.0544 9.25345C56.0544 8.20029 56.2635 7.20127 56.6766 6.2613C57.0897 5.31641 57.6659 4.48471 58.4003 3.75636C59.1347 3.02801 59.9914 2.45714 60.9654 2.04867C61.9395 1.6402 62.99 1.43843 64.1119 1.43843C65.2339 1.43843 66.2793 1.6402 67.2585 2.04867C68.2325 2.45714 69.0943 3.02801 69.844 3.75636C70.5937 4.48471 71.1801 5.32133 71.6034 6.2613C72.0267 7.20127 72.2358 8.20029 72.2358 9.25345C72.2358 10.3066 72.0267 11.345 71.6034 12.2899C71.1801 13.2299 70.5937 14.0616 69.8338 14.7751C69.0739 15.4887 68.2121 16.0498 67.2483 16.4484C66.2793 16.8519 65.2339 17.0488 64.117 17.0488C63.0002 17.0488 61.9497 16.8519 60.9705 16.4582C59.9965 16.0694 59.1398 15.5133 58.4054 14.8047C57.671 14.096 57.0948 13.2741 56.6817 12.3293C56.2686 11.3893 56.0595 10.3657 56.0595 9.25345H56.0544ZM58.4615 9.25345C58.4615 10.0409 58.6043 10.7741 58.9001 11.4533C59.1908 12.1373 59.5987 12.7328 60.124 13.2446C60.6493 13.7614 61.2561 14.16 61.9446 14.4503C62.6381 14.7407 63.3827 14.8834 64.1833 14.8834C64.984 14.8834 65.7031 14.7407 66.3864 14.4503C67.0698 14.16 67.6715 13.7614 68.1866 13.2446C68.7017 12.7328 69.1045 12.1373 69.4003 11.4533C69.691 10.7741 69.8389 10.0409 69.8389 9.25345C69.8389 8.46604 69.691 7.73277 69.3901 7.05363C69.0892 6.37449 68.6864 5.76917 68.1764 5.25243C67.6664 4.73077 67.0647 4.32231 66.366 4.02703C65.6674 3.73175 64.9177 3.58411 64.117 3.58411C63.3164 3.58411 62.5718 3.73175 61.8783 4.02703C61.1847 4.32231 60.583 4.73077 60.0679 5.25243C59.5528 5.76917 59.1551 6.37941 58.8797 7.06347C58.6043 7.75245 58.4666 8.4808 58.4666 9.25345H58.4615Z" fill="#240028"/>
<path d="M74.6122 9.25345C74.6122 8.20029 74.8213 7.20127 75.2344 6.2613C75.6475 5.31641 76.2237 4.48471 76.9581 3.75636C77.6924 3.02801 78.5492 2.45714 79.5232 2.04867C80.4973 1.6402 81.5478 1.43843 82.6697 1.43843C83.7917 1.43843 84.8371 1.6402 85.8162 2.04867C86.7903 2.45714 87.6521 3.02801 88.4018 3.75636C89.1514 4.48471 89.7379 5.32133 90.1612 6.2613C90.5844 7.20127 90.7935 8.20029 90.7935 9.25345C90.7935 10.3066 90.5844 11.345 90.1612 12.2899C89.7379 13.2299 89.1514 14.0616 88.3916 14.7751C87.6317 15.4887 86.7699 16.0498 85.806 16.4484C84.8371 16.8519 83.7917 17.0488 82.6748 17.0488C81.558 17.0488 80.5075 16.8519 79.5283 16.4582C78.5543 16.0694 77.6975 15.5133 76.9632 14.8047C76.2288 14.096 75.6526 13.2741 75.2395 12.3293C74.8264 11.3893 74.6173 10.3657 74.6173 9.25345H74.6122ZM77.0142 9.25345C77.0142 10.0409 77.157 10.7741 77.4527 11.4533C77.7434 12.1373 78.1514 12.7328 78.6767 13.2446C79.2019 13.7614 79.8088 14.16 80.4973 14.4503C81.1908 14.7407 81.9354 14.8834 82.736 14.8834C83.5367 14.8834 84.2557 14.7407 84.9391 14.4503C85.6224 14.16 86.2242 13.7614 86.7393 13.2446C87.2543 12.7328 87.6572 12.1373 87.953 11.4533C88.2437 10.7741 88.3916 10.0409 88.3916 9.25345C88.3916 8.46604 88.2437 7.73277 87.9428 7.05363C87.6419 6.37449 87.239 5.76917 86.7291 5.25243C86.2191 4.73077 85.6173 4.32231 84.9187 4.02703C84.22 3.73175 83.4704 3.58411 82.6697 3.58411C81.8691 3.58411 81.1245 3.73175 80.431 4.02703C79.7374 4.32231 79.1356 4.73077 78.6206 5.25243C78.1055 5.76917 77.7077 6.37941 77.4323 7.06347C77.157 7.75245 77.0193 8.4808 77.0193 9.25345H77.0142Z" fill="white"/>
<path d="M98.6062 1.60575C99.4375 1.60575 100.202 1.71402 100.911 1.92071C101.62 2.12741 102.227 2.44237 102.732 2.84592C103.242 3.25439 103.635 3.75636 103.91 4.35676C104.185 4.95715 104.323 5.63629 104.323 6.40894C104.323 7.01426 104.231 7.61465 104.053 8.21013C103.874 8.80561 103.568 9.34695 103.145 9.82432C102.722 10.3017 102.166 10.6905 101.472 10.9857C100.779 11.281 99.9271 11.4287 98.9071 11.4287H96.5919V16.8864H94.2766V1.60575H98.6011H98.6062ZM98.8918 9.23376C99.4732 9.23376 99.9628 9.14518 100.366 8.96801C100.763 8.79084 101.08 8.56446 101.304 8.29379C101.528 8.0182 101.686 7.72292 101.783 7.40796C101.88 7.08808 101.926 6.7928 101.926 6.50736C101.926 6.22193 101.88 5.92665 101.783 5.61169C101.686 5.29672 101.528 4.99652 101.304 4.70617C101.08 4.41581 100.774 4.18943 100.396 4.01226C100.019 3.8351 99.5497 3.75144 98.9989 3.75144H96.597V9.22884H98.8918V9.23376ZM101.554 10.5822L105.659 16.8815H102.951L98.7796 10.6216L101.554 10.5822Z" fill="white"/>
<path d="M112.992 1.60575C114.578 1.60575 115.833 1.92071 116.756 2.55064C117.679 3.18549 118.143 4.14514 118.143 5.43944C118.143 6.28098 117.949 7.00441 117.552 7.60973C117.159 8.21505 116.608 8.67766 115.904 9.00738C115.201 9.34203 114.364 9.5192 113.406 9.5438L113.079 8.38238C114.186 8.39714 115.18 8.57431 116.057 8.90896C116.94 9.2436 117.638 9.72097 118.153 10.3411C118.668 10.9562 118.928 11.6895 118.928 12.531C118.928 13.3037 118.781 13.9631 118.48 14.5192C118.179 15.0753 117.781 15.5232 117.276 15.8677C116.776 16.2122 116.205 16.4681 115.573 16.6305C114.941 16.7929 114.283 16.8716 113.599 16.8716H108.795V1.60575H112.987H112.992ZM113.411 8.20029C114.227 8.20029 114.818 7.97391 115.19 7.52607C115.563 7.07823 115.746 6.53689 115.746 5.90204C115.746 5.17369 115.512 4.63235 115.037 4.27802C114.563 3.9286 113.91 3.75144 113.084 3.75144H111.121V8.19537H113.416L113.411 8.20029ZM113.497 14.7948C114.063 14.7948 114.578 14.7112 115.037 14.5537C115.496 14.3962 115.858 14.1501 116.129 13.8155C116.399 13.4858 116.532 13.0675 116.532 12.5655C116.532 12.0045 116.374 11.5665 116.062 11.2466C115.751 10.9316 115.343 10.7003 114.849 10.5625C114.354 10.4247 113.849 10.3509 113.344 10.3509H111.116V14.7948H113.497Z" fill="white"/>
<path d="M122.427 1.60575H124.742V16.8815H122.427V1.60575Z" fill="white"/>
<path d="M128.057 1.60575H138.603V3.75636H134.432V16.8815H132.096V3.75636H128.057V1.60575Z" fill="white"/>
<path d="M150.154 4.51424C149.603 4.24849 149.006 4.01226 148.364 3.80557C147.721 3.59887 147.104 3.50045 146.508 3.50045C145.692 3.50045 145.044 3.67762 144.565 4.03687C144.085 4.39612 143.846 4.88333 143.846 5.50342C143.846 5.93649 144.004 6.32035 144.325 6.64024C144.646 6.96504 145.059 7.24556 145.569 7.49654C146.079 7.74261 146.615 7.96406 147.186 8.16092C147.665 8.32824 148.145 8.53001 148.614 8.76131C149.088 8.99262 149.516 9.27805 149.904 9.61762C150.292 9.95227 150.598 10.3706 150.822 10.8676C151.046 11.3696 151.159 11.9798 151.159 12.7131C151.159 13.5104 150.949 14.2387 150.536 14.8932C150.123 15.5429 149.522 16.0694 148.736 16.4582C147.951 16.8519 147.012 17.0488 145.921 17.0488C145.238 17.0488 144.58 16.975 143.958 16.8273C143.331 16.6797 142.739 16.4877 142.178 16.2466C141.617 16.0055 141.117 15.7299 140.684 15.4247L141.709 13.6531C142.056 13.9188 142.458 14.1551 142.907 14.3617C143.356 14.5684 143.825 14.7358 144.315 14.8637C144.804 14.9966 145.263 15.0655 145.702 15.0655C146.181 15.0655 146.656 14.9818 147.12 14.8244C147.584 14.6619 147.976 14.411 148.287 14.0665C148.598 13.722 148.757 13.2692 148.757 12.7082C148.757 12.2308 148.619 11.8273 148.344 11.4926C148.068 11.1629 147.711 10.8775 147.273 10.6412C146.834 10.4001 146.355 10.1934 145.829 10.0064C145.35 9.83908 144.85 9.64223 144.335 9.41585C143.82 9.19439 143.341 8.9188 142.907 8.59399C142.469 8.26918 142.117 7.87548 141.847 7.40304C141.576 6.93059 141.444 6.34988 141.444 5.66582C141.444 4.84888 141.643 4.1353 142.045 3.51521C142.448 2.90005 143.004 2.41284 143.718 2.06343C144.432 1.71402 145.248 1.52701 146.161 1.51717C147.237 1.51717 148.17 1.6402 148.955 1.88626C149.741 2.13233 150.439 2.43745 151.051 2.80162L150.154 4.50931V4.51424Z" fill="white"/>
</g>
<defs>
<clipPath id="clip0_703_15">
<rect width="150.512" height="16.0976" fill="white" transform="translate(0.646347 0.951218)"/>
</clipPath>
</defs>
</svg>
