<svg width="38" height="38" viewBox="0 0 38 38" fill="none" xmlns="http://www.w3.org/2000/svg">
<g clip-path="url(#clip0_770_8700)">
<mask id="mask0_770_8700" style="mask-type:luminance" maskUnits="userSpaceOnUse" x="0" y="0" width="38" height="38">
<path d="M37.1158 0.445312H0V37.5611H37.1158V0.445312Z" fill="white"/>
</mask>
<g mask="url(#mask0_770_8700)">
<path d="M18.5575 27.8485C23.4428 27.8485 27.4034 23.8879 27.4034 19.0026C27.4034 14.1173 23.4428 10.1567 18.5575 10.1567C13.6722 10.1567 9.71161 14.1173 9.71161 19.0026C9.71161 23.8879 13.6722 27.8485 18.5575 27.8485Z" fill="#FFB114"/>
<path d="M18.5575 37.5611C8.32457 37.5611 0 29.2357 0 19.0028C0 8.76989 8.32457 0.445312 18.5575 0.445312C28.7904 0.445312 37.115 8.76989 37.115 19.0028C37.115 29.2357 28.7904 37.5603 18.5575 37.5603V37.5611ZM18.5575 1.2497C8.76884 1.2497 0.804386 9.21415 0.804386 19.0028C0.804386 28.7915 8.76805 36.7559 18.5567 36.7559C28.3454 36.7559 36.3098 28.7915 36.3098 19.0028C36.3098 9.21415 28.347 1.2497 18.5575 1.2497Z" fill="#FFF4CE"/>
<path d="M5.68024 34.6531C7.30867 34.6531 8.62887 33.3329 8.62887 31.7045C8.62887 30.0761 7.30867 28.7559 5.68024 28.7559C4.05181 28.7559 2.73161 30.0761 2.73161 31.7045C2.73161 33.3329 4.05181 34.6531 5.68024 34.6531Z" fill="#FFB114"/>
<path d="M31.3876 3.22412L31.4646 3.67153C31.6785 4.91074 32.685 5.88654 33.9785 6.11063L34.3362 6.17275L33.9785 6.23487C32.6858 6.45818 31.6793 7.43477 31.4646 8.67398L31.3876 9.12138L31.3105 8.67398C31.0967 7.43477 30.0902 6.45897 28.7967 6.23487L28.439 6.17275L28.7967 6.11063C30.0894 5.88732 31.0959 4.91074 31.3105 3.67153L31.3876 3.22412Z" fill="#FFD995"/>
</g>
</g>
<defs>
<clipPath id="clip0_770_8700">
<rect width="37.1158" height="37.1158" fill="white" transform="translate(0 0.445312)"/>
</clipPath>
</defs>
</svg>
