<svg width="24" height="24" viewBox="0 0 24 24" fill="none" xmlns="http://www.w3.org/2000/svg">
<path d="M14.8618 21.073C14.6677 21.073 14.5103 21.2304 14.5103 21.4245V23.2971H7.79618V18.669C7.79618 18.3568 7.64925 18.0581 7.40323 17.8702C7.20849 17.7214 7.02256 17.5583 6.84461 17.3828L8.72642 15.8364C8.87638 15.7132 8.89804 15.4917 8.77484 15.3417C8.65155 15.1917 8.43004 15.17 8.28012 15.2933L6.37187 16.8614C5.94831 16.3391 5.58372 15.7286 5.28261 15.0341L5.27943 15.0355C5.25013 14.9666 3.87378 12.113 3.87378 12.113C3.65808 11.6305 3.85437 11.0577 4.32064 10.8088C4.78756 10.5596 5.35687 10.7066 5.64472 11.1508C5.7006 11.2369 6.74386 12.8494 6.82309 12.9687C6.88919 13.0683 6.98572 13.1371 7.10821 13.1443C7.16123 13.1474 7.21412 13.1486 7.26723 13.1528C7.95698 13.2079 8.65483 13.4387 9.22053 13.8417C9.73035 14.2048 10.1119 14.7231 10.3295 15.3084C10.4033 15.507 10.4595 15.712 10.5009 15.9198C10.5342 16.087 10.681 16.2027 10.8452 16.2027C10.8679 16.2027 10.891 16.2005 10.9142 16.1959C11.1045 16.1581 11.2282 15.973 11.1903 15.7826C10.8467 14.0562 9.7567 13.2378 8.90268 12.8553C8.34158 12.6039 7.81235 12.5057 7.48016 12.4672V6.33863C7.48016 6.1445 7.32283 5.98712 7.12865 5.98712C6.93448 5.98712 6.77715 6.1445 6.77715 6.33863V11.6053L6.23465 10.7684C5.74659 10.0153 4.78133 9.76597 3.98957 10.1885C3.19904 10.6105 2.86628 11.5818 3.23199 12.3998L3.43015 12.8432C3.43175 12.8468 3.43344 12.8505 3.43522 12.854C3.43522 12.854 4.57041 15.1769 4.64083 15.321C4.96763 16.0732 5.36508 16.737 5.82853 17.3078L3.96468 18.8394C3.81471 18.9626 3.79305 19.1842 3.91625 19.3341C3.98578 19.4187 4.08652 19.4624 4.18802 19.4624C4.26654 19.4624 4.34558 19.4363 4.41098 19.3825L6.29827 17.8316C6.51279 18.0478 6.73875 18.2472 6.97629 18.4287C7.04943 18.4846 7.09307 18.5743 7.09307 18.6689V23.6485C7.09307 23.8426 7.2504 24 7.44458 24H14.8616C15.0558 24 15.2131 23.8426 15.2131 23.6485V21.4244C15.2132 21.2304 15.0559 21.073 14.8618 21.073Z" fill="#3B3B3B"/>
<path d="M15.1864 13.842C15.1864 13.6479 15.0291 13.4905 14.8349 13.4905H12.9857C12.801 13.1845 12.5711 12.904 12.2994 12.6614L11.4337 11.8884C11.2888 11.759 11.0666 11.7717 10.9373 11.9165C10.808 12.0613 10.8206 12.2835 10.9654 12.4128L11.8312 13.1858C12.4504 13.7387 12.8055 14.5319 12.8055 15.362V15.8511C12.8055 16.0452 12.9629 16.2026 13.1571 16.2026C13.3512 16.2026 13.5086 16.0452 13.5086 15.8511V15.362C13.5086 14.9604 13.4408 14.5662 13.3135 14.1935H14.8349C15.0291 14.1935 15.1864 14.0361 15.1864 13.842Z" fill="#3B3B3B"/>
<path d="M19.6727 17.5919L17.1809 16.2429C17.3207 15.8004 17.392 15.3291 17.392 14.8359V11.0215L19.7286 9.10141C19.8785 8.97817 19.9002 8.75666 19.777 8.60669C19.6536 8.45667 19.4321 8.43506 19.2823 8.55831L17.392 10.1116V6.28243C17.392 5.41496 16.6985 4.6902 15.846 4.6668C15.5085 4.6578 15.1865 4.75255 14.914 4.93679V2.9502C14.914 2.07322 14.2006 1.35975 13.3236 1.35975C12.9952 1.35975 12.6897 1.45984 12.4361 1.631V1.59045C12.4361 0.713466 11.7226 0 10.8457 0C9.96867 0 9.2552 0.713466 9.2552 1.5905V1.79311C8.98217 1.60873 8.65936 1.51389 8.32327 1.52299C7.47076 1.54633 6.77722 2.2711 6.77722 3.13861V4.70206C6.77722 4.89619 6.93455 5.05356 7.12873 5.05356C7.3229 5.05356 7.48023 4.89619 7.48023 4.70206V3.13861C7.48023 2.64825 7.86704 2.23875 8.34259 2.22567C8.58543 2.21906 8.81341 2.30818 8.98653 2.47667C9.1598 2.6452 9.25525 2.87116 9.25525 3.11283V10.4833C9.25525 10.6774 9.41258 10.8348 9.60675 10.8348C9.80093 10.8348 9.95826 10.6774 9.95826 10.4833V1.5905C9.95826 1.10112 10.3564 0.703012 10.8457 0.703012C11.3351 0.703012 11.7332 1.10116 11.7332 1.5905V10.4833C11.7332 10.6774 11.8906 10.8348 12.0847 10.8348C12.2789 10.8348 12.4362 10.6774 12.4362 10.4833V2.9502C12.4362 2.46087 12.8343 2.06272 13.3238 2.06272C13.8131 2.06272 14.2113 2.46082 14.2113 2.9502V10.4833C14.2113 10.6774 14.3686 10.8348 14.5628 10.8348C14.7569 10.8348 14.9143 10.6774 14.9143 10.4833V6.2566C14.9143 6.01493 15.0097 5.78902 15.183 5.62044C15.3562 5.45195 15.5857 5.36293 15.8269 5.36944C16.3024 5.38247 16.6893 5.79202 16.6893 6.28238V10.6893L14.9671 12.1045C14.8171 12.2277 14.7955 12.4493 14.9187 12.5992C14.9882 12.6838 15.0889 12.7275 15.1904 12.7275C15.269 12.7275 15.348 12.7014 15.4134 12.6476L16.6892 11.5992V14.8359C16.6892 15.2111 16.6422 15.5663 16.5505 15.9016L15.3575 15.2558C15.1868 15.1634 14.9735 15.2269 14.8811 15.3976C14.7887 15.5683 14.8521 15.7816 15.0229 15.874L16.2981 16.5644C16.0957 16.9672 15.8153 17.3336 15.4577 17.6614C15.455 17.6638 15.4524 17.6663 15.4498 17.6689L14.8151 18.2877C14.6215 18.4765 14.5105 18.7398 14.5105 19.0102V19.7919C14.5105 19.986 14.6678 20.1434 14.862 20.1434C15.0561 20.1434 15.2135 19.986 15.2135 19.7919V19.0102C15.2135 18.9282 15.2472 18.8483 15.3059 18.791L15.9368 18.1759C16.3475 17.7986 16.6744 17.3692 16.9137 16.8977L19.3383 18.2103C19.3915 18.2391 19.4488 18.2527 19.5053 18.2527C19.6302 18.2527 19.7512 18.186 19.8148 18.0685C19.9069 17.8976 19.8435 17.6843 19.6727 17.5919Z" fill="#3B3B3B"/>
<path d="M20.9124 9.18128H22.8746C23.0687 9.18128 23.2261 9.02391 23.2261 8.82978C23.2261 8.63565 23.0688 8.47827 22.8746 8.47827H20.9124C20.7183 8.47827 20.5609 8.63565 20.5609 8.82978C20.561 9.02391 20.7183 9.18128 20.9124 9.18128Z" fill="#3B3B3B"/>
<path d="M20.9124 10.5315H23.4717C23.6658 10.5315 23.8232 10.3742 23.8232 10.18C23.8232 9.9859 23.6659 9.82852 23.4717 9.82852H20.9124C20.7183 9.82852 20.5609 9.9859 20.5609 10.18C20.5609 10.3742 20.7183 10.5315 20.9124 10.5315Z" fill="#3B3B3B"/>
<path d="M20.9124 18.2525H22.8746C23.0687 18.2525 23.2261 18.0951 23.2261 17.901C23.2261 17.7069 23.0688 17.5495 22.8746 17.5495H20.9124C20.7183 17.5495 20.5609 17.7069 20.5609 17.901C20.5609 18.0951 20.7183 18.2525 20.9124 18.2525Z" fill="#3B3B3B"/>
<path d="M23.4717 18.8997H20.9124C20.7183 18.8997 20.5609 19.0571 20.5609 19.2513C20.5609 19.4454 20.7182 19.6028 20.9124 19.6028H23.4717C23.6658 19.6028 23.8232 19.4454 23.8232 19.2513C23.8232 19.0571 23.6658 18.8997 23.4717 18.8997Z" fill="#3B3B3B"/>
<path d="M2.91083 18.8389H0.948674C0.754544 18.8389 0.597168 18.9963 0.597168 19.1904C0.597168 19.3845 0.754497 19.5419 0.948674 19.5419H2.91083C3.10496 19.5419 3.26234 19.3845 3.26234 19.1904C3.26234 18.9963 3.10496 18.8389 2.91083 18.8389Z" fill="#3B3B3B"/>
<path d="M2.91078 20.1891H0.351506C0.157376 20.1891 0 20.3465 0 20.5406C0 20.7347 0.157329 20.8921 0.351506 20.8921H2.91078C3.10491 20.8921 3.26228 20.7347 3.26228 20.5406C3.26228 20.3465 3.10491 20.1891 2.91078 20.1891Z" fill="#3B3B3B"/>
</svg>
