<svg width="17" height="16" viewBox="0 0 17 16" fill="none" xmlns="http://www.w3.org/2000/svg">
<g clip-path="url(#clip0_222_19356)">
<path d="M15.8467 8.48845L15.8443 8.49002C15.2609 8.86571 15.1219 9.66853 15.5441 10.2234L15.5445 10.224C15.8002 10.5601 15.6237 11.0519 15.2148 11.1427L15.214 11.1429C14.539 11.2927 14.1368 11.9983 14.3455 12.6664L14.3462 12.6688C14.4726 13.0732 14.1412 13.4734 13.7267 13.4171L13.7254 13.4169C13.0401 13.3238 12.4242 13.8484 12.3961 14.5492L12.396 14.5496C12.379 14.9737 11.9326 15.2355 11.5618 15.0389L11.5595 15.0377C10.9475 14.7132 10.1929 14.9918 9.92968 15.6393L9.92865 15.6418C9.76915 16.0341 9.26132 16.1246 8.97953 15.8109C8.51368 15.2922 7.70898 15.2922 7.24312 15.8109C6.96137 16.1246 6.45351 16.0341 6.29404 15.6418L6.29301 15.6393C6.02976 14.9917 5.27522 14.7132 4.66323 15.0376L4.66091 15.0389C4.29009 15.2354 3.84369 14.9737 3.82669 14.5496L3.82665 14.5491C3.79851 13.8484 3.18264 13.3238 2.4973 13.4169L2.49596 13.4171C2.08146 13.4733 1.7501 13.0731 1.87644 12.6688L1.87719 12.6664C2.08595 11.9983 1.68369 11.2927 1.00871 11.1428L1.00792 11.1427C0.598952 11.0519 0.422512 10.5601 0.678261 10.2239L0.678638 10.2234C1.10079 9.66853 0.961744 8.86574 0.378403 8.49002L0.375987 8.48849C0.0231085 8.26119 0.0231085 7.73884 0.375987 7.51158L0.378403 7.51001C0.961744 7.13432 1.10079 6.3315 0.678638 5.77661L0.67823 5.77608C0.422481 5.43992 0.598952 4.94812 1.00789 4.85736L1.00871 4.85717C1.68369 4.70734 2.08592 4.00174 1.87719 3.33363L1.87644 3.33121C1.75014 2.92682 2.08149 2.5266 2.49599 2.58288L2.4973 2.58307C3.18261 2.67615 3.79851 2.15157 3.82665 1.45084L3.82669 1.45037C3.84372 1.0263 4.29009 0.764531 4.66091 0.961112L4.66323 0.962335C5.27525 1.28679 6.02979 1.00823 6.29304 0.360704L6.29407 0.358194C6.45357 -0.034151 6.9614 -0.124629 7.24319 0.189096C7.70904 0.707778 8.51374 0.707778 8.9796 0.189096C9.26135 -0.124629 9.76921 -0.034151 9.92868 0.358194L9.92971 0.360735C10.193 1.00826 10.9475 1.28682 11.5595 0.962367L11.5618 0.961143C11.9326 0.764563 12.379 1.02634 12.396 1.4504L12.3961 1.4509C12.4242 2.15164 13.0401 2.67622 13.7254 2.58314L13.7268 2.58295C14.1413 2.52666 14.4726 2.92688 14.3463 3.33125L14.3455 3.33363C14.1368 4.00174 14.539 4.70734 15.214 4.85717L15.2148 4.85733C15.6238 4.94812 15.8002 5.43989 15.5445 5.77608L15.5441 5.77658C15.1219 6.33146 15.2609 7.13426 15.8443 7.50997L15.8467 7.51151C16.1996 7.73881 16.1996 8.26116 15.8467 8.48845Z" fill="url(#paint0_linear_222_19356)"/>
<path d="M15.8468 7.51144L15.8444 7.50987C15.2611 7.13415 15.122 6.33136 15.5442 5.77647L15.5446 5.77597C15.8003 5.43981 15.6238 4.94802 15.2149 4.85723L15.2141 4.85707C14.5391 4.70723 14.1369 4.0016 14.3456 3.33352L14.3464 3.33114C14.4727 2.92678 14.1414 2.52656 13.7269 2.58284L13.7256 2.58303C13.0403 2.67611 12.4243 2.15153 12.3962 1.45079L12.3962 1.45029C12.3791 1.02623 11.9328 0.764457 11.5619 0.961037L11.5596 0.962292C11.3814 1.05675 11.1912 1.09977 11.0044 1.09776C11.0837 1.19125 11.1351 1.31206 11.1407 1.45029L11.1407 1.45079C11.1688 2.15153 11.7847 2.67611 12.4701 2.58303L12.4714 2.58284C12.8859 2.52656 13.2172 2.92678 13.0909 3.33114L13.0901 3.33352C12.8814 4.00163 13.2836 4.70723 13.9586 4.85707L13.9594 4.85723C14.3684 4.94802 14.5448 5.43978 14.2891 5.77597L14.2887 5.77647C13.8665 6.33136 14.0056 7.13415 14.5889 7.50987L14.5913 7.51144C14.9442 7.73873 14.9442 8.26108 14.5913 8.48835L14.5889 8.48992C14.0056 8.8656 13.8665 9.66843 14.2887 10.2233L14.2891 10.2238C14.5448 10.56 14.3683 11.0518 13.9594 11.1426L13.9586 11.1427C13.2836 11.2926 12.8814 11.9982 13.0901 12.6663L13.0909 12.6687C13.2172 13.073 12.8858 13.4733 12.4713 13.417L12.47 13.4168C11.7847 13.3237 11.1688 13.8483 11.1407 14.549L11.1406 14.5495C11.1351 14.6878 11.0837 14.8085 11.0044 14.9021C11.1911 14.9001 11.3814 14.9431 11.5596 15.0375L11.5619 15.0387C11.9328 15.2353 12.3792 14.9736 12.3962 14.5495L12.3962 14.549C12.4243 13.8483 13.0402 13.3237 13.7256 13.4168L13.7269 13.417C14.1414 13.4733 14.4727 13.073 14.3464 12.6687L14.3456 12.6663C14.1369 11.9982 14.5391 11.2926 15.2141 11.1427L15.2149 11.1426C15.6239 11.0518 15.8003 10.56 15.5446 10.2238L15.5442 10.2233C15.122 9.66843 15.2611 8.86563 15.8444 8.48992L15.8468 8.48835C16.1997 8.26108 16.1997 7.73873 15.8468 7.51144Z" fill="url(#paint1_linear_222_19356)"/>
<path d="M8.1112 13.5994C11.2034 13.5994 13.7102 11.0926 13.7102 8.00036C13.7102 4.90812 11.2034 2.40137 8.1112 2.40137C5.01896 2.40137 2.51221 4.90812 2.51221 8.00036C2.51221 11.0926 5.01896 13.5994 8.1112 13.5994Z" fill="url(#paint2_linear_222_19356)"/>
<path d="M9.55677 8.13112C9.98805 8.13112 10.3377 7.78151 10.3377 7.35023C10.3377 6.91895 9.98805 6.56934 9.55677 6.56934C9.1255 6.56934 8.77588 6.91895 8.77588 7.35023C8.77588 7.78151 9.1255 8.13112 9.55677 8.13112Z" fill="url(#paint3_linear_222_19356)"/>
<path d="M5.40416 8.56711C6.0761 8.56711 6.62082 8.02239 6.62082 7.35045C6.62082 6.67851 6.0761 6.13379 5.40416 6.13379C4.73222 6.13379 4.1875 6.67851 4.1875 7.35045C4.1875 8.02239 4.73222 8.56711 5.40416 8.56711Z" fill="url(#paint4_linear_222_19356)"/>
<path d="M8.11165 2.40137C7.89938 2.40137 7.69 2.4136 7.48389 2.4366C8.54048 2.5545 9.50814 2.96654 10.3034 3.58876C10.0152 3.7865 9.83115 4.1251 9.85101 4.50537C9.87887 5.03917 10.3174 5.47127 10.8515 5.49188C10.8571 5.4921 10.8627 5.49225 10.8683 5.49238C11.5297 5.50753 12.1093 5.94898 12.2757 6.58926C12.3928 7.04002 12.4551 7.5129 12.4551 8.00033C12.4551 9.22706 12.0604 10.3614 11.3913 11.2838C11.3935 11.2499 11.395 11.2158 11.395 11.1814C11.395 10.3079 10.6703 9.60363 9.78939 9.63707C8.98839 9.66747 8.33568 10.3201 8.30528 11.1211C8.29543 11.3802 8.34939 11.6257 8.45264 11.8433C8.80053 12.5762 8.34265 13.4465 7.53891 13.5572C7.52034 13.5598 7.50199 13.5621 7.48395 13.5641C7.69007 13.5871 7.89945 13.5993 8.11171 13.5993C11.2039 13.5993 13.7107 11.0926 13.7107 8.00033C13.7107 4.9081 11.2039 2.40137 8.11165 2.40137Z" fill="url(#paint5_linear_222_19356)"/>
</g>
<defs>
<linearGradient id="paint0_linear_222_19356" x1="0.13194" y1="7.99998" x2="16.9898" y2="7.99998" gradientUnits="userSpaceOnUse">
<stop stop-color="#FBC56D"/>
<stop offset="0.5841" stop-color="#FE9738"/>
<stop offset="0.9984" stop-color="#FB2B3A"/>
</linearGradient>
<linearGradient id="paint1_linear_222_19356" x1="-1.04436" y1="7.99991" x2="15.9248" y2="7.99991" gradientUnits="userSpaceOnUse">
<stop stop-color="#FBC56D"/>
<stop offset="0.5841" stop-color="#FE9738"/>
<stop offset="0.9984" stop-color="#FB2B3A"/>
</linearGradient>
<linearGradient id="paint2_linear_222_19356" x1="2.51221" y1="8.00036" x2="13.7102" y2="8.00036" gradientUnits="userSpaceOnUse">
<stop stop-color="#FEF056"/>
<stop offset="0.5213" stop-color="#F4D902"/>
<stop offset="1" stop-color="#FE9738"/>
</linearGradient>
<linearGradient id="paint3_linear_222_19356" x1="-6.82206" y1="7.35023" x2="12.5988" y2="7.35023" gradientUnits="userSpaceOnUse">
<stop stop-color="#FEF056"/>
<stop offset="0.5213" stop-color="#F4D902"/>
<stop offset="1" stop-color="#FE9738"/>
</linearGradient>
<linearGradient id="paint4_linear_222_19356" x1="-6.82191" y1="7.35045" x2="12.599" y2="7.35045" gradientUnits="userSpaceOnUse">
<stop stop-color="#FEF056"/>
<stop offset="0.5213" stop-color="#F4D902"/>
<stop offset="1" stop-color="#FE9738"/>
</linearGradient>
<linearGradient id="paint5_linear_222_19356" x1="-6.82168" y1="8.00036" x2="12.5992" y2="8.00036" gradientUnits="userSpaceOnUse">
<stop stop-color="#FEF056"/>
<stop offset="0.5213" stop-color="#F4D902"/>
<stop offset="1" stop-color="#FE9738"/>
</linearGradient>
<clipPath id="clip0_222_19356">
<rect width="16" height="16" fill="white" transform="translate(0.111328)"/>
</clipPath>
</defs>
</svg>
