<svg width="17" height="16" viewBox="0 0 17 16" fill="none" xmlns="http://www.w3.org/2000/svg">
<g clip-path="url(#clip0_222_19722)">
<path d="M3.0258 4.62192C3.89329 4.62192 4.59653 3.91868 4.59653 3.0512C4.59653 2.18371 3.89329 1.48047 3.0258 1.48047C2.15832 1.48047 1.45508 2.18371 1.45508 3.0512C1.45508 3.91868 2.15832 4.62192 3.0258 4.62192Z" fill="url(#paint0_linear_222_19722)"/>
<path d="M1.6792 3.85998C2.26558 3.02189 2.99433 2.29092 3.83063 1.70215C4.28923 1.97644 4.59643 2.47774 4.59643 3.05098C4.59643 3.91846 3.89319 4.6217 3.02571 4.6217C2.45413 4.6217 1.95399 4.31635 1.6792 3.85998Z" fill="url(#paint1_linear_222_19722)"/>
<path d="M8.11118 14.8679C11.904 14.8679 14.9787 11.7932 14.9787 8.00034C14.9787 4.20751 11.904 1.13281 8.11118 1.13281C4.31835 1.13281 1.24365 4.20751 1.24365 8.00034C1.24365 11.7932 4.31835 14.8679 8.11118 14.8679Z" fill="url(#paint2_linear_222_19722)"/>
<path d="M3.24852 6.67722C3.476 6.61043 3.7047 6.53846 3.93419 6.46141C4.30655 6.33642 4.50429 5.93021 4.37435 5.55955L4.37426 5.5593C4.24679 5.19569 3.85074 5.00087 3.48554 5.12369C3.2734 5.19503 3.06223 5.2616 2.85247 5.32328C2.53062 5.41793 2.31945 5.72523 2.34775 6.05953C2.38537 6.5038 2.82072 6.80284 3.24852 6.67722Z" fill="url(#paint3_linear_222_19722)"/>
<path d="M5.38628 9.52081C5.38628 9.28482 5.3325 9.06142 5.2366 8.86214C5.68569 8.85944 6.04899 8.49464 6.04899 8.04492C6.04899 7.5935 5.68303 7.22754 5.23164 7.22754C4.78025 7.22754 4.41429 7.5935 4.41429 8.04492C4.41429 8.06465 4.41523 8.0842 4.41662 8.10358C4.24576 8.03714 4.06013 8.00027 3.86578 8.00027C3.026 8.00027 2.34521 8.68106 2.34521 9.52084C2.34521 10.3606 3.026 11.0414 3.86578 11.0414C4.70552 11.0413 5.38628 10.3606 5.38628 9.52081Z" fill="url(#paint4_linear_222_19722)"/>
<path d="M6.2983 3.50188C6.74971 3.50188 7.11565 3.13594 7.11565 2.68453C7.11565 2.23313 6.74971 1.86719 6.2983 1.86719C5.8469 1.86719 5.48096 2.23313 5.48096 2.68453C5.48096 3.13594 5.8469 3.50188 6.2983 3.50188Z" fill="url(#paint5_linear_222_19722)"/>
<path d="M8.11128 1.13281C7.89951 1.13281 7.69026 1.14285 7.48352 1.16168C8.40743 1.22975 8.70955 2.42348 7.94814 2.93642C7.47034 3.25798 6.95803 3.56544 6.41842 3.85375C6.06862 4.04073 5.92619 4.4812 6.10344 4.83571C6.22234 5.07351 6.45983 5.20967 6.70705 5.20967C6.81403 5.20967 6.9232 5.18394 7.02485 5.12998C7.69277 4.77547 8.3243 4.3921 8.90845 3.98834C9.24696 3.75398 9.70877 3.81798 9.97386 4.13265C10.1012 4.28355 10.1627 4.46677 10.1627 4.64841C10.1627 4.8972 10.0476 5.14347 9.82798 5.30096C9.53622 5.5099 9.23002 5.71382 8.91096 5.91116C8.62767 6.08621 8.49277 6.43319 8.60289 6.74723C8.75661 7.18519 9.26484 7.35115 9.64414 7.1168C10.6082 6.52072 11.4703 5.86692 12.1878 5.18488C12.5132 4.87555 13.0471 4.99226 13.2168 5.40794C13.2184 5.41202 13.2203 5.41641 13.2219 5.42049C13.3144 5.64857 13.267 5.9099 13.1004 6.09092C12.9062 6.30206 12.6575 6.5659 12.5288 6.68668C11.8305 7.34362 10.9778 7.9739 10.0168 8.54519C9.87065 8.00245 9.35834 7.60966 8.761 7.64825C8.14234 7.68872 7.64791 8.19947 7.62626 8.81907C7.61559 9.12652 7.71944 9.40982 7.89795 9.62942C7.67018 9.72887 7.4421 9.82362 7.21434 9.91303C6.8592 10.0523 6.66281 10.4442 6.78611 10.8049C6.91661 11.1861 7.33763 11.3803 7.71065 11.2344C8.06516 11.0961 8.41967 10.9461 8.77324 10.7852C10.7309 9.89232 12.4561 8.74441 13.7059 7.51178C13.7175 7.67304 13.7232 7.83617 13.7232 8.00025C13.7232 8.16182 13.7175 8.32182 13.7066 8.48025C12.734 9.4735 11.3979 10.42 9.86751 11.1921C8.08053 12.0934 6.25936 12.6415 4.7287 12.7387C4.70391 12.7403 4.67913 12.7419 4.65434 12.7431C4.00211 12.7789 3.43992 12.7253 3.00635 12.5935C3.57513 13.2253 4.25936 13.7508 5.02611 14.137C5.5083 14.0959 6.01152 14.0178 6.52916 13.9042C7.80728 13.6241 9.17104 13.1306 10.5059 12.457C10.5154 12.4523 10.5248 12.4476 10.5342 12.4429C11.1334 12.1392 11.6567 12.9555 11.1312 13.3744C10.1116 14.1863 8.85606 14.7146 7.48352 14.8388C7.69026 14.8576 7.89951 14.8677 8.11128 14.8677C11.9042 14.8677 14.9787 11.7932 14.9787 8.00025C14.9787 4.20732 11.9042 1.13281 8.11128 1.13281ZM10.8997 4.1703C10.4482 4.1703 10.0824 3.80449 10.0824 3.35304C10.0824 2.90159 10.4482 2.53579 10.8997 2.53579C11.3511 2.53579 11.7172 2.90159 11.7172 3.35304C11.7172 3.80449 11.3511 4.1703 10.8997 4.1703ZM12.5539 12.4282C12.1025 12.4282 11.7364 12.0624 11.7364 11.6109C11.7364 11.1595 12.1025 10.7933 12.5539 10.7933C13.0054 10.7933 13.3712 11.1595 13.3712 11.6109C13.3712 12.0624 13.0054 12.4282 12.5539 12.4282Z" fill="url(#paint6_linear_222_19722)"/>
<path d="M15.8613 4.09016C15.3339 3.04452 14.0655 2.49832 12.2742 2.53817C12.8602 2.98554 13.3722 3.52515 13.7885 4.13534C14.1851 4.26742 14.4652 4.46852 14.5964 4.72828C14.7275 4.98773 14.7228 5.33189 14.5942 5.72875C14.4499 6.17298 14.1502 6.6831 13.7107 7.21486C13.695 7.23369 13.6793 7.25251 13.6633 7.27134C12.6757 8.44529 11.1529 9.58474 9.36563 10.4867C7.57865 11.388 5.75748 11.9361 4.22682 12.0334C4.20203 12.0349 4.17725 12.0365 4.15246 12.0378C3.46447 12.0754 2.87655 12.0136 2.43419 11.8658C2.03764 11.7338 1.75749 11.5327 1.62635 11.2729C1.49521 11.0134 1.49992 10.6696 1.62855 10.2727C1.39012 9.59196 1.25584 8.86223 1.24486 8.10271C0.147766 9.52012 -0.166586 10.8654 0.361413 11.9113C0.870902 12.9215 2.07184 13.4655 3.76752 13.4655C3.82713 13.4655 3.88737 13.4649 3.94854 13.4633C4.04078 13.4614 4.13458 13.4577 4.22964 13.4527C4.79968 13.4216 5.40329 13.3356 6.02728 13.1989C7.3054 12.9187 8.66916 12.4252 10.0041 11.7516C11.3386 11.0781 12.5459 10.2743 13.5306 9.41282C14.0116 8.99212 14.4395 8.55761 14.8031 8.11745C14.8637 8.04435 14.922 7.97157 14.9779 7.89879C15.7273 6.93063 16.1113 5.99636 16.1113 5.16781C16.1113 4.78318 16.0285 4.42177 15.8613 4.09016Z" fill="url(#paint7_linear_222_19722)"/>
<path d="M16.1111 5.16781C16.1111 5.99636 15.7271 6.93063 14.9776 7.89879C14.9218 7.97157 14.8635 8.04435 14.8029 8.11745C14.4393 8.55761 14.0114 8.99212 13.5304 9.41282C12.5457 10.2743 11.3384 11.0781 10.0039 11.7516C8.66896 12.4252 7.30519 12.9187 6.02708 13.1989C5.40308 13.3356 4.79947 13.4216 4.22943 13.4527C4.13438 13.4577 4.04057 13.4614 3.94834 13.4633C3.88716 13.4649 3.82693 13.4655 3.76732 13.4655C3.55681 13.4655 3.35383 13.457 3.15869 13.4404C3.37704 13.4241 3.6001 13.4003 3.82724 13.3686C4.13532 13.3259 4.45092 13.2691 4.77155 13.1989C6.04967 12.9187 7.41343 12.4252 8.74833 11.7516C10.0829 11.0781 11.2901 10.2743 12.2749 9.41282C12.7558 8.99212 13.1838 8.55761 13.5474 8.11745C14.1249 7.41847 14.5146 6.73424 14.7097 6.09142C14.8067 5.77236 14.8556 5.46334 14.8556 5.16781C14.8556 4.78318 14.7728 4.42177 14.6056 4.09016C14.2275 3.34068 13.4683 2.84781 12.4086 2.64358C12.3643 2.60781 12.3195 2.57268 12.274 2.53817C14.0653 2.49832 15.3337 3.04452 15.8611 4.09016C16.0283 4.42177 16.1111 4.78318 16.1111 5.16781Z" fill="url(#paint8_linear_222_19722)"/>
<path d="M2.43412 11.8657C2.03757 11.7336 1.75742 11.5325 1.62659 11.2727C1.49546 11.0133 1.50016 10.6694 1.62879 10.2726C1.51623 9.95135 1.42716 9.61965 1.36328 9.27869C1.29144 8.89683 1.25091 8.50389 1.2451 8.10254C0.964948 8.46448 0.73618 8.82169 0.559082 9.17043C0.59036 9.3527 0.628949 9.53246 0.674439 9.70947C0.759176 10.0393 0.777246 10.3812 0.750172 10.7207C0.733419 10.9306 0.763066 11.117 0.841654 11.2727C1.0575 11.7 1.67553 11.9679 2.55177 12.0329C2.80996 12.0523 3.09012 12.0539 3.3891 12.0366C3.3891 12.0363 3.3891 12.0363 3.3891 12.0363C3.02421 12.0131 2.70232 11.9551 2.43412 11.8657Z" fill="url(#paint9_linear_222_19722)"/>
<path d="M13.9237 15.9998C15.1318 15.9998 16.1111 15.0204 16.1111 13.8124C16.1111 12.6043 15.1318 11.625 13.9237 11.625C12.7157 11.625 11.7363 12.6043 11.7363 13.8124C11.7363 15.0204 12.7157 15.9998 13.9237 15.9998Z" fill="url(#paint10_linear_222_19722)"/>
<path d="M13.9236 11.625C13.7896 11.625 13.6586 11.6377 13.5312 11.6608C14.552 11.8457 15.3263 12.7383 15.3263 13.8124C15.3263 14.1622 15.2437 14.4925 15.0977 14.7856C15.0237 14.4524 14.717 14.2068 14.3568 14.2286C14.0068 14.2497 13.7188 14.5309 13.69 14.8804C13.6748 15.064 13.7292 15.2345 13.8297 15.3686C13.9893 15.5814 13.8773 15.8885 13.6178 15.9465C13.5892 15.9529 13.5603 15.9587 13.5313 15.964C13.6586 15.9871 13.7896 15.9998 13.9236 15.9998C15.1317 15.9998 16.111 15.0204 16.111 13.8124C16.111 12.6043 15.1316 11.625 13.9236 11.625Z" fill="url(#paint11_linear_222_19722)"/>
<path d="M12.8177 14.2272C13.0733 14.2272 13.2805 14.0201 13.2805 13.7645C13.2805 13.5089 13.0733 13.3018 12.8177 13.3018C12.5622 13.3018 12.355 13.5089 12.355 13.7645C12.355 14.0201 12.5622 14.2272 12.8177 14.2272Z" fill="url(#paint12_linear_222_19722)"/>
<path d="M14.2269 13.3015C14.4825 13.3015 14.6896 13.0943 14.6896 12.8387C14.6896 12.5832 14.4825 12.376 14.2269 12.376C13.9713 12.376 13.7642 12.5832 13.7642 12.8387C13.7642 13.0943 13.9713 13.3015 14.2269 13.3015Z" fill="url(#paint13_linear_222_19722)"/>
<path d="M13.2671 1.63469C13.7185 1.63469 14.0844 1.26876 14.0844 0.817347C14.0844 0.365939 13.7185 0 13.2671 0C12.8156 0 12.4497 0.365939 12.4497 0.817347C12.4497 1.26876 12.8156 1.63469 13.2671 1.63469Z" fill="url(#paint14_linear_222_19722)"/>
<path d="M0.928676 15.9999C1.38008 15.9999 1.74602 15.634 1.74602 15.1826C1.74602 14.7312 1.38008 14.3652 0.928676 14.3652C0.477267 14.3652 0.111328 14.7312 0.111328 15.1826C0.111328 15.634 0.477267 15.9999 0.928676 15.9999Z" fill="url(#paint15_linear_222_19722)"/>
</g>
<defs>
<linearGradient id="paint0_linear_222_19722" x1="1.10684" y1="3.0512" x2="4.52011" y2="3.0512" gradientUnits="userSpaceOnUse">
<stop stop-color="#EAF6FF"/>
<stop offset="0.5213" stop-color="#D8ECFE"/>
<stop offset="1" stop-color="#B3DAFE"/>
</linearGradient>
<linearGradient id="paint1_linear_222_19722" x1="0.416551" y1="3.16191" x2="3.76356" y2="3.16191" gradientUnits="userSpaceOnUse">
<stop stop-color="#EAF6FF"/>
<stop offset="0.5213" stop-color="#D8ECFE"/>
<stop offset="1" stop-color="#B3DAFE"/>
</linearGradient>
<linearGradient id="paint2_linear_222_19722" x1="1.24368" y1="8.00034" x2="14.9787" y2="8.00034" gradientUnits="userSpaceOnUse">
<stop stop-color="#60B7FF"/>
<stop offset="0.5857" stop-color="#0182FC"/>
<stop offset="1" stop-color="#2740B0"/>
</linearGradient>
<linearGradient id="paint3_linear_222_19722" x1="-2.60779" y1="5.89649" x2="14.3653" y2="5.89649" gradientUnits="userSpaceOnUse">
<stop stop-color="#60B7FF"/>
<stop offset="0.5857" stop-color="#0182FC"/>
<stop offset="1" stop-color="#2740B0"/>
</linearGradient>
<linearGradient id="paint4_linear_222_19722" x1="-2.60781" y1="9.13445" x2="14.3653" y2="9.13445" gradientUnits="userSpaceOnUse">
<stop stop-color="#60B7FF"/>
<stop offset="0.5857" stop-color="#0182FC"/>
<stop offset="1" stop-color="#2740B0"/>
</linearGradient>
<linearGradient id="paint5_linear_222_19722" x1="-2.60778" y1="2.68453" x2="14.3653" y2="2.68453" gradientUnits="userSpaceOnUse">
<stop stop-color="#60B7FF"/>
<stop offset="0.5857" stop-color="#0182FC"/>
<stop offset="1" stop-color="#2740B0"/>
</linearGradient>
<linearGradient id="paint6_linear_222_19722" x1="-2.60748" y1="8.00025" x2="14.3653" y2="8.00025" gradientUnits="userSpaceOnUse">
<stop stop-color="#60B7FF"/>
<stop offset="0.5857" stop-color="#0182FC"/>
<stop offset="1" stop-color="#2740B0"/>
</linearGradient>
<linearGradient id="paint7_linear_222_19722" x1="-0.323794" y1="8.00081" x2="18.7467" y2="8.00081" gradientUnits="userSpaceOnUse">
<stop stop-color="#EAF6FF"/>
<stop offset="0.5213" stop-color="#D8ECFE"/>
<stop offset="1" stop-color="#B3DAFE"/>
</linearGradient>
<linearGradient id="paint8_linear_222_19722" x1="0.0484226" y1="8.00081" x2="12.1615" y2="8.00081" gradientUnits="userSpaceOnUse">
<stop stop-color="#EAF6FF"/>
<stop offset="0.5213" stop-color="#D8ECFE"/>
<stop offset="1" stop-color="#B3DAFE"/>
</linearGradient>
<linearGradient id="paint9_linear_222_19722" x1="-3.99821" y1="10.0756" x2="2.91578" y2="10.0756" gradientUnits="userSpaceOnUse">
<stop stop-color="#EAF6FF"/>
<stop offset="0.5213" stop-color="#D8ECFE"/>
<stop offset="1" stop-color="#B3DAFE"/>
</linearGradient>
<linearGradient id="paint10_linear_222_19722" x1="11.7363" y1="13.8124" x2="16.1111" y2="13.8124" gradientUnits="userSpaceOnUse">
<stop stop-color="#EAF6FF"/>
<stop offset="0.5213" stop-color="#D8ECFE"/>
<stop offset="1" stop-color="#B3DAFE"/>
</linearGradient>
<linearGradient id="paint11_linear_222_19722" x1="10.213" y1="13.8124" x2="14.7333" y2="13.8124" gradientUnits="userSpaceOnUse">
<stop stop-color="#EAF6FF"/>
<stop offset="0.5213" stop-color="#D8ECFE"/>
<stop offset="1" stop-color="#B3DAFE"/>
</linearGradient>
<linearGradient id="paint12_linear_222_19722" x1="10.2131" y1="13.7645" x2="14.7335" y2="13.7645" gradientUnits="userSpaceOnUse">
<stop stop-color="#EAF6FF"/>
<stop offset="0.5213" stop-color="#D8ECFE"/>
<stop offset="1" stop-color="#B3DAFE"/>
</linearGradient>
<linearGradient id="paint13_linear_222_19722" x1="10.213" y1="12.8387" x2="14.7333" y2="12.8387" gradientUnits="userSpaceOnUse">
<stop stop-color="#EAF6FF"/>
<stop offset="0.5213" stop-color="#D8ECFE"/>
<stop offset="1" stop-color="#B3DAFE"/>
</linearGradient>
<linearGradient id="paint14_linear_222_19722" x1="12.0682" y1="0.817347" x2="13.7312" y2="0.817347" gradientUnits="userSpaceOnUse">
<stop stop-color="#EAF6FF"/>
<stop offset="0.5213" stop-color="#D8ECFE"/>
<stop offset="1" stop-color="#B3DAFE"/>
</linearGradient>
<linearGradient id="paint15_linear_222_19722" x1="-0.270224" y1="15.1826" x2="1.39283" y2="15.1826" gradientUnits="userSpaceOnUse">
<stop stop-color="#EAF6FF"/>
<stop offset="0.5213" stop-color="#D8ECFE"/>
<stop offset="1" stop-color="#B3DAFE"/>
</linearGradient>
<clipPath id="clip0_222_19722">
<rect width="16" height="16" fill="white" transform="translate(0.111328)"/>
</clipPath>
</defs>
</svg>
