<svg width="17" height="16" viewBox="0 0 17 16" fill="none" xmlns="http://www.w3.org/2000/svg">
<g clip-path="url(#clip0_222_19777)">
<path d="M8.11133 16C12.5296 16 16.1113 12.4183 16.1113 8C16.1113 3.58172 12.5296 0 8.11133 0C3.69305 0 0.111328 3.58172 0.111328 8C0.111328 12.4183 3.69305 16 8.11133 16Z" fill="url(#paint0_linear_222_19777)"/>
<path d="M8.96186 3.82384C9.32164 3.46406 9.79763 3.2432 10.3048 3.20238C11.6978 3.09023 12.9579 2.87382 13.9958 2.58111C12.5339 0.994353 10.4388 0 8.1112 0C6.44158 0 4.89159 0.511624 3.60911 1.38654C2.81325 1.92947 2.70868 3.06322 3.38991 3.74447C3.72895 4.08351 4.27866 4.08351 4.6177 3.74447C4.95518 3.407 5.50172 3.40521 5.84142 3.74042C5.8722 3.77079 5.90363 3.80182 5.93557 3.83335C6.77548 4.66262 8.12726 4.65845 8.96186 3.82384Z" fill="url(#paint1_linear_222_19777)"/>
<path d="M8.11133 5.82683C8.11133 6.22417 8.4392 6.54244 8.83641 6.53256C10.9891 6.47897 12.9978 6.18733 14.5555 5.69786C14.9102 5.58639 15.2821 5.45102 15.6399 5.28876C15.4793 4.84274 15.2804 4.415 15.0468 4.00977C14.7955 4.12233 14.4938 4.2374 14.1323 4.351C12.6955 4.80249 10.8221 5.07163 8.79845 5.12136C8.41608 5.1308 8.11133 5.44434 8.11133 5.82683Z" fill="url(#paint2_linear_222_19777)"/>
<path d="M8.11133 0C7.90003 0 7.69072 0.0083451 7.48356 0.0244078C8.36046 0.0924863 9.1977 0.301929 9.97247 0.629992C12.6407 1.75978 11.8942 5.73123 8.99804 5.82218C8.70644 5.83134 8.41062 5.83602 8.1113 5.83602C5.09925 5.83602 2.44074 5.36113 0.851093 4.63674C0.376646 5.65929 0.111328 6.79859 0.111328 8V8.01437C0.112771 8.82842 0.42085 9.61214 0.964567 10.218L1.17301 10.4502C1.51814 10.8347 2.06775 10.9434 2.54389 10.7426C2.947 10.5727 3.41028 10.634 3.75516 10.9023C4.41134 11.4129 5.26292 11.5989 6.06185 11.3687L6.84774 11.1423C7.31337 11.0082 7.81282 11.1407 8.1566 11.4822C8.40516 11.7292 8.74138 11.8678 9.09191 11.8678H9.69501C10.3121 11.8678 10.8992 11.6169 11.3377 11.1828C11.6705 10.8532 12.0957 10.6325 12.5569 10.5499C12.7094 10.5225 12.8577 10.4948 12.968 10.4719C13.698 10.3201 14.2772 11.0838 13.928 11.7426C13.9235 11.751 13.919 11.7595 13.9144 11.7679C13.7956 11.9901 13.5882 12.1516 13.3435 12.2115C12.3761 12.4484 11.2636 12.6145 10.072 12.7013C9.5833 12.7369 9.092 12.6939 8.61608 12.5774C8.15672 12.465 7.68309 12.4221 7.21103 12.4503L5.47205 12.554C5.13749 12.574 4.80472 12.4923 4.51741 12.3197C4.39942 12.2488 4.26888 12.1704 4.1405 12.0933C3.69699 11.8268 3.15462 11.7822 2.67349 11.9725C2.48824 12.0458 2.28341 12.0533 2.09332 11.9936L2.09034 11.9926C1.60457 11.84 1.22653 11.6846 0.934042 11.5363C1.29683 12.2712 1.76877 12.9426 2.32934 13.5286C3.96262 13.9526 5.98474 14.1832 8.11133 14.1832C8.12614 14.1832 8.14094 14.1832 8.15575 14.1832C9.1918 14.1817 9.32761 15.6813 8.30857 15.8683C8.03807 15.9179 7.76284 15.9539 7.48356 15.9756C7.69072 15.9917 7.90003 16 8.11133 16C12.5296 16 16.1113 12.4183 16.1113 8C16.1113 3.58171 12.5296 0 8.11133 0Z" fill="url(#paint3_linear_222_19777)"/>
<path d="M14.6035 12.6748C12.9924 13.2258 10.6804 13.5713 8.11143 13.5713C5.54255 13.5713 3.23067 13.2259 1.61963 12.6749C1.83657 12.9758 2.07365 13.2611 2.32943 13.5285C3.96272 13.9525 5.98484 14.1831 8.11143 14.1831C8.1262 14.1831 8.14098 14.1831 8.15575 14.183C9.18738 14.1815 9.33348 15.6787 8.31905 15.8662C8.04523 15.9168 7.76652 15.9535 7.48366 15.9754C7.69081 15.9915 7.90013 15.9999 8.11143 15.9999C10.7843 15.9999 13.1507 14.6887 14.6035 12.6748Z" fill="url(#paint4_linear_222_19777)"/>
<path d="M16.1115 7.99952C16.1115 8.39042 16.083 8.77442 16.0287 9.15026C15.7746 9.25003 15.5195 9.33881 15.272 9.41693C13.3482 10.0215 10.8052 10.3543 8.11154 10.3543C7.5575 10.3543 7.01005 10.3402 6.47327 10.3123C6.10746 10.2935 5.82135 9.9901 5.82135 9.62399C5.82135 9.27199 5.55625 8.97614 5.20644 8.93881C3.89162 8.7992 2.68346 8.56422 1.66731 8.24485C1.15656 8.08422 0.610053 7.87434 0.121582 7.60579C0.147308 7.07999 0.223229 6.56736 0.345582 6.07324C0.501817 6.19939 0.984421 6.43829 1.30875 6.59261C1.51534 6.6909 1.69457 6.8382 1.83135 7.0216L1.88638 7.09539C2.23976 7.56918 2.85156 7.77163 3.41777 7.60212C3.78825 7.49122 4.18872 7.54854 4.51321 7.75889L4.65366 7.84993C4.99082 8.0685 5.42856 8.05357 5.75001 7.81247C5.93303 7.67522 6.15895 7.60852 6.38728 7.62298C6.9479 7.6585 7.525 7.67669 8.11154 7.67669C10.3961 7.67669 12.5344 7.4003 14.1326 6.89803C15.0461 6.61097 15.5792 6.31418 15.8775 6.07324C15.9995 6.56736 16.0764 7.07967 16.1018 7.60548C16.1081 7.73599 16.1115 7.86744 16.1115 7.99952Z" fill="url(#paint5_linear_222_19777)"/>
<path d="M11.9704 8.03428C10.7926 8.22145 9.47801 8.32059 8.1112 8.32059C7.98957 8.32059 7.86834 8.3198 7.74762 8.31827C7.35487 8.31325 7.03418 8.6307 7.03418 9.02349V9.02434C7.03418 9.41091 7.34524 9.72492 7.73178 9.7299C7.8578 9.73154 7.9843 9.73235 8.1112 9.73235C9.54759 9.73235 10.9365 9.62697 12.19 9.42804C12.533 9.37361 12.7857 9.0783 12.7857 8.73097C12.7857 8.2975 12.3985 7.96623 11.9704 8.03428Z" fill="url(#paint6_linear_222_19777)"/>
<path d="M14.3652 7.46565C14.2904 7.49109 14.2128 7.51653 14.1321 7.54188C14.0784 7.55873 14.024 7.57536 13.9691 7.59173C13.67 7.6808 13.4648 7.95572 13.4648 8.26775V8.26856C13.4648 8.74022 13.9191 9.07951 14.3712 8.94502C14.4333 8.92654 14.4946 8.90778 14.5554 8.88871C14.6429 8.86126 14.7315 8.8323 14.8207 8.80187C15.1052 8.70468 15.2954 8.43575 15.2954 8.13508V8.13432C15.2954 7.65206 14.8218 7.31026 14.3652 7.46565Z" fill="url(#paint7_linear_222_19777)"/>
<path d="M14.1326 4.35101C13.2077 4.64164 12.1017 4.85654 10.8915 4.98617C10.4456 5.46922 9.8054 5.79646 8.99787 5.82184C8.70648 5.831 8.41089 5.83568 8.11182 5.83568C8.11665 6.22887 8.44245 6.54238 8.83668 6.53256C10.9894 6.47897 12.9981 6.18733 14.5558 5.69786C14.9105 5.58639 15.2824 5.45102 15.6402 5.28876C15.4795 4.84274 15.2807 4.415 15.0471 4.00977C14.7957 4.1223 14.494 4.23741 14.1326 4.35101Z" fill="url(#paint8_linear_222_19777)"/>
<path d="M7.48438 0.0244706C8.36083 0.0925804 9.19766 0.301929 9.97209 0.629804C11.0933 1.10447 11.6114 2.08097 11.6207 3.06049C12.4951 2.94105 13.2962 2.77848 13.9961 2.58111C12.5342 0.994353 10.4391 0 8.11145 0C7.90041 0 7.69131 0.00843922 7.48438 0.0244706Z" fill="url(#paint9_linear_222_19777)"/>
</g>
<defs>
<linearGradient id="paint0_linear_222_19777" x1="-0.147809" y1="8" x2="16.0529" y2="8" gradientUnits="userSpaceOnUse">
<stop stop-color="#60B7FF"/>
<stop offset="0.5857" stop-color="#0182FC"/>
<stop offset="1" stop-color="#2740B0"/>
</linearGradient>
<linearGradient id="paint1_linear_222_19777" x1="-2.99469" y1="2.22629" x2="15.2738" y2="2.22629" gradientUnits="userSpaceOnUse">
<stop stop-color="#60B7FF"/>
<stop offset="0.5857" stop-color="#0182FC"/>
<stop offset="1" stop-color="#2740B0"/>
</linearGradient>
<linearGradient id="paint2_linear_222_19777" x1="5.03682" y1="5.27129" x2="14.2294" y2="5.27129" gradientUnits="userSpaceOnUse">
<stop stop-color="#60B7FF"/>
<stop offset="0.5857" stop-color="#0182FC"/>
<stop offset="1" stop-color="#2740B0"/>
</linearGradient>
<linearGradient id="paint3_linear_222_19777" x1="-3.39731" y1="8" x2="14.815" y2="8" gradientUnits="userSpaceOnUse">
<stop stop-color="#60B7FF"/>
<stop offset="0.5857" stop-color="#0182FC"/>
<stop offset="1" stop-color="#2740B0"/>
</linearGradient>
<linearGradient id="paint4_linear_222_19777" x1="-7.26112" y1="14.3373" x2="13.3622" y2="14.3373" gradientUnits="userSpaceOnUse">
<stop stop-color="#60B7FF"/>
<stop offset="0.5857" stop-color="#0182FC"/>
<stop offset="1" stop-color="#2740B0"/>
</linearGradient>
<linearGradient id="paint5_linear_222_19777" x1="-3.30816" y1="8.21379" x2="18.8527" y2="8.21379" gradientUnits="userSpaceOnUse">
<stop stop-color="#60B7FF"/>
<stop offset="0.5857" stop-color="#0182FC"/>
<stop offset="1" stop-color="#2740B0"/>
</linearGradient>
<linearGradient id="paint6_linear_222_19777" x1="-3.17247" y1="8.87886" x2="14.4186" y2="8.87886" gradientUnits="userSpaceOnUse">
<stop stop-color="#60B7FF"/>
<stop offset="0.5857" stop-color="#0182FC"/>
<stop offset="1" stop-color="#2740B0"/>
</linearGradient>
<linearGradient id="paint7_linear_222_19777" x1="-3.17256" y1="8.20121" x2="14.4185" y2="8.20121" gradientUnits="userSpaceOnUse">
<stop stop-color="#60B7FF"/>
<stop offset="0.5857" stop-color="#0182FC"/>
<stop offset="1" stop-color="#2740B0"/>
</linearGradient>
<linearGradient id="paint8_linear_222_19777" x1="-10.6492" y1="5.27126" x2="14.5561" y2="5.27126" gradientUnits="userSpaceOnUse">
<stop stop-color="#60B7FF"/>
<stop offset="0.5857" stop-color="#0182FC"/>
<stop offset="1" stop-color="#2740B0"/>
</linearGradient>
<linearGradient id="paint9_linear_222_19777" x1="-0.0767863" y1="1.53023" x2="13.5391" y2="1.53023" gradientUnits="userSpaceOnUse">
<stop stop-color="#60B7FF"/>
<stop offset="0.5857" stop-color="#0182FC"/>
<stop offset="1" stop-color="#2740B0"/>
</linearGradient>
<clipPath id="clip0_222_19777">
<rect width="16" height="16" fill="white" transform="translate(0.111328)"/>
</clipPath>
</defs>
</svg>
