<svg width="17" height="16" viewBox="0 0 17 16" fill="none" xmlns="http://www.w3.org/2000/svg">
<g clip-path="url(#clip0_222_19818)">
<path d="M8.11133 16C12.5296 16 16.1113 12.4183 16.1113 8C16.1113 3.58172 12.5296 0 8.11133 0C3.69305 0 0.111328 3.58172 0.111328 8C0.111328 12.4183 3.69305 16 8.11133 16Z" fill="url(#paint0_linear_222_19818)"/>
<path d="M0.95853 5.87266C2.35737 5.85171 4.02165 5.43244 5.6448 4.69214C6.49309 4.30526 7.28248 3.8524 7.97604 3.35938C8.32132 3.11395 8.37127 2.62027 8.08455 2.30843C7.84459 2.04744 7.44766 2.00421 7.15869 2.2096C6.54018 2.64923 5.8289 3.05651 5.05895 3.40766C3.60929 4.06883 2.14554 4.44295 0.937385 4.46105C0.936695 4.46105 0.936005 4.46105 0.935314 4.46105C0.715957 4.90507 0.536506 5.37227 0.401855 5.85817C0.546703 5.86818 0.69613 5.87345 0.850483 5.87345C0.886216 5.87348 0.922295 5.8732 0.95853 5.87266Z" fill="url(#paint1_linear_222_19818)"/>
<path d="M8.11161 0C7.90032 0 7.691 0.0083451 7.48385 0.0244078C8.36592 0.0928627 9.20786 0.304439 9.98646 0.635859C11.5876 1.31736 11.8769 3.47373 10.5115 4.55241C10.5004 4.56116 10.4896 4.56957 10.479 4.57769C9.51268 5.31909 8.3587 6.0048 7.09385 6.58171C6.7459 6.74042 6.39726 6.88728 6.04974 7.02196C5.77828 7.12718 5.59961 7.38842 5.59961 7.67956C5.59961 8.17547 6.09762 8.51718 6.56005 8.3381C6.93341 8.19351 7.30728 8.03605 7.6797 7.8662C9.50615 7.03316 11.1308 5.97835 12.3556 4.83962C12.4218 4.77813 12.5206 4.67777 12.6334 4.55931C13.1077 4.0613 13.9361 4.20907 14.208 4.84082C14.2096 4.84464 14.2112 4.84844 14.2129 4.85227C14.3531 5.17983 14.3048 5.5594 14.082 5.83752C13.9972 5.94344 13.9067 6.0502 13.8107 6.15752C13.7579 6.21653 13.7035 6.27542 13.6481 6.33418C13.376 5.93054 12.8682 5.69892 12.3221 5.83668C11.7857 5.97195 11.4187 6.46748 11.422 7.02061C11.422 7.02494 11.422 7.02927 11.4221 7.0336C11.4338 7.75153 11.065 8.42014 10.4418 8.77675C10.276 8.87166 10.1072 8.96477 9.93561 9.05597C9.6392 9.21352 9.48203 9.55517 9.57348 9.87818C9.69649 10.3126 10.1877 10.5202 10.5838 10.3099C10.7926 10.1989 10.998 10.0852 11.1994 9.96894C11.8692 9.58231 12.7046 10.077 12.6916 10.8502C12.6847 11.2593 12.4279 11.621 12.0455 11.7663C11.252 12.0679 10.6765 12.8203 10.6334 13.7039C10.6123 14.1381 10.7186 14.5455 10.9172 14.8936C9.89643 15.4962 8.73028 15.8788 7.48388 15.9755C7.691 15.9917 7.90032 16 8.11161 16C12.5299 16 16.1116 12.4183 16.1116 8C16.1116 3.58171 12.5299 0 8.11161 0Z" fill="url(#paint2_linear_222_19818)"/>
<path d="M8.23173 10.5575C8.07662 10.231 7.69949 10.0737 7.3591 10.1953C5.83038 10.7413 4.341 11.0447 3.05331 11.064C3.01212 11.0646 2.97146 11.065 2.9309 11.065C1.78956 11.0649 0.91477 10.8207 0.475586 10.3924C0.691649 11.0828 0.998817 11.7329 1.38294 12.3288C1.84622 12.4266 2.36305 12.4768 2.92826 12.4768C2.97661 12.4768 3.02542 12.4764 3.07449 12.4757C4.51041 12.4541 6.15502 12.1224 7.8284 11.5261C8.22319 11.3854 8.41159 10.9361 8.23173 10.5575Z" fill="url(#paint3_linear_222_19818)"/>
<path d="M8.95587 14.082C8.95587 13.4101 8.41115 12.8654 7.73921 12.8654C7.42226 12.8654 7.13372 12.9867 6.91719 13.1852C6.77871 12.9306 6.50888 12.7578 6.1987 12.7578C5.74728 12.7578 5.38135 13.1238 5.38135 13.5752C5.38135 14.0266 5.74731 14.3925 6.1987 14.3925C6.32259 14.3925 6.43995 14.3648 6.54518 14.3155C6.6541 14.8757 7.14715 15.2987 7.73921 15.2987C8.41115 15.2987 8.95587 14.754 8.95587 14.082Z" fill="url(#paint4_linear_222_19818)"/>
<path d="M1.6377 9.90527C1.6377 10.3567 2.00362 10.7226 2.45504 10.7226C2.90646 10.7226 3.27239 10.3567 3.27239 9.90527C3.27239 9.45385 2.90643 9.08789 2.45504 9.08789C2.00366 9.08789 1.6377 9.45385 1.6377 9.90527Z" fill="url(#paint5_linear_222_19818)"/>
<path d="M6.26124 7.19014C5.00571 7.95848 4.61076 9.59914 5.3791 10.8547L7.06883 13.6158C7.67228 14.6019 8.96088 14.9121 9.94698 14.3087L12.7081 12.6189C13.9637 11.8506 14.3586 10.2099 13.5903 8.9544C12.8219 7.69888 11.1813 7.30393 9.92574 8.07227C9.15742 6.81674 7.51677 6.42179 6.26124 7.19014Z" fill="url(#paint6_linear_222_19818)"/>
<path d="M13.5905 8.9544C12.8221 7.69888 11.1815 7.30393 9.92595 8.07227C9.15761 6.81674 7.51695 6.42179 6.26142 7.19014C6.25869 7.1918 6.25612 7.19365 6.25342 7.19531C6.98625 7.15641 7.7172 7.42176 8.25524 7.94553C8.52401 8.20714 8.91083 8.30578 9.26885 8.19397C10.4073 7.83845 11.6841 8.28448 12.3349 9.34804C13.1033 10.6036 12.7083 12.2442 11.4528 13.0126L8.83246 14.6161C9.21276 14.6205 9.59883 14.5218 9.94716 14.3087L12.7083 12.6189C13.9639 11.8506 14.3588 10.2099 13.5905 8.9544Z" fill="url(#paint7_linear_222_19818)"/>
</g>
<defs>
<linearGradient id="paint0_linear_222_19818" x1="-0.147809" y1="8" x2="17.8698" y2="8" gradientUnits="userSpaceOnUse">
<stop stop-color="#FECA9C"/>
<stop offset="0.5213" stop-color="#FD8087"/>
<stop offset="1" stop-color="#F46700"/>
</linearGradient>
<linearGradient id="paint1_linear_222_19818" x1="-2.36439" y1="3.97679" x2="16.5062" y2="3.97679" gradientUnits="userSpaceOnUse">
<stop stop-color="#FECA9C"/>
<stop offset="0.5213" stop-color="#FD8087"/>
<stop offset="1" stop-color="#F46700"/>
</linearGradient>
<linearGradient id="paint2_linear_222_19818" x1="-2.36431" y1="8" x2="16.5063" y2="8" gradientUnits="userSpaceOnUse">
<stop stop-color="#FECA9C"/>
<stop offset="0.5213" stop-color="#FD8087"/>
<stop offset="1" stop-color="#F46700"/>
</linearGradient>
<linearGradient id="paint3_linear_222_19818" x1="-2.36429" y1="11.3155" x2="16.5063" y2="11.3155" gradientUnits="userSpaceOnUse">
<stop stop-color="#FECA9C"/>
<stop offset="0.5213" stop-color="#FD8087"/>
<stop offset="1" stop-color="#F46700"/>
</linearGradient>
<linearGradient id="paint4_linear_222_19818" x1="-2.36457" y1="14.0282" x2="16.506" y2="14.0282" gradientUnits="userSpaceOnUse">
<stop stop-color="#FECA9C"/>
<stop offset="0.5213" stop-color="#FD8087"/>
<stop offset="1" stop-color="#F46700"/>
</linearGradient>
<linearGradient id="paint5_linear_222_19818" x1="-2.36441" y1="9.90524" x2="16.5062" y2="9.90524" gradientUnits="userSpaceOnUse">
<stop stop-color="#FECA9C"/>
<stop offset="0.5213" stop-color="#FD8087"/>
<stop offset="1" stop-color="#F46700"/>
</linearGradient>
<linearGradient id="paint6_linear_222_19818" x1="-3.02353" y1="10.7073" x2="13.9874" y2="10.7073" gradientUnits="userSpaceOnUse">
<stop stop-color="#FECA9C"/>
<stop offset="0.5213" stop-color="#FD8087"/>
<stop offset="1" stop-color="#F46700"/>
</linearGradient>
<linearGradient id="paint7_linear_222_19818" x1="-8.85833" y1="10.707" x2="10.2942" y2="10.707" gradientUnits="userSpaceOnUse">
<stop stop-color="#FECA9C"/>
<stop offset="0.5213" stop-color="#FD8087"/>
<stop offset="1" stop-color="#F46700"/>
</linearGradient>
<clipPath id="clip0_222_19818">
<rect width="16" height="16" fill="white" transform="translate(0.111328)"/>
</clipPath>
</defs>
</svg>
