<svg width="17" height="16" viewBox="0 0 17 16" fill="none" xmlns="http://www.w3.org/2000/svg">
<g clip-path="url(#clip0_222_19882)">
<path d="M2.58147 2.88106C2.48343 2.79572 2.33476 2.80605 2.24939 2.90412C1.41363 3.86456 0.822412 5.0249 0.539682 6.25969C0.510663 6.38641 0.589878 6.51265 0.716592 6.54167C0.734255 6.54572 0.751917 6.54766 0.769329 6.54766C0.876623 6.54766 0.973596 6.47381 0.998568 6.36476C1.26407 5.20517 1.8194 4.11535 2.6045 3.21314C2.68983 3.11507 2.67951 2.96639 2.58147 2.88106Z" fill="url(#paint0_linear_222_19882)"/>
<path d="M0.617821 7.19696C0.488158 7.18723 0.375248 7.28452 0.365585 7.41415C0.351091 7.60778 0.34375 7.80496 0.34375 8.00022C0.34375 8.13023 0.44913 8.23561 0.579138 8.23561C0.709146 8.23561 0.814527 8.13023 0.814527 8.00022C0.814527 7.8166 0.821428 7.63125 0.835013 7.44923C0.844676 7.31959 0.747452 7.20665 0.617821 7.19696Z" fill="url(#paint1_linear_222_19882)"/>
<path d="M2.6843 12.8778C2.59733 12.7811 2.4485 12.7732 2.3519 12.8602C2.25525 12.9471 2.24737 13.096 2.3343 13.1926C2.51134 13.3894 2.70048 13.5793 2.8965 13.7569C2.94158 13.7978 2.99812 13.8179 3.05449 13.8179C3.11862 13.8179 3.18252 13.7918 3.22899 13.7406C3.31626 13.6443 3.30895 13.4954 3.21264 13.4081C3.02842 13.2412 2.85066 13.0627 2.6843 12.8778Z" fill="url(#paint2_linear_222_19882)"/>
<path d="M12.4736 13.8476C11.2061 14.7948 9.69734 15.2955 8.11039 15.2955C6.60112 15.2955 5.15296 14.8387 3.92243 13.9746C3.81602 13.8998 3.66926 13.9255 3.59453 14.0319C3.51983 14.1383 3.54549 14.2851 3.65188 14.3598C4.96206 15.2799 6.5038 15.7663 8.11039 15.7663C9.7997 15.7663 11.4059 15.2332 12.7553 14.2248C12.8595 14.147 12.8808 13.9994 12.803 13.8953C12.7252 13.7912 12.5777 13.7698 12.4736 13.8476Z" fill="url(#paint3_linear_222_19882)"/>
<path d="M15.4334 5.40586C15.39 5.28332 15.2555 5.21925 15.133 5.26255C15.0104 5.30597 14.9463 5.44046 14.9897 5.563C15.2662 6.34365 15.4064 7.16338 15.4064 7.99949C15.4064 9.84765 14.7141 11.6107 13.457 12.9639C13.3685 13.0591 13.374 13.2081 13.4692 13.2965C13.5145 13.3386 13.572 13.3595 13.6293 13.3595C13.6925 13.3595 13.7554 13.3342 13.8018 13.2843C15.1401 11.8438 15.8771 9.96689 15.8771 7.99952C15.8771 7.10973 15.7278 6.23711 15.4334 5.40586Z" fill="url(#paint4_linear_222_19882)"/>
<path d="M12.223 1.97285C12.3303 2.0462 12.4768 2.01868 12.5501 1.91139C12.6235 1.80407 12.596 1.65762 12.4887 1.58424C11.1961 0.700536 9.68213 0.233398 8.11043 0.233398C6.31234 0.233398 4.55921 0.862104 3.17405 2.00372C3.07375 2.08639 3.05945 2.23475 3.14212 2.33505C3.18864 2.39152 3.256 2.42072 3.32389 2.42072C3.37656 2.42072 3.42961 2.40312 3.47344 2.36698C4.77452 1.2947 6.4213 0.704144 8.11043 0.704144C9.58695 0.704175 11.009 1.14286 12.223 1.97285Z" fill="url(#paint5_linear_222_19882)"/>
<path d="M8.11071 13.6013C11.204 13.6013 13.7116 11.0937 13.7116 8.00036C13.7116 4.90704 11.204 2.39941 8.11071 2.39941C5.01739 2.39941 2.50977 4.90704 2.50977 8.00036C2.50977 11.0937 5.01739 13.6013 8.11071 13.6013Z" fill="url(#paint6_linear_222_19882)"/>
<path d="M13.7118 8.00023C13.7118 11.0934 11.204 13.6012 8.11083 13.6012C6.28118 13.6012 4.65646 12.7237 3.63428 11.3667L13.2938 5.87305C13.5631 6.52898 13.7118 7.24735 13.7118 8.00023Z" fill="url(#paint7_linear_222_19882)"/>
<path d="M5.5116 6.38544C5.436 5.97462 5.02194 5.7194 4.62078 5.83589C4.43217 5.89067 4.2455 5.93951 4.06147 5.98227C3.74273 6.05631 3.51807 6.34152 3.51807 6.66874C3.51807 7.1222 3.9399 7.45917 4.3816 7.35649C4.59154 7.3077 4.80393 7.25211 5.01808 7.18996C5.36456 7.08941 5.57695 6.74055 5.51167 6.38576L5.5116 6.38544Z" fill="url(#paint8_linear_222_19882)"/>
<path d="M8.11063 2.39941C7.8983 2.39941 7.68883 2.41165 7.48265 2.43465C7.48268 2.43512 7.48262 2.43436 7.48265 2.43483C8.4706 2.52977 8.76459 3.82291 7.9303 4.34439C7.71672 4.47788 7.49526 4.60741 7.26699 4.73218C6.93548 4.91339 6.79258 5.32494 6.95672 5.66523C7.13206 6.02878 7.5762 6.17209 7.93034 5.9788C8.81046 5.49836 9.60654 4.94909 10.2712 4.36594C10.5393 4.13071 10.949 4.16315 11.1761 4.43819C11.1787 4.44136 11.1813 4.4445 11.1839 4.44766C11.3845 4.69168 11.3763 5.04569 11.163 5.27872C10.9565 5.50442 10.7077 5.76622 10.5589 5.89802C10.158 6.25284 9.69746 6.59581 9.19142 6.91653C8.87979 7.11405 8.76042 7.51982 8.93146 7.84672C9.00867 7.99424 9.12964 8.10203 9.26916 8.16425L3.63672 11.3701C3.79785 11.5837 3.97385 11.7854 4.16328 11.9736L12.161 7.42144C12.248 7.37187 12.34 7.48343 12.2723 7.55728C12.2716 7.55803 12.2709 7.55879 12.2702 7.55954C11.4846 8.40553 10.3387 9.21513 9.01065 9.8584C8.48303 10.114 7.95261 10.3307 7.43273 10.505C7.03223 10.6392 6.82423 11.0722 6.9922 11.4598C7.13793 11.7961 7.51455 11.9649 7.8584 11.8506C8.44425 11.6559 9.03854 11.4142 9.62634 11.1294C9.74022 11.0743 9.85297 11.0179 9.96453 10.9605C10.6485 10.6081 11.294 11.5002 10.7399 12.0341C9.87459 12.8677 8.74172 13.4255 7.48268 13.566C7.68886 13.589 7.89833 13.6013 8.11066 13.6013C11.204 13.6013 13.7116 11.0937 13.7116 8.00032C13.7116 4.90699 11.2039 2.39941 8.11063 2.39941Z" fill="url(#paint9_linear_222_19882)"/>
<path d="M16.0324 3.52462C15.8443 3.16475 15.3972 3.03533 15.0473 3.23439L15.0305 3.24393C14.2711 3.67587 13.3226 3.56484 12.6762 2.97698C11.4584 1.86934 9.83635 1.19847 8.05727 1.21212C4.30819 1.24086 1.30976 4.27414 1.32228 8.02332C1.32382 8.4834 1.37122 8.93262 1.46007 9.36675C1.63453 10.2192 1.24052 11.0869 0.484192 11.5171C0.134545 11.716 0.00281142 12.1696 0.210309 12.5143C0.34358 12.7356 0.579376 12.8595 0.821917 12.8595C0.941447 12.8595 1.06258 12.8294 1.17389 12.7661L2.595 11.9578C3.83679 13.6854 5.86985 14.806 8.16388 14.7884C11.913 14.7596 14.9114 11.7263 14.8989 7.97717C14.8957 7.01905 14.6935 6.1079 14.3323 5.28224L15.7377 4.48293C16.074 4.29168 16.2116 3.8674 16.0324 3.52462ZM2.50963 8.00023C2.50963 4.90693 5.01724 2.39929 8.11058 2.39929C9.94026 2.39929 11.5649 3.27675 12.587 4.63367L2.92805 10.1272C2.65859 9.47132 2.50963 8.7532 2.50963 8.00023ZM13.7115 8.00023C13.7115 11.0935 11.2039 13.6012 8.11058 13.6012C6.2809 13.6012 4.6563 12.7237 3.63418 11.3668L13.2931 5.87333C13.5626 6.52914 13.7115 7.24726 13.7115 8.00023Z" fill="url(#paint10_linear_222_19882)"/>
<path d="M11.4203 2.97698C11.9669 3.47414 12.7296 3.63019 13.4114 3.40522C13.1447 3.31788 12.8934 3.17447 12.6762 2.97698C11.4585 1.86934 9.83637 1.19847 8.05729 1.21212C7.8635 1.21359 7.67188 1.22357 7.48242 1.24079C8.99273 1.37933 10.3598 2.01243 11.4203 2.97698Z" fill="url(#paint11_linear_222_19882)"/>
<path d="M16.0325 3.52426C15.8444 3.16438 15.3973 3.03497 15.0474 3.23403L15.0306 3.24357C14.921 3.30594 14.8073 3.3566 14.6913 3.39651C14.7235 3.43513 14.7522 3.47773 14.7766 3.52426C14.9557 3.86703 14.8181 4.29135 14.4819 4.48256L0.252441 12.5755C0.389947 12.758 0.603092 12.8591 0.821979 12.8591C0.941508 12.8591 1.06264 12.829 1.17395 12.7657L14.3324 5.28187L15.7378 4.48256C16.0741 4.29132 16.2117 3.86703 16.0325 3.52426Z" fill="url(#paint12_linear_222_19882)"/>
<path d="M14.5164 5.17676L14.3325 5.28142L14.5165 5.17682L14.5164 5.17676Z" fill="url(#paint13_linear_222_19882)"/>
<path d="M2.59766 11.9615C2.75292 12.1772 2.92048 12.3834 3.09937 12.5791L4.16333 11.9735C3.97391 11.7853 3.79778 11.5837 3.63668 11.3701L2.59766 11.9615Z" fill="url(#paint14_linear_222_19882)"/>
<path d="M14.3324 5.28223L13.3003 5.86927C13.3135 5.90933 13.3269 5.94933 13.3394 5.98971C13.5795 6.61377 13.7116 7.29151 13.7116 8.00022C13.7116 8.69437 13.585 9.35884 13.3541 9.97227C12.5718 12.5704 10.2807 14.5047 7.48438 14.7595C7.708 14.78 7.93457 14.7901 8.16394 14.7884C11.913 14.7596 14.9114 11.7263 14.8989 7.97713C14.8958 7.01901 14.6937 6.10786 14.3324 5.28223Z" fill="url(#paint15_linear_222_19882)"/>
<path d="M14.4246 2.49177C14.8762 2.49177 15.2423 2.12569 15.2423 1.67411C15.2423 1.22253 14.8762 0.856445 14.4246 0.856445C13.973 0.856445 13.6069 1.22253 13.6069 1.67411C13.6069 2.12569 13.973 2.49177 14.4246 2.49177Z" fill="url(#paint16_linear_222_19882)"/>
<path d="M1.61649 15.6011C2.06807 15.6011 2.43415 15.2351 2.43415 14.7835C2.43415 14.3319 2.06807 13.9658 1.61649 13.9658C1.16491 13.9658 0.798828 14.3319 0.798828 14.7835C0.798828 15.2351 1.16491 15.6011 1.61649 15.6011Z" fill="url(#paint17_linear_222_19882)"/>
</g>
<defs>
<linearGradient id="paint0_linear_222_19882" x1="-1.33599" y1="4.68545" x2="17.2897" y2="4.68545" gradientUnits="userSpaceOnUse">
<stop stop-color="#FBC56D"/>
<stop offset="0.5841" stop-color="#FE9738"/>
<stop offset="0.9984" stop-color="#FB2B3A"/>
</linearGradient>
<linearGradient id="paint1_linear_222_19882" x1="-1.33609" y1="7.71596" x2="17.2896" y2="7.71596" gradientUnits="userSpaceOnUse">
<stop stop-color="#FBC56D"/>
<stop offset="0.5841" stop-color="#FE9738"/>
<stop offset="0.9984" stop-color="#FB2B3A"/>
</linearGradient>
<linearGradient id="paint2_linear_222_19882" x1="-1.33613" y1="13.3089" x2="17.2896" y2="13.3089" gradientUnits="userSpaceOnUse">
<stop stop-color="#FBC56D"/>
<stop offset="0.5841" stop-color="#FE9738"/>
<stop offset="0.9984" stop-color="#FB2B3A"/>
</linearGradient>
<linearGradient id="paint3_linear_222_19882" x1="-1.33605" y1="14.7835" x2="17.2897" y2="14.7835" gradientUnits="userSpaceOnUse">
<stop stop-color="#FBC56D"/>
<stop offset="0.5841" stop-color="#FE9738"/>
<stop offset="0.9984" stop-color="#FB2B3A"/>
</linearGradient>
<linearGradient id="paint4_linear_222_19882" x1="-1.33588" y1="9.30427" x2="17.2898" y2="9.30427" gradientUnits="userSpaceOnUse">
<stop stop-color="#FBC56D"/>
<stop offset="0.5841" stop-color="#FE9738"/>
<stop offset="0.9984" stop-color="#FB2B3A"/>
</linearGradient>
<linearGradient id="paint5_linear_222_19882" x1="-1.336" y1="1.32708" x2="17.2897" y2="1.32708" gradientUnits="userSpaceOnUse">
<stop stop-color="#FBC56D"/>
<stop offset="0.5841" stop-color="#FE9738"/>
<stop offset="0.9984" stop-color="#FB2B3A"/>
</linearGradient>
<linearGradient id="paint6_linear_222_19882" x1="2.74415" y1="8.00036" x2="13.7673" y2="8.00036" gradientUnits="userSpaceOnUse">
<stop stop-color="#814AA0"/>
<stop offset="1" stop-color="#192A7D"/>
</linearGradient>
<linearGradient id="paint7_linear_222_19882" x1="-2.37124" y1="9.73714" x2="12.4731" y2="9.73714" gradientUnits="userSpaceOnUse">
<stop stop-color="#814AA0"/>
<stop offset="1" stop-color="#192A7D"/>
</linearGradient>
<linearGradient id="paint8_linear_222_19882" x1="-4.51704" y1="6.59131" x2="13.0988" y2="6.59131" gradientUnits="userSpaceOnUse">
<stop stop-color="#814AA0"/>
<stop offset="1" stop-color="#192A7D"/>
</linearGradient>
<linearGradient id="paint9_linear_222_19882" x1="-13.1959" y1="8.00036" x2="12.8073" y2="8.00036" gradientUnits="userSpaceOnUse">
<stop stop-color="#814AA0"/>
<stop offset="1" stop-color="#192A7D"/>
</linearGradient>
<linearGradient id="paint10_linear_222_19882" x1="0.111329" y1="8.00023" x2="16.1113" y2="8.00023" gradientUnits="userSpaceOnUse">
<stop stop-color="#FEF056"/>
<stop offset="0.5213" stop-color="#F4D902"/>
<stop offset="1" stop-color="#FE9738"/>
</linearGradient>
<linearGradient id="paint11_linear_222_19882" x1="2.24189" y1="2.35891" x2="12.8472" y2="2.35891" gradientUnits="userSpaceOnUse">
<stop stop-color="#FEF056"/>
<stop offset="0.5213" stop-color="#F4D902"/>
<stop offset="1" stop-color="#FE9738"/>
</linearGradient>
<linearGradient id="paint12_linear_222_19882" x1="-3.156" y1="7.99987" x2="14.6907" y2="7.99987" gradientUnits="userSpaceOnUse">
<stop stop-color="#FEF056"/>
<stop offset="0.5213" stop-color="#F4D902"/>
<stop offset="1" stop-color="#FE9738"/>
</linearGradient>
<linearGradient id="paint13_linear_222_19882" x1="14.3238" y1="5.22909" x2="14.5338" y2="5.22909" gradientUnits="userSpaceOnUse">
<stop stop-color="#CDBFBA"/>
<stop offset="1" stop-color="#766E6E"/>
</linearGradient>
<linearGradient id="paint14_linear_222_19882" x1="-8.45985" y1="11.9746" x2="9.30495" y2="11.9746" gradientUnits="userSpaceOnUse">
<stop stop-color="#FEF056"/>
<stop offset="0.5213" stop-color="#F4D902"/>
<stop offset="1" stop-color="#FE9738"/>
</linearGradient>
<linearGradient id="paint15_linear_222_19882" x1="-8.45978" y1="10.0354" x2="9.30502" y2="10.0354" gradientUnits="userSpaceOnUse">
<stop stop-color="#FEF056"/>
<stop offset="0.5213" stop-color="#F4D902"/>
<stop offset="1" stop-color="#FE9738"/>
</linearGradient>
<linearGradient id="paint16_linear_222_19882" x1="13.2416" y1="1.67411" x2="16.2546" y2="1.67411" gradientUnits="userSpaceOnUse">
<stop stop-color="#FEF056"/>
<stop offset="0.5213" stop-color="#F4D902"/>
<stop offset="1" stop-color="#FE9738"/>
</linearGradient>
<linearGradient id="paint17_linear_222_19882" x1="0.433463" y1="14.7835" x2="3.44648" y2="14.7835" gradientUnits="userSpaceOnUse">
<stop stop-color="#FEF056"/>
<stop offset="0.5213" stop-color="#F4D902"/>
<stop offset="1" stop-color="#FE9738"/>
</linearGradient>
<clipPath id="clip0_222_19882">
<rect width="16" height="16" fill="white" transform="translate(0.111328)"/>
</clipPath>
</defs>
</svg>
