<svg width="17" height="16" viewBox="0 0 17 16" fill="none" xmlns="http://www.w3.org/2000/svg">
<g clip-path="url(#clip0_222_19409)">
<path d="M4.82683 1.1748L0.734375 5.19796L1.00264 4.62886C1.14968 4.3167 1.21187 4.00382 1.19141 3.72291C1.17641 3.51175 1.11455 3.3188 1.00741 3.15673C1.0055 3.15397 1.0038 3.15099 1.0017 3.14845C1.00154 3.1483 1.00154 3.14829 1.00142 3.14817C0.954642 3.0512 1.28499 2.61273 1.75878 2.14698C2.2326 1.68119 2.67662 1.35837 2.77278 1.4068C2.77293 1.40696 2.77293 1.40696 2.77306 1.40709C2.7756 1.40925 2.77852 1.41101 2.78125 1.41295C3.15489 1.66914 3.70244 1.68128 4.25321 1.43331L4.82683 1.1748Z" fill="url(#paint0_linear_222_19409)"/>
<path d="M2.78131 1.41327C2.85613 1.48938 2.51979 1.94149 2.02993 2.42306C1.54008 2.90462 1.08226 3.23316 1.00747 3.15708C1.00556 3.15432 1.00386 3.15134 1.00176 3.1488C1.0016 3.14864 1.0016 3.14864 1.00148 3.14851C0.954703 3.05154 1.28506 2.61308 1.75884 2.14732C2.23266 1.68153 2.67668 1.35871 2.77284 1.40715C2.77299 1.40731 2.77299 1.40731 2.77312 1.40743C2.77566 1.40956 2.77858 1.41129 2.78131 1.41327Z" fill="url(#paint1_linear_222_19409)"/>
<path d="M15.0799 5.49423L11.5547 1.22461L12.1433 1.47716C12.4662 1.61554 12.8145 1.6579 13.1493 1.60961C13.4008 1.57372 13.6447 1.48651 13.8654 1.35079C13.8692 1.34837 13.8732 1.34618 13.8768 1.34357C13.877 1.34339 13.877 1.34339 13.8772 1.34323C14.0043 1.28161 14.422 1.61611 14.8301 2.11041C15.2382 2.60472 15.4876 3.07816 15.4031 3.19126C15.4028 3.19145 15.4028 3.19145 15.4026 3.19161C15.3994 3.19465 15.3965 3.19813 15.3934 3.20139C14.9852 3.64701 14.8125 4.26756 14.9433 4.86844L15.0799 5.49423Z" fill="url(#paint2_linear_222_19409)"/>
<path d="M15.3934 3.20144C15.2827 3.29289 14.8507 2.95287 14.4287 2.44181C14.0068 1.93075 13.7547 1.44225 13.8654 1.3508C13.8692 1.34839 13.8732 1.34619 13.8768 1.34359C13.877 1.3434 13.877 1.3434 13.8772 1.34324C14.0043 1.28163 14.422 1.61612 14.8301 2.11043C15.2382 2.60473 15.4876 3.07817 15.4031 3.19127C15.4029 3.19146 15.4029 3.19146 15.4026 3.19162C15.3994 3.19469 15.3965 3.19817 15.3934 3.20144Z" fill="url(#paint3_linear_222_19409)"/>
<path d="M12.78 2.30322L9.14893 0.702095L9.60715 0.67455C9.85848 0.659366 10.0952 0.574472 10.2941 0.435868C10.4437 0.331993 10.5718 0.197687 10.6696 0.0397892C10.6712 0.0370284 10.673 0.0343617 10.6745 0.0315068C10.6746 0.0313186 10.6746 0.0313186 10.6747 0.0311303C10.7363 -0.0492148 11.1113 0.0307225 11.5317 0.216103C11.9521 0.401483 12.2641 0.624511 12.2463 0.72415C12.2462 0.724338 12.2462 0.724338 12.2461 0.724526C12.2451 0.727538 12.2443 0.730676 12.2434 0.733781C12.1253 1.15047 12.2142 1.60349 12.4912 1.9463L12.78 2.30322Z" fill="url(#paint4_linear_222_19409)"/>
<path d="M12.2435 0.733781C12.2019 0.827962 11.8159 0.749091 11.3813 0.557468C10.9466 0.365844 10.6281 0.13397 10.6697 0.0397892C10.6713 0.0370284 10.6731 0.0343617 10.6746 0.0315068C10.6747 0.0313186 10.6747 0.0313186 10.6748 0.0311303C10.7364 -0.0492148 11.1114 0.0307225 11.5318 0.216103C11.9522 0.401483 12.2642 0.624511 12.2464 0.72415C12.2463 0.724338 12.2463 0.724338 12.2463 0.724526C12.2452 0.727538 12.2444 0.730675 12.2435 0.733781Z" fill="url(#paint5_linear_222_19409)"/>
<path d="M8.11153 16.0004C12.5035 16.0004 16.0639 12.44 16.0639 8.04805C16.0639 3.65609 12.5035 0.0957031 8.11153 0.0957031C3.71957 0.0957031 0.15918 3.65609 0.15918 8.04805C0.15918 12.44 3.71957 16.0004 8.11153 16.0004Z" fill="url(#paint6_linear_222_19409)"/>
<path d="M14.526 13.9032C14.5238 13.9007 14.5219 13.8979 14.5198 13.8953C14.4045 13.7411 14.3235 13.5666 14.28 13.383C14.2798 13.3821 14.2796 13.3812 14.2794 13.3803C14.2431 13.2269 14.2834 13.0658 14.3805 12.9416C15.4354 11.5922 16.0641 9.8936 16.0641 8.04808C16.0641 3.65608 12.5037 0.0957031 8.11174 0.0957031C7.89775 0.0957031 7.6858 0.104425 7.47607 0.121021C9.52775 0.283311 11.3602 1.22427 12.6782 2.64833C12.4732 2.59221 12.2577 2.56165 12.035 2.56165C10.6928 2.56165 9.6048 3.64968 9.6048 4.99183C9.6048 6.25696 10.5716 7.29586 11.8067 7.411C11.6145 7.63202 11.5034 7.92545 11.5208 8.24516C11.5527 8.83067 12.0238 9.30919 12.6088 9.34929C13.2936 9.39619 13.8637 8.85454 13.8637 8.17975C13.8637 7.92532 13.7827 7.68984 13.645 7.49768C13.4773 7.26367 13.5138 6.94141 13.7211 6.74151C13.7259 6.73686 13.7307 6.73222 13.7354 6.72755C14.0854 6.38443 14.6748 6.59161 14.7341 7.07814C14.7728 7.39603 14.7927 7.71974 14.7927 8.04811C14.7927 10.2407 13.905 12.2257 12.4698 13.6642C12.568 13.4224 12.6171 13.1553 12.603 12.8751C12.5556 11.928 11.7837 11.1622 10.8363 11.1228C9.77973 11.0789 8.90936 11.9224 8.90936 12.9692C8.90936 13.1872 8.9471 13.3964 9.01644 13.5906C9.4036 14.6752 8.69148 15.8512 7.54588 15.9688C7.52241 15.9712 7.49913 15.9733 7.47607 15.9751C7.6858 15.9917 7.89775 16.0004 8.11174 16.0004C9.47297 16.0004 10.754 15.658 11.8742 15.0552C12.2961 14.8281 12.8141 14.8424 13.2071 15.1164C13.2229 15.1275 13.2385 15.1388 13.2539 15.1505C13.2565 15.1526 13.2593 15.1545 13.2618 15.1567L13.2621 15.157C13.3514 15.2119 13.6849 14.9955 14.023 14.6602C14.3611 14.3248 14.5804 13.9933 14.5262 13.9035C14.5261 13.9033 14.5261 13.9033 14.526 13.9032Z" fill="url(#paint7_linear_222_19409)"/>
<path d="M7.3501 4.99414C7.99757 4.99414 8.52246 4.46925 8.52246 3.82178C8.52246 3.1743 7.99757 2.64941 7.3501 2.64941C6.70262 2.64941 6.17773 3.1743 6.17773 3.82178C6.17773 4.46925 6.70262 4.99414 7.3501 4.99414Z" fill="url(#paint8_linear_222_19409)"/>
<path d="M6.06543 13.1269C6.7129 13.1269 7.23779 12.6021 7.23779 11.9546C7.23779 11.3071 6.7129 10.7822 6.06543 10.7822C5.41795 10.7822 4.89307 11.3071 4.89307 11.9546C4.89307 12.6021 5.41795 13.1269 6.06543 13.1269Z" fill="url(#paint9_linear_222_19409)"/>
<path d="M3.1537 9.35134C4.17434 9.35134 5.00173 8.52394 5.00173 7.50331C5.00173 6.48267 4.17434 5.65527 3.1537 5.65527C2.13306 5.65527 1.30566 6.48267 1.30566 7.50331C1.30566 8.52394 2.13306 9.35134 3.1537 9.35134Z" fill="url(#paint10_linear_222_19409)"/>
<path d="M4.99031 15.3646L0.858887 11.3027L1.15796 11.8405C1.32191 12.1355 1.40947 12.4225 1.41939 12.6725C1.42717 12.8605 1.3909 13.0274 1.31075 13.1621C1.3093 13.1643 1.30808 13.1668 1.30642 13.1689C1.30629 13.1691 1.30629 13.1691 1.3062 13.1692C1.27382 13.2515 1.61566 13.6783 2.08948 14.1441C2.56329 14.6098 2.99583 14.9443 3.07758 14.9105C3.07771 14.9104 3.07771 14.9104 3.0778 14.9103C3.07988 14.9086 3.08232 14.9073 3.08458 14.9059C3.39533 14.7137 3.88737 14.758 4.40857 15.0361L4.99031 15.3646Z" fill="url(#paint11_linear_222_19409)"/>
<path d="M3.0847 14.9061C3.14441 14.8453 2.79586 14.4056 2.30601 13.9241C1.81616 13.4425 1.3706 13.1015 1.31087 13.1623C1.30943 13.1646 1.3082 13.1671 1.30654 13.1692C1.30641 13.1693 1.30641 13.1693 1.30632 13.1694C1.27394 13.2517 1.61578 13.6785 2.0896 14.1443C2.56342 14.6101 2.99595 14.9446 3.07771 14.9108C3.07783 14.9106 3.07783 14.9106 3.07793 14.9105C3.07997 14.9088 3.08245 14.9075 3.0847 14.9061Z" fill="url(#paint12_linear_222_19409)"/>
</g>
<defs>
<linearGradient id="paint0_linear_222_19409" x1="0.27538" y1="3.54346" x2="3.85245" y2="4.13685" gradientUnits="userSpaceOnUse">
<stop stop-color="#EAF6FF"/>
<stop offset="0.5213" stop-color="#D8ECFE"/>
<stop offset="1" stop-color="#B3DAFE"/>
</linearGradient>
<linearGradient id="paint1_linear_222_19409" x1="0.0338709" y1="2.59441" x2="2.50219" y2="3.00388" gradientUnits="userSpaceOnUse">
<stop stop-color="#EAF6FF"/>
<stop offset="0.5213" stop-color="#D8ECFE"/>
<stop offset="1" stop-color="#B3DAFE"/>
</linearGradient>
<linearGradient id="paint2_linear_222_19409" x1="10.7182" y1="3.09021" x2="15.7951" y2="3.53368" gradientUnits="userSpaceOnUse">
<stop stop-color="#EAF6FF"/>
<stop offset="0.5213" stop-color="#D8ECFE"/>
<stop offset="1" stop-color="#B3DAFE"/>
</linearGradient>
<linearGradient id="paint3_linear_222_19409" x1="12.329" y1="2.08085" x2="14.6948" y2="2.2875" gradientUnits="userSpaceOnUse">
<stop stop-color="#EAF6FF"/>
<stop offset="0.5213" stop-color="#D8ECFE"/>
<stop offset="1" stop-color="#B3DAFE"/>
</linearGradient>
<linearGradient id="paint4_linear_222_19409" x1="8.66523" y1="0.882932" x2="12.5879" y2="1.22557" gradientUnits="userSpaceOnUse">
<stop stop-color="#EAF6FF"/>
<stop offset="0.5213" stop-color="#D8ECFE"/>
<stop offset="1" stop-color="#B3DAFE"/>
</linearGradient>
<linearGradient id="paint5_linear_222_19409" x1="9.24798" y1="0.198328" x2="11.5018" y2="0.3952" gradientUnits="userSpaceOnUse">
<stop stop-color="#EAF6FF"/>
<stop offset="0.5213" stop-color="#D8ECFE"/>
<stop offset="1" stop-color="#B3DAFE"/>
</linearGradient>
<linearGradient id="paint6_linear_222_19409" x1="-0.179675" y1="8.04805" x2="16.557" y2="8.04805" gradientUnits="userSpaceOnUse">
<stop stop-color="#EAF6FF"/>
<stop offset="0.5213" stop-color="#D8ECFE"/>
<stop offset="1" stop-color="#B3DAFE"/>
</linearGradient>
<linearGradient id="paint7_linear_222_19409" x1="-13.331" y1="8.04805" x2="12.2898" y2="8.04805" gradientUnits="userSpaceOnUse">
<stop stop-color="#EAF6FF"/>
<stop offset="0.5213" stop-color="#D8ECFE"/>
<stop offset="1" stop-color="#B3DAFE"/>
</linearGradient>
<linearGradient id="paint8_linear_222_19409" x1="-13.3311" y1="3.82177" x2="12.2896" y2="3.82177" gradientUnits="userSpaceOnUse">
<stop stop-color="#EAF6FF"/>
<stop offset="0.5213" stop-color="#D8ECFE"/>
<stop offset="1" stop-color="#B3DAFE"/>
</linearGradient>
<linearGradient id="paint9_linear_222_19409" x1="-13.331" y1="11.9546" x2="12.2897" y2="11.9546" gradientUnits="userSpaceOnUse">
<stop stop-color="#EAF6FF"/>
<stop offset="0.5213" stop-color="#D8ECFE"/>
<stop offset="1" stop-color="#B3DAFE"/>
</linearGradient>
<linearGradient id="paint10_linear_222_19409" x1="-13.3312" y1="7.5033" x2="12.2896" y2="7.5033" gradientUnits="userSpaceOnUse">
<stop stop-color="#EAF6FF"/>
<stop offset="0.5213" stop-color="#D8ECFE"/>
<stop offset="1" stop-color="#B3DAFE"/>
</linearGradient>
<linearGradient id="paint11_linear_222_19409" x1="2.30051" y1="11.2227" x2="1.33379" y2="14.7914" gradientUnits="userSpaceOnUse">
<stop stop-color="#EAF6FF"/>
<stop offset="0.5213" stop-color="#D8ECFE"/>
<stop offset="1" stop-color="#B3DAFE"/>
</linearGradient>
<linearGradient id="paint12_linear_222_19409" x1="1.68347" y1="12.1958" x2="1.23299" y2="13.8588" gradientUnits="userSpaceOnUse">
<stop stop-color="#EAF6FF"/>
<stop offset="0.5213" stop-color="#D8ECFE"/>
<stop offset="1" stop-color="#B3DAFE"/>
</linearGradient>
<clipPath id="clip0_222_19409">
<rect width="16" height="16" fill="white" transform="translate(0.111328)"/>
</clipPath>
</defs>
</svg>
