<svg width="17" height="16" viewBox="0 0 17 16" fill="none" xmlns="http://www.w3.org/2000/svg">
<g clip-path="url(#clip0_222_19470)">
<path d="M13.9672 3.7313C14.8347 3.7313 15.5379 3.02806 15.5379 2.16057C15.5379 1.29308 14.8347 0.589844 13.9672 0.589844C13.0997 0.589844 12.3965 1.29308 12.3965 2.16057C12.3965 3.02806 13.0997 3.7313 13.9672 3.7313Z" fill="url(#paint0_linear_222_19470)"/>
<path d="M15.3137 2.97034C14.7273 2.13225 13.9986 1.40127 13.1623 0.8125C12.7037 1.08679 12.3965 1.58809 12.3965 2.16133C12.3965 3.02881 13.0997 3.73206 13.9672 3.73206C14.5388 3.73206 15.0389 3.42671 15.3137 2.97034Z" fill="url(#paint1_linear_222_19470)"/>
<path d="M8.11133 16C12.5296 16 16.1113 12.4183 16.1113 8C16.1113 3.58172 12.5296 0 8.11133 0C3.69305 0 0.111328 3.58172 0.111328 8C0.111328 12.4183 3.69305 16 8.11133 16Z" fill="url(#paint2_linear_222_19470)"/>
<path d="M8.11112 0C7.89983 0 7.69051 0.0083451 7.48336 0.0244078C8.36543 0.0928627 9.20737 0.304439 9.98598 0.635859C11.5871 1.31736 11.8764 3.47373 10.511 4.55241C10.4999 4.56116 10.4891 4.56957 10.4785 4.57769C9.51219 5.31909 8.35821 6.0048 7.09336 6.58171C6.74541 6.74042 6.39677 6.88728 6.04925 7.02196C5.77779 7.12718 5.59912 7.38842 5.59912 7.67956C5.59912 8.17547 6.09713 8.51718 6.55956 8.3381C6.93293 8.19351 7.30679 8.03605 7.67922 7.8662C9.50566 7.03316 11.1303 5.97835 12.3551 4.83962C12.4213 4.77813 12.5201 4.67777 12.6329 4.55931C13.1072 4.0613 13.9356 4.20907 14.2075 4.84082C14.2103 4.84728 14.213 4.85371 14.2158 4.86017C14.3534 5.18259 14.3064 5.55598 14.0876 5.8299C14.001 5.93829 13.9085 6.04762 13.8102 6.15752C13.7574 6.21653 13.7031 6.27542 13.6476 6.33418C13.4192 5.99539 13.0248 5.77779 12.581 5.79809C11.9246 5.82811 11.4183 6.36226 11.4215 7.01939C11.4215 7.02576 11.4216 7.03209 11.4217 7.03843C11.4362 7.75611 11.0595 8.42325 10.4364 8.77958C10.2722 8.87351 10.105 8.96571 9.93512 9.056C9.63871 9.21355 9.48154 9.5552 9.57299 9.87818C9.696 10.3126 10.1872 10.5203 10.5833 10.3099C11.3497 9.9029 12.0684 9.4582 12.7223 8.9877C13.6147 8.34569 14.8293 9.17587 14.5386 10.236C14.5353 10.248 14.532 10.2595 14.5287 10.2708C14.3612 10.8377 14.1323 11.3782 13.8502 11.885C13.5427 11.7197 13.1914 11.6252 12.8177 11.6252C11.6096 11.6252 10.6303 12.6045 10.6303 13.8126C10.6303 14.206 10.7348 14.5747 10.9167 14.8936C9.89594 15.4963 8.72979 15.8788 7.48339 15.9756C7.69051 15.9917 7.89983 16 8.11112 16C12.5294 16 16.1111 12.4183 16.1111 8C16.1111 3.58171 12.5294 0 8.11112 0Z" fill="url(#paint3_linear_222_19470)"/>
<path d="M8.23124 10.5575C8.07613 10.231 7.699 10.0737 7.35861 10.1953C5.82989 10.7413 4.34051 11.0447 3.05282 11.064C3.01163 11.0646 2.97097 11.065 2.93041 11.065C1.78907 11.0649 0.914282 10.8207 0.475098 10.3924C0.69116 11.0828 0.998329 11.7329 1.38245 12.3288C1.84573 12.4266 2.36256 12.4768 2.92777 12.4768C2.97612 12.4768 3.02493 12.4764 3.074 12.4757C4.50992 12.4541 6.15453 12.1224 7.82791 11.5261C8.22271 11.3854 8.4111 10.9361 8.23124 10.5575Z" fill="url(#paint4_linear_222_19470)"/>
<path d="M8.95543 3.37765C9.62737 3.37765 10.1721 2.83294 10.1721 2.161C10.1721 1.48905 9.62737 0.944336 8.95543 0.944336C8.28349 0.944336 7.73877 1.48905 7.73877 2.161C7.73877 2.83294 8.28349 3.37765 8.95543 3.37765Z" fill="url(#paint5_linear_222_19470)"/>
<path d="M7.73921 15.2987C8.41115 15.2987 8.95587 14.754 8.95587 14.082C8.95587 13.4101 8.41115 12.8654 7.73921 12.8654C7.42226 12.8654 7.13372 12.9867 6.91719 13.1852C6.77871 12.9306 6.50888 12.7578 6.1987 12.7578C5.74728 12.7578 5.38135 13.1238 5.38135 13.5752C5.38135 14.0266 5.74731 14.3925 6.1987 14.3925C6.32259 14.3925 6.43995 14.3648 6.54518 14.3155C6.6541 14.8757 7.14715 15.2987 7.73921 15.2987Z" fill="url(#paint6_linear_222_19470)"/>
<path d="M3.88652 7.68808C4.83243 7.68808 5.59924 6.92127 5.59924 5.97536C5.59924 5.46891 5.37929 5.01398 5.02986 4.70041C5.13935 4.56136 5.20486 4.38602 5.20486 4.19531C5.20486 3.74389 4.83889 3.37793 4.38751 3.37793C3.93612 3.37793 3.57016 3.74389 3.57016 4.19531C3.57016 4.22778 3.57226 4.25975 3.57596 4.29125C2.77841 4.43744 2.17383 5.13555 2.17383 5.97536C2.1738 6.92127 2.9406 7.68808 3.88652 7.68808Z" fill="url(#paint7_linear_222_19470)"/>
<path d="M10.9897 12.0478C10.9897 11.5964 10.6237 11.2305 10.1723 11.2305C9.72094 11.2305 9.35498 11.5964 9.35498 12.0478C9.35498 12.4993 9.72091 12.8652 10.1723 12.8652C10.6237 12.8652 10.9897 12.4993 10.9897 12.0478Z" fill="url(#paint8_linear_222_19470)"/>
<path d="M2.45456 10.7226C2.90598 10.7226 3.27191 10.3567 3.27191 9.90527C3.27191 9.45385 2.90594 9.08789 2.45456 9.08789C2.00317 9.08789 1.63721 9.45385 1.63721 9.90527C1.63721 10.3567 2.00314 10.7226 2.45456 10.7226Z" fill="url(#paint9_linear_222_19470)"/>
<path d="M13.9237 15.9998C15.1318 15.9998 16.1111 15.0205 16.1111 13.8124C16.1111 12.6043 15.1318 11.625 13.9237 11.625C12.7157 11.625 11.7363 12.6043 11.7363 13.8124C11.7363 15.0205 12.7157 15.9998 13.9237 15.9998Z" fill="url(#paint10_linear_222_19470)"/>
<path d="M13.9236 11.625C13.7896 11.625 13.6586 11.6377 13.5312 11.6608C14.552 11.8457 15.3263 12.7383 15.3263 13.8124C15.3263 14.1622 15.2438 14.4925 15.0977 14.7856C15.0237 14.4524 14.717 14.2068 14.3569 14.2286C14.0068 14.2497 13.7188 14.5309 13.69 14.8804C13.6748 15.064 13.7292 15.2345 13.8297 15.3686C13.9893 15.5814 13.8773 15.8885 13.6178 15.9465C13.5892 15.9529 13.5603 15.9587 13.5313 15.964C13.6586 15.9871 13.7896 15.9998 13.9236 15.9998C15.1317 15.9998 16.111 15.0205 16.111 13.8124C16.111 12.6044 15.1317 11.625 13.9236 11.625Z" fill="url(#paint11_linear_222_19470)"/>
<path d="M12.8177 14.2272C13.0733 14.2272 13.2805 14.0201 13.2805 13.7645C13.2805 13.5089 13.0733 13.3018 12.8177 13.3018C12.5622 13.3018 12.355 13.5089 12.355 13.7645C12.355 14.0201 12.5622 14.2272 12.8177 14.2272Z" fill="url(#paint12_linear_222_19470)"/>
<path d="M14.2269 13.3015C14.4825 13.3015 14.6897 13.0943 14.6897 12.8387C14.6897 12.5832 14.4825 12.376 14.2269 12.376C13.9713 12.376 13.7642 12.5832 13.7642 12.8387C13.7642 13.0943 13.9713 13.3015 14.2269 13.3015Z" fill="url(#paint13_linear_222_19470)"/>
</g>
<defs>
<linearGradient id="paint0_linear_222_19470" x1="12.4178" y1="2.16057" x2="15.3989" y2="2.16057" gradientUnits="userSpaceOnUse">
<stop stop-color="#EAF6FF"/>
<stop offset="0.5213" stop-color="#D8ECFE"/>
<stop offset="1" stop-color="#B3DAFE"/>
</linearGradient>
<linearGradient id="paint1_linear_222_19470" x1="8.81208" y1="2.2723" x2="14.4389" y2="2.2723" gradientUnits="userSpaceOnUse">
<stop stop-color="#EAF6FF"/>
<stop offset="0.5213" stop-color="#D8ECFE"/>
<stop offset="1" stop-color="#B3DAFE"/>
</linearGradient>
<linearGradient id="paint2_linear_222_19470" x1="-19.315" y1="8" x2="15.4505" y2="8" gradientUnits="userSpaceOnUse">
<stop stop-color="#FBC56D"/>
<stop offset="0.5841" stop-color="#FE9738"/>
<stop offset="0.9984" stop-color="#FB2B3A"/>
</linearGradient>
<linearGradient id="paint3_linear_222_19470" x1="2.24674" y1="8" x2="19.6599" y2="8" gradientUnits="userSpaceOnUse">
<stop stop-color="#FE860A"/>
<stop offset="0.5213" stop-color="#FB2B3A"/>
<stop offset="1" stop-color="#D90D80"/>
</linearGradient>
<linearGradient id="paint4_linear_222_19470" x1="2.24677" y1="11.3155" x2="19.6599" y2="11.3155" gradientUnits="userSpaceOnUse">
<stop stop-color="#FE860A"/>
<stop offset="0.5213" stop-color="#FB2B3A"/>
<stop offset="1" stop-color="#D90D80"/>
</linearGradient>
<linearGradient id="paint5_linear_222_19470" x1="2.24653" y1="2.161" x2="19.6597" y2="2.161" gradientUnits="userSpaceOnUse">
<stop stop-color="#FE860A"/>
<stop offset="0.5213" stop-color="#FB2B3A"/>
<stop offset="1" stop-color="#D90D80"/>
</linearGradient>
<linearGradient id="paint6_linear_222_19470" x1="2.24698" y1="14.0282" x2="19.6602" y2="14.0282" gradientUnits="userSpaceOnUse">
<stop stop-color="#FE860A"/>
<stop offset="0.5213" stop-color="#FB2B3A"/>
<stop offset="1" stop-color="#D90D80"/>
</linearGradient>
<linearGradient id="paint7_linear_222_19470" x1="2.24686" y1="5.53304" x2="19.66" y2="5.53304" gradientUnits="userSpaceOnUse">
<stop stop-color="#FE860A"/>
<stop offset="0.5213" stop-color="#FB2B3A"/>
<stop offset="1" stop-color="#D90D80"/>
</linearGradient>
<linearGradient id="paint8_linear_222_19470" x1="2.24675" y1="12.0478" x2="19.6599" y2="12.0478" gradientUnits="userSpaceOnUse">
<stop stop-color="#FE860A"/>
<stop offset="0.5213" stop-color="#FB2B3A"/>
<stop offset="1" stop-color="#D90D80"/>
</linearGradient>
<linearGradient id="paint9_linear_222_19470" x1="2.24665" y1="9.90524" x2="19.6598" y2="9.90524" gradientUnits="userSpaceOnUse">
<stop stop-color="#FE860A"/>
<stop offset="0.5213" stop-color="#FB2B3A"/>
<stop offset="1" stop-color="#D90D80"/>
</linearGradient>
<linearGradient id="paint10_linear_222_19470" x1="11.7363" y1="13.8124" x2="16.1111" y2="13.8124" gradientUnits="userSpaceOnUse">
<stop stop-color="#EAF6FF"/>
<stop offset="0.5213" stop-color="#D8ECFE"/>
<stop offset="1" stop-color="#B3DAFE"/>
</linearGradient>
<linearGradient id="paint11_linear_222_19470" x1="10.2129" y1="13.8124" x2="14.7333" y2="13.8124" gradientUnits="userSpaceOnUse">
<stop stop-color="#EAF6FF"/>
<stop offset="0.5213" stop-color="#D8ECFE"/>
<stop offset="1" stop-color="#B3DAFE"/>
</linearGradient>
<linearGradient id="paint12_linear_222_19470" x1="10.2131" y1="13.7645" x2="14.7335" y2="13.7645" gradientUnits="userSpaceOnUse">
<stop stop-color="#EAF6FF"/>
<stop offset="0.5213" stop-color="#D8ECFE"/>
<stop offset="1" stop-color="#B3DAFE"/>
</linearGradient>
<linearGradient id="paint13_linear_222_19470" x1="10.2129" y1="12.8387" x2="14.7333" y2="12.8387" gradientUnits="userSpaceOnUse">
<stop stop-color="#EAF6FF"/>
<stop offset="0.5213" stop-color="#D8ECFE"/>
<stop offset="1" stop-color="#B3DAFE"/>
</linearGradient>
<clipPath id="clip0_222_19470">
<rect width="16" height="16" fill="white" transform="translate(0.111328)"/>
</clipPath>
</defs>
</svg>
