<svg width="17" height="16" viewBox="0 0 17 16" fill="none" xmlns="http://www.w3.org/2000/svg">
<g clip-path="url(#clip0_222_19509)">
<path d="M8.11133 16C12.5296 16 16.1113 12.4183 16.1113 8C16.1113 3.58172 12.5296 0 8.11133 0C3.69305 0 0.111328 3.58172 0.111328 8C0.111328 12.4183 3.69305 16 8.11133 16Z" fill="url(#paint0_linear_222_19509)"/>
<path d="M6.91783 3.05539C7.58977 3.05539 8.13449 2.51067 8.13449 1.83873C8.13449 1.16679 7.58977 0.62207 6.91783 0.62207C6.24589 0.62207 5.70117 1.16679 5.70117 1.83873C5.70117 2.51067 6.24589 3.05539 6.91783 3.05539Z" fill="url(#paint1_linear_222_19509)"/>
<path d="M4.06164 6.76293C4.6868 6.76293 5.19359 6.25614 5.19359 5.63098C5.19359 5.00582 4.6868 4.49902 4.06164 4.49902C3.43648 4.49902 2.92969 5.00582 2.92969 5.63098C2.92969 6.25614 3.43648 6.76293 4.06164 6.76293Z" fill="url(#paint2_linear_222_19509)"/>
<path d="M6.51852 11.3085C6.96993 11.3085 7.33587 10.9426 7.33587 10.4912C7.33587 10.0398 6.96993 9.67383 6.51852 9.67383C6.06711 9.67383 5.70117 10.0398 5.70117 10.4912C5.70117 10.9426 6.06711 11.3085 6.51852 11.3085Z" fill="url(#paint3_linear_222_19509)"/>
<path d="M5.39583 8.26205C5.26303 7.9188 4.88894 7.73653 4.53597 7.84078C3.88765 8.03224 3.25283 8.17722 2.64442 8.27227C2.28546 8.32837 2.02914 8.64981 2.05167 9.01245C2.07746 9.42769 2.45493 9.73028 2.86594 9.66575C3.53628 9.56049 4.2326 9.4015 4.94077 9.1924C5.33509 9.07598 5.54422 8.64558 5.39589 8.26214L5.39583 8.26205Z" fill="url(#paint4_linear_222_19509)"/>
<path d="M8.11093 0C7.89979 0 7.69022 0.00847059 7.48317 0.0244706C7.50387 0.0260392 7.52521 0.0279216 7.54654 0.0301176C9.08568 0.181961 9.56881 2.19576 8.27909 3.0491C8.26434 3.05882 8.24803 3.0698 8.23077 3.08173C7.87815 3.32267 7.80975 3.81522 8.08301 4.14337C8.22575 4.31435 8.43187 4.40408 8.6405 4.40408C8.78136 4.40408 8.92348 4.36298 9.04771 4.27796C10.0074 3.62071 11.0408 2.65694 11.5274 2.16878C11.7445 1.95106 12.0946 1.94667 12.3189 2.15686C12.3218 2.15906 12.3243 2.16157 12.3271 2.16408C12.5345 2.3589 12.5646 2.6789 12.3983 2.90949C12.259 3.10243 12.1 3.29945 11.9221 3.49804C11.012 4.51514 9.7125 5.49396 8.18748 6.32094C7.85901 6.49914 7.72568 6.90196 7.88379 7.24047C8.00426 7.49835 8.25932 7.64706 8.52411 7.64706C8.6383 7.64706 8.7547 7.61945 8.86262 7.56078C10.3494 6.75294 11.6491 5.80424 12.6323 4.80345C12.6574 4.77804 12.7067 4.72408 12.7707 4.65224C13.1989 4.17035 13.981 4.30337 14.2314 4.89757C14.2339 4.90322 14.2364 4.90918 14.2386 4.91514C14.3613 5.20753 14.3133 5.54353 14.1172 5.79263C14.0221 5.9131 13.9196 6.03482 13.8101 6.15749C12.6687 7.43279 10.9156 8.64816 8.87328 9.57961C8.75532 9.63326 8.63736 9.68565 8.51972 9.73678C8.17713 9.88486 8.0096 10.2742 8.13446 10.6256C8.16238 10.7043 8.17587 10.7849 8.17587 10.8643C8.17587 11.1583 7.99266 11.4337 7.69901 11.5347C7.17979 11.7133 6.6656 11.8638 6.16332 11.9843C5.73948 12.086 5.5114 12.5475 5.68395 12.9481C5.79721 13.211 6.05477 13.3747 6.33117 13.3747C6.38575 13.3747 6.44128 13.3682 6.49619 13.355C7.63595 13.0814 8.82371 12.6695 9.99673 12.1346C10.0156 12.1258 10.0344 12.1173 10.0532 12.1085C11.609 11.3936 12.8651 13.5498 11.4669 14.5377C10.3236 15.3456 8.95956 15.861 7.48317 15.9755C7.69022 15.9915 7.89979 16 8.11093 16C12.5291 16 16.1109 12.4182 16.1109 8C16.1109 3.5818 12.5291 0 8.11093 0ZM13.3037 11.3089C12.6788 11.3089 12.1718 10.8022 12.1718 10.1769C12.1718 9.552 12.6788 9.04502 13.3037 9.04502C13.929 9.04502 14.4356 9.552 14.4356 10.1769C14.4356 10.8022 13.929 11.3089 13.3037 11.3089Z" fill="url(#paint5_linear_222_19509)"/>
</g>
<defs>
<linearGradient id="paint0_linear_222_19509" x1="-0.147809" y1="8" x2="16.0529" y2="8" gradientUnits="userSpaceOnUse">
<stop stop-color="#FD8087"/>
<stop offset="0.5213" stop-color="#FB2B3A"/>
<stop offset="1" stop-color="#D90D80"/>
</linearGradient>
<linearGradient id="paint1_linear_222_19509" x1="-2.95922" y1="1.83873" x2="13.7281" y2="1.83873" gradientUnits="userSpaceOnUse">
<stop stop-color="#FD8087"/>
<stop offset="0.5213" stop-color="#FB2B3A"/>
<stop offset="1" stop-color="#D90D80"/>
</linearGradient>
<linearGradient id="paint2_linear_222_19509" x1="-2.95903" y1="5.63098" x2="13.7282" y2="5.63098" gradientUnits="userSpaceOnUse">
<stop stop-color="#FD8087"/>
<stop offset="0.5213" stop-color="#FB2B3A"/>
<stop offset="1" stop-color="#D90D80"/>
</linearGradient>
<linearGradient id="paint3_linear_222_19509" x1="-2.95922" y1="10.4912" x2="13.7281" y2="10.4912" gradientUnits="userSpaceOnUse">
<stop stop-color="#FD8087"/>
<stop offset="0.5213" stop-color="#FB2B3A"/>
<stop offset="1" stop-color="#D90D80"/>
</linearGradient>
<linearGradient id="paint4_linear_222_19509" x1="-2.95912" y1="8.74296" x2="13.7282" y2="8.74296" gradientUnits="userSpaceOnUse">
<stop stop-color="#FD8087"/>
<stop offset="0.5213" stop-color="#FB2B3A"/>
<stop offset="1" stop-color="#D90D80"/>
</linearGradient>
<linearGradient id="paint5_linear_222_19509" x1="-2.95934" y1="8" x2="13.7279" y2="8" gradientUnits="userSpaceOnUse">
<stop stop-color="#FD8087"/>
<stop offset="0.5213" stop-color="#FB2B3A"/>
<stop offset="1" stop-color="#D90D80"/>
</linearGradient>
<clipPath id="clip0_222_19509">
<rect width="16" height="16" fill="white" transform="translate(0.111328)"/>
</clipPath>
</defs>
</svg>
