<svg width="17" height="16" viewBox="0 0 17 16" fill="none" xmlns="http://www.w3.org/2000/svg">
<g clip-path="url(#clip0_222_19570)">
<path d="M2.13469 3.7313C3.00218 3.7313 3.70542 3.02806 3.70542 2.16057C3.70542 1.29308 3.00218 0.589844 2.13469 0.589844C1.2672 0.589844 0.563965 1.29308 0.563965 2.16057C0.563965 3.02806 1.2672 3.7313 2.13469 3.7313Z" fill="url(#paint0_linear_222_19570)"/>
<path d="M0.788086 2.96936C1.37447 2.13127 2.10322 1.40026 2.93952 0.811523C3.39813 1.08581 3.70533 1.58712 3.70533 2.16035C3.70533 3.02784 3.00208 3.73108 2.1346 3.73108C1.56302 3.73108 1.06288 3.42574 0.788086 2.96936Z" fill="url(#paint1_linear_222_19570)"/>
<path d="M8.11133 16C12.5296 16 16.1113 12.4183 16.1113 8C16.1113 3.58172 12.5296 0 8.11133 0C3.69305 0 0.111328 3.58172 0.111328 8C0.111328 12.4183 3.69305 16 8.11133 16Z" fill="url(#paint2_linear_222_19570)"/>
<path d="M1.61914 12.6748C3.07191 14.6887 5.43828 15.9999 8.11119 15.9999C10.7841 15.9999 13.1505 14.6887 14.6032 12.6748C12.9922 13.2258 10.6802 13.5713 8.11119 13.5713C5.54218 13.5713 3.23018 13.2258 1.61914 12.6748Z" fill="url(#paint3_linear_222_19570)"/>
<path d="M13.9958 2.58111C12.5339 0.994353 10.4388 0 8.11117 0C5.78355 0 3.68846 0.994353 2.22656 2.58111C3.787 3.02118 5.84946 3.28897 8.11117 3.28897C10.3729 3.28897 12.4353 3.02115 13.9958 2.58111Z" fill="url(#paint4_linear_222_19570)"/>
<path d="M8.11133 5.82683C8.11133 6.22417 8.4392 6.54244 8.83641 6.53256C10.9891 6.47897 12.9978 6.18733 14.5555 5.69786C14.9102 5.58639 15.2821 5.45102 15.6399 5.28876C15.4793 4.84274 15.2804 4.415 15.0468 4.00977C14.7955 4.12233 14.4938 4.2374 14.1323 4.351C12.6955 4.80249 10.8221 5.07163 8.79845 5.12136C8.41608 5.1308 8.11133 5.44434 8.11133 5.82683Z" fill="url(#paint5_linear_222_19570)"/>
<path d="M8.11133 0C7.90003 0 7.69072 0.0083451 7.48356 0.0244078C8.36027 0.0924549 9.19732 0.301835 9.972 0.629804C12.6404 1.75947 11.8939 5.73129 8.99763 5.82221C8.70615 5.83137 8.4105 5.83605 8.11133 5.83605C5.09928 5.83605 2.44077 5.36116 0.851124 4.63677C0.376646 5.65929 0.111328 6.79859 0.111328 8C0.111328 8.47912 0.153587 8.94836 0.234309 9.40433C1.68438 10.3093 4.66687 10.9303 8.11133 10.9303C9.90628 10.9303 11.5755 10.7616 12.9679 10.4719C13.6979 10.3201 14.2772 11.0838 13.9279 11.7426C13.9234 11.7511 13.9189 11.7595 13.9144 11.768C13.7964 11.9885 13.5921 12.1506 13.3493 12.2101C11.8658 12.5741 10.0408 12.7715 8.11133 12.7715C5.82681 12.7715 3.68849 12.4949 2.09034 11.9927C1.60457 11.84 1.22653 11.6847 0.934042 11.5364C1.29683 12.2713 1.76877 12.9426 2.32934 13.5287C3.96262 13.9526 5.98474 14.1832 8.11133 14.1832C8.12611 14.1832 8.14088 14.1832 8.15566 14.1832C9.18728 14.1816 9.33338 15.6788 8.31895 15.8664C8.04513 15.917 7.76642 15.9537 7.48356 15.9756C7.69072 15.9917 7.90003 16 8.11133 16C12.5296 16 16.1113 12.4183 16.1113 8C16.1113 3.58171 12.5296 0 8.11133 0Z" fill="url(#paint6_linear_222_19570)"/>
<path d="M5.86283 12.6846C5.86283 12.325 5.59212 12.0233 5.23466 11.9835C4.06208 11.8529 2.99043 11.6417 2.09022 11.3588C1.37841 11.1351 0.897847 10.9056 0.579102 10.7012C0.836482 11.4189 1.19353 12.0889 1.63356 12.695L1.63369 12.6951C2.62331 13.0092 3.79745 13.2742 5.07629 13.417C5.49546 13.4638 5.86283 13.1064 5.86283 12.6846Z" fill="url(#paint7_linear_222_19570)"/>
<path d="M5.19985 12.2946C4.69908 12.2389 4.22077 12.1694 3.76706 12.0867C3.52132 12.0419 3.29541 12.2316 3.29541 12.4814C3.29541 12.6727 3.43037 12.838 3.61811 12.8748C4.111 12.9714 4.61193 13.0488 5.111 13.1045C5.12405 13.106 5.13726 13.1067 5.15028 13.1067H5.15031C5.2513 13.1067 5.34918 13.0629 5.42595 12.9833C5.50416 12.9021 5.54903 12.793 5.54903 12.684C5.54899 12.4842 5.39891 12.3168 5.19985 12.2946Z" fill="url(#paint8_linear_222_19570)"/>
<path d="M14.6035 12.6748C12.9924 13.2258 10.6804 13.5713 8.11143 13.5713C5.54255 13.5713 3.23067 13.2259 1.61963 12.6749C1.83657 12.9758 2.07365 13.2611 2.32943 13.5285C3.96272 13.9525 5.98484 14.1831 8.11143 14.1831C8.1262 14.1831 8.14098 14.1831 8.15575 14.183C9.18738 14.1815 9.33348 15.6787 8.31905 15.8662C8.04523 15.9168 7.76652 15.9535 7.48366 15.9754C7.69081 15.9915 7.90013 15.9999 8.11143 15.9999C10.7843 15.9999 13.1507 14.6887 14.6035 12.6748Z" fill="url(#paint9_linear_222_19570)"/>
<path d="M16.1017 7.6056C16.0762 7.07983 15.9996 6.56755 15.8774 6.07324C15.579 6.31421 15.0462 6.611 14.1324 6.89812C12.5343 7.40033 10.396 7.67691 8.11145 7.67691C5.82693 7.67691 3.68864 7.40033 2.09049 6.89815C1.17683 6.61103 0.643998 6.31431 0.345645 6.07334C0.223323 6.56761 0.147119 7.08005 0.121582 7.60579C0.610084 7.87437 1.1565 8.08444 1.66728 8.24494C2.6834 8.56425 3.89153 8.7992 5.20626 8.93894C5.55616 8.97618 5.82125 9.27227 5.82125 9.62418C5.82125 9.99033 6.10737 10.2937 6.47305 10.3126C7.01008 10.3402 7.55754 10.3544 8.11145 10.3544C10.8051 10.3544 13.3481 10.0215 15.272 9.41693C15.5196 9.33912 15.7747 9.25012 16.0287 9.15051C16.0829 8.77464 16.1114 8.39051 16.1114 7.99964C16.1114 7.8675 16.1081 7.73614 16.1017 7.6056Z" fill="url(#paint10_linear_222_19570)"/>
<path d="M14.1326 4.35101C13.2077 4.64164 12.1017 4.85654 10.8915 4.98617C10.4456 5.46922 9.8054 5.79646 8.99787 5.82184C8.70648 5.831 8.41089 5.83568 8.11182 5.83568C8.11665 6.22887 8.44245 6.54238 8.83668 6.53256C10.9894 6.47897 12.9981 6.18733 14.5558 5.69786C14.9105 5.58639 15.2824 5.45102 15.6402 5.28876C15.4795 4.84274 15.2807 4.415 15.0471 4.00977C14.7957 4.1223 14.494 4.23741 14.1326 4.35101Z" fill="url(#paint11_linear_222_19570)"/>
<path d="M7.48438 0.0244706C8.36083 0.0925804 9.19766 0.301929 9.97209 0.629804C11.0933 1.10447 11.6114 2.08097 11.6207 3.06049C12.4951 2.94105 13.2962 2.77848 13.9961 2.58111C12.5342 0.994353 10.4391 0 8.11145 0C7.90041 0 7.69131 0.00843922 7.48438 0.0244706Z" fill="url(#paint12_linear_222_19570)"/>
<path d="M13.9237 15.9998C15.1318 15.9998 16.1111 15.0205 16.1111 13.8124C16.1111 12.6043 15.1318 11.625 13.9237 11.625C12.7157 11.625 11.7363 12.6043 11.7363 13.8124C11.7363 15.0205 12.7157 15.9998 13.9237 15.9998Z" fill="url(#paint13_linear_222_19570)"/>
<path d="M13.9236 11.625C13.7896 11.625 13.6586 11.6377 13.5312 11.6608C14.552 11.8457 15.3263 12.7383 15.3263 13.8124C15.3263 14.1622 15.2438 14.4925 15.0977 14.7856C15.0237 14.4524 14.717 14.2068 14.3569 14.2286C14.0068 14.2497 13.7188 14.5309 13.69 14.8804C13.6748 15.064 13.7292 15.2345 13.8297 15.3686C13.9893 15.5814 13.8773 15.8885 13.6178 15.9465C13.5892 15.9529 13.5603 15.9587 13.5313 15.964C13.6586 15.9871 13.7896 15.9998 13.9236 15.9998C15.1317 15.9998 16.111 15.0205 16.111 13.8124C16.111 12.6044 15.1317 11.625 13.9236 11.625Z" fill="url(#paint14_linear_222_19570)"/>
<path d="M12.8177 14.2272C13.0733 14.2272 13.2805 14.0201 13.2805 13.7645C13.2805 13.5089 13.0733 13.3018 12.8177 13.3018C12.5622 13.3018 12.355 13.5089 12.355 13.7645C12.355 14.0201 12.5622 14.2272 12.8177 14.2272Z" fill="url(#paint15_linear_222_19570)"/>
<path d="M14.2269 13.3015C14.4825 13.3015 14.6897 13.0943 14.6897 12.8387C14.6897 12.5832 14.4825 12.376 14.2269 12.376C13.9713 12.376 13.7642 12.5832 13.7642 12.8387C13.7642 13.0943 13.9713 13.3015 14.2269 13.3015Z" fill="url(#paint16_linear_222_19570)"/>
</g>
<defs>
<linearGradient id="paint0_linear_222_19570" x1="0.21573" y1="2.16057" x2="3.629" y2="2.16057" gradientUnits="userSpaceOnUse">
<stop stop-color="#EAF6FF"/>
<stop offset="0.5213" stop-color="#D8ECFE"/>
<stop offset="1" stop-color="#B3DAFE"/>
</linearGradient>
<linearGradient id="paint1_linear_222_19570" x1="-0.474565" y1="2.27132" x2="2.87245" y2="2.27132" gradientUnits="userSpaceOnUse">
<stop stop-color="#EAF6FF"/>
<stop offset="0.5213" stop-color="#D8ECFE"/>
<stop offset="1" stop-color="#B3DAFE"/>
</linearGradient>
<linearGradient id="paint2_linear_222_19570" x1="-0.147809" y1="8" x2="16.0529" y2="8" gradientUnits="userSpaceOnUse">
<stop stop-color="#FEF056"/>
<stop offset="0.5213" stop-color="#F4D902"/>
<stop offset="1" stop-color="#FE9738"/>
</linearGradient>
<linearGradient id="paint3_linear_222_19570" x1="-3.30842" y1="14.3373" x2="18.8524" y2="14.3373" gradientUnits="userSpaceOnUse">
<stop stop-color="#FBC56D"/>
<stop offset="0.5841" stop-color="#FE9738"/>
<stop offset="0.9984" stop-color="#FB2B3A"/>
</linearGradient>
<linearGradient id="paint4_linear_222_19570" x1="-3.30843" y1="1.64449" x2="18.8524" y2="1.64449" gradientUnits="userSpaceOnUse">
<stop stop-color="#FBC56D"/>
<stop offset="0.5841" stop-color="#FE9738"/>
<stop offset="0.9984" stop-color="#FB2B3A"/>
</linearGradient>
<linearGradient id="paint5_linear_222_19570" x1="-3.30828" y1="5.27129" x2="18.8525" y2="5.27129" gradientUnits="userSpaceOnUse">
<stop stop-color="#FBC56D"/>
<stop offset="0.5841" stop-color="#FE9738"/>
<stop offset="0.9984" stop-color="#FB2B3A"/>
</linearGradient>
<linearGradient id="paint6_linear_222_19570" x1="-3.39731" y1="8" x2="14.815" y2="8" gradientUnits="userSpaceOnUse">
<stop stop-color="#FEF056"/>
<stop offset="0.5213" stop-color="#F4D902"/>
<stop offset="1" stop-color="#FE9738"/>
</linearGradient>
<linearGradient id="paint7_linear_222_19570" x1="-3.3084" y1="12.0612" x2="18.8524" y2="12.0612" gradientUnits="userSpaceOnUse">
<stop stop-color="#FBC56D"/>
<stop offset="0.5841" stop-color="#FE9738"/>
<stop offset="0.9984" stop-color="#FB2B3A"/>
</linearGradient>
<linearGradient id="paint8_linear_222_19570" x1="-0.500669" y1="12.5934" x2="7.03994" y2="12.5934" gradientUnits="userSpaceOnUse">
<stop stop-color="#FD8087"/>
<stop offset="0.5213" stop-color="#FB2B3A"/>
<stop offset="1" stop-color="#D90D80"/>
</linearGradient>
<linearGradient id="paint9_linear_222_19570" x1="-1.22762" y1="14.3373" x2="13.5516" y2="14.3373" gradientUnits="userSpaceOnUse">
<stop stop-color="#FBC56D"/>
<stop offset="0.5841" stop-color="#FE9738"/>
<stop offset="0.9984" stop-color="#FB2B3A"/>
</linearGradient>
<linearGradient id="paint10_linear_222_19570" x1="-3.30816" y1="8.21382" x2="18.8526" y2="8.21382" gradientUnits="userSpaceOnUse">
<stop stop-color="#FBC56D"/>
<stop offset="0.5841" stop-color="#FE9738"/>
<stop offset="0.9984" stop-color="#FB2B3A"/>
</linearGradient>
<linearGradient id="paint11_linear_222_19570" x1="-3.87275" y1="5.27126" x2="15.4013" y2="5.27126" gradientUnits="userSpaceOnUse">
<stop stop-color="#FBC56D"/>
<stop offset="0.5841" stop-color="#FE9738"/>
<stop offset="0.9984" stop-color="#FB2B3A"/>
</linearGradient>
<linearGradient id="paint12_linear_222_19570" x1="-0.0767863" y1="1.53023" x2="13.5391" y2="1.53023" gradientUnits="userSpaceOnUse">
<stop stop-color="#FBC56D"/>
<stop offset="0.5841" stop-color="#FE9738"/>
<stop offset="0.9984" stop-color="#FB2B3A"/>
</linearGradient>
<linearGradient id="paint13_linear_222_19570" x1="11.7363" y1="13.8124" x2="16.1111" y2="13.8124" gradientUnits="userSpaceOnUse">
<stop stop-color="#EAF6FF"/>
<stop offset="0.5213" stop-color="#D8ECFE"/>
<stop offset="1" stop-color="#B3DAFE"/>
</linearGradient>
<linearGradient id="paint14_linear_222_19570" x1="10.2129" y1="13.8124" x2="14.7333" y2="13.8124" gradientUnits="userSpaceOnUse">
<stop stop-color="#EAF6FF"/>
<stop offset="0.5213" stop-color="#D8ECFE"/>
<stop offset="1" stop-color="#B3DAFE"/>
</linearGradient>
<linearGradient id="paint15_linear_222_19570" x1="10.2131" y1="13.7645" x2="14.7335" y2="13.7645" gradientUnits="userSpaceOnUse">
<stop stop-color="#EAF6FF"/>
<stop offset="0.5213" stop-color="#D8ECFE"/>
<stop offset="1" stop-color="#B3DAFE"/>
</linearGradient>
<linearGradient id="paint16_linear_222_19570" x1="10.2129" y1="12.8387" x2="14.7333" y2="12.8387" gradientUnits="userSpaceOnUse">
<stop stop-color="#EAF6FF"/>
<stop offset="0.5213" stop-color="#D8ECFE"/>
<stop offset="1" stop-color="#B3DAFE"/>
</linearGradient>
<clipPath id="clip0_222_19570">
<rect width="16" height="16" fill="white" transform="translate(0.111328)"/>
</clipPath>
</defs>
</svg>
