<svg width="17" height="16" viewBox="0 0 17 16" fill="none" xmlns="http://www.w3.org/2000/svg">
<g clip-path="url(#clip0_222_19613)">
<path d="M8.11133 16C12.5296 16 16.1113 12.4183 16.1113 8C16.1113 3.58172 12.5296 0 8.11133 0C3.69305 0 0.111328 3.58172 0.111328 8C0.111328 12.4183 3.69305 16 8.11133 16Z" fill="url(#paint0_linear_222_19613)"/>
<path d="M10.7792 8.16992C10.7792 7.7185 10.4133 7.35254 9.96188 7.35254C9.51049 7.35254 9.14453 7.7185 9.14453 8.16992C9.14453 8.62134 9.51049 8.98727 9.96188 8.98727C10.4133 8.98727 10.7792 8.62134 10.7792 8.16992Z" fill="url(#paint1_linear_222_19613)"/>
<path d="M8.11133 0C7.90019 0 7.69062 0.00847059 7.48356 0.0244706C7.48369 0.0251294 7.48347 0.0239686 7.4836 0.0246275C7.74468 0.0385882 7.80858 0.395922 7.57172 0.498824C7.47949 0.53898 7.38443 0.57349 7.28717 0.602039C6.97627 0.693333 6.69015 0.844549 6.44294 1.04408C6.19541 1.24361 5.98678 1.49145 5.8318 1.77569L5.74929 1.92722C5.43901 2.496 4.91541 2.91796 4.29392 3.10086L4.20388 3.12722C3.58239 3.31012 3.05878 3.73208 2.74882 4.30086L2.30082 5.12188C2.21737 5.27498 2.40874 5.42933 2.54082 5.31576C2.74286 5.14196 2.96215 4.99043 3.19494 4.86369C3.42772 4.73694 3.674 4.63498 3.92968 4.55969L5.48137 4.10353C5.96356 3.96173 6.36984 3.6342 6.61047 3.19278C6.73094 2.97224 6.89251 2.78024 7.08451 2.62526C7.27619 2.47059 7.49831 2.35326 7.73956 2.28235L9.25956 1.83529C9.73956 1.6869 10.0354 1.43059 10.2102 1.21569C10.3749 1.01271 10.6632 0.958118 10.8887 1.08988C10.8922 1.09208 10.896 1.09396 10.8994 1.09616C11.2012 1.2731 11.2571 1.68565 11.0095 1.93318L10.1242 2.81854C9.90352 3.03918 9.56774 3.08543 9.28868 2.94579C9.10841 2.85559 8.90264 2.80885 8.68507 2.81929C8.05712 2.84944 7.54929 3.36599 7.52902 3.99432C7.52516 4.11404 7.53862 4.23006 7.56708 4.33998C7.68325 4.78896 7.38189 5.23928 6.92645 5.32662C6.75211 5.36006 6.57376 5.37713 6.39362 5.37694C5.63594 5.37606 4.9123 5.69255 4.37655 6.2283L3.73878 6.86607C3.20937 7.39545 2.49138 7.69286 1.7427 7.69286H0.117916C0.113838 7.79482 0.111328 7.8971 0.111328 8C0.111328 8.59263 0.176269 9.16957 0.298622 9.72549H1.07133C1.86276 9.72549 2.62182 9.41111 3.18145 8.85145L3.23729 8.79561C3.79694 8.23595 4.55597 7.92157 5.34741 7.92157H7.1262C7.91767 7.92157 8.67669 7.60718 9.23632 7.04753L9.8164 6.46745C10.6054 5.61569 12.0426 5.52596 12.1044 5.51686C13.5281 5.30918 14.8313 6.42824 14.8548 7.86667C14.8555 7.91122 14.8558 7.95545 14.8558 8V8.01406C14.8547 8.65098 14.4478 9.21374 13.8491 9.43097C13.6629 9.49851 13.4755 9.59849 13.2982 9.73045C12.7222 10.1592 12.4384 10.7869 12.5754 11.2466C12.6259 11.4162 12.5554 11.5989 12.3975 11.6789C12.3867 11.6844 12.3762 11.6893 12.366 11.6935C11.9337 11.8726 11.5359 12.1362 11.1987 12.4734L10.8278 12.8442C10.1497 13.5224 9.22885 13.8943 8.26979 13.8981C7.32083 13.9018 6.41134 14.2803 5.73981 14.9518L5.2275 15.4642C5.93652 15.738 6.69385 15.9144 7.4835 15.9755H7.48413C7.69119 15.9915 7.90013 16 8.11127 16C12.5295 16 16.1113 12.4182 16.1113 8C16.1113 3.5818 12.5295 0 8.11133 0ZM13.0977 4.85176C12.6462 4.85176 12.2801 4.48596 12.2801 4.03451C12.2801 3.58306 12.6462 3.21726 13.0977 3.21726C13.5491 3.21726 13.9149 3.58306 13.9149 4.03451C13.9149 4.48596 13.5491 4.85176 13.0977 4.85176Z" fill="url(#paint2_linear_222_19613)"/>
<path d="M6.58167 11.6868C7.03971 11.2288 7.66098 10.9715 8.30876 10.9715H8.40287C9.05065 10.9715 9.67193 10.7141 10.13 10.2561L10.7912 9.59486C10.9144 9.4716 10.7746 9.26937 10.6157 9.34121C10.1301 9.56095 9.60309 9.67458 9.07001 9.67458H7.45254C6.94992 9.67458 6.46791 9.87423 6.11249 10.2297C5.75707 10.5851 5.27506 10.7847 4.77244 10.7847H3.18813C2.68551 10.7847 2.2035 10.9844 1.84808 11.3398L1.18408 12.0038C1.55083 12.637 2.00206 13.215 2.52206 13.723L3.00535 13.2397C3.46339 12.7816 4.08466 12.5243 4.73247 12.5243C5.38025 12.5243 6.00152 12.267 6.45956 11.8089L6.58167 11.6868Z" fill="url(#paint3_linear_222_19613)"/>
</g>
<defs>
<linearGradient id="paint0_linear_222_19613" x1="-0.147809" y1="8" x2="16.0529" y2="8" gradientUnits="userSpaceOnUse">
<stop stop-color="#FBC56D"/>
<stop offset="0.445" stop-color="#FE9738"/>
<stop offset="0.5378" stop-color="#FE8C39"/>
<stop offset="0.7008" stop-color="#FD6F39"/>
<stop offset="0.9133" stop-color="#FB403A"/>
<stop offset="0.9984" stop-color="#FB2B3A"/>
</linearGradient>
<linearGradient id="paint1_linear_222_19613" x1="-5.53553" y1="8.16992" x2="13.0063" y2="8.16992" gradientUnits="userSpaceOnUse">
<stop stop-color="#FBC56D"/>
<stop offset="0.5841" stop-color="#FE9738"/>
<stop offset="0.9984" stop-color="#FB2B3A"/>
</linearGradient>
<linearGradient id="paint2_linear_222_19613" x1="-5.53573" y1="8" x2="13.0061" y2="8" gradientUnits="userSpaceOnUse">
<stop stop-color="#FBC56D"/>
<stop offset="0.5841" stop-color="#FE9738"/>
<stop offset="0.9984" stop-color="#FB2B3A"/>
</linearGradient>
<linearGradient id="paint3_linear_222_19613" x1="-5.53554" y1="11.5246" x2="13.0063" y2="11.5246" gradientUnits="userSpaceOnUse">
<stop stop-color="#FBC56D"/>
<stop offset="0.5841" stop-color="#FE9738"/>
<stop offset="0.9984" stop-color="#FB2B3A"/>
</linearGradient>
<clipPath id="clip0_222_19613">
<rect width="16" height="16" fill="white" transform="translate(0.111328)"/>
</clipPath>
</defs>
</svg>
