<svg width="17" height="16" viewBox="0 0 17 16" fill="none" xmlns="http://www.w3.org/2000/svg">
<g clip-path="url(#clip0_222_19641)">
<path d="M8.11118 14.8679C11.904 14.8679 14.9787 11.7932 14.9787 8.00034C14.9787 4.20751 11.904 1.13281 8.11118 1.13281C4.31835 1.13281 1.24365 4.20751 1.24365 8.00034C1.24365 11.7932 4.31835 14.8679 8.11118 14.8679Z" fill="url(#paint0_linear_222_19641)"/>
<path d="M3.24852 6.67722C3.476 6.61043 3.7047 6.53846 3.93419 6.46141C4.30655 6.33642 4.50429 5.93021 4.37435 5.55955L4.37426 5.5593C4.24679 5.19569 3.85074 5.00087 3.48554 5.12369C3.2734 5.19503 3.06223 5.2616 2.85247 5.32328C2.53062 5.41793 2.31945 5.72523 2.34775 6.05953C2.38537 6.5038 2.82072 6.80284 3.24852 6.67722Z" fill="url(#paint1_linear_222_19641)"/>
<path d="M8.11101 1.13281C7.89934 1.13281 7.69002 1.14291 7.48325 1.16168C7.48328 1.1623 7.48322 1.16124 7.48325 1.16186C8.4072 1.22994 8.70935 2.4237 7.94778 2.93639C7.47007 3.25798 6.95785 3.56544 6.41815 3.85384C6.06841 4.04073 5.92595 4.4812 6.10327 4.83586C6.27362 5.17657 6.68805 5.30849 7.02452 5.12992C8.30072 4.45259 9.44478 3.67069 10.3781 2.83926C10.662 2.58639 11.0889 2.58043 11.3752 2.8305C11.3799 2.83464 11.3846 2.83879 11.3893 2.84293C11.7164 3.13102 11.7395 3.62037 11.438 3.93513C11.3398 4.03769 11.2477 4.13149 11.1834 4.19219C10.5444 4.79571 9.77466 5.37713 8.91051 5.91134C8.62749 6.08631 8.49247 6.43326 8.60265 6.7472C8.7564 7.18522 9.26445 7.35125 9.64378 7.1168C10.608 6.52085 11.4699 5.86714 12.1875 5.18485C12.5129 4.87555 13.0467 4.99232 13.2163 5.40794C13.2181 5.41218 13.2198 5.41638 13.2215 5.42062C13.3141 5.64879 13.2666 5.90996 13.1 6.0912C12.9059 6.30215 12.657 6.56603 12.5285 6.68687C11.4126 7.7365 9.90166 8.71862 8.1869 9.5007C7.8627 9.64856 7.5379 9.78613 7.21401 9.91313C6.85897 10.0524 6.66229 10.4444 6.78587 10.8052C6.91638 11.1863 7.33711 11.3804 7.71038 11.2346C8.0647 11.0962 8.41937 10.9463 8.77275 10.7852C10.7304 9.89233 12.4556 8.74456 13.7057 7.51194C13.717 7.67329 13.7229 7.83614 13.7229 8.00038C13.7229 8.16182 13.7171 8.32188 13.7062 8.48053C12.7336 9.47363 11.3975 10.4201 9.86715 11.1924C8.08017 12.0937 6.259 12.6418 4.72833 12.739C4.70355 12.7406 4.67877 12.7422 4.65398 12.7434C4.00162 12.7791 3.43949 12.7253 3.00586 12.5936C3.57467 13.2254 4.25903 13.7509 5.02571 14.1371C5.50782 14.0959 6.01112 14.018 6.5288 13.9045C7.80692 13.6243 9.17068 13.1308 10.5056 12.4573C10.515 12.4525 10.5243 12.4478 10.5337 12.4431C11.1331 12.1393 11.6564 12.9557 11.1307 13.3744C10.1113 14.1865 8.85551 14.7146 7.48315 14.839C7.68996 14.8578 7.89925 14.8679 8.11092 14.8679C11.9038 14.8679 14.9784 11.7932 14.9784 8.00034C14.9784 4.2075 11.9038 1.13281 8.11101 1.13281Z" fill="url(#paint2_linear_222_19641)"/>
<path d="M15.8613 4.09016C15.3339 3.04452 14.0655 2.49832 12.2742 2.53817C12.8602 2.98554 13.3722 3.52515 13.7885 4.13534C14.1851 4.26742 14.4652 4.46852 14.5964 4.72828C14.7275 4.98773 14.7228 5.33189 14.5942 5.72875C14.4499 6.17298 14.1502 6.6831 13.7107 7.21486C13.695 7.23369 13.6793 7.25251 13.6633 7.27134C12.6757 8.44529 11.1529 9.58474 9.36563 10.4867C7.57865 11.388 5.75748 11.9361 4.22682 12.0334C4.20203 12.0349 4.17725 12.0365 4.15246 12.0378C3.46447 12.0754 2.87655 12.0136 2.43419 11.8658C2.03764 11.7338 1.75749 11.5327 1.62635 11.2729C1.49521 11.0134 1.49992 10.6696 1.62855 10.2727C1.39012 9.59196 1.25584 8.86223 1.24486 8.10271C0.147766 9.52012 -0.166586 10.8654 0.361413 11.9113C0.870902 12.9215 2.07184 13.4655 3.76752 13.4655C3.82713 13.4655 3.88737 13.4649 3.94854 13.4633C4.04078 13.4614 4.13458 13.4577 4.22964 13.4527C4.79968 13.4216 5.40329 13.3356 6.02728 13.1989C7.3054 12.9187 8.66916 12.4252 10.0041 11.7516C11.3386 11.0781 12.5459 10.2743 13.5306 9.41282C14.0116 8.99212 14.4395 8.55761 14.8031 8.11745C14.8637 8.04435 14.922 7.97157 14.9779 7.89879C15.7273 6.93063 16.1113 5.99636 16.1113 5.16781C16.1113 4.78318 16.0285 4.42177 15.8613 4.09016Z" fill="url(#paint3_linear_222_19641)"/>
<path d="M16.1111 5.16781C16.1111 5.99636 15.7271 6.93063 14.9776 7.89879C14.9218 7.97157 14.8635 8.04435 14.8029 8.11745C14.4393 8.55761 14.0114 8.99212 13.5304 9.41282C12.5457 10.2743 11.3384 11.0781 10.0039 11.7516C8.66896 12.4252 7.30519 12.9187 6.02708 13.1989C5.40308 13.3356 4.79947 13.4216 4.22943 13.4527C4.13438 13.4577 4.04057 13.4614 3.94834 13.4633C3.88716 13.4649 3.82693 13.4655 3.76732 13.4655C3.55681 13.4655 3.35383 13.457 3.15869 13.4404C3.37704 13.4241 3.6001 13.4003 3.82724 13.3686C4.13532 13.3259 4.45092 13.2691 4.77155 13.1989C6.04967 12.9187 7.41343 12.4252 8.74833 11.7516C10.0829 11.0781 11.2901 10.2743 12.2749 9.41282C12.7558 8.99212 13.1838 8.55761 13.5474 8.11745C14.1249 7.41847 14.5146 6.73424 14.7097 6.09142C14.8067 5.77236 14.8556 5.46334 14.8556 5.16781C14.8556 4.78318 14.7728 4.42177 14.6056 4.09016C14.2275 3.34068 13.4683 2.84781 12.4086 2.64358C12.3643 2.60781 12.3195 2.57268 12.274 2.53817C14.0653 2.49832 15.3337 3.04452 15.8611 4.09016C16.0283 4.42177 16.1111 4.78318 16.1111 5.16781Z" fill="url(#paint4_linear_222_19641)"/>
<path d="M2.43412 11.8657C2.03757 11.7336 1.75742 11.5325 1.62659 11.2727C1.49546 11.0133 1.50016 10.6694 1.62879 10.2726C1.51623 9.95135 1.42716 9.61965 1.36328 9.27869C1.29144 8.89683 1.25091 8.50389 1.2451 8.10254C0.964948 8.46448 0.73618 8.82169 0.559082 9.17043C0.59036 9.3527 0.628949 9.53246 0.674439 9.70947C0.759176 10.0393 0.777246 10.3812 0.750172 10.7207C0.733419 10.9306 0.763066 11.117 0.841654 11.2727C1.0575 11.7 1.67553 11.9679 2.55177 12.0329C2.80996 12.0523 3.09012 12.0539 3.3891 12.0366C3.3891 12.0363 3.3891 12.0363 3.3891 12.0363C3.02421 12.0131 2.70232 11.9551 2.43412 11.8657Z" fill="url(#paint5_linear_222_19641)"/>
</g>
<defs>
<linearGradient id="paint0_linear_222_19641" x1="1.24368" y1="8.00034" x2="14.9787" y2="8.00034" gradientUnits="userSpaceOnUse">
<stop stop-color="#FECA9C"/>
<stop offset="0.5213" stop-color="#FD8087"/>
<stop offset="1" stop-color="#F46700"/>
</linearGradient>
<linearGradient id="paint1_linear_222_19641" x1="-4.2496" y1="5.89649" x2="13.2877" y2="5.89649" gradientUnits="userSpaceOnUse">
<stop stop-color="#FECA9C"/>
<stop offset="0.5213" stop-color="#FD8087"/>
<stop offset="1" stop-color="#F46700"/>
</linearGradient>
<linearGradient id="paint2_linear_222_19641" x1="-4.24975" y1="8.00034" x2="13.2875" y2="8.00034" gradientUnits="userSpaceOnUse">
<stop stop-color="#FECA9C"/>
<stop offset="0.5213" stop-color="#FD8087"/>
<stop offset="1" stop-color="#F46700"/>
</linearGradient>
<linearGradient id="paint3_linear_222_19641" x1="-0.323794" y1="8.00081" x2="16.8519" y2="8.00081" gradientUnits="userSpaceOnUse">
<stop stop-color="#FEF056"/>
<stop offset="0.5213" stop-color="#F4D902"/>
<stop offset="1" stop-color="#FE9738"/>
</linearGradient>
<linearGradient id="paint4_linear_222_19641" x1="-4.08864" y1="8.00081" x2="12.182" y2="8.00081" gradientUnits="userSpaceOnUse">
<stop stop-color="#FEF056"/>
<stop offset="0.5213" stop-color="#F4D902"/>
<stop offset="1" stop-color="#FE9738"/>
</linearGradient>
<linearGradient id="paint5_linear_222_19641" x1="-2.06758" y1="10.0756" x2="5.76996" y2="10.0756" gradientUnits="userSpaceOnUse">
<stop stop-color="#FEF056"/>
<stop offset="0.5213" stop-color="#F4D902"/>
<stop offset="1" stop-color="#FE9738"/>
</linearGradient>
<clipPath id="clip0_222_19641">
<rect width="16" height="16" fill="white" transform="translate(0.111328)"/>
</clipPath>
</defs>
</svg>
