<svg width="17" height="16" viewBox="0 0 17 16" fill="none" xmlns="http://www.w3.org/2000/svg">
<g clip-path="url(#clip0_222_19914)">
<path d="M8.11133 15.75C12.3915 15.75 15.8613 12.2802 15.8613 8C15.8613 3.71979 12.3915 0.25 8.11133 0.25C3.83112 0.25 0.361328 3.71979 0.361328 8C0.361328 12.2802 3.83112 15.75 8.11133 15.75Z" fill="#8CC8FF"/>
<path d="M8.61156 0.75001C7.10869 0.749777 5.63817 1.18651 4.37906 2.00704C3.11995 2.82757 2.12658 3.99649 1.51989 5.37146C0.913207 6.74644 0.719389 8.26815 0.962037 9.7513C1.20469 11.2345 1.87333 12.6151 2.88656 13.725C4.35862 15.0755 6.2953 15.8054 8.29252 15.7624C10.2897 15.7194 12.1932 14.9068 13.6058 13.4942C15.0184 12.0817 15.8309 10.1782 15.8739 8.18097C15.9169 6.18375 15.187 4.24707 13.8366 2.77501C12.41 1.46948 10.5454 0.74684 8.61156 0.75001Z" fill="#7DBEF9"/>
<path d="M8.11133 14.75C11.8393 14.75 14.8613 11.7279 14.8613 8C14.8613 4.27208 11.8393 1.25 8.11133 1.25C4.38341 1.25 1.36133 4.27208 1.36133 8C1.36133 11.7279 4.38341 14.75 8.11133 14.75Z" fill="#FFEDE3"/>
<path d="M8.86134 2C7.57145 1.99895 6.30832 2.3678 5.22169 3.06283C4.13507 3.75786 3.27055 4.74992 2.73062 5.92136C2.1907 7.09281 1.99802 8.39452 2.17543 9.67215C2.35285 10.9498 2.89291 12.1497 3.73159 13.1298C5.0219 14.234 6.6813 14.8108 8.37833 14.745C10.0754 14.6792 11.6851 13.9755 12.886 12.7746C14.0869 11.5737 14.7905 9.96402 14.8563 8.26699C14.9222 6.56996 14.3453 4.91056 13.2411 3.62025C12.0219 2.57377 10.468 1.99893 8.86134 2Z" fill="#FFFBF8"/>
<path d="M11.5953 4.98269C11.3661 4.48457 11.0328 4.0414 10.6177 3.68307C10.2027 3.32474 9.71564 3.05959 9.18943 2.9055C8.66321 2.75141 8.11006 2.71197 7.5673 2.78984C7.02455 2.86771 6.5048 3.06107 6.04313 3.35689C5.58145 3.6527 5.18859 4.04409 4.89104 4.50465C4.5935 4.96521 4.39818 5.48423 4.31828 6.02669C4.23837 6.56915 4.27574 7.12244 4.42785 7.64923C4.57996 8.17602 4.84328 8.66407 5.20005 9.08044L5.77805 9.75544C5.48528 9.77177 5.20371 9.87354 4.96816 10.0482C4.73261 10.2228 4.55342 10.4627 4.45274 10.7381C4.35206 11.0135 4.33431 11.3124 4.40168 11.5978C4.46905 11.8831 4.61859 12.1425 4.83181 12.3438C5.04503 12.5451 5.31257 12.6795 5.60135 12.7304C5.89014 12.7812 6.18749 12.7463 6.45666 12.63C6.72582 12.5137 6.95499 12.321 7.11581 12.0758C7.27664 11.8306 7.36207 11.5437 7.36155 11.2504C7.36129 10.4858 7.08775 9.74641 6.5903 9.16569L5.95955 8.42969C5.60673 8.01812 5.37933 7.514 5.30432 6.9771C5.22931 6.44021 5.30983 5.89307 5.53633 5.40056C5.76284 4.90804 6.12583 4.4908 6.58227 4.19833C7.03871 3.90585 7.56944 3.75039 8.11155 3.75039C8.65366 3.75039 9.18439 3.90585 9.64083 4.19833C10.0973 4.4908 10.4603 4.90804 10.6868 5.40056C10.9133 5.89307 10.9938 6.44021 10.9188 6.9771C10.8438 7.514 10.6164 8.01812 10.2636 8.42969L9.6328 9.16569C9.13535 9.74641 8.86182 10.4858 8.86155 11.2504C8.86117 11.5436 8.94673 11.8305 9.10765 12.0756C9.26856 12.3207 9.49778 12.5133 9.76696 12.6295C10.0361 12.7457 10.3335 12.7805 10.6222 12.7295C10.9109 12.6786 11.1784 12.5441 11.3916 12.3428C11.6047 12.1415 11.7542 11.8821 11.8215 11.5967C11.8888 11.3114 11.871 11.0125 11.7703 10.7372C11.6696 10.4618 11.4904 10.222 11.2549 10.0474C11.0193 9.87277 10.7378 9.77101 10.4451 9.75469L11.0231 9.07969C11.5044 8.52527 11.8147 7.84316 11.9162 7.11598C12.0178 6.38881 11.9063 5.64779 11.5953 4.98269ZM9.86155 11.2504C9.86155 11.1516 9.89087 11.0549 9.94582 10.9727C10.0008 10.8904 10.0788 10.8263 10.1702 10.7885C10.2616 10.7507 10.3621 10.7408 10.4591 10.76C10.5561 10.7793 10.6452 10.827 10.7151 10.8969C10.785 10.9668 10.8327 11.0559 10.8519 11.1529C10.8712 11.2499 10.8613 11.3504 10.8235 11.4418C10.7856 11.5331 10.7216 11.6112 10.6393 11.6662C10.5571 11.7211 10.4604 11.7504 10.3616 11.7504C10.2289 11.7504 10.1018 11.6978 10.008 11.604C9.91423 11.5102 9.86155 11.383 9.86155 11.2504ZM5.86155 10.7504C5.96044 10.7504 6.05711 10.7798 6.13934 10.8347C6.22156 10.8896 6.28565 10.9677 6.32349 11.0591C6.36133 11.1505 6.37124 11.251 6.35194 11.348C6.33265 11.445 6.28503 11.5341 6.2151 11.604C6.14518 11.6739 6.05609 11.7215 5.9591 11.7408C5.86211 11.7601 5.76157 11.7502 5.67021 11.7124C5.57885 11.6745 5.50076 11.6105 5.44582 11.5282C5.39087 11.446 5.36155 11.3493 5.36155 11.2504C5.36155 11.1178 5.41423 10.9907 5.508 10.8969C5.60177 10.8031 5.72894 10.7504 5.86155 10.7504Z" fill="#FFC332"/>
</g>
<defs>
<clipPath id="clip0_222_19914">
<rect width="16" height="16" fill="white" transform="translate(0.111328)"/>
</clipPath>
</defs>
</svg>
