<svg width="17" height="16" viewBox="0 0 17 16" fill="none" xmlns="http://www.w3.org/2000/svg">
<g clip-path="url(#clip0_222_19927)">
<path d="M8.11133 15.75C12.3915 15.75 15.8613 12.2802 15.8613 8C15.8613 3.71979 12.3915 0.25 8.11133 0.25C3.83112 0.25 0.361328 3.71979 0.361328 8C0.361328 12.2802 3.83112 15.75 8.11133 15.75Z" fill="#8CC8FF"/>
<path d="M8.61156 0.75001C7.10869 0.749777 5.63817 1.18651 4.37906 2.00704C3.11995 2.82757 2.12658 3.99649 1.51989 5.37146C0.913207 6.74644 0.719389 8.26815 0.962037 9.7513C1.20469 11.2345 1.87333 12.6151 2.88656 13.725C4.35862 15.0755 6.2953 15.8054 8.29252 15.7624C10.2897 15.7194 12.1932 14.9068 13.6058 13.4942C15.0184 12.0817 15.8309 10.1782 15.8739 8.18097C15.9169 6.18375 15.187 4.24707 13.8366 2.77501C12.41 1.46948 10.5454 0.74684 8.61156 0.75001Z" fill="#7DBEF9"/>
<path d="M8.11133 14.75C11.8393 14.75 14.8613 11.7279 14.8613 8C14.8613 4.27208 11.8393 1.25 8.11133 1.25C4.38341 1.25 1.36133 4.27208 1.36133 8C1.36133 11.7279 4.38341 14.75 8.11133 14.75Z" fill="#FFEDE3"/>
<path d="M8.86134 2C7.57145 1.99895 6.30832 2.3678 5.22169 3.06283C4.13507 3.75786 3.27055 4.74992 2.73062 5.92136C2.1907 7.09281 1.99802 8.39452 2.17543 9.67215C2.35285 10.9498 2.89291 12.1497 3.73159 13.1298C5.0219 14.234 6.6813 14.8108 8.37833 14.745C10.0754 14.6792 11.6851 13.9755 12.886 12.7746C14.0869 11.5737 14.7905 9.96402 14.8563 8.26699C14.9222 6.56996 14.3453 4.91056 13.2411 3.62025C12.0219 2.57377 10.468 1.99893 8.86134 2Z" fill="#FFFBF8"/>
<path d="M11.0228 6.91975L10.4448 6.24475C10.7376 6.22842 11.0192 6.12664 11.2547 5.952C11.4903 5.77735 11.6694 5.5375 11.7701 5.2621C11.8708 4.98669 11.8886 4.68782 11.8212 4.40243C11.7538 4.11705 11.6043 3.85767 11.3911 3.65637C11.1778 3.45507 10.9103 3.32068 10.6215 3.26981C10.3327 3.21895 10.0354 3.25384 9.76621 3.37017C9.49705 3.48651 9.26788 3.67918 9.10706 3.92437C8.94623 4.16957 8.8608 4.45652 8.86132 4.74975C8.86158 5.5144 9.13512 6.25378 9.63257 6.8345L10.2633 7.5705C10.6161 7.98207 10.8435 8.48619 10.9186 9.02308C10.9936 9.55997 10.913 10.1071 10.6865 10.5996C10.46 11.0921 10.097 11.5094 9.6406 11.8019C9.18416 12.0943 8.65342 12.2498 8.11132 12.2498C7.56921 12.2498 7.03848 12.0943 6.58204 11.8019C6.1256 11.5094 5.76261 11.0921 5.5361 10.5996C5.30959 10.1071 5.22907 9.55997 5.30408 9.02308C5.3791 8.48619 5.6065 7.98207 5.95932 7.5705L6.59007 6.8345C7.08752 6.25378 7.36105 5.5144 7.36132 4.74975C7.36169 4.45655 7.27614 4.16967 7.11522 3.92458C6.9543 3.67948 6.72509 3.48692 6.45591 3.3707C6.18673 3.25448 5.88939 3.21969 5.60066 3.27064C5.31192 3.32159 5.04445 3.45605 4.8313 3.65738C4.61816 3.85871 4.46869 4.11809 4.40138 4.40346C4.33407 4.68883 4.35187 4.98766 4.45257 5.26302C4.55328 5.53838 4.73247 5.77819 4.968 5.9528C5.20353 6.12742 5.48508 6.22917 5.77782 6.2455L5.19982 6.9205C4.84285 7.33685 4.57934 7.82495 4.42709 8.35183C4.27484 8.87871 4.23738 9.43212 4.31724 9.97471C4.39711 10.5173 4.59243 11.0365 4.89004 11.4971C5.18765 11.9578 5.58062 12.3492 6.04242 12.6451C6.50422 12.9409 7.02411 13.1343 7.56701 13.2121C8.1099 13.2899 8.66316 13.2503 9.18946 13.096C9.71575 12.9417 10.2028 12.6764 10.6178 12.3178C11.0328 11.9592 11.3661 11.5158 11.5951 11.0175C11.9063 10.3523 12.0178 9.61113 11.9163 8.88381C11.8147 8.15648 11.5043 7.47423 11.0228 6.91975ZM10.3613 4.24975C10.4602 4.24975 10.5569 4.27907 10.6391 4.33401C10.7213 4.38895 10.7854 4.46704 10.8233 4.5584C10.8611 4.64977 10.871 4.7503 10.8517 4.84729C10.8324 4.94428 10.7848 5.03337 10.7149 5.1033C10.6449 5.17322 10.5559 5.22085 10.4589 5.24014C10.3619 5.25943 10.2613 5.24953 10.17 5.21168C10.0786 5.17384 10.0005 5.10976 9.94558 5.02753C9.89064 4.94531 9.86132 4.84864 9.86132 4.74975C9.86132 4.61714 9.914 4.48996 10.0078 4.39619C10.1015 4.30242 10.2287 4.24975 10.3613 4.24975ZM5.36132 4.74975C5.36132 4.65085 5.39064 4.55418 5.44558 4.47196C5.50052 4.38974 5.57861 4.32565 5.66998 4.28781C5.76134 4.24996 5.86187 4.24006 5.95886 4.25935C6.05585 4.27865 6.14495 4.32627 6.21487 4.39619C6.2848 4.46612 6.33242 4.55521 6.35171 4.6522C6.371 4.74919 6.3611 4.84972 6.32326 4.94109C6.28541 5.03245 6.22133 5.11054 6.1391 5.16548C6.05688 5.22042 5.96021 5.24975 5.86132 5.24975C5.72871 5.24975 5.60153 5.19707 5.50776 5.1033C5.414 5.00953 5.36132 4.88235 5.36132 4.74975Z" fill="#F04B78"/>
</g>
<defs>
<clipPath id="clip0_222_19927">
<rect width="16" height="16" fill="white" transform="translate(0.111328)"/>
</clipPath>
</defs>
</svg>
