<svg width="70" height="71" viewBox="0 0 70 71" fill="none" xmlns="http://www.w3.org/2000/svg">
<path d="M55.4258 48.1602H55.3574C55.3574 48.1738 55.3574 10.877 55.3574 10.877C55.3574 8.66211 53.5527 6.84375 51.3242 6.84375H24.8965H24.9375H21.3281H18.6348C16.4063 6.84375 14.6016 8.64844 14.6016 10.877V32.8066C14.6016 33.3535 15.0527 33.8047 15.5996 33.8047C16.1465 33.8047 16.5977 33.3535 16.5977 32.8066V10.877C16.5977 9.75586 17.5137 8.83984 18.6484 8.83984H51.3516C52.4727 8.83984 53.4023 9.75586 53.4023 10.877V60.1367C53.4023 61.2578 52.4863 62.1738 51.3516 62.1738H18.6484C17.5273 62.1738 16.5977 61.2578 16.5977 60.1367V37.9199C16.5977 37.373 16.1465 36.9219 15.5996 36.9219C15.0527 36.9219 14.6016 37.373 14.6016 37.9199V48.0508H14.5742C14.6289 48.9668 14.6699 49.9102 14.6016 50.8398V60.1367C14.6016 62.3516 16.4063 64.1699 18.6348 64.1699H51.3379C53.5664 64.1699 55.3711 62.3652 55.3711 60.1367V50.252H55.4258C55.4121 49.541 55.3711 48.8574 55.4258 48.1602Z" fill="#3B3B3B"/>
<path d="M44.3096 36.9902C46.8936 34.2558 46.8252 29.8672 44.1592 27.2012C41.4932 24.5351 37.7334 24.4941 34.9717 26.5449C32.2236 24.4941 28.2725 24.7265 25.7842 27.2012C23.1045 29.8808 23.0498 34.2832 25.6338 36.9902C25.7158 37.0859 24.7861 36.1562 34.2061 45.5625C34.5889 45.9453 35.3272 45.959 35.7236 45.5625C44.3916 36.8808 44.2002 37.0996 44.2959 36.9902H44.3096ZM34.9854 43.5117C33.3721 41.8984 39.1006 47.6269 27.124 35.6367C25.251 33.6816 25.3057 30.5234 27.2197 28.6094C29.1338 26.6953 32.292 26.6543 34.2471 28.5137C34.6436 28.9375 35.3545 28.9512 35.71 28.5137C37.6651 26.6543 40.8233 26.6953 42.751 28.6094C44.6651 30.5234 44.7061 33.6816 42.833 35.6367C42.6006 35.8828 39.7295 38.7539 34.9717 43.5117H34.9854Z" fill="#3B3B3B"/>
<path d="M24.8548 20.8984L28.4915 17.2617C28.4915 17.2617 28.5188 17.2344 28.5462 17.207C29.886 15.8125 29.8587 13.5566 28.4778 12.1894C27.3157 11.0273 25.511 10.8359 24.1165 11.6289C22.7356 10.8223 20.931 11.0137 19.7552 12.1894C18.388 13.5566 18.3606 15.8125 19.6595 17.1797C19.6868 17.207 19.7142 17.2344 19.7552 17.2754L23.3919 20.9121C23.7474 21.2676 24.4173 21.3359 24.8411 20.9121L24.8548 20.8984ZM21.1497 15.8262C20.5618 15.1973 20.5755 14.1992 21.177 13.584C21.7923 12.9687 22.804 12.9687 23.3919 13.543C23.7747 13.9531 24.472 13.9394 24.8548 13.543C25.4837 12.9687 26.4681 12.9824 27.0833 13.584C27.6985 14.1992 27.7122 15.1973 27.1106 15.8262C27.097 15.8535 27.1106 15.8262 27.0833 15.8535L24.1302 18.8066L21.1497 15.8262Z" fill="#3B3B3B"/>
<path d="M45.8412 50.3203C44.4604 49.5137 42.642 49.7051 41.4799 50.8809C40.1127 52.2481 40.0854 54.5039 41.3979 55.8848L45.103 59.5898C45.4721 59.959 46.142 60 46.5522 59.5898L50.1889 55.9531C51.5698 54.5859 51.5971 52.2754 50.1889 50.8672C49.0268 49.7051 47.2358 49.5137 45.8412 50.3066V50.3203ZM48.808 54.5313C48.7944 54.5586 48.808 54.5313 48.7807 54.5586L45.8276 57.5117L42.8471 54.5313C42.2592 53.9023 42.2729 52.9043 42.8744 52.2891C43.4897 51.6738 44.4877 51.6602 45.1166 52.2617C45.5951 52.7402 46.2104 52.6172 46.5248 52.2617C47.1537 51.6738 48.1518 51.6875 48.767 52.2891C49.3823 52.9043 49.3959 53.9023 48.7944 54.5313H48.808Z" fill="#3B3B3B"/>
</svg>
