<svg width="70" height="71" viewBox="0 0 70 71" fill="none" xmlns="http://www.w3.org/2000/svg">
<path d="M69.126 37.5999L60.1199 11.0623C59.547 9.37591 58.1828 8.07654 56.4704 7.58777L52.4294 6.43277C50.6057 5.90982 48.6868 6.97568 48.1849 8.83081C47.717 10.5639 48.6801 12.3773 50.3775 12.9605L52.688 13.7545C52.9979 13.8607 53.2403 14.0974 53.3543 14.4046L61.3441 35.9845C43.8318 33.8614 26.1683 33.8613 8.65599 35.9844L16.6453 14.4051C16.7593 14.0979 17.0024 13.8607 17.3122 13.7545L19.6227 12.9605C21.3208 12.3773 22.2833 10.5632 21.8146 8.83081C21.3123 6.9728 19.3912 5.91105 17.5707 6.43277L13.5304 7.58777C11.8175 8.0764 10.4532 9.37523 9.88031 11.0623L0.873551 37.5999C0.833082 37.7548 0.817223 37.8976 0.823648 37.9901L2.29037 59.2733C2.49777 62.3163 5.04744 64.7 8.0949 64.7H23.3463C26.384 64.7 29.0166 62.5339 29.6057 59.5495L31.5104 49.8602C31.8364 48.1991 33.3038 46.9937 34.9999 46.9937C36.7495 46.9937 38.1789 48.246 38.4899 49.8602L40.3947 59.5502C40.9838 62.5341 43.6165 64.7001 46.6541 64.7001H61.9048C64.9528 64.7001 67.5025 62.3164 67.7093 59.2742L68.0081 54.9532C68.0463 54.4049 67.6322 53.9291 67.0838 53.8915C66.5407 53.8507 66.0605 54.2674 66.0222 54.8158L65.7235 59.138C65.5868 61.1406 63.9101 62.7091 61.9048 62.7091H46.6541C44.5646 62.7091 42.7531 61.2184 42.348 59.1659L40.4439 49.4799C39.9437 46.8851 37.648 45.0028 34.9998 45.0028C32.3548 45.0028 30.0657 46.8843 29.557 49.4766L27.6522 59.1652C27.2471 61.2184 25.4358 62.7091 23.3461 62.7091H8.09476C6.09019 62.7091 4.41279 61.1399 4.27607 59.1367L2.87293 38.7678C24.1971 35.5778 45.8025 35.5778 67.1266 38.7678L66.3741 49.7131C66.3359 50.2614 66.75 50.7365 67.299 50.7741C67.8272 50.8253 68.3224 50.3988 68.36 49.8492L69.1759 37.9894C69.1867 37.8372 69.1394 37.6663 69.126 37.5999ZM3.28007 36.7046L11.7663 11.7027C12.1287 10.634 12.9919 9.8115 14.0769 9.50238L18.1179 8.34738C18.8857 8.12794 19.6848 8.57898 19.8924 9.35062C20.0887 10.0752 19.6863 10.8335 18.9759 11.0772L16.6654 11.8712C15.7885 12.1725 15.1009 12.8434 14.7788 13.7137L6.43076 36.2622C5.3798 36.4006 4.3298 36.5509 3.28007 36.7046ZM63.5696 36.2623L55.2216 13.7144C54.9002 12.8441 54.2125 12.1725 53.335 11.8712L51.0245 11.0772C50.3141 10.8336 49.9117 10.0752 50.1073 9.35062C50.3141 8.58253 51.1122 8.12575 51.8825 8.34738L55.9235 9.50238C57.0085 9.81218 57.8717 10.6347 58.234 11.7027L66.7196 36.7046C65.67 36.5509 64.6203 36.4006 63.5696 36.2623Z" fill="#3B3B3B"/>
<path d="M62.1696 40.7769C61.7807 40.3881 61.1507 40.3881 60.7619 40.7769L51.7311 49.8077C51.3422 50.1966 51.3422 50.8266 51.7311 51.2154C52.1199 51.6042 52.7499 51.6042 53.1387 51.2154L62.1696 42.1846C62.5584 41.7957 62.5584 41.1657 62.1696 40.7769Z" fill="#3B3B3B"/>
<path d="M57.5098 52.4922L63.4445 46.5576C63.8333 46.1687 63.8333 45.5387 63.4445 45.1499C63.0557 44.7611 62.4257 44.7611 62.0369 45.1499L56.1022 51.0846C55.7133 51.4734 55.7133 52.1034 56.1022 52.4922C56.491 52.8811 57.1209 52.8811 57.5098 52.4922Z" fill="#3B3B3B"/>
</svg>
