<svg width="70" height="71" viewBox="0 0 70 71" fill="none" xmlns="http://www.w3.org/2000/svg">
<path d="M69.0299 47.4525L56.7202 4.56724C56.1476 2.57224 54.0697 1.42722 52.0831 1.99857L34.4166 7.06947L17.7458 2.28704C15.7926 1.72622 13.7169 2.83966 13.145 4.83726L0.966958 47.2865C0.401216 49.2583 1.54501 51.3227 3.51649 51.8886L14.718 55.102V65.1201C14.718 67.3411 16.5282 69.1483 18.753 69.1483H51.4506C53.6755 69.1483 55.4856 67.3411 55.4856 65.1201V55.2401L66.4615 52.0897C68.452 51.5188 69.6013 49.445 69.0299 47.4525ZM53.4947 65.1201C53.4947 66.2435 52.5777 67.1574 51.4506 67.1574H18.753C17.626 67.1574 16.7089 66.2435 16.7089 65.1201V42.9017C16.7089 42.3518 16.2631 41.9062 15.7134 41.9062C15.1638 41.9062 14.718 42.3518 14.718 42.9017V53.0306L4.0661 49.9748C3.14913 49.712 2.6177 48.7523 2.88006 47.8354L15.059 5.38618C15.322 4.46771 16.2831 3.93861 17.197 4.20083L30.8075 8.10552L23.6148 10.17C22.6705 10.4411 21.9192 11.0551 21.4496 11.8368H18.7528C16.528 11.8368 14.7179 13.644 14.7179 15.865V37.7915C14.7179 38.3414 15.1637 38.787 15.7133 38.787C16.2629 38.787 16.7088 38.3414 16.7088 37.7915V15.865C16.7088 14.7416 17.6257 13.8277 18.7528 13.8277H51.4505C52.5775 13.8277 53.4946 14.7416 53.4946 15.865V65.1201H53.4947ZM65.9119 50.1761L55.4856 53.1687V15.865C55.4856 13.644 53.6755 11.8368 51.4506 11.8368H25.0247L52.6327 3.91249C53.5617 3.64466 54.5379 4.18005 54.8071 5.11658V5.11685L67.1167 48.0017C67.3833 48.9345 66.8475 49.9078 65.9119 50.1761Z" fill="#3B3B3B"/>
<path d="M44.4307 41.9807C47.0153 39.2439 46.9531 34.8603 44.2855 32.1928C41.8112 29.7184 37.8559 29.486 35.1023 31.5356C32.3577 29.4841 28.3966 29.7147 25.919 32.1928C23.2451 34.8667 23.1881 39.2682 25.7719 41.9824C25.859 42.0793 24.9273 41.1421 34.3435 50.5597C34.731 50.9484 35.4632 50.9578 35.8613 50.5597C44.5357 41.8824 44.3322 42.0957 44.4307 41.9807ZM35.1021 48.503C33.4876 46.8878 39.2176 52.6206 27.2344 40.6315C25.3679 38.6713 25.4093 35.5175 27.3264 33.6004C29.2439 31.6836 32.3983 31.6426 34.3574 33.5081C34.36 33.511 34.3633 33.5136 34.3659 33.5162L34.3737 33.5247C34.7651 33.9411 35.4774 33.9489 35.8429 33.5088C37.8047 31.6437 40.9601 31.6842 42.8777 33.6006C44.7948 35.5179 44.835 38.6717 42.9665 40.6309C42.7324 40.8797 39.8598 43.7414 35.1021 48.503Z" fill="#3B3B3B"/>
<path d="M24.9785 25.8801L28.6207 22.2388C28.6318 22.2275 28.6519 22.2057 28.6718 22.1835C30.0055 20.7843 29.9778 18.5325 28.6096 17.1634C27.4463 16.001 25.6427 15.8054 24.2544 16.6051C22.8799 15.8047 21.0626 15.9939 19.8928 17.1634C18.5241 18.5316 18.4956 20.7833 19.802 22.1543C19.8254 22.1809 19.8513 22.2081 19.8928 22.2496L23.5234 25.8802C23.8733 26.2306 24.553 26.3055 24.9785 25.8801ZM21.2701 20.8105C20.6765 20.1864 20.69 19.1822 21.3006 18.5713C21.9159 17.9556 22.9218 17.9524 23.5223 18.5238C23.9002 18.9279 24.6046 18.9249 24.9799 18.524C25.6059 17.9482 26.5968 17.9671 27.2021 18.5713C27.8125 19.1822 27.8255 20.1864 27.2307 20.8098C27.2112 20.8306 27.2203 20.8193 27.2021 20.842L24.2514 23.7921L21.2701 20.8105Z" fill="#3B3B3B"/>
<path d="M45.9629 55.3118C44.5851 54.5053 42.7659 54.6967 41.5955 55.8669C40.2273 57.2353 40.1989 59.487 41.5196 60.8739L45.2259 64.5835C45.5909 64.9485 46.2686 64.9957 46.6809 64.5835L50.3121 60.9527C51.6941 59.5864 51.7162 57.2712 50.3121 55.8665C49.1541 54.7087 47.3614 54.5107 45.9629 55.3118ZM48.9332 59.513C48.9137 59.5338 48.9228 59.5224 48.9046 59.5451L45.9539 62.4955L42.9728 59.5137C42.3791 58.8899 42.3927 57.8854 43.0033 57.2745C43.6143 56.6635 44.6194 56.6507 45.2508 57.2518C45.7248 57.7258 46.3448 57.6128 46.6629 57.245C47.2883 56.6523 48.2929 56.6643 48.9046 57.2745C49.515 57.8852 49.528 58.8894 48.9332 59.513Z" fill="#3B3B3B"/>
</svg>
