<svg width="70" height="71" viewBox="0 0 70 71" fill="none" xmlns="http://www.w3.org/2000/svg">
<path d="M63.5035 10.0624H59.8048V8.14928C59.8048 6.12146 58.1548 4.47141 56.127 4.47141C54.0991 4.47141 52.4491 6.12146 52.4491 8.14928V10.0624H45.7201V8.14928C45.7201 6.12146 44.07 4.47141 42.0422 4.47141C40.0144 4.47141 38.365 6.12146 38.365 8.14928V10.0624H31.6353V8.14928C31.6353 6.12146 29.9859 4.47141 27.9581 4.47141C25.9303 4.47141 24.2802 6.12146 24.2802 8.14928V10.0624H17.5512V8.14928C17.5512 6.12146 15.9012 4.47141 13.8733 4.47141C11.8455 4.47141 10.1953 6.12146 10.1953 8.14928V10.0624H6.49668C4.19174 10.0624 2.35547 11.9589 2.35547 14.2076V14.2102V62.3848C2.35547 64.6699 4.21416 66.5286 6.49928 66.5286H63.5009C65.786 66.5286 67.6447 64.6699 67.6447 62.3848C67.6447 52.366 67.6447 54.8382 67.6447 44.8172C67.6447 44.2676 67.1988 43.8218 66.6492 43.8218C66.0996 43.8218 65.6538 44.2676 65.6538 44.8172V57.4529C65.6538 58.6421 64.6895 59.6098 63.5035 59.6098H6.49668C5.31064 59.6098 4.34637 58.6422 4.34637 57.4529C4.34637 51.3185 4.34637 32.9272 4.34637 26.6346H65.6538V39.7142C65.6538 40.2638 66.0996 40.7097 66.6492 40.7097C67.1988 40.7097 67.6447 40.2638 67.6447 39.7142C67.6447 33.3062 67.6447 20.7312 67.6447 14.2102V14.2076C67.6447 11.9569 65.8062 10.0624 63.5035 10.0624ZM6.49668 61.6006H63.5035C64.2914 61.6006 65.026 61.375 65.6538 60.9907V62.3846C65.6538 63.5719 64.6881 64.5376 63.5009 64.5376H6.49928C5.31201 64.5376 4.34637 63.5719 4.34637 62.3846V60.9907C4.97418 61.375 5.70877 61.6006 6.49668 61.6006ZM54.44 8.14928C54.44 7.21932 55.197 6.4623 56.127 6.4623C57.0569 6.4623 57.8139 7.21932 57.8139 8.14928V13.9691C57.8139 14.8991 57.0569 15.6561 56.127 15.6561C55.197 15.6561 54.44 14.8991 54.44 13.9691V8.14928ZM40.3559 8.14928C40.3559 7.21932 41.1122 6.4623 42.0422 6.4623C42.9721 6.4623 43.7292 7.21932 43.7292 8.14928V13.9691C43.7292 14.8991 42.9721 15.6561 42.0422 15.6561C41.1122 15.6561 40.3559 14.8991 40.3559 13.9691V8.14928ZM26.271 8.14928C26.271 7.21932 27.028 6.4623 27.958 6.4623C28.8879 6.4623 29.6443 7.21932 29.6443 8.14928V13.9691C29.6443 14.8991 28.8879 15.6561 27.958 15.6561C27.028 15.6561 26.271 14.8991 26.271 13.9691V8.14928ZM12.1862 8.14928C12.1862 7.21932 12.9432 6.4623 13.8732 6.4623C14.8032 6.4623 15.5602 7.21932 15.5602 8.14928V13.9691C15.5602 14.8991 14.8032 15.6561 13.8732 15.6561C12.9432 15.6561 12.1862 14.8991 12.1862 13.9691V8.14928ZM4.34637 24.6436V14.2102C4.34637 13.0792 5.28043 12.0546 6.49928 12.0546H10.1953V13.9691C10.1953 15.9969 11.8454 17.647 13.8732 17.647C15.901 17.647 17.5511 15.9969 17.5511 13.9691V12.0546H24.2801V13.9691C24.2801 15.9969 25.9302 17.647 27.958 17.647C29.9858 17.647 31.6352 15.9969 31.6352 13.9691V12.0546H38.3649V13.9691C38.3649 15.9969 40.0142 17.647 42.042 17.647C44.0699 17.647 45.7199 15.9969 45.7199 13.9691V12.0546H52.4489V13.9691C52.4489 15.9969 54.099 17.647 56.1268 17.647C58.1546 17.647 59.8047 15.9969 59.8047 13.9691V12.0546H63.5007C64.7156 12.0546 65.6537 13.0774 65.6537 14.2102V24.6437L4.34637 24.6436Z" fill="#3B3B3B"/>
<path d="M12.2169 31.1912C9.79176 31.1912 7.81836 33.1646 7.81836 35.5904C7.81836 38.0155 9.79176 39.9889 12.2169 39.9889C14.6427 39.9889 16.6161 38.0155 16.6161 35.5904C16.6161 33.1646 14.6427 31.1912 12.2169 31.1912ZM12.2169 37.998C10.8896 37.998 9.80926 36.9176 9.80926 35.5904C9.80926 34.2624 10.8896 33.1821 12.2169 33.1821C13.5448 33.1821 14.6252 34.2624 14.6252 35.5904C14.6252 36.9176 13.5448 37.998 12.2169 37.998Z" fill="#3B3B3B"/>
<path d="M23.6082 31.1912C21.1824 31.1912 19.209 33.1646 19.209 35.5904C19.209 38.0155 21.1824 39.9889 23.6082 39.9889C26.0333 39.9889 28.0067 38.0155 28.0067 35.5904C28.0067 33.1646 26.0333 31.1912 23.6082 31.1912ZM23.6082 37.998C22.2802 37.998 21.1999 36.9176 21.1999 35.5904C21.1999 34.2624 22.2802 33.1821 23.6082 33.1821C24.9354 33.1821 26.0158 34.2624 26.0158 35.5904C26.0158 36.9176 24.9354 37.998 23.6082 37.998Z" fill="#3B3B3B"/>
<path d="M35.0001 31.1912C32.575 31.1912 30.6016 33.1646 30.6016 35.5904C30.6016 38.0155 32.575 39.9889 35.0001 39.9889C37.4252 39.9889 39.3986 38.0155 39.3986 35.5904C39.3986 33.1646 37.4252 31.1912 35.0001 31.1912ZM35.0001 37.998C33.6728 37.998 32.5925 36.9176 32.5925 35.5904C32.5925 34.2624 33.6728 33.1821 35.0001 33.1821C36.3273 33.1821 37.4077 34.2624 37.4077 35.5904C37.4077 36.9176 36.3273 37.998 35.0001 37.998Z" fill="#3B3B3B"/>
<path d="M46.3907 31.1912C43.9656 31.1912 41.9922 33.1646 41.9922 35.5904C41.9922 38.0155 43.9656 39.9889 46.3907 39.9889C48.8165 39.9889 50.7899 38.0155 50.7899 35.5904C50.7899 33.1646 48.8165 31.1912 46.3907 31.1912ZM46.3907 37.998C45.0634 37.998 43.9831 36.9176 43.9831 35.5904C43.9831 34.2624 45.0634 33.1821 46.3907 33.1821C47.7187 33.1821 48.799 34.2624 48.799 35.5904C48.799 36.9176 47.7187 37.998 46.3907 37.998Z" fill="#3B3B3B"/>
<path d="M57.784 31.1912C55.3582 31.1912 53.3848 33.1646 53.3848 35.5904C53.3848 38.0155 55.3582 39.9889 57.784 39.9889C60.2091 39.9889 62.1825 38.0155 62.1825 35.5904C62.1825 33.1646 60.2091 31.1912 57.784 31.1912ZM57.784 37.998C56.456 37.998 55.3757 36.9176 55.3757 35.5904C55.3757 34.2624 56.456 33.1821 57.784 33.1821C59.1112 33.1821 60.1916 34.2624 60.1916 35.5904C60.1916 36.9176 59.1112 37.998 57.784 37.998Z" fill="#3B3B3B"/>
<path d="M12.2169 45.8729C9.79176 45.8729 7.81836 47.8463 7.81836 50.2721C7.81836 52.6972 9.79176 54.6706 12.2169 54.6706C14.6427 54.6706 16.6161 52.6972 16.6161 50.2721C16.6161 47.8464 14.6427 45.8729 12.2169 45.8729ZM12.2169 52.6797C10.8896 52.6797 9.80926 51.5993 9.80926 50.2721C9.80926 48.9441 10.8896 47.8638 12.2169 47.8638C13.5448 47.8638 14.6252 48.9441 14.6252 50.2721C14.6252 51.5993 13.5448 52.6797 12.2169 52.6797Z" fill="#3B3B3B"/>
<path d="M23.6082 45.8729C21.1824 45.8729 19.209 47.8463 19.209 50.2721C19.209 52.6972 21.1824 54.6706 23.6082 54.6706C26.0333 54.6706 28.0067 52.6972 28.0067 50.2721C28.0067 47.8464 26.0333 45.8729 23.6082 45.8729ZM23.6082 52.6797C22.2802 52.6797 21.1999 51.5993 21.1999 50.2721C21.1999 48.9441 22.2802 47.8638 23.6082 47.8638C24.9354 47.8638 26.0158 48.9441 26.0158 50.2721C26.0158 51.5993 24.9354 52.6797 23.6082 52.6797Z" fill="#3B3B3B"/>
<path d="M35.0001 45.8729C32.575 45.8729 30.6016 47.8463 30.6016 50.2721C30.6016 52.6972 32.575 54.6706 35.0001 54.6706C37.4252 54.6706 39.3986 52.6972 39.3986 50.2721C39.3986 47.8464 37.4252 45.8729 35.0001 45.8729ZM35.0001 52.6797C33.6728 52.6797 32.5925 51.5993 32.5925 50.2721C32.5925 48.9441 33.6728 47.8638 35.0001 47.8638C36.3273 47.8638 37.4077 48.9441 37.4077 50.2721C37.4077 51.5993 36.3273 52.6797 35.0001 52.6797Z" fill="#3B3B3B"/>
<path d="M46.3907 45.8729C43.9656 45.8729 41.9922 47.8463 41.9922 50.2721C41.9922 52.6972 43.9656 54.6706 46.3907 54.6706C48.8165 54.6706 50.7899 52.6972 50.7899 50.2721C50.7899 47.8464 48.8165 45.8729 46.3907 45.8729ZM46.3907 52.6797C45.0634 52.6797 43.9831 51.5993 43.9831 50.2721C43.9831 48.9441 45.0634 47.8638 46.3907 47.8638C47.7187 47.8638 48.799 48.9441 48.799 50.2721C48.799 51.5993 47.7187 52.6797 46.3907 52.6797Z" fill="#3B3B3B"/>
<path d="M57.784 45.8729C55.3582 45.8729 53.3848 47.8463 53.3848 50.2721C53.3848 52.6972 55.3582 54.6706 57.784 54.6706C60.2091 54.6706 62.1825 52.6972 62.1825 50.2721C62.1825 47.8464 60.2091 45.8729 57.784 45.8729ZM57.784 52.6797C56.456 52.6797 55.3757 51.5993 55.3757 50.2721C55.3757 48.9441 56.456 47.8638 57.784 47.8638C59.1112 47.8638 60.1916 48.9441 60.1916 50.2721C60.1916 51.5993 59.1112 52.6797 57.784 52.6797Z" fill="#3B3B3B"/>
</svg>
