<svg width="70" height="71" viewBox="0 0 70 71" fill="none" xmlns="http://www.w3.org/2000/svg">
<g clip-path="url(#clip0_370_1557)">
<path d="M63.8603 2.60573H58.9651C58.3905 2.60573 57.9247 3.07153 57.9247 3.64616C57.9247 4.22078 58.3905 4.68658 58.9651 4.68658H63.8603C66.0985 4.68658 67.9195 6.50754 67.9195 8.74576V50.4173C67.9195 52.6555 66.0985 54.4764 63.8603 54.4764H35.1517C32.9134 54.4764 31.0926 52.6555 31.0926 50.4173V8.74562C31.0926 6.5074 32.9135 4.68645 35.1517 4.68645H55.4972C56.0719 4.68645 56.5377 4.22065 56.5377 3.64602C56.5377 3.07139 56.0719 2.60559 55.4972 2.60559H35.1517C31.766 2.60559 29.0117 5.35992 29.0117 8.74562V50.4171C29.0117 53.8028 31.766 56.5572 35.1517 56.5572H63.8603C67.246 56.5572 70.0003 53.8028 70.0003 50.4171V8.74562C70.0002 5.36006 67.2459 2.60573 63.8603 2.60573Z" fill="#3B3B3B"/>
<path d="M26.6723 14.4428H6.14003C2.75433 14.4428 0 17.1971 0 20.5828V47.9931C0 48.5677 0.4658 49.0335 1.04043 49.0335C1.61506 49.0335 2.08086 48.5677 2.08086 47.9931V20.5828C2.08086 18.3445 3.90181 16.5237 6.14016 16.5237H26.6724C27.247 16.5237 27.7128 16.0579 27.7128 15.4832C27.7128 14.9086 27.2469 14.4428 26.6723 14.4428Z" fill="#3B3B3B"/>
<path d="M39.9482 57.8519C39.3736 57.8519 38.9078 58.3177 38.9078 58.8923V62.2544C38.9078 64.4927 37.0868 66.3135 34.8486 66.3135H6.14003C3.90167 66.3135 2.08072 64.4925 2.08072 62.2544V51.4613C2.08072 50.8866 1.61492 50.4208 1.04029 50.4208C0.465663 50.4208 0 50.8866 0 51.4613V62.2544C0 65.6401 2.75433 68.3944 6.14003 68.3944H34.8486C38.2343 68.3944 40.9886 65.6401 40.9886 62.2544V58.8923C40.9886 58.3177 40.5228 57.8519 39.9482 57.8519Z" fill="#3B3B3B"/>
<path d="M58.875 29.5814L62.6583 23.0285C62.8442 22.7067 62.8442 22.3099 62.6583 21.9881C62.4723 21.6662 62.129 21.4678 61.7573 21.4678H54.1905L50.4072 14.9149C50.2212 14.593 49.8779 14.3947 49.5062 14.3947C49.1345 14.3947 48.7912 14.593 48.6052 14.9149L44.822 21.4678H37.2553C36.8835 21.4678 36.5402 21.6662 36.3543 21.9881C36.1684 22.3099 36.1684 22.7067 36.3543 23.0285L40.1376 29.5814L36.3543 36.1343C36.1684 36.4562 36.1684 36.8529 36.3543 37.1747C36.5402 37.4966 36.8835 37.695 37.2553 37.695H44.822L48.6052 44.2479C48.7912 44.5697 49.1345 44.7681 49.5062 44.7681C49.8778 44.7681 50.2214 44.5697 50.4072 44.2479L54.1905 37.695H61.7573C62.129 37.695 62.4723 37.4966 62.6583 37.1747C62.8442 36.8529 62.8442 36.4562 62.6583 36.1343L58.875 29.5814ZM59.9555 23.5486L57.6738 27.5006L55.3921 23.5486H59.9555ZM49.5063 17.5159L51.788 21.4678H47.2245L49.5063 17.5159ZM39.0572 23.5486H43.6207L41.3391 27.5006L39.0572 23.5486ZM39.0572 35.6141L41.3389 31.6621L43.6206 35.6141H39.0572ZM49.5063 41.6469L47.2246 37.695H51.7882L49.5063 41.6469ZM52.9892 35.6141H46.0232L42.5401 29.5814L46.0232 23.5487H52.9892L56.4723 29.5814L52.9892 35.6141ZM55.3919 35.6141L57.6736 31.6621L59.9553 35.6141H55.3919Z" fill="#3B3B3B"/>
<path d="M41.9463 10.0223H40.4899V8.5657C40.4899 7.99121 40.0241 7.52527 39.4494 7.52527C38.8748 7.52527 38.409 7.99107 38.409 8.5657V10.0222H36.9525C36.378 10.0222 35.9121 10.488 35.9121 11.0626C35.9121 11.6372 36.3779 12.103 36.9525 12.103H38.409V13.5595C38.409 14.1341 38.8748 14.5999 39.4494 14.5999C40.0241 14.5999 40.4899 14.1341 40.4899 13.5595V12.103H41.9463C42.5209 12.103 42.9867 11.6372 42.9867 11.0626C42.9867 10.488 42.5209 10.0223 41.9463 10.0223Z" fill="#3B3B3B"/>
<path d="M62.0596 47.0596H60.6031V45.6032C60.6031 45.0285 60.1373 44.5627 59.5627 44.5627C58.9881 44.5627 58.5223 45.0285 58.5223 45.6032V47.0596H57.0658C56.4912 47.0596 56.0254 47.5254 56.0254 48.1001C56.0254 48.6746 56.4912 49.1405 57.0658 49.1405H58.5223V50.597C58.5223 51.1716 58.9881 51.6374 59.5627 51.6374C60.1373 51.6374 60.6031 51.1716 60.6031 50.597V49.1405H62.0596C62.6342 49.1405 63.1 48.6747 63.1 48.1001C63.0999 47.5254 62.6341 47.0596 62.0596 47.0596Z" fill="#3B3B3B"/>
<path d="M12.9346 21.8594H11.4781V20.4029C11.4781 19.8283 11.0123 19.3625 10.4377 19.3625C9.86308 19.3625 9.39728 19.8283 9.39728 20.4029V21.8594H7.94082C7.36619 21.8594 6.90039 22.3252 6.90039 22.8998C6.90039 23.4744 7.36619 23.9402 7.94082 23.9402H9.39728V25.3967C9.39728 25.9713 9.86308 26.4371 10.4377 26.4371C11.0123 26.4371 11.4781 25.9713 11.4781 25.3967V23.9402H12.9346C13.5092 23.9402 13.975 23.4744 13.975 22.8998C13.975 22.3252 13.5092 21.8594 12.9346 21.8594Z" fill="#3B3B3B"/>
<path d="M33.0479 58.897H31.5914V57.4405C31.5914 56.8658 31.1256 56.4001 30.551 56.4001C29.9764 56.4001 29.5106 56.8659 29.5106 57.4405V58.897H28.0541C27.4795 58.897 27.0137 59.3628 27.0137 59.9374C27.0137 60.512 27.4795 60.9778 28.0541 60.9778H29.5106V62.4343C29.5106 63.0089 29.9764 63.4747 30.551 63.4747C31.1255 63.4747 31.5914 63.0089 31.5914 62.4343V60.9778H33.0479C33.6225 60.9778 34.0883 60.512 34.0883 59.9374C34.0883 59.3628 33.6225 58.897 33.0479 58.897Z" fill="#3B3B3B"/>
<path d="M26.4935 50.5278C22.1962 53.3651 16.4299 52.7769 12.7827 49.1295C8.53074 44.8776 8.53074 37.9592 12.7827 33.7071C14.0588 32.431 15.5932 31.513 17.2582 30.9971C17.2185 31.0354 17.1793 31.074 17.1403 31.1129C13.3745 34.8787 13.3745 41.006 17.1403 44.7718C19.8912 47.5227 23.9984 48.3553 27.6037 46.8932C28.1362 46.6772 28.3927 46.0706 28.1768 45.5381C27.9608 45.0058 27.3539 44.7492 26.8216 44.9652C23.9925 46.1124 20.7701 45.4591 18.6114 43.3007C15.6569 40.3462 15.6569 35.5389 18.6114 32.5843C19.6019 31.5938 20.8424 30.8988 22.1989 30.5742C22.6885 30.4572 23.024 30.0063 22.9957 29.5037C22.9673 29.0012 22.5834 28.591 22.0836 28.5296C18.0839 28.0389 14.1573 29.3897 11.3113 32.2356C8.85859 34.6884 7.50781 37.9494 7.50781 41.4181C7.50781 44.8868 8.85859 48.1479 11.3113 50.6005C13.8138 53.103 17.1538 54.3958 20.5148 54.3958C22.9869 54.3958 25.4707 53.6961 27.6399 52.2638C28.1195 51.9473 28.2514 51.3019 27.9348 50.8224C27.6183 50.3429 26.9728 50.211 26.4935 50.5278Z" fill="#3B3B3B"/>
</g>
<defs>
<clipPath id="clip0_370_1557">
<rect width="70" height="70" fill="white" transform="translate(0 0.5)"/>
</clipPath>
</defs>
</svg>
