<svg width="70" height="71" viewBox="0 0 70 71" fill="none" xmlns="http://www.w3.org/2000/svg">
<path d="M69.351 15.0226C68.6284 13.5956 67.3936 12.5355 65.8736 12.0374L40.1938 3.6213C38.6739 3.1231 37.051 3.24669 35.6241 3.96925C34.1971 4.69167 33.137 5.92665 32.639 7.44655L32.2977 8.48767C31.9206 8.49532 31.5445 8.53757 31.1731 8.61659L20.5966 10.8694C20.0417 10.9876 19.6877 11.5334 19.8059 12.0883C19.9087 12.571 20.3351 12.9018 20.8096 12.9018C20.8806 12.9018 20.9525 12.8944 21.0247 12.8791L31.5965 10.6272L25.5485 29.0813L22.3186 25.4971C21.7984 24.9198 20.8176 25.13 20.5783 25.8679L18.7163 31.6068L12.8153 32.8637C12.057 33.0251 11.7456 33.9787 12.2662 34.5562L16.3053 39.0383L14.4433 44.7772C14.2037 45.5153 14.8754 46.261 15.6346 46.099L20.2968 45.1059L19.3964 47.8532C18.8983 49.3731 19.0218 50.996 19.7443 52.4229C20.4669 53.8499 21.7017 54.91 23.2216 55.408L38.9797 60.5725L15.6675 65.5381C13.5463 65.9901 11.453 64.6316 11.0013 62.5106L9.56166 55.7515C9.44339 55.1965 8.89734 54.8426 8.34281 54.9607C7.78787 55.0788 7.4339 55.6246 7.55203 56.1795L8.99167 62.9386C9.59037 65.7493 12.0817 67.6798 14.8468 67.6798C15.2587 67.6798 15.6769 67.6368 16.0956 67.5477L42.5263 61.9179C42.6319 61.8953 42.7389 61.8691 42.8465 61.8397L48.9017 63.8242C49.5188 64.0264 50.1452 64.1225 50.7621 64.1225C53.2808 64.1225 55.6305 62.5192 56.4566 59.9989L65.2529 33.1588C65.4273 32.6267 65.1287 32.0371 64.5967 31.8626C64.0646 31.6882 63.4748 31.9868 63.3005 32.5189L54.5041 59.3589C53.8286 61.4198 51.6024 62.5469 49.5416 61.8717L23.8618 53.4556C22.8633 53.1284 22.0523 52.4319 21.5776 51.4947C21.103 50.5575 21.0218 49.4914 21.349 48.4932L34.5916 8.08654C34.9187 7.08808 35.6151 6.27706 36.5524 5.80238C37.4896 5.32782 38.5556 5.24675 39.5541 5.57378L65.2339 13.9899C66.2323 14.3171 67.0434 15.0135 67.518 15.9507C67.9925 16.8879 68.0737 17.9541 67.7466 18.9523L64.5818 28.6086C64.4052 29.1478 64.699 29.7282 65.238 29.9048C65.777 30.0813 66.3575 29.7876 66.5343 29.2485L69.699 19.5922C70.197 18.0723 70.0734 16.4495 69.351 15.0226ZM21.9835 28.1944L24.0372 30.4733L21.0369 31.1123L21.9835 28.1944ZM14.9836 34.5025L17.9841 33.8635L17.0373 36.7815L14.9836 34.5025ZM16.9468 43.7186L17.8934 40.8007L19.9471 43.0796L16.9468 43.7186ZM18.6257 38.5439L20.3046 33.3692L24.4313 32.4903L21.4282 41.6537L18.6257 38.5439Z" fill="#3B3B3B"/>
<path d="M41.3681 10.0807C40.8288 9.90364 40.2487 10.1977 40.0719 10.7369L39.4906 12.5107L37.7168 11.9294C37.1773 11.7526 36.5972 12.0466 36.4205 12.5856C36.2438 13.1249 36.5377 13.7052 37.0768 13.8819L38.8506 14.4632L38.2692 16.237C38.1016 16.7485 38.3703 17.3175 38.8714 17.5137C39.4137 17.726 40.0406 17.4299 40.2217 16.877L40.8031 15.1032L42.5768 15.6845C43.131 15.8662 43.7384 15.5349 43.8893 14.973C44.0289 14.4535 43.7275 13.8994 43.2168 13.732L41.443 13.1507L42.0244 11.3769C42.2011 10.8377 41.9073 10.2575 41.3681 10.0807Z" fill="#3B3B3B"/>
<path d="M47.7286 57.3646C48.2608 57.5391 48.8505 57.2402 49.0248 56.7084L49.6062 54.9346L51.3799 55.5159C51.9341 55.6976 52.5415 55.3662 52.6924 54.8043C52.832 54.2847 52.5306 53.7306 52.0199 53.5633L50.2461 52.982L50.8275 51.2082C51.0042 50.6689 50.7103 50.0886 50.1712 49.9119C49.6317 49.735 49.0516 50.029 48.875 50.5682L48.2937 52.342L46.5199 51.7606C45.9878 51.5859 45.398 51.8849 45.2236 52.4169C45.0493 52.9489 45.3479 53.5388 45.8799 53.7131L47.6537 54.2945L47.0723 56.0682C46.8956 56.6076 47.1894 57.1878 47.7286 57.3646Z" fill="#3B3B3B"/>
<path d="M49.5834 29.1368C51.1044 28.3541 52.8211 28.2112 54.4162 28.7341L54.4789 28.755C55.1868 28.9952 55.9452 28.7419 56.366 28.125C56.7882 27.5062 56.7473 26.7049 56.264 26.1315C54.8859 24.4955 53.0782 23.2771 51.0362 22.608C48.111 21.6493 44.9805 21.8924 42.2215 23.2924C39.4624 24.6925 37.4178 27.0759 36.4643 30.0032C34.4966 36.0444 37.808 42.5692 43.8457 44.5479C45.0197 44.9326 46.2334 45.1239 47.4439 45.1239C49.058 45.1239 50.6669 44.7839 52.1684 44.1093C52.8492 43.8033 53.2316 43.1017 53.1201 42.3633C53.0084 41.6234 52.4345 41.065 51.6924 40.9737C51.2878 40.9239 50.8844 40.8337 50.4936 40.7056C47.2358 39.6379 45.4191 36.1085 46.4441 32.8382C46.9468 31.2342 48.0617 29.9198 49.5834 29.1368ZM49.8537 42.6579C49.9091 42.6761 49.9647 42.6936 50.0204 42.7107C48.2151 43.2221 46.2931 43.1877 44.4857 42.5954C39.5226 40.9689 36.8006 35.6054 38.418 30.6395C39.2013 28.2346 40.8822 26.276 43.1513 25.1246C44.509 24.4356 45.9755 24.0871 47.4494 24.0871C48.4387 24.0871 49.4312 24.2441 50.3963 24.5605C51.6311 24.9651 52.7616 25.6139 53.7235 26.4633C52.0031 26.2003 50.2402 26.4882 48.6433 27.3099C46.6291 28.3462 45.1517 30.0914 44.4834 32.2238C43.1243 36.5612 45.5333 41.2419 49.8537 42.6579Z" fill="#3B3B3B"/>
<path d="M13.6556 22.2595C13.5373 21.7045 12.9917 21.3503 12.4368 21.4687L10.6112 21.8575L10.2223 20.0319C10.1041 19.477 9.55856 19.1227 9.00348 19.2411C8.44854 19.3593 8.09458 19.905 8.2127 20.46L8.60153 22.2856L6.77579 22.6744C6.23575 22.7894 5.87563 23.3322 5.98132 23.8744C6.08973 24.4308 6.64823 24.8024 7.20385 24.684L9.0296 24.2952L9.41842 26.121C9.53655 26.6755 10.1037 27.0364 10.656 26.9074C11.1939 26.7817 11.5432 26.2338 11.4281 25.6929L11.0392 23.8671L12.8648 23.4783C13.4198 23.3602 13.7737 22.8144 13.6556 22.2595Z" fill="#3B3B3B"/>
<path d="M7.97569 53.2375C8.53063 53.1194 8.88473 52.5736 8.76647 52.0186L2.14299 20.9221C1.69114 18.801 3.0493 16.7077 5.17049 16.2559L16.9905 13.7382C17.5455 13.6199 17.8996 13.0743 17.7813 12.5194C17.663 11.9644 17.1174 11.6099 16.5624 11.7286L4.74242 14.2463C3.17809 14.5794 1.83715 15.5019 0.966662 16.8436C0.0961742 18.1854 -0.199822 19.7858 0.133362 21.3502L6.75698 52.4467C6.8736 52.9941 7.42799 53.3542 7.97569 53.2375Z" fill="#3B3B3B"/>
</svg>
