<svg width="70" height="71" viewBox="0 0 70 71" fill="none" xmlns="http://www.w3.org/2000/svg">
<path d="M50.5868 38.4417C46.8779 38.3304 43.483 40.849 42.5819 44.5684L38.3764 61.935C38.1461 62.8857 38.4795 63.8539 39.2467 64.4613C40.0149 65.0698 41.0323 65.1707 41.905 64.7294L49.7614 60.7498C50.8872 60.1791 51.6368 59.0892 51.7657 57.8344L52.3001 52.6556C52.4129 51.5661 53.1604 50.6496 54.2045 50.3206L56.517 49.5919C59.0948 48.7794 61.3743 47.1172 62.9367 44.9112L65.3423 41.5144C66.5851 39.7598 67.3812 37.7043 67.645 35.5703L69.1621 23.293C69.2371 22.6843 69.0085 22.0775 68.5503 21.6701C68.0916 21.2623 67.4642 21.107 66.8666 21.2516C64.56 21.8164 62.7992 23.6918 62.3817 26.0232L61.0622 33.0838C59.7576 32.2796 58.022 32.4422 56.8927 33.5722C53.4836 36.6531 52.8294 38.5062 50.5868 38.4417ZM58.1449 34.8242C58.8464 34.124 60.1546 34.0988 60.805 35.4125C61.0098 35.9694 60.8952 36.6137 60.4575 37.0758L55.0913 42.7374C54.7548 43.0923 54.77 43.6526 55.1248 43.989C55.4799 44.3252 56.0402 44.311 56.3764 43.9555L61.7426 38.294C62.6264 37.3616 62.8819 36.0749 62.517 34.9384L64.1236 26.3418C64.4189 24.693 65.661 23.3701 67.2877 22.9719C67.3001 22.9681 67.3365 22.9602 67.3734 22.9934C67.4107 23.0262 67.4062 23.0622 67.4046 23.0757L65.8875 35.3531C65.6596 37.1975 64.9716 38.9743 63.8974 40.4909L61.4919 43.8877C60.1516 45.78 58.1961 47.206 55.9853 47.9026L53.6724 48.6313C51.9541 49.1733 50.7242 50.6813 50.5392 52.4737L50.0045 57.6527C49.9374 58.3057 49.5473 58.8729 48.9613 59.1697L41.1049 63.1493C40.7411 63.3347 40.4529 63.158 40.3461 63.0729C40.2396 62.9886 40.0016 62.7492 40.0979 62.3521L44.3033 44.9856C45.0098 42.0715 47.6494 40.1388 50.5398 40.2119C51.9194 40.2555 53.2566 39.7125 54.2277 38.7416L58.1449 34.8242Z" fill="#3B3B3B"/>
<path d="M2.35322 35.5701C2.61709 37.7042 3.41334 39.7596 4.65597 41.514L7.06154 44.9114C8.62382 47.1171 10.9035 48.7793 13.4813 49.5917L15.7935 50.3204C16.838 50.6494 17.5855 51.5659 17.6983 52.6555L18.2323 57.8338C18.3616 59.089 19.1111 60.1788 20.237 60.7495L28.0934 64.7291C28.9646 65.1697 29.983 65.0705 30.7518 64.461C31.5189 63.8537 31.8523 62.8856 31.622 61.9347L27.4165 44.5681C26.5105 40.8282 23.1066 38.3336 19.4113 38.4414C18.5339 38.4683 17.6522 38.1187 17.0231 37.4891L13.1059 33.5718C11.9763 32.4426 10.2407 32.28 8.93636 33.0835L7.61826 26.0295C7.19935 23.6915 5.43855 21.8161 3.13156 21.2513C2.53697 21.1064 1.90642 21.2624 1.44814 21.6698C0.989859 22.0772 0.761265 22.6838 0.836324 23.2926L2.35322 35.5701ZM2.62501 22.9932C2.64744 22.9731 2.66931 22.9683 2.68558 22.9683C2.69666 22.9683 2.70527 22.9704 2.71046 22.9718C4.33742 23.3699 5.57951 24.6928 5.87619 26.3482L7.4814 34.9382C7.1165 36.0748 7.37216 37.3614 8.25578 38.2938L13.622 43.9554C13.9589 44.311 14.5195 44.325 14.8736 43.9889C15.2286 43.6523 15.2437 43.092 14.9071 42.7372L9.54093 37.0757C9.10302 36.6136 8.98859 35.9692 9.19339 35.4124C9.21062 35.3774 9.22552 35.3411 9.23796 35.3038C9.31644 35.1306 9.42787 34.9676 9.57101 34.8241C10.2002 34.1956 11.2235 34.1949 11.8534 34.8241L15.7707 38.7413C16.7415 39.7126 18.088 40.2538 19.4584 40.2116C22.4711 40.1512 25.0123 42.1684 25.6951 44.9853L29.9005 62.3518C29.9967 62.7489 29.7588 62.9883 29.6523 63.0726C29.5458 63.1576 29.2577 63.3344 28.8935 63.149L21.0371 59.1694C20.4512 58.8726 20.061 58.3055 19.9936 57.6521L19.4592 52.4734C19.2742 50.6811 18.0443 49.1731 16.3256 48.631L14.0131 47.9023C11.8024 47.2057 9.84677 45.7797 8.50652 43.8878L6.10095 40.4904C5.02662 38.974 4.33878 37.1974 4.11087 35.3527L2.59384 23.0754C2.5922 23.0621 2.58769 23.0262 2.62501 22.9932Z" fill="#3B3B3B"/>
<path d="M27.776 37.0913C30.425 39.4978 32.927 41.7706 34.2835 43.6223C34.4361 43.8308 34.6722 43.9619 34.9299 43.982C34.9528 43.9838 34.9752 43.9845 34.9977 43.9845C35.2315 43.9845 35.4571 43.8918 35.6238 43.7252L43.3734 35.9759C43.7193 35.6304 43.7193 35.0698 43.3734 34.7239C43.0275 34.378 42.4672 34.378 42.1213 34.7239L35.0777 41.7672C33.5919 39.9822 31.4246 38.0135 28.9669 35.7806C23.3002 30.633 16.2483 24.2267 16.0991 18.0181C15.9096 10.1194 27.2238 3.75077 34.3784 10.8951L34.5247 11.0412C34.8661 11.3819 35.4173 11.3867 35.765 11.0516C42.4921 4.56001 53.7534 9.38318 53.7534 18.6932C53.7534 21.5297 52.648 24.1967 50.6412 26.2038L47.5187 29.3263C47.1728 29.6722 47.1728 30.2325 47.5187 30.5784C47.8646 30.9243 48.4249 30.9243 48.7708 30.5784L51.8933 27.4559C54.2349 25.1147 55.5243 22.0026 55.5243 18.6933C55.5243 8.15804 43.1536 2.5054 35.1701 9.20571C26.645 1.51118 14.1097 8.93939 14.329 18.0603C14.4959 25.0274 21.8591 31.7165 27.776 37.0913Z" fill="#3B3B3B"/>
</svg>
