<svg width="70" height="71" viewBox="0 0 70 71" fill="none" xmlns="http://www.w3.org/2000/svg">
<path d="M65.0286 5.96466H4.96943C2.68486 5.96466 0.826172 7.82349 0.826172 10.1079V18.7697C0.826172 19.2588 1.22252 19.655 1.71143 19.655C2.20033 19.655 2.59668 19.2589 2.59668 18.7699V17.4243C2.59668 16.116 3.66117 15.0515 4.96943 15.0515H65.0287C66.337 15.0515 67.4015 16.116 67.4015 17.4243V18.7699C67.4015 19.2589 67.7979 19.6551 68.2868 19.6551C68.7757 19.6551 69.172 19.2588 69.172 18.7699C69.172 15.7102 69.172 13.3922 69.172 10.1081C69.172 7.82349 67.3132 5.96466 65.0286 5.96466ZM65.0286 13.281H4.96943C4.08691 13.281 3.26961 13.5606 2.59668 14.0328V10.1081C2.59668 8.7998 3.66117 7.73531 4.96943 7.73531H65.0287C66.337 7.73531 67.4015 8.7998 67.4015 10.1081V14.0328C66.7286 13.5606 65.9113 13.281 65.0286 13.281Z" fill="#3B3B3B"/>
<path d="M65.0274 20.593H4.97094C2.68541 20.593 0.826172 22.4521 0.826172 24.7378V60.8906C0.826172 63.1761 2.68527 65.0354 4.97094 65.0354H65.0275C67.313 65.0354 69.1723 63.1763 69.1723 60.8906V24.7378C69.1721 22.4523 67.3129 20.593 65.0274 20.593ZM67.4015 60.8906C67.4015 62.1995 66.3363 63.2647 65.0274 63.2647H4.97094C3.66199 63.2647 2.59682 62.1995 2.59682 60.8906V24.7378C2.59682 23.4288 3.66199 22.3637 4.97094 22.3637H65.0275C66.3365 22.3637 67.4016 23.4288 67.4016 24.7378V60.8906H67.4015Z" fill="#3B3B3B"/>
<path d="M62.3257 32.2172C59.6006 32.2172 57.3839 30.0005 57.3839 27.2754C57.3839 26.7863 56.9875 26.3901 56.4986 26.3901H13.4995C13.0104 26.3901 12.6142 26.7865 12.6142 27.2754C12.6142 30.0005 10.3974 32.2172 7.67236 32.2172C7.18332 32.2172 6.78711 32.6136 6.78711 33.1025V52.5257C6.78711 53.0147 7.18346 53.411 7.67236 53.411C10.3974 53.411 12.6142 55.6277 12.6142 58.3528C12.6142 58.8418 13.0105 59.238 13.4995 59.238H56.4986C56.9876 59.238 57.3839 58.8417 57.3839 58.3528C57.3839 55.6277 59.6006 53.411 62.3257 53.411C62.8147 53.411 63.2109 53.0146 63.2109 52.5257V33.1026C63.2111 32.6136 62.8147 32.2172 62.3257 32.2172ZM61.4404 51.6986C58.4456 52.0949 56.0677 54.4727 55.6714 57.4675H14.3267C13.9304 54.4727 11.5526 52.0948 8.55775 51.6986V33.9298C11.5526 33.5334 13.9305 31.1556 14.3267 28.1608H55.6714C56.0678 31.1556 58.4456 33.5336 61.4404 33.9298V51.6986Z" fill="#3B3B3B"/>
<path d="M17.9711 37.1066C14.8241 37.1066 12.2637 39.667 12.2637 42.814C12.2637 45.9614 14.8241 48.5219 17.9711 48.5219C21.1185 48.5219 23.679 45.9614 23.679 42.814C23.6789 39.667 21.1184 37.1066 17.9711 37.1066ZM17.9711 46.7513C15.8004 46.7513 14.0343 44.9851 14.0343 42.814C14.0343 40.6433 15.8004 38.8772 17.9711 38.8772C20.1422 38.8772 21.9084 40.6433 21.9084 42.814C21.9082 44.9851 20.1421 46.7513 17.9711 46.7513Z" fill="#3B3B3B"/>
<path d="M52.0282 37.1066C48.8808 37.1066 46.3203 39.667 46.3203 42.814C46.3203 45.9614 48.8808 48.5219 52.0282 48.5219C55.1752 48.5219 57.7356 45.9614 57.7356 42.814C57.7358 39.667 55.1753 37.1066 52.0282 37.1066ZM52.0282 46.7513C49.8571 46.7513 48.091 44.9851 48.091 42.814C48.091 40.6433 49.8571 38.8772 52.0282 38.8772C54.1989 38.8772 55.965 40.6433 55.965 42.814C55.9651 44.9851 54.199 46.7513 52.0282 46.7513Z" fill="#3B3B3B"/>
<path d="M35.0018 38.1302C36.0482 38.1302 36.8993 38.9831 36.8993 40.0311C36.8993 40.5202 37.2957 40.9164 37.7846 40.9164C38.2735 40.9164 38.6698 40.52 38.6698 40.0311C38.6698 38.3138 37.4811 36.8791 35.8869 36.48V35.4988C35.8869 35.0097 35.4906 34.6135 35.0017 34.6135C34.5126 34.6135 34.1164 35.0099 34.1164 35.4988V36.4797C32.5206 36.8785 31.3301 38.3134 31.3301 40.0311C31.3301 42.0539 32.9773 43.6993 35.0017 43.6993C36.0481 43.6993 36.8992 44.5522 36.8992 45.6007C36.8992 46.6471 36.0481 47.4982 35.0017 47.4982C33.9534 47.4982 33.1007 46.6471 33.1007 45.6007C33.1007 45.1116 32.7044 44.7154 32.2155 44.7154C31.7264 44.7154 31.3302 45.1117 31.3302 45.6007C31.3302 47.3167 32.5206 48.7502 34.1165 49.1486V50.1295C34.1165 50.6185 34.5129 51.0147 35.0018 51.0147C35.4908 51.0147 35.8871 50.6184 35.8871 50.1295V49.1484C37.4811 48.7497 38.67 47.3165 38.67 45.6005C38.67 43.5757 37.0246 41.9285 35.0018 41.9285C33.9536 41.9285 33.1009 41.0774 33.1009 40.031C33.1007 38.9829 33.9536 38.1302 35.0018 38.1302Z" fill="#3B3B3B"/>
</svg>
