<svg width="70" height="71" viewBox="0 0 70 71" fill="none" xmlns="http://www.w3.org/2000/svg">
<path d="M44.9656 21.2603C44.7745 20.7274 44.1875 20.4503 43.6542 20.6414C43.1213 20.8327 42.8441 21.4196 43.0353 21.9525C43.2972 22.6833 42.127 23.1062 41.8638 22.3731C41.6727 21.84 41.0859 21.5629 40.5524 21.7541C40.0195 21.9453 39.7424 22.5325 39.9335 23.0656C40.1745 23.7377 40.6629 24.2757 41.3086 24.5804C41.9333 24.8753 42.6862 24.9181 43.3522 24.679C44.7395 24.1811 45.4633 22.6476 44.9656 21.2603Z" fill="#3B3B3B"/>
<path d="M54.7898 17.8005C54.5986 17.2675 54.0118 16.9903 53.4783 17.1815C52.9453 17.3728 52.6683 17.9599 52.8594 18.4928C53.127 19.2389 51.9567 19.6616 51.688 18.9132C51.4969 18.3803 50.9101 18.1032 50.3766 18.2944C49.8437 18.4857 49.5665 19.0729 49.7578 19.6059C50.1414 20.6754 51.1858 21.36 52.2762 21.3705C53.301 21.3805 54.2549 20.7681 54.691 19.8439C54.9958 19.1982 55.0308 18.4724 54.7898 17.8005Z" fill="#3B3B3B"/>
<path d="M28.3257 29.5267C27.7865 29.3544 27.2091 29.652 27.037 30.1915C26.9477 30.4713 26.6472 30.626 26.3679 30.5369C26.0912 30.4486 25.9344 30.1439 26.0225 29.8676C26.1948 29.3281 25.8972 28.7512 25.3577 28.5788C24.8184 28.4065 24.2414 28.7042 24.0689 29.2436C23.6388 30.5898 24.4068 32.0545 25.7446 32.4883C27.0831 32.9222 28.5636 32.1524 28.9906 30.8154C29.1628 30.2759 28.8652 29.6989 28.3257 29.5267Z" fill="#3B3B3B"/>
<path d="M18.9271 26.586C18.3879 26.4137 17.8105 26.7113 17.6384 27.2508C17.5491 27.5306 17.2485 27.6852 16.9693 27.5962C16.692 27.5077 16.5354 27.2043 16.6239 26.9269C16.7962 26.3875 16.4986 25.8105 15.9591 25.6382C15.4199 25.466 14.8428 25.7636 14.6704 26.3031C14.2412 27.6455 15.0059 29.122 16.3452 29.5496C17.6854 29.9773 19.1641 29.2143 19.592 27.8747C19.7643 27.3352 19.4666 26.7581 18.9271 26.586Z" fill="#3B3B3B"/>
<path d="M35.7456 5.3158C35.4443 3.68296 33.9546 2.49788 32.2035 2.49788C31.5489 2.49788 30.8994 2.65907 30.289 2.96929C29.5197 2.31795 28.59 1.9566 27.6405 1.9566C26.0843 1.9566 24.7406 2.91938 24.2967 4.35261C23.9574 5.44842 23.7129 8.37053 28.7614 11.8295C29.0264 12.0111 29.3932 12.0614 29.707 11.9415C33.9544 10.3193 36.2117 7.84238 35.7456 5.3158ZM29.4785 9.82536C26.6435 7.7609 25.9421 5.97219 26.2559 4.95924C26.435 4.38105 26.9785 4.0074 27.6406 4.0074C28.2608 4.0074 28.8636 4.33129 29.3381 4.91918C29.688 5.35272 30.32 5.42764 30.7616 5.08775C31.2199 4.73502 31.7185 4.54867 32.2037 4.54867C32.9781 4.54867 33.6053 5.01721 33.729 5.68795C33.9203 6.72566 32.9038 8.40279 29.4785 9.82536Z" fill="#3B3B3B"/>
<path d="M23.7141 9.23253C23.1981 8.20576 22.204 7.59271 21.0545 7.59271C19.9064 7.59271 18.859 8.21164 18.21 9.22501C16.3814 9.02581 14.5316 10.2972 14.4984 12.23C14.487 12.8853 14.7532 16.1656 21.1231 16.3857C21.135 16.3861 21.1468 16.3862 21.1587 16.3862C21.482 16.3862 21.7873 16.2335 21.9812 15.9731C24.6402 12.4005 24.2082 10.2165 23.7141 9.23253ZM20.652 14.3078C17.8165 14.1048 16.5338 13.1316 16.5489 12.2655C16.5575 11.7679 17.0263 11.2531 17.7962 11.2531C18.003 11.2531 18.2205 11.2911 18.4424 11.3662C18.9702 11.5445 19.544 11.2686 19.7343 10.7451C20.0295 9.93294 20.61 9.64364 21.0547 9.64364C21.268 9.64364 21.6588 9.70982 21.8816 10.1535C22.2226 10.8326 22.058 12.2641 20.652 14.3078Z" fill="#3B3B3B"/>
<path d="M54.3181 24.176C52.5686 22.6993 50.9235 21.9505 49.4285 21.9505C48.0829 21.9505 46.8915 22.5707 46.074 23.6965C45.4213 24.596 45.0469 25.7596 45.0469 26.8903C45.0469 26.8946 45.0474 26.8989 45.0474 26.9033C45.0485 26.9819 45.0589 27.0612 45.0779 27.1376C45.0789 27.1413 45.0791 27.1453 45.0801 27.149C45.0806 27.1512 45.0813 27.1534 45.0819 27.1556C45.0824 27.1577 45.0831 27.1599 45.0837 27.1621C45.7194 29.5719 47.3253 31.0104 49.3818 31.0104C50.8311 31.0104 52.258 30.2691 53.1058 29.0758C53.7138 28.22 53.9529 27.2425 53.8084 26.2615C54.2428 25.8882 54.4607 25.5974 54.4859 25.5629C54.8021 25.1281 54.7289 24.523 54.3181 24.176ZM51.4344 27.8881C50.9719 28.539 50.1663 28.9597 49.3823 28.9597C48.7263 28.9597 48.1689 28.666 47.7423 28.1109C48.5375 28.1455 49.3396 28.1006 50.1227 27.9552C50.6274 27.8616 51.125 27.7268 51.6056 27.546C51.616 27.5421 51.6275 27.5385 51.638 27.5345C51.5777 27.6687 51.5062 27.7871 51.4344 27.8881ZM48.2479 26.0711C47.9095 26.0711 47.568 26.0529 47.2314 26.018C47.2188 26.0168 47.206 26.0149 47.1935 26.0135C47.5456 24.5134 48.7808 24.0014 49.4287 24.0014C50.1796 24.0014 51.0761 24.3525 52.0589 25.0257C51.3531 25.5058 50.1242 26.0711 48.2479 26.0711Z" fill="#3B3B3B"/>
<path d="M20.0774 30.0037C18.6095 30.0037 17.0178 30.772 15.3465 32.2873C14.9481 32.6484 14.8964 33.2559 15.2278 33.6792C15.2602 33.7207 15.4719 33.9815 15.8767 34.3101C15.7844 35.2202 16.0323 36.1165 16.6053 36.8936C17.4177 37.9955 18.7702 38.6798 20.135 38.6798C22.1782 38.6798 23.7204 37.2509 24.2632 34.8571C24.2642 34.8534 24.265 34.8496 24.2659 34.8459C24.2852 34.7629 24.2929 34.677 24.2912 34.592C24.2912 34.5887 24.2914 34.5853 24.2914 34.5803C24.2118 32.3305 22.6138 30.0037 20.0774 30.0037ZM20.135 36.6288C19.4201 36.6288 18.6825 36.2549 18.2558 35.6762C18.2184 35.6254 18.181 35.5697 18.1452 35.5089C18.224 35.5342 18.3039 35.5578 18.3835 35.5803C18.8726 35.7192 19.3738 35.8127 19.8796 35.8646C20.4397 35.922 21.0037 35.9277 21.5656 35.8934C21.581 35.8924 21.5962 35.892 21.6117 35.8909C21.2305 36.3741 20.7298 36.6288 20.135 36.6288ZM20.0229 33.8192C18.9368 33.698 18.1568 33.3597 17.6474 33.0516C18.5518 32.3961 19.3795 32.0543 20.0774 32.0543C21.1461 32.0543 21.8053 32.9036 22.086 33.783C21.4025 33.8719 20.7088 33.8958 20.0229 33.8192Z" fill="#3B3B3B"/>
<path d="M69.5435 33.3003C68.5449 28.8588 66.0676 26.0823 63.0639 26.0194C62.183 22.7681 60.9963 19.7447 59.602 17.2693C56.1917 11.2144 49.8528 8.09628 43.0597 9.13139C37.1799 10.0273 32.5347 13.871 30.8795 19.0809C26.2507 16.8416 21.0232 16.8089 16.3445 19.0352C11.2069 21.4799 7.36506 26.3173 5.73099 32.2563C5.60138 32.2459 5.47273 32.2395 5.34613 32.2395C2.34294 32.2389 0.306096 35.101 0.0311528 39.708C-0.161348 42.9324 0.546585 46.538 1.92472 49.3529C3.49768 52.5657 5.8379 54.583 8.55179 55.0854C8.78257 55.4021 9.0232 55.7075 9.27367 56.001C10.4095 57.3319 11.7409 58.4102 13.2387 59.2247C12.818 60.3781 12.4089 61.839 12.1654 63.5678C11.4803 64.0982 10.0258 65.325 9.3263 66.6701C9.06503 67.1725 9.26054 67.7916 9.76299 68.0529C10.2654 68.3143 10.8845 68.1186 11.1458 67.6162C11.3333 67.2555 11.6222 66.8834 11.9433 66.5335C11.9397 66.8553 11.9401 67.1814 11.9502 67.5161C11.9669 68.0716 12.4226 68.5107 12.9745 68.5107C12.9849 68.5107 12.9954 68.5106 13.0058 68.5102C13.5719 68.4932 14.017 68.0206 13.9999 67.4546C13.9878 67.0492 13.989 66.656 13.9983 66.2715C14.3781 66.6814 14.6958 67.1083 14.8182 67.471C14.9894 67.9781 15.582 68.2959 16.1176 68.1148C16.6542 67.9338 16.9424 67.352 16.7614 66.8154C16.3283 65.5315 14.9734 64.2951 14.2188 63.6825C14.4309 62.262 14.7651 61.0524 15.1123 60.0745C16.8844 60.7295 18.841 61.065 20.9457 61.065C21.212 61.065 21.4722 61.0624 21.7296 61.0587C21.4778 61.9291 21.2444 62.9483 21.082 64.0992C20.3974 64.6291 18.9415 65.8566 18.2416 67.2026C17.9804 67.705 18.1759 68.3241 18.6783 68.5854C19.1808 68.8467 19.7998 68.6511 20.0611 68.1487C20.2487 67.7879 20.5377 67.4157 20.8586 67.0657C20.8549 67.3876 20.8553 67.7137 20.8654 68.0485C20.8821 68.6041 21.3378 69.0431 21.8897 69.0431C21.9001 69.0431 21.9107 69.043 21.921 69.0427C22.4871 69.0256 22.9322 68.553 22.9151 67.987C22.903 67.5815 22.903 67.1869 22.9125 66.8028C23.2928 67.213 23.6109 67.6402 23.7334 68.0032C23.9051 68.512 24.4957 68.8283 25.0328 68.6472C25.5694 68.4662 25.8576 67.8844 25.6766 67.3478C25.2439 66.0655 23.892 64.8307 23.1369 64.2171C23.3275 62.9435 23.6113 61.8532 23.8992 60.9797C31.1145 60.5486 34.278 58.5701 35.5684 57.3358C37.4569 58.8345 39.7541 59.932 42.2947 60.5452C42.6398 61.5075 42.9879 62.7435 43.2081 64.2165C42.4532 64.8298 41.1005 66.0651 40.6678 67.3478C40.4867 67.8844 40.7749 68.4662 41.3116 68.6472C41.8414 68.8261 42.4323 68.5326 42.6109 68.0034C42.7333 67.6407 43.0512 67.2134 43.4313 66.8035C43.4407 67.1878 43.4412 67.5816 43.4291 67.987C43.4121 68.553 43.8571 69.0256 44.4232 69.0427C44.4337 69.043 44.4441 69.0431 44.4545 69.0431C45.0065 69.0431 45.4621 68.6041 45.4788 68.0485C45.4888 67.7137 45.4893 67.3877 45.4856 67.0657C45.8066 67.4157 46.0955 67.7879 46.2831 68.1487C46.5445 68.6511 47.1634 68.8468 47.6659 68.5854C48.1683 68.3241 48.3638 67.705 48.1026 67.2026C47.4032 65.8578 45.9492 64.6313 45.264 64.1007C45.0962 62.9107 44.8508 61.855 44.5831 60.9493C45.2625 61.026 45.9431 61.0657 46.6217 61.0657C48.4598 61.0657 50.2815 60.7816 52.0233 60.2247C52.4277 61.2833 52.8197 62.622 53.057 64.2149C52.3024 64.8275 50.9477 66.0639 50.5144 67.3479C50.3334 67.8846 50.6216 68.4663 51.1582 68.6473C51.6876 68.8261 52.2789 68.5329 52.4576 68.0035C52.58 67.6409 52.8976 67.2141 53.2773 66.8043C53.2864 67.1889 53.2879 67.5817 53.2759 67.9871C53.2588 68.5531 53.704 69.0258 54.27 69.0428C54.2805 69.0431 54.2909 69.0433 54.3013 69.0433C54.8534 69.0433 55.3089 68.6042 55.3256 68.0486C55.3356 67.7142 55.3363 67.3881 55.3328 67.0663C55.6537 67.4163 55.9426 67.7883 56.1301 68.1488C56.3913 68.6513 57.0104 68.8468 57.5128 68.5855C58.0153 68.3242 58.2106 67.7052 57.9494 67.2027C57.2503 65.8585 55.7975 64.6327 55.1119 64.1015C54.853 62.2569 54.4029 60.7084 53.9378 59.4908C56.4713 58.3426 58.5814 56.644 60.252 54.4103C64.1701 52.4763 67.0854 49.1886 68.6917 44.8837C70.0623 41.2106 70.3728 36.9887 69.5435 33.3003ZM3.76647 48.4511C2.53695 45.9398 1.90571 42.7172 2.07812 39.8303C2.23603 37.1847 3.15738 34.3602 5.2671 34.2911C5.13722 34.9965 5.03769 35.7087 4.95155 36.4207C4.94827 36.4481 4.94472 36.4754 4.94157 36.5028C4.21217 42.5797 4.88716 48.0245 6.87547 52.2428C5.8189 51.5587 4.71817 50.3949 3.76647 48.4511ZM58.7331 52.9984C58.721 53.0151 58.7113 53.033 58.7004 53.0502C56.9379 55.4502 54.6209 57.1585 51.7731 58.15C49.0822 59.0869 46.1508 59.2663 43.2955 58.6684C40.5018 58.0834 38.0277 56.8602 36.1406 55.1307C35.4181 54.4687 34.7881 53.7378 34.2578 52.9531C34.1182 52.7466 33.9841 52.5372 33.8587 52.3234C33.5773 51.8433 32.9353 51.6759 32.4556 51.9571C31.984 52.2335 31.8063 52.877 32.0893 53.3602C32.6286 54.281 33.2789 55.1379 34.0129 55.9123C34.0241 55.9241 34.0348 55.9364 34.0462 55.9481C32.916 56.9571 29.5541 59.0141 20.9458 59.0141C17.0828 59.0141 13.3776 57.6506 10.8334 54.6698C6.84225 49.9936 6.30371 43.0875 6.92359 37.2309C6.92428 37.2241 6.9251 37.2171 6.92592 37.2103C7.05416 36.0617 7.21043 34.9146 7.46377 33.7862C8.77368 27.9683 12.351 23.2061 17.2262 20.8865C21.6718 18.7711 26.6852 18.9785 30.9871 21.4536C33.6102 22.9629 34.5826 26.3609 34.6727 29.1879C34.6845 29.5578 34.6833 29.9282 34.6708 30.2982C34.5567 33.692 33.4365 37.7856 31.5975 41.5293C30.4117 43.9429 30.043 46.5998 30.531 49.2126C30.6334 49.7613 31.1786 50.1351 31.7271 50.0324C32.2729 49.9303 32.6489 49.3813 32.5469 48.8362C32.4212 48.1632 32.3627 47.4777 32.3743 46.793C32.3999 45.297 32.758 43.8178 33.4382 42.4334C34.5914 40.0858 36.5514 35.3964 36.7204 30.3671C36.8251 27.2456 36.1589 23.9521 34.0939 21.5159C33.9749 21.3754 32.6751 20.2385 32.6951 20.1642C33.9786 15.4641 38.0987 11.9612 43.3691 11.1581C48.0166 10.45 54.2521 11.9478 57.8157 18.2752C59.2162 20.7618 60.4116 23.859 61.2691 27.2255C62.676 32.7493 63.1874 38.7124 62.1833 44.3477C61.6356 47.4215 60.5812 50.4558 58.7331 52.9984ZM66.7708 44.1665C66.0585 46.0755 64.7825 48.464 62.5213 50.4525C63.1034 49.1119 63.5725 47.661 63.9277 46.1053C65.2756 40.2549 64.9182 33.9672 63.5895 28.1458C63.5888 28.1428 63.5881 28.1396 63.5874 28.1366C65.3542 28.5346 66.8372 30.6093 67.5433 33.7497C68.2873 37.0596 68.0058 40.8563 66.7708 44.1665Z" fill="#3B3B3B"/>
</svg>
