<svg width="70" height="71" viewBox="0 0 70 71" fill="none" xmlns="http://www.w3.org/2000/svg">
<path d="M32.3182 12.5753C32.3182 8.13903 28.7092 4.53033 24.2732 4.53033C20.4536 4.53033 17.2572 7.14153 16.4357 10.7612C12.4246 10.2755 8.86804 13.4117 8.83578 17.4516C5.5589 17.9345 3.0359 20.7654 3.0359 24.1744C3.0359 25.3117 3.32328 26.4246 3.86099 27.4136C0.755564 28.897 -0.115608 32.8539 1.92861 35.5066C0.855369 38.1729 1.56726 41.2418 3.75627 43.1542C3.28281 44.0946 3.0359 45.1309 3.0359 46.197C3.0359 49.8698 5.96496 52.8712 9.60961 52.9885C9.06546 57.0388 12.242 60.6705 16.3451 60.6705C17.1555 60.6705 17.9466 60.5279 18.6918 60.2518C18.9858 63.7296 21.9103 66.4704 25.4626 66.4704C29.2092 66.4704 32.2576 63.4217 32.2576 59.6756C32.2576 59.4211 32.3182 12.9182 32.3182 12.5753ZM25.4626 64.4793C22.6117 64.4793 20.3137 61.9738 20.7067 59.0404C21.7002 58.0523 22.9141 55.113 23.1549 54.6003C23.3814 54.0994 23.1591 53.5096 22.658 53.2827C22.1571 53.0578 21.5673 53.2789 21.3408 53.7798C21.1809 54.1006 19.8891 57.2126 19.1791 57.7471C18.3478 58.3571 17.3681 58.6794 16.3448 58.6794C13.3742 58.6794 11.0368 55.9642 11.6404 52.9545C13.2502 52.8763 14.8149 51.9222 15.7233 50.3812C16.0023 49.9074 15.8444 49.2968 15.3711 49.0182C14.8973 48.7382 14.2874 48.8971 14.0078 49.3701C13.3809 50.4342 12.2905 51.0475 11.2437 50.9619C10.807 50.8021 10.6584 51.0008 9.83082 51.0008C7.18176 51.0008 5.02679 48.8458 5.02679 46.197C5.02679 45.5272 5.17486 44.8774 5.44092 44.2732C6.79881 44.9887 8.30941 45.2346 9.77121 45.0356C10.3163 44.9623 10.6983 44.4614 10.6247 43.9163C10.5519 43.3719 10.0503 42.9856 9.50543 43.0627C8.11295 43.2468 6.7351 42.8851 5.62043 42.0349C3.72619 40.5909 3.07513 38.1033 3.91185 35.9592C3.93701 35.9073 3.95615 35.8534 3.98336 35.802C3.98787 35.7934 3.98814 35.7838 3.99238 35.7752C4.70168 34.1447 6.21597 32.9093 8.10297 32.6547C8.64806 32.5815 9.03006 32.0805 8.9565 31.5354C8.88363 30.9903 8.38256 30.606 7.83718 30.6819C5.85845 30.9485 4.17285 31.9951 3.04847 33.4696C2.28927 31.5283 3.43812 29.4338 5.4241 28.9763C6.68136 29.7287 8.13359 29.9361 9.43406 30.2068C9.95783 30.3204 10.4977 29.9842 10.6126 29.4368C10.7254 28.8988 10.3806 28.3713 9.8423 28.2586C5.99189 27.4499 6.62558 27.2788 5.86064 26.8666C3.8275 23.8762 5.72597 19.8212 9.23582 19.4041L9.26849 19.4786C10.0003 21.149 10.4965 21.8886 13.0172 23.2402C13.4971 23.4977 14.1031 23.3207 14.365 22.8331C14.6249 22.3483 14.4428 21.745 13.9582 21.4851C11.6356 20.2401 11.6262 19.8795 10.8842 18.2049C10.3914 14.8619 13.416 12.0382 16.7549 12.8501C17.4347 14.5498 18.5784 16.0527 20.053 17.1467C20.4917 17.4721 21.116 17.3839 21.4458 16.94C21.7731 16.4987 21.6806 15.8751 21.239 15.5473C19.8498 14.5168 18.8225 13.0348 18.345 11.3726C18.9024 8.56518 21.3424 6.5211 24.2732 6.5211C27.6114 6.5211 30.3269 9.2366 30.3271 12.5745C30.3271 12.5951 30.3261 13.4612 30.3241 14.9357C29.3718 14.5726 28.3306 14.4583 27.3115 14.6289C24.1752 15.1586 22.063 18.1284 22.5927 21.2648C22.7356 22.11 23.0548 22.8936 23.5418 23.5929C23.8554 24.0437 24.4756 24.1559 24.9274 23.8417C25.3785 23.5274 25.49 22.9071 25.1757 22.4561C24.8578 21.9992 24.6495 21.4865 24.5558 20.933C24.2098 18.8822 25.5915 16.9387 27.6428 16.5926C28.5892 16.4331 29.5278 16.6332 30.3214 17.1521C30.3047 30.0702 30.3001 33.8706 30.2909 40.9138C29.8019 43.5318 26.8303 44.8103 24.596 43.4119C23.7009 42.8519 23.0976 41.9719 22.8963 40.9348C22.7916 40.3949 22.2703 40.043 21.7295 40.1468C21.19 40.2518 20.837 40.7742 20.9417 41.3134C21.2446 42.876 22.1916 44.2559 23.5399 45.0997C25.6772 46.4364 28.3844 46.2136 30.286 44.622C30.2752 52.9606 30.2666 59.6583 30.2666 59.6749C30.2666 62.3244 28.1116 64.4793 25.4626 64.4793Z" fill="#3B3B3B"/>
<path d="M19.6595 47.9041C18.8741 48.2482 18.1919 48.7479 17.632 49.3896C17.2707 49.8044 17.3135 50.433 17.728 50.7946C18.1425 51.1543 18.7711 51.1134 19.1325 50.6986C19.4981 50.2793 19.9439 49.9527 20.4583 49.7278C22.3636 48.8924 24.5848 49.7614 25.4192 51.6676C25.8424 52.6346 25.8447 53.7013 25.4261 54.6715C25.208 55.1764 25.4407 55.7623 25.9455 55.9801C26.4428 56.1961 27.0336 55.9705 27.2537 55.461C27.8847 53.9994 27.8807 52.3261 27.2431 50.8691C25.9676 47.9558 22.574 46.6273 19.6595 47.9041Z" fill="#3B3B3B"/>
<path d="M19.1558 31.3638C18.788 30.9556 18.1587 30.9211 17.7498 31.2893C17.3411 31.6568 17.3075 32.2861 17.6749 32.6951C19.499 34.7225 18.6141 38.0203 15.9525 38.819C14.8686 39.1437 13.8857 38.7911 12.9287 38.2867C12.1026 37.828 11.1538 37.5649 10.1438 37.5649C9.28702 37.5649 8.46165 37.7496 7.69042 38.1131C7.19304 38.3477 6.98003 38.9408 7.21437 39.4378C7.44829 39.9349 8.04165 40.148 8.53944 39.9134C9.04298 39.6762 9.58288 39.5556 10.1438 39.5556C13.5354 39.5556 15.2109 43.7444 12.712 46.0768C12.3101 46.4521 12.2884 47.082 12.6633 47.4838C13.0375 47.8845 13.6669 47.9086 14.0703 47.5325C15.8342 45.8858 16.443 43.2375 15.3655 40.9123C15.7604 40.892 16.1498 40.8378 16.5241 40.7255C20.5758 39.5106 21.9587 34.4823 19.1558 31.3638Z" fill="#3B3B3B"/>
<path d="M11.898 29.1304C13.3452 29.9749 15.0468 30.3435 16.6499 29.8615C17.9464 29.4726 19.009 28.6782 19.7539 27.6626C22.2408 26.6579 24.9272 28.5011 24.9272 31.1518C24.9272 32.2069 24.5017 33.185 23.7288 33.9063C23.3267 34.2816 23.3053 34.9114 23.6802 35.3133C24.0559 35.7156 24.6854 35.7365 25.0871 35.3619C26.2507 34.2757 26.9181 32.741 26.9181 31.1518C26.9181 27.9002 24.1875 25.1932 20.7801 25.4147C20.9977 24.444 20.9804 23.4071 20.6748 22.3881C20.4178 21.532 19.9866 20.7634 19.3932 20.1029C19.025 19.6946 18.3961 19.6609 17.9872 20.0284C17.5785 20.3959 17.5449 21.0252 17.9123 21.4341C18.3079 21.8742 18.596 22.3881 18.7677 22.9604C19.4029 25.079 18.1961 27.3196 16.078 27.9548C14.7884 28.3417 13.5343 27.7798 12.9017 27.4104C12.426 27.1323 11.8171 27.2938 11.5399 27.7687C11.2632 28.2431 11.4233 28.853 11.898 29.1304Z" fill="#3B3B3B"/>
<path d="M68.5615 38.0419C68.5615 37.1689 68.3933 36.3036 68.0715 35.5038C68.7899 34.5737 69.1788 33.439 69.1788 32.2413C69.1788 30.1363 67.9617 28.2852 66.1386 27.4136C66.6754 26.4265 66.9623 25.3125 66.9623 24.1718C66.9623 20.766 64.4419 17.9377 61.1683 17.4548C61.1394 13.7321 58.1021 10.7125 54.3725 10.7125C54.1065 10.7125 53.8378 10.7288 53.568 10.7617C52.7487 7.14016 49.5496 4.52692 45.7252 4.52692C41.2899 4.52692 37.6816 8.13821 37.6816 12.5771C37.6816 12.6308 37.7413 59.6176 37.7413 59.6775C37.7413 63.4241 40.7899 66.4728 44.5373 66.4728C48.0909 66.4728 51.0161 63.7313 51.3089 60.2523C52.0546 60.5297 52.8457 60.6729 53.6557 60.6729C57.8072 60.6729 60.9368 56.9844 60.3914 52.991C60.652 52.9825 60.9089 52.9605 61.1591 52.9243C61.7033 52.8452 62.0801 52.3403 62.001 51.7959C61.922 51.2522 61.4152 50.8724 60.8727 50.954C58.7495 51.2583 56.9783 51.0694 55.9928 49.3953C55.7138 48.9221 55.104 48.7634 54.6296 49.0434C54.1561 49.322 53.9983 49.9326 54.2774 50.4063C55.1868 51.9497 56.7545 52.9044 58.3666 52.9807C58.9534 55.9578 56.6367 58.682 53.6559 58.682C52.6324 58.682 51.6505 58.3568 50.8162 57.7421C50.1237 57.2131 48.743 53.9462 48.66 53.7798C48.4339 53.2789 47.8448 53.0578 47.3427 53.2827C46.8418 53.5096 46.6195 54.0994 46.8459 54.6003C46.9654 54.8382 48.2922 58.0437 49.2938 59.0401C49.6881 61.9704 47.3935 64.4819 44.5374 64.4819C41.8879 64.4819 39.7323 62.327 39.7323 59.6775C39.7323 59.6598 39.7238 52.9606 39.7133 44.6208C41.6228 46.2203 44.3333 46.4307 46.4609 45.0996C47.8089 44.2564 48.7561 42.876 49.0591 41.3133C49.1638 40.7741 48.8108 40.2517 48.2713 40.1467C47.7279 40.0423 47.209 40.3949 47.1044 40.9347C46.9032 41.9723 46.2998 42.8518 45.4052 43.4118C43.1738 44.8088 40.1934 43.5343 39.7085 40.9052C39.7028 36.3068 39.6899 26.1703 39.6784 17.1529C40.473 16.634 41.4131 16.4331 42.3581 16.5926C44.409 16.9385 45.7911 18.8817 45.4451 20.933C45.3514 21.4865 45.1431 21.9992 44.8252 22.4561C44.5109 22.9071 44.6223 23.5274 45.0735 23.8417C45.526 24.1563 46.1459 24.0431 46.4591 23.5929C46.9461 22.8936 47.2654 22.11 47.4082 21.2648C47.9377 18.1289 45.8264 15.1587 42.6894 14.6289C41.6707 14.4573 40.6288 14.5722 39.6757 14.936C39.6738 13.4593 39.6727 12.5933 39.6727 12.5769C39.6727 9.23592 42.3879 6.51781 45.7254 6.51781C48.6588 6.51781 51.1003 8.56121 51.6576 11.3671C51.1806 13.0316 50.1524 14.5157 48.7617 15.5473C48.32 15.8753 48.2277 16.4987 48.555 16.94C48.8846 17.3838 49.5089 17.4724 49.9478 17.1467C51.4232 16.0522 52.5673 14.5483 53.2469 12.8475C56.514 12.0869 59.5895 14.7472 59.1191 18.1991C58.3706 19.8808 58.3783 20.2343 56.043 21.4851C55.5582 21.745 55.3761 22.3483 55.6357 22.8331C55.897 23.3197 56.5028 23.4981 56.9835 23.2402C59.9597 21.6442 60.0188 20.8788 60.7613 19.4127C63.1303 19.7039 64.9717 21.7246 64.9717 24.1715C64.9717 25.1658 64.6636 26.0901 64.1076 26.8881C64.0608 26.9157 64.0144 26.9448 63.9713 26.9809C63.0047 27.793 61.5228 27.9717 60.1585 28.2583C59.6202 28.3711 59.2754 28.8987 59.3882 29.4365C59.4868 29.9057 59.9005 30.2279 60.3616 30.2279C60.6183 30.2279 63.2271 29.7835 64.5767 28.9761C66.0981 29.3285 67.1881 30.6664 67.1881 32.2409C67.1881 32.6676 67.1035 33.0793 66.9533 33.4643C65.7802 31.9281 64.0798 30.9395 62.1636 30.6816C61.6218 30.6052 61.1176 30.9901 61.0443 31.5352C60.9707 32.0803 61.3527 32.5812 61.8978 32.6545C63.7834 32.9088 65.2968 34.1424 66.0068 35.771C66.0117 35.781 66.012 35.7919 66.0171 35.8017C66.0475 35.8586 66.0694 35.9197 66.0973 35.978C66.4043 36.7744 66.5223 37.6561 66.4005 38.56C66.2129 39.9502 65.4957 41.1842 64.3804 42.0345C63.2655 42.8847 61.8861 43.247 60.4954 43.0623C59.9542 42.9845 59.4493 43.3708 59.376 43.9159C59.3025 44.461 59.6845 44.9619 60.2296 45.0352C61.6847 45.2331 63.1955 44.9916 64.5596 44.2731C65.1854 45.6973 65.0746 47.2317 64.3903 48.4806C64.0384 49.1221 64.4802 49.9576 65.2633 49.9576C65.6521 49.9576 65.9891 49.7327 66.1528 49.4068C67.243 47.3948 67.1924 45.04 66.2455 43.1552C67.7101 41.8755 68.5615 40.0244 68.5615 38.0419Z" fill="#3B3B3B"/>
<path d="M61.4601 39.9136C61.9575 40.1494 62.5509 39.9356 62.7852 39.4379C63.0196 38.9408 62.8065 38.3479 62.3092 38.1133C60.656 37.3338 58.7068 37.3781 57.07 38.2874C57.0568 38.2944 57.043 38.2981 57.03 38.3058C56.4355 38.6532 55.2578 39.1827 54.0471 38.819C52.0581 38.2221 50.9249 36.1184 51.5215 34.1287C51.6826 33.5907 51.9529 33.1087 52.3249 32.6951C52.6924 32.2862 52.6586 31.6569 52.2499 31.2894C51.8413 30.9219 51.212 30.9549 50.8439 31.3639C50.2742 31.9977 49.8608 32.7353 49.6141 33.5571C48.7026 36.598 50.4346 39.8139 53.4755 40.7258C53.85 40.8382 54.2392 40.8923 54.634 40.9126C54.2938 41.6469 54.0984 42.4615 54.0984 43.3227C54.0984 44.9124 54.7656 46.4465 55.9293 47.5328C56.8769 48.4164 58.2641 46.9889 57.2878 46.0771C56.5149 45.3558 56.0894 44.3779 56.0894 43.3227C56.0893 40.5547 58.9795 38.7452 61.4601 39.9136Z" fill="#3B3B3B"/>
<path d="M48.8418 27.3851C49.3307 27.3851 49.8018 27.4821 50.2483 27.6628C51.3032 29.101 53.0053 30.0754 54.8318 30.0754C55.91 30.0754 57.0334 29.7552 58.104 29.1304C58.5787 28.853 58.7388 28.2431 58.4618 27.7687C58.1844 27.2924 57.5743 27.1323 57.1001 27.4104C56.4675 27.7798 55.2145 28.341 53.9237 27.9548C51.8057 27.319 50.599 25.0792 51.2345 22.9604C51.4062 22.3881 51.694 21.8742 52.0896 21.4341C52.4571 21.0252 52.4234 20.3959 52.0147 20.0284C51.6058 19.6609 50.9768 19.6946 50.6087 20.1029C50.0154 20.7632 49.584 21.5326 49.3271 22.3887C49.0217 23.4074 49.0042 24.444 49.2218 25.4146C45.8197 25.1933 43.084 27.8955 43.084 31.1517C43.084 32.7409 43.7516 34.2756 44.9152 35.3618C45.3193 35.7387 45.9488 35.7132 46.3222 35.3131C46.6971 34.9113 46.6754 34.2813 46.2735 33.9062C45.5006 33.1848 45.0749 32.2069 45.0749 31.1517C45.0749 29.0746 46.7646 27.3851 48.8418 27.3851Z" fill="#3B3B3B"/>
<path d="M49.5412 49.7279C50.0555 49.9528 50.5016 50.2794 50.8675 50.6987C51.2291 51.1135 51.8587 51.1556 52.2719 50.794C52.686 50.4324 52.7288 49.8038 52.3672 49.3896C51.8069 48.7473 51.1248 48.2476 50.3396 47.9042C47.413 46.6237 44.027 47.9659 42.7565 50.8692C42.1187 52.3261 42.1149 53.9995 42.7459 55.4611C42.9665 55.972 43.558 56.1956 44.0541 55.9802C44.559 55.7624 44.7917 55.1765 44.5735 54.6716C44.1549 53.7015 44.1571 52.6347 44.5803 51.6677C45.4127 49.766 47.6303 48.8906 49.5412 49.7279Z" fill="#3B3B3B"/>
</svg>
