<svg width="50" height="51" viewBox="0 0 50 51" fill="none" xmlns="http://www.w3.org/2000/svg">
<path d="M32.1185 15.3288C31.982 14.9481 31.5627 14.7502 31.1818 14.8867C30.8011 15.0233 30.6032 15.4426 30.7397 15.8232C30.9268 16.3452 30.0909 16.6472 29.903 16.1236C29.7664 15.7428 29.3473 15.5449 28.9662 15.6815C28.5856 15.818 28.3876 16.2375 28.5241 16.6182C28.6963 17.0983 29.0451 17.4826 29.5064 17.7003C29.9526 17.9109 30.4904 17.9415 30.966 17.7707C31.957 17.415 32.474 16.3197 32.1185 15.3288Z" fill="#3B3B3B"/>
<path d="M39.1355 12.8575C38.999 12.4768 38.5799 12.2788 38.1988 12.4154C37.8181 12.552 37.6202 12.9714 37.7567 13.352C37.9478 13.885 37.1119 14.1869 36.92 13.6523C36.7835 13.2717 36.3643 13.0737 35.9833 13.2103C35.6026 13.347 35.4047 13.7664 35.5413 14.1471C35.8153 14.911 36.5613 15.4 37.3401 15.4075C38.0722 15.4146 38.7535 14.9772 39.065 14.3171C39.2827 13.8559 39.3077 13.3375 39.1355 12.8575Z" fill="#3B3B3B"/>
<path d="M20.2325 21.2333C19.8474 21.1103 19.4349 21.3229 19.312 21.7082C19.2482 21.908 19.0336 22.0186 18.8341 21.9549C18.6364 21.8918 18.5244 21.6742 18.5874 21.4769C18.7104 21.0915 18.4978 20.6794 18.1125 20.5563C17.7273 20.4332 17.3151 20.6458 17.192 21.0312C16.8847 21.9927 17.4333 23.0389 18.3888 23.3488C19.3449 23.6587 20.4024 23.1088 20.7074 22.1538C20.8305 21.7685 20.6179 21.3564 20.2325 21.2333Z" fill="#3B3B3B"/>
<path d="M13.5195 19.1328C13.1344 19.0097 12.722 19.2223 12.599 19.6077C12.5352 19.8075 12.3205 19.9179 12.1211 19.8544C11.923 19.7912 11.8111 19.5745 11.8744 19.3763C11.9974 18.991 11.7848 18.5789 11.3995 18.4558C11.0143 18.3328 10.6021 18.5454 10.479 18.9307C10.1724 19.8896 10.7186 20.9442 11.6753 21.2497C12.6326 21.5551 13.6888 21.0101 13.9944 20.0533C14.1175 19.6679 13.9049 19.2557 13.5195 19.1328Z" fill="#3B3B3B"/>
<path d="M25.5322 3.93983C25.317 2.77352 24.2529 1.92703 23.0021 1.92703C22.5345 1.92703 22.0706 2.04217 21.6346 2.26375C21.0851 1.79851 20.421 1.54041 19.7428 1.54041C18.6313 1.54041 17.6715 2.2281 17.3544 3.25184C17.112 4.03456 16.9374 6.12178 20.5435 8.5925C20.7328 8.72219 20.9948 8.75812 21.2189 8.67248C24.2528 7.51378 25.8651 5.74453 25.5322 3.93983ZM21.0557 7.16095C19.0307 5.68633 18.5297 4.40868 18.7538 3.68514C18.8818 3.27215 19.2699 3.00526 19.7429 3.00526C20.1859 3.00526 20.6164 3.23661 20.9554 3.65653C21.2053 3.9662 21.6568 4.01972 21.9722 3.77694C22.2996 3.52499 22.6557 3.39188 23.0023 3.39188C23.5554 3.39188 24.0034 3.72655 24.0918 4.20566C24.2284 4.94687 23.5023 6.14483 21.0557 7.16095Z" fill="#3B3B3B"/>
<path d="M16.9388 6.73758C16.5703 6.00418 15.8602 5.56628 15.0391 5.56628C14.2191 5.56628 13.4709 6.00838 13.0074 6.73221C11.7012 6.58992 10.3799 7.49803 10.3562 8.87861C10.3481 9.34668 10.5382 11.6898 15.0881 11.847C15.0966 11.8473 15.105 11.8474 15.1135 11.8474C15.3445 11.8474 15.5626 11.7383 15.701 11.5523C17.6004 9.00039 17.2918 7.44042 16.9388 6.73758ZM14.7516 10.3628C12.7263 10.2178 11.8101 9.52266 11.8208 8.904C11.827 8.54853 12.1619 8.18085 12.7118 8.18085C12.8595 8.18085 13.0149 8.208 13.1734 8.26161C13.5503 8.38896 13.9602 8.19189 14.0961 7.81796C14.307 7.23788 14.7216 7.03123 15.0393 7.03123C15.1917 7.03123 15.4708 7.0785 15.6299 7.3954C15.8735 7.88046 15.7559 8.90302 14.7516 10.3628Z" fill="#3B3B3B"/>
<path d="M38.7981 17.4114C37.5485 16.3566 36.3734 15.8218 35.3055 15.8218C34.3443 15.8218 33.4934 16.2647 32.9095 17.069C32.4433 17.7114 32.1758 18.5426 32.1758 19.3502C32.1758 19.3532 32.1762 19.3564 32.1762 19.3595C32.177 19.4156 32.1844 19.4723 32.198 19.5269C32.1986 19.5295 32.1988 19.5323 32.1995 19.535C32.1999 19.5365 32.2004 19.5381 32.2008 19.5397C32.2012 19.5412 32.2017 19.5428 32.2021 19.5444C32.6562 21.2657 33.8032 22.2931 35.2722 22.2931C36.3073 22.2931 37.3266 21.7636 37.9322 20.9113C38.3664 20.3 38.5372 19.6018 38.434 18.9011C38.7443 18.6344 38.8999 18.4267 38.9179 18.4021C39.1438 18.0915 39.0915 17.6593 38.7981 17.4114ZM36.7383 20.0629C36.4079 20.5279 35.8325 20.8283 35.2725 20.8283C34.8039 20.8283 34.4058 20.6186 34.1011 20.2221C34.6691 20.2468 35.242 20.2147 35.8014 20.1109C36.1618 20.044 36.5173 19.9477 36.8606 19.8186C36.868 19.8157 36.8762 19.8132 36.8837 19.8104C36.8407 19.9062 36.7896 19.9907 36.7383 20.0629ZM34.4622 18.7651C34.2205 18.7651 33.9766 18.7521 33.7361 18.7272C33.7272 18.7263 33.718 18.7249 33.7091 18.7239C33.9606 17.6525 34.8429 17.2867 35.3057 17.2867C35.842 17.2867 36.4824 17.5375 37.1844 18.0184C36.6802 18.3612 35.8025 18.7651 34.4622 18.7651Z" fill="#3B3B3B"/>
<path d="M14.3404 21.5741C13.2919 21.5741 12.155 22.1229 10.9612 23.2053C10.6767 23.4632 10.6397 23.8972 10.8765 24.1995C10.8996 24.2291 11.0508 24.4154 11.3399 24.6501C11.274 25.3002 11.4511 25.9404 11.8604 26.4955C12.4406 27.2825 13.4068 27.7713 14.3816 27.7713C15.841 27.7713 16.9426 26.7507 17.3303 25.0408C17.331 25.0382 17.3316 25.0354 17.3323 25.0328C17.346 24.9735 17.3515 24.9122 17.3503 24.8515C17.3503 24.8491 17.3504 24.8467 17.3504 24.8432C17.2936 23.2361 16.1522 21.5741 14.3404 21.5741ZM14.3816 26.3064C13.8709 26.3064 13.3441 26.0393 13.0393 25.6259C13.0126 25.5896 12.9859 25.5498 12.9603 25.5064C13.0166 25.5245 13.0736 25.5413 13.1305 25.5574C13.4799 25.6566 13.8379 25.7234 14.1991 25.7605C14.5992 25.8015 15.0021 25.8056 15.4034 25.7811C15.4145 25.7804 15.4253 25.7801 15.4364 25.7793C15.1641 26.1244 14.8065 26.3064 14.3816 26.3064ZM14.3015 24.2995C13.5257 24.2129 12.9686 23.9713 12.6047 23.7512C13.2507 23.283 13.8419 23.0389 14.3404 23.0389C15.1038 23.0389 15.5746 23.6455 15.7751 24.2736C15.2869 24.3371 14.7914 24.3542 14.3015 24.2995Z" fill="#3B3B3B"/>
<path d="M49.6739 23.9288C48.9606 20.7563 47.1912 18.7731 45.0457 18.7282C44.4165 16.4058 43.5688 14.2462 42.5729 12.4781C40.1369 8.15322 35.6092 5.92596 30.7569 6.66532C26.5571 7.30527 23.2391 10.0508 22.0568 13.7721C18.7505 12.1726 15.0166 12.1492 11.6747 13.7395C8.00492 15.4857 5.26076 18.941 4.09356 23.1831C4.00099 23.1757 3.90909 23.1711 3.81866 23.1711C1.67353 23.1707 0.21864 25.215 0.022252 28.5058C-0.115249 30.8089 0.390418 33.3843 1.3748 35.395C2.49834 37.6898 4.16993 39.1307 6.10842 39.4896C6.27326 39.7158 6.44514 39.934 6.62405 40.1436C7.43538 41.0942 8.38636 41.8645 9.45619 42.4463C9.1557 43.2701 8.86351 44.3136 8.68959 45.5485C8.20023 45.9274 7.16126 46.8036 6.66165 47.7644C6.47502 48.1233 6.61467 48.5655 6.97356 48.7521C7.33245 48.9388 7.77464 48.7991 7.96126 48.4402C8.09525 48.1826 8.3016 47.9167 8.5309 47.6668C8.52836 47.8967 8.52865 48.1296 8.53588 48.3687C8.54779 48.7655 8.87328 49.0791 9.26752 49.0791C9.27494 49.0791 9.28246 49.079 9.28988 49.0788C9.69418 49.0666 10.0122 48.729 9.99995 48.3247C9.99126 48.0352 9.99213 47.7543 9.99878 47.4797C10.2701 47.7725 10.497 48.0774 10.5844 48.3365C10.7067 48.6987 11.13 48.9257 11.5126 48.7963C11.8959 48.667 12.1017 48.2515 11.9724 47.8682C11.663 46.9511 10.6953 46.068 10.1563 45.6304C10.3078 44.6157 10.5465 43.7518 10.7945 43.0532C12.0603 43.5211 13.4579 43.7607 14.9612 43.7607C15.1514 43.7607 15.3373 43.7589 15.5212 43.7563C15.3413 44.3779 15.1746 45.106 15.0586 45.928C14.5696 46.3066 13.5297 47.1833 13.0297 48.1448C12.8431 48.5036 12.9828 48.9458 13.3417 49.1325C13.7006 49.3191 14.1427 49.1794 14.3294 48.8205C14.4634 48.5628 14.6698 48.297 14.899 48.047C14.8964 48.2769 14.8967 48.5098 14.9039 48.749C14.9158 49.1458 15.2413 49.4594 15.6355 49.4594C15.6429 49.4594 15.6505 49.4593 15.6579 49.4591C16.0622 49.4469 16.3802 49.1093 16.368 48.705C16.3593 48.4154 16.3593 48.1335 16.3661 47.8592C16.6377 48.1522 16.8649 48.4574 16.9524 48.7166C17.0751 49.08 17.497 49.306 17.8806 49.1766C18.2639 49.0473 18.4697 48.6318 18.3404 48.2485C18.0313 47.3326 17.0657 46.4505 16.5264 46.0122C16.6625 45.1026 16.8652 44.3237 17.0709 43.6998C22.2246 43.3919 24.4843 41.9787 25.406 41.0971C26.7549 42.1676 28.3958 42.9515 30.2105 43.3895C30.457 44.0769 30.7056 44.9597 30.863 46.0118C30.3237 46.4499 29.3575 47.3323 29.0484 48.2485C28.9191 48.6318 29.125 49.0473 29.5083 49.1766C29.8867 49.3044 30.3088 49.0948 30.4364 48.7167C30.5238 48.4577 30.7508 48.1525 31.0223 47.8597C31.0291 48.1342 31.0295 48.4155 31.0208 48.705C31.0087 49.1093 31.3265 49.4469 31.7308 49.4591C31.7384 49.4593 31.7458 49.4594 31.7532 49.4594C32.1475 49.4594 32.4729 49.1458 32.4848 48.749C32.492 48.5098 32.4924 48.277 32.4897 48.047C32.719 48.297 32.9254 48.5628 33.0594 48.8205C33.2461 49.1794 33.6882 49.3192 34.0471 49.1325C34.4059 48.9458 34.5456 48.5036 34.359 48.1448C33.8595 47.1842 32.8209 46.3081 32.3314 45.9291C32.2116 45.0791 32.0363 44.325 31.8451 43.6781C32.3303 43.7329 32.8165 43.7612 33.3013 43.7612C34.6142 43.7612 35.9153 43.5583 37.1595 43.1606C37.4483 43.9167 37.7283 44.8729 37.8979 46.0107C37.3589 46.4483 36.3912 47.3314 36.0817 48.2486C35.9524 48.6319 36.1583 49.0474 36.5416 49.1767C36.9197 49.3044 37.3421 49.095 37.4697 48.7168C37.5571 48.4578 37.784 48.153 38.0552 47.8603C38.0617 48.135 38.0628 48.4156 38.0542 48.7051C38.042 49.1094 38.36 49.447 38.7643 49.4592C38.7718 49.4594 38.7792 49.4595 38.7866 49.4595C39.181 49.4595 39.5064 49.1459 39.5183 48.7491C39.5254 48.5102 39.5259 48.2773 39.5235 48.0474C39.7527 48.2974 39.959 48.5631 40.0929 48.8206C40.2795 49.1795 40.7217 49.3192 41.0806 49.1326C41.4395 48.9459 41.579 48.5037 41.3924 48.1449C40.8931 47.1847 39.8554 46.3091 39.3656 45.9297C39.1807 44.6121 38.8592 43.5061 38.527 42.6363C40.3366 41.8162 41.8439 40.6029 43.0371 39.0074C45.8358 37.6259 47.9181 35.2776 49.0655 32.2027C50.0445 29.579 50.2663 26.5634 49.6739 23.9288ZM2.69033 34.7508C1.81211 32.9571 1.36122 30.6552 1.48437 28.5931C1.59716 26.7034 2.25527 24.6859 3.76222 24.6365C3.66944 25.1404 3.59835 25.6491 3.53682 26.1577C3.53448 26.1772 3.53194 26.1968 3.52969 26.2163C3.0087 30.557 3.49083 34.4461 4.91105 37.4592C4.15636 36.9706 3.37012 36.1392 2.69033 34.7508ZM41.9522 37.9989C41.9436 38.0108 41.9367 38.0236 41.9288 38.0359C40.6699 39.7502 39.015 40.9704 36.9808 41.6786C35.0587 42.3479 32.9648 42.476 30.9254 42.0489C28.9298 41.6311 27.1626 40.7573 25.8147 39.522C25.2987 39.0491 24.8487 38.527 24.4699 37.9666C24.3701 37.819 24.2743 37.6695 24.1848 37.5168C23.9838 37.1738 23.5252 37.0543 23.1825 37.2551C22.8457 37.4525 22.7188 37.9122 22.9209 38.2573C23.3062 38.915 23.7706 39.5271 24.295 40.0803C24.303 40.0887 24.3106 40.0974 24.3187 40.1058C23.5115 40.8266 21.1101 42.2958 14.9613 42.2958C12.202 42.2958 9.55541 41.3219 7.73812 39.1928C4.88732 35.8526 4.50265 30.9197 4.94543 26.7364C4.94591 26.7316 4.9465 26.7266 4.94709 26.7217C5.03869 25.9013 5.15031 25.0819 5.33127 24.2759C6.26692 20.1203 8.82211 16.7187 12.3045 15.0619C15.4799 13.5508 19.0608 13.699 22.1336 15.4669C24.0073 16.545 24.7019 18.9721 24.7662 20.9914C24.7746 21.2556 24.7738 21.5202 24.7649 21.7845C24.6833 24.2086 23.8832 27.1326 22.5696 29.8067C21.7227 31.5307 21.4593 33.4285 21.8078 35.2948C21.881 35.6867 22.2704 35.9537 22.6622 35.8803C23.0521 35.8074 23.3206 35.4153 23.2478 35.0259C23.158 34.5452 23.1162 34.0555 23.1245 33.5665C23.1428 32.4979 23.3986 31.4413 23.8844 30.4525C24.7081 28.7756 26.1081 25.4261 26.2288 21.8337C26.3037 19.6041 25.8278 17.2515 24.3528 15.5114C24.2678 15.4111 23.3394 14.599 23.3536 14.5459C24.2704 11.1887 27.2133 8.68662 30.9779 8.11299C34.2975 7.60722 38.7515 8.67705 41.2969 13.1966C42.2973 14.9728 43.1511 17.185 43.7636 19.5897C44.7686 23.5352 45.1338 27.7946 44.4166 31.8199C44.0254 34.0154 43.2723 36.1828 41.9522 37.9989ZM47.6934 31.6904C47.1846 33.0539 46.2732 34.76 44.6581 36.1804C45.0739 35.2228 45.4089 34.1865 45.6627 33.0752C46.6255 28.8964 46.3702 24.4052 45.4211 20.247C45.4206 20.2449 45.4201 20.2426 45.4196 20.2405C46.6816 20.5248 47.7409 22.0067 48.2452 24.2498C48.7766 26.6141 48.5756 29.326 47.6934 31.6904Z" fill="#3B3B3B"/>
</svg>
