<svg width="50" height="51" viewBox="0 0 50 51" fill="none" xmlns="http://www.w3.org/2000/svg">
<g clip-path="url(#clip0_211_2133)">
<path d="M45.9654 27.1886L39.78 22.502C39.1408 22.0177 38.3473 21.7511 37.5455 21.7511H27.7448V19.3166H44.3854C45.828 19.3166 47.0017 18.143 47.0017 16.7003V6.8874C47.0017 5.44473 45.828 4.27109 44.3854 4.27109H27.7448V1.61035C27.7448 0.998047 27.2468 0.5 26.6345 0.5H23.3653C22.753 0.5 22.255 0.998047 22.255 1.61035V4.271H12.4543C11.6525 4.271 10.859 4.5377 10.2198 5.02187L4.03437 9.7084C3.37578 10.2074 2.99805 10.9675 2.99805 11.7937C2.99805 12.62 3.37578 13.3801 4.03437 13.8791L10.2198 18.5656C10.859 19.0498 11.6525 19.3165 12.4543 19.3165H14.9214C15.3253 19.3165 15.6528 18.9891 15.6528 18.5851C15.6528 18.1812 15.3254 17.8536 14.9214 17.8536H12.4543C11.9695 17.8536 11.4896 17.6924 11.1032 17.3996L4.91777 12.7131C4.62744 12.4931 4.46084 12.158 4.46084 11.7937C4.46084 11.4294 4.62734 11.0943 4.91777 10.8743L11.1032 6.18779C11.4896 5.89502 11.9695 5.73379 12.4543 5.73379H44.3854C45.0215 5.73379 45.5389 6.25127 45.5389 6.8873V16.7003C45.5389 17.3363 45.0215 17.8537 44.3854 17.8537H18.305C17.9011 17.8537 17.5735 18.1812 17.5735 18.5852C17.5735 18.9891 17.901 19.3166 18.305 19.3166H22.2549V21.7511H5.61436C4.17168 21.7511 2.99805 22.9248 2.99805 24.3674V34.1804C2.99805 35.623 4.17168 36.7967 5.61436 36.7967H22.2549V49.3896C22.2549 50.002 22.7529 50.5 23.3652 50.5H26.6344C27.2467 50.5 27.7447 50.002 27.7447 49.3896V44.9612C27.7447 44.5573 27.4173 44.2298 27.0133 44.2298C26.6094 44.2298 26.2818 44.5572 26.2818 44.9612V49.0372H23.7176V36.7968H26.2818V41.6604C26.2818 42.0643 26.6093 42.3918 27.0133 42.3918C27.4172 42.3918 27.7447 42.0644 27.7447 41.6604V36.7968H37.5454C38.3472 36.7968 39.1407 36.5301 39.7799 36.0459L45.9654 31.3594C46.624 30.8604 47.0018 30.1003 47.0018 29.2739C47.0018 28.4477 46.624 27.6876 45.9654 27.1886ZM26.282 4.271H23.7178V1.96279H26.282V4.271ZM23.7178 19.3166H26.282V21.7511H23.7178V19.3166ZM45.082 30.1934L38.8966 34.8799C38.5102 35.1727 38.0303 35.3339 37.5455 35.3339H5.61436C4.97832 35.3339 4.46094 34.8164 4.46094 34.1804V24.3675C4.46094 23.7314 4.97832 23.214 5.61436 23.214H37.5455C38.0303 23.214 38.5102 23.3752 38.8966 23.668L45.082 28.3546C45.3724 28.5746 45.539 28.9097 45.539 29.2739C45.539 29.6382 45.3724 29.9733 45.082 30.1934Z" fill="#3B3B3B"/>
<path d="M18.6657 14.8334C18.7513 14.8661 18.8393 14.8815 18.9258 14.8815C19.2205 14.8815 19.4984 14.702 19.6095 14.4102L19.8707 13.7243H21.7039L21.962 14.4082C22.1046 14.786 22.5266 14.977 22.9046 14.8342C23.2826 14.6917 23.4733 14.2696 23.3307 13.8917L21.5774 9.24565C21.5748 9.23892 21.5722 9.23228 21.5695 9.22563C21.4397 8.91001 21.1355 8.7063 20.7943 8.7063C20.7941 8.7063 20.7937 8.7063 20.7934 8.7063C20.4519 8.70669 20.1477 8.91118 20.0184 9.2272C20.0161 9.23267 20.014 9.23823 20.0119 9.2437L18.2424 13.8895C18.0987 14.2671 18.2881 14.6897 18.6657 14.8334ZM20.7915 11.3067L21.1519 12.2616H20.4279L20.7915 11.3067Z" fill="#3B3B3B"/>
<path d="M32.6329 10.2123C33.0368 10.2123 33.3644 9.88484 33.3644 9.48083C33.3644 9.07683 33.0369 8.74939 32.6329 8.74939H30.6655C30.2616 8.74939 29.9341 9.07683 29.9341 9.48083V14.15C29.9341 14.5539 30.2615 14.8814 30.6655 14.8814H32.6329C33.0368 14.8814 33.3644 14.554 33.3644 14.15C33.3644 13.7461 33.0369 13.4185 32.6329 13.4185H31.397V12.5468H32.4879C32.8918 12.5468 33.2193 12.2193 33.2193 11.8153C33.2193 11.4114 32.8919 11.0839 32.4879 11.0839H31.397V10.2122L32.6329 10.2123Z" fill="#3B3B3B"/>
<path d="M37.5099 10.2123C37.9138 10.2123 38.2413 9.88484 38.2413 9.48083C38.2413 9.07683 37.9139 8.74939 37.5099 8.74939H35.5425C35.1386 8.74939 34.811 9.07683 34.811 9.48083V14.15C34.811 14.5539 35.1385 14.8814 35.5425 14.8814H37.5099C37.9138 14.8814 38.2413 14.554 38.2413 14.15C38.2413 13.7461 37.9139 13.4185 37.5099 13.4185H36.2739V12.5468H37.3648C37.7688 12.5468 38.0963 12.2193 38.0963 11.8153C38.0963 11.4114 37.7688 11.0839 37.3648 11.0839H36.2739V10.2122L37.5099 10.2123Z" fill="#3B3B3B"/>
<path d="M14.8863 10.1692C15.212 10.1692 15.526 10.265 15.7941 10.4463C16.1289 10.6725 16.5836 10.5844 16.8097 10.2497C17.0358 9.91492 16.9478 9.46023 16.6131 9.23416C16.1021 8.88894 15.5049 8.70642 14.8863 8.70642C13.1839 8.70642 11.7988 10.0915 11.7988 11.7939C11.7988 13.4964 13.1839 14.8814 14.8863 14.8814C15.5708 14.8814 16.1861 14.6556 16.6658 14.2284C16.7597 14.1448 16.8488 14.0528 16.9311 13.9549C17.1906 13.6454 17.1501 13.1841 16.8407 12.9244C16.5312 12.6648 16.0699 12.7052 15.8103 13.0148C15.7735 13.0587 15.7341 13.0994 15.693 13.136C15.4824 13.3235 15.211 13.4185 14.8863 13.4185C13.9905 13.4185 13.2617 12.6897 13.2617 11.7939C13.2617 10.8981 13.9904 10.1692 14.8863 10.1692Z" fill="#3B3B3B"/>
<path d="M28.5491 10.6625C28.5491 9.58396 27.6405 8.70642 26.5237 8.70642H25.2716C25.2713 8.70642 25.2711 8.70642 25.2708 8.70642C25.2705 8.70642 25.2703 8.70642 25.27 8.70642C24.8661 8.70642 24.5386 9.03386 24.5386 9.43787V14.1501C24.5386 14.554 24.866 14.8815 25.27 14.8815C25.674 14.8815 26.0015 14.5541 26.0015 14.1501V13.1935L27.2687 14.6333C27.4132 14.7975 27.615 14.8814 27.818 14.8814C27.9896 14.8814 28.162 14.8214 28.3009 14.699C28.6041 14.4321 28.6336 13.97 28.3667 13.6668L27.3093 12.4653C28.0371 12.1684 28.5491 11.4721 28.5491 10.6625ZM26.5238 11.1557C26.3997 11.1557 26.2059 11.1564 26.0077 11.1573C26.0068 10.9664 26.0062 10.7811 26.0062 10.6625C26.0062 10.5604 26.0058 10.3701 26.0052 10.1692H26.5238C26.8235 10.1692 27.0863 10.3997 27.0863 10.6625C27.0863 10.9253 26.8234 11.1557 26.5238 11.1557Z" fill="#3B3B3B"/>
<path d="M43.5468 10.6625C43.5468 9.58396 42.6382 8.70642 41.5214 8.70642H40.2691C40.2688 8.70642 40.2687 8.70642 40.2684 8.70642C40.2681 8.70642 40.2679 8.70642 40.2676 8.70642C39.8637 8.70642 39.5361 9.03386 39.5361 9.43787V14.1501C39.5361 14.554 39.8636 14.8815 40.2676 14.8815C40.6715 14.8815 40.999 14.5541 40.999 14.1501V13.1935L42.2662 14.6333C42.4107 14.7975 42.6126 14.8814 42.8155 14.8814C42.9871 14.8814 43.1595 14.8214 43.2984 14.699C43.6017 14.4321 43.6312 13.97 43.3643 13.6668L42.3068 12.4653C43.0347 12.1684 43.5468 11.4721 43.5468 10.6625ZM41.5214 11.1557C41.3973 11.1557 41.2034 11.1564 41.0053 11.1573C41.0044 10.9664 41.0037 10.7811 41.0037 10.6625C41.0037 10.5604 41.0033 10.3701 41.0027 10.1692H41.5214C41.8211 10.1692 42.0839 10.3997 42.0839 10.6625C42.084 10.9253 41.8211 11.1557 41.5214 11.1557Z" fill="#3B3B3B"/>
<path d="M18.9654 25.8153C18.5609 25.8153 18.233 26.1432 18.233 26.5477V30.9137C18.233 31.0541 18.1621 31.1806 18.0479 31.244C17.8451 31.3566 17.5898 31.1325 17.5566 31.102L17.4317 30.9741C17.149 30.6846 16.6852 30.6792 16.396 30.9619C16.1066 31.2445 16.1011 31.7083 16.3838 31.9976L16.5216 32.1386C16.7919 32.4106 17.315 32.7459 17.9271 32.7459C18.1922 32.7459 18.474 32.6829 18.759 32.5248C19.3381 32.2033 19.6978 31.586 19.6978 30.9137V26.5477C19.6978 26.1432 19.37 25.8153 18.9654 25.8153Z" fill="#3B3B3B"/>
<path d="M33.0361 28.8466C33.2237 28.5431 33.334 28.187 33.334 27.8048C33.334 26.7078 32.4415 25.8153 31.3446 25.8153H29.7578C29.3533 25.8153 29.0254 26.1432 29.0254 26.5477V29.0632V29.0673V32.0104C29.0254 32.4149 29.3533 32.7428 29.7578 32.7428H31.6217C32.8363 32.7428 33.8245 31.7518 33.8245 30.5336C33.8245 29.857 33.5177 29.251 33.0361 28.8466ZM31.3446 27.2802C31.6338 27.2802 31.8691 27.5155 31.8691 27.8048C31.8691 28.0939 31.6338 28.3293 31.3446 28.3293C31.2271 28.3293 31.005 28.33 30.7634 28.3307H30.4903V27.2802H31.3446ZM31.6217 31.278H30.4902V29.7967C30.5831 29.7963 30.6777 29.796 30.7694 29.7956H31.6217C32.0286 29.7956 32.3597 30.1266 32.3597 30.5336C32.3597 30.944 32.0286 31.278 31.6217 31.278Z" fill="#3B3B3B"/>
<path d="M24.4667 25.8153C22.5567 25.8153 21.0029 27.3691 21.0029 29.2791C21.0029 31.189 22.5567 32.7428 24.4667 32.7428C26.3767 32.7428 27.9305 31.189 27.9305 29.2791C27.9305 27.3691 26.3767 25.8153 24.4667 25.8153ZM24.4667 31.278C23.3645 31.278 22.4678 30.3813 22.4678 29.2791C22.4678 28.1768 23.3645 27.2802 24.4667 27.2802C25.5689 27.2802 26.4656 28.1768 26.4656 29.2791C26.4656 30.3813 25.5689 31.278 24.4667 31.278Z" fill="#3B3B3B"/>
</g>
<defs>
<clipPath id="clip0_211_2133">
<rect width="50" height="50" fill="white" transform="translate(0 0.5)"/>
</clipPath>
</defs>
</svg>
