<svg width="50" height="51" viewBox="0 0 50 51" fill="none" xmlns="http://www.w3.org/2000/svg">
<g clip-path="url(#clip0_211_2154)">
<path d="M43.865 44.7044L43.4413 44.2807C43.324 44.1635 43.2975 43.9801 43.3754 43.8243C44.0574 42.4606 44.4032 40.8723 44.4032 39.103C44.4032 35.8715 43.2415 31.5346 41.2161 27.2042C39.3751 23.2683 37.0242 19.7221 34.5069 17.0603C35.6697 16.7118 36.5197 15.6324 36.5197 14.3577C36.5197 13.2015 35.8201 12.2059 34.8223 11.7708L36.7025 8.87598C36.7158 8.85547 36.7281 8.83428 36.7394 8.8126C37.1486 8.01846 37.1604 7.10283 36.7715 6.30059C36.3453 5.42139 35.5179 4.80371 34.5013 4.60586L33.2673 4.36582C33.4611 3.47949 33.2735 2.56777 32.7321 1.82012C32.1244 0.98125 31.1817 0.5 30.1457 0.5H25.2294C24.8248 0.5 24.497 0.827832 24.497 1.23242C24.497 1.63701 24.8248 1.96484 25.2294 1.96484H30.1457C30.7065 1.96484 31.2169 2.22539 31.5459 2.67949C31.8749 3.13369 31.9633 3.6999 31.7884 4.23281L29.3913 11.5368H26.7021L27.3177 9.26328C27.4234 8.87285 27.1926 8.47061 26.8021 8.36494C26.4119 8.25928 26.0095 8.48994 25.9038 8.88047L25.1847 11.5368H23.9619L23.2428 8.88047C23.137 8.48994 22.7344 8.25918 22.3444 8.36494C21.954 8.47061 21.7231 8.87285 21.8289 9.26328L22.4444 11.5368H20.6089L18.2118 4.23281C18.0369 3.6999 18.1253 3.13379 18.4542 2.67959C18.7832 2.22539 19.2937 1.96484 19.8545 1.96484H22.3012C22.7058 1.96484 23.0336 1.63701 23.0336 1.23242C23.0336 0.827832 22.7058 0.5 22.3012 0.5H19.8545C18.8185 0.5 17.8756 0.98125 17.2679 1.82041C16.7264 2.56807 16.5389 3.47988 16.7328 4.36611L15.4987 4.60615C14.4822 4.80391 13.6547 5.42168 13.2285 6.30088C12.8397 7.10313 12.8515 8.01865 13.2608 8.81289C13.272 8.83467 13.2843 8.85566 13.2976 8.87617L15.0807 11.6214C13.8551 11.9282 12.9445 13.0386 12.9445 14.3578C12.9445 15.7909 14.019 16.9771 15.4045 17.155C12.9184 19.8085 10.599 23.3212 8.77939 27.2143C6.75664 31.541 5.59668 35.8743 5.59668 39.1031C5.59668 40.8723 5.94248 42.4607 6.62451 43.8244C6.70244 43.9802 6.67588 44.1636 6.55869 44.2808L6.13477 44.7046C4.81113 46.0283 4.81123 48.182 6.13486 49.5057C6.77607 50.1469 7.62871 50.5 8.53555 50.5C9.44229 50.5 10.2949 50.1469 10.9361 49.5057L11.924 48.5217C15.0309 49.8714 19.1858 50.5 24.9999 50.5C27.8728 50.5 30.3007 50.3474 32.4226 50.0335C32.8228 49.9744 33.0991 49.602 33.0398 49.2018C32.9806 48.8016 32.6086 48.5242 32.2081 48.5845C30.1581 48.8877 27.8002 49.0352 24.9999 49.0352C19.3936 49.0352 15.4239 48.4451 12.5076 47.1781C11.9507 46.9362 11.3138 47.0564 10.8854 47.4846L9.9002 48.4698C9.14775 49.2224 7.92334 49.2226 7.1707 48.4699C6.41816 47.7173 6.41816 46.4929 7.17061 45.7403L7.59453 45.3166C8.1583 44.7527 8.29512 43.8897 7.93467 43.1692C7.35518 42.0108 7.06152 40.6428 7.06152 39.1031C7.06152 36.0812 8.17119 31.974 10.1062 27.8346C12.0989 23.5714 14.6999 19.7945 17.4407 17.1789H20.9251L20.3542 17.8755C20.0978 18.1883 20.1436 18.6498 20.4564 18.9062C20.5927 19.0179 20.7569 19.0722 20.9203 19.0722C21.1321 19.0722 21.3424 18.9807 21.4872 18.804L22.8191 17.1789H26.3273L27.6595 18.8041C27.8043 18.9808 28.0146 19.0722 28.2264 19.0722C28.3897 19.0722 28.5541 19.0178 28.6903 18.9062C29.0031 18.6498 29.0489 18.1883 28.7925 17.8754L28.2216 17.1789H32.5594C35.298 19.7925 37.8971 23.5649 39.8896 27.825C41.8273 31.9679 42.9388 36.0786 42.9388 39.1031C42.9388 40.6428 42.645 42.0107 42.0656 43.1692C41.7053 43.8897 41.842 44.7527 42.4058 45.3166L42.8295 45.7403C43.582 46.4929 43.582 47.7173 42.8295 48.4699C42.465 48.8344 41.9804 49.0352 41.4647 49.0352C40.9493 49.0352 40.4646 48.8344 40.1 48.4698L39.1147 47.4846C38.6864 47.0564 38.0495 46.9362 37.4926 47.1781C36.7634 47.4949 35.9438 47.7747 35.0565 48.01C34.6655 48.1137 34.4325 48.5146 34.5361 48.9056C34.6398 49.2966 35.0407 49.5292 35.4317 49.426C36.39 49.172 37.2799 48.8677 38.0789 48.5205L39.0642 49.5058C39.7051 50.1469 40.5577 50.5 41.4645 50.5C42.3713 50.5 43.2239 50.1469 43.865 49.5057C45.1888 48.182 45.1888 46.0281 43.865 44.7044ZM32.8249 5.77227L34.2217 6.04395C34.7812 6.15273 35.2303 6.4793 35.4534 6.93965C35.6372 7.31885 35.6364 7.73389 35.4521 8.11211L33.2275 11.5368H30.9329L32.8249 5.77227ZM14.5464 6.93975C14.7695 6.4793 15.2186 6.15273 15.7781 6.04395L17.175 5.77227L19.0669 11.5369H16.7722L14.5477 8.11221C14.3634 7.73389 14.3627 7.31885 14.5464 6.93975ZM14.4091 14.3578C14.4091 13.6101 15.0174 13.0017 15.7652 13.0017H33.6989C34.4467 13.0017 35.0551 13.61 35.0551 14.3578C35.0551 15.1057 34.4468 15.7141 33.6989 15.7141C32.7226 15.7141 16.7907 15.7141 15.7652 15.7141C15.0175 15.7141 14.4091 15.1057 14.4091 14.3578Z" fill="#3B3B3B"/>
<path d="M25 22.2732C19.5317 22.2732 15.083 26.722 15.083 32.1903C15.083 37.6585 19.5317 42.1074 25 42.1074C30.4683 42.1074 34.9171 37.6585 34.9171 32.1903C34.9171 26.722 30.4684 22.2732 25 22.2732ZM25 40.6425C20.3395 40.6425 16.5479 36.8509 16.5479 32.1903C16.5479 27.5296 20.3395 23.738 25 23.738C29.6606 23.738 33.4522 27.5296 33.4522 32.1903C33.4522 36.8509 29.6606 40.6425 25 40.6425Z" fill="#3B3B3B"/>
<path d="M26.2254 31.4451C26.0434 31.3809 25.8576 31.3137 25.672 31.2439V28.1375C26.2536 28.2394 26.6336 28.489 26.6651 28.5103C26.9957 28.7397 27.4498 28.6593 27.6814 28.3298C27.9142 27.9989 27.8346 27.5421 27.5039 27.3094C27.4606 27.2788 26.745 26.7868 25.672 26.6603V26.0919C25.672 25.6873 25.3442 25.3595 24.9396 25.3595C24.535 25.3595 24.2072 25.6873 24.2072 26.0919V26.7438C24.121 26.764 24.0342 26.7862 23.946 26.8127C22.9632 27.1088 22.2289 27.9492 22.0297 29.0061C21.8477 29.9717 22.1583 30.9039 22.8404 31.4389C23.1891 31.7124 23.6206 31.9631 24.2072 32.2265V36.1502C23.7121 36.106 23.3826 35.9743 22.8332 35.6149C22.4945 35.3935 22.0408 35.4883 21.8193 35.8269C21.5978 36.1654 21.6927 36.6193 22.0313 36.8407C22.8805 37.3962 23.4668 37.5707 24.2072 37.6189V38.2887C24.2072 38.6933 24.535 39.0211 24.9396 39.0211C25.3442 39.0211 25.672 38.6933 25.672 38.2887V37.5578C27.1775 37.24 28.0576 35.9887 28.2543 34.8189C28.5104 33.2956 27.7139 31.9714 26.2254 31.4451ZM23.7445 30.2864C23.4982 30.0931 23.3901 29.6972 23.4692 29.2775C23.5378 28.9142 23.7674 28.4823 24.2073 28.2778V30.5897C24.0348 30.4919 23.8779 30.3909 23.7445 30.2864ZM26.8097 34.576C26.7135 35.1491 26.3271 35.7569 25.6721 36.0267V32.8029C25.6941 32.8107 25.7149 32.8183 25.7372 32.8262C26.9343 33.2494 26.8607 34.2726 26.8097 34.576Z" fill="#3B3B3B"/>
</g>
<defs>
<clipPath id="clip0_211_2154">
<rect width="50" height="50" fill="white" transform="translate(0 0.5)"/>
</clipPath>
</defs>
</svg>
