<svg width="50" height="51" viewBox="0 0 50 51" fill="none" xmlns="http://www.w3.org/2000/svg">
<path d="M47.8931 21.6262H46.8553C47.2189 20.1644 47.3596 18.7039 47.2651 17.283C47.0548 14.1164 45.723 11.1446 43.5154 8.91504C41.2641 6.64131 38.3346 5.38916 35.2664 5.38916C30.9911 5.38916 27.1077 7.74121 24.9999 11.4953C22.8921 7.74121 19.0087 5.38916 14.7334 5.38916C11.6652 5.38916 8.73574 6.64131 6.48438 8.91504C4.27676 11.1445 2.94512 14.1163 2.73467 17.283C2.62451 18.9404 2.8334 20.6518 3.34424 22.3562H2.10693C0.945117 22.3563 0 23.3015 0 24.4632C0 25.625 0.945117 26.5701 2.10693 26.5701H5.24619C8.81475 32.3245 20.2479 42.2045 23.7229 45.1416C24.093 45.4544 24.5464 45.6107 25 45.6107C25.4535 45.6107 25.9071 45.4543 26.2771 45.1416C27.9542 43.7241 31.2895 40.8555 34.7846 37.5695C35.0796 37.2922 35.0939 36.8282 34.8165 36.5332C34.5392 36.2383 34.0752 36.2238 33.7802 36.5013C30.3097 39.7641 26.9966 42.6136 25.3305 44.0218C25.139 44.1837 24.8608 44.1837 24.6692 44.0218C18.0159 38.3983 10.1717 31.0948 7.004 26.5701H14.0402C14.7594 26.5701 15.4214 26.2093 15.8111 25.6048L16.4239 24.6541L18.2241 31.0613C18.4833 31.9838 19.3339 32.616 20.2903 32.598C21.2478 32.5809 22.0742 31.9188 22.3 30.9881L23.3072 26.8347L24.8941 34.658C25.0915 35.6313 25.9229 36.3253 26.9125 36.3455C26.9282 36.3459 26.9438 36.3461 26.9594 36.3461C27.9315 36.346 28.7727 35.6866 29.0049 34.7426L30.4938 28.6911C30.8162 29.1996 31.3491 29.5576 31.9602 29.6499C32.7659 29.7717 33.5769 29.4121 34.0281 28.7348L35.9565 25.84H43.4816C42.2236 27.8565 39.7912 30.6445 36.2417 34.1366C35.9531 34.4206 35.9492 34.8848 36.2333 35.1733C36.5172 35.4619 36.9813 35.4657 37.27 35.1817C41.1184 31.3957 43.7045 28.3853 44.9566 26.2341C45.0329 26.103 45.1072 25.9717 45.1798 25.8399H47.893C49.0548 25.8399 49.9999 24.8948 49.9999 23.733C50 22.5714 49.0549 21.6262 47.8931 21.6262ZM47.8931 24.3737H35.5642C35.3189 24.3737 35.0899 24.4963 34.954 24.7004L32.8079 27.9218C32.6707 28.1277 32.424 28.237 32.1791 28.2C31.9344 28.1631 31.7308 27.9857 31.6605 27.7483L31.0937 25.8338C30.9997 25.5164 30.706 25.3005 30.3736 25.309C30.0427 25.3167 29.7579 25.5453 29.6788 25.8668L27.5813 34.3922C27.5106 34.6792 27.2549 34.8797 26.9595 34.8798L26.946 34.8796C26.6441 34.8734 26.3913 34.6624 26.3312 34.3664L24.0896 23.3152C24.0213 22.9785 23.7284 22.7345 23.385 22.7279C23.0435 22.7186 22.7396 22.9543 22.6587 23.2881L20.8752 30.6423C20.8065 30.9253 20.5553 31.1267 20.2638 31.1319C19.969 31.1374 19.7146 30.9451 19.6357 30.6646L17.3953 22.6906C17.3173 22.413 17.0838 22.2069 16.7986 22.164C16.5134 22.121 16.2296 22.2493 16.0733 22.4917L14.5788 24.8103C14.4603 24.994 14.2589 25.1038 14.0402 25.1038H2.10693C1.75371 25.1038 1.46631 24.8164 1.46631 24.4632C1.46631 24.11 1.75371 23.8226 2.10693 23.8226H7.4123C7.81719 23.8226 8.14541 23.4943 8.14541 23.0895C8.14541 22.6846 7.81719 22.3563 7.4123 22.3563H4.88252C4.32559 20.6796 4.09043 18.9976 4.19785 17.3803C4.38486 14.5656 5.56699 11.9257 7.52646 9.94678C9.50029 7.95332 12.0598 6.85547 14.7336 6.85547C18.9225 6.85547 22.6857 9.44688 24.3212 13.4572C24.4337 13.7332 24.7021 13.9135 25 13.9135C25.2979 13.9135 25.5663 13.7331 25.6788 13.4572C27.3143 9.44678 31.0776 6.85547 35.2664 6.85547C37.9401 6.85547 40.4997 7.95332 42.4735 9.94678C44.433 11.9257 45.615 14.5656 45.8022 17.3803C45.894 18.7628 45.7354 20.1928 45.3397 21.6263H34.8287C34.1225 21.6263 33.467 21.9771 33.0753 22.565L33.0171 22.6523L32.2885 20.1914C32.0189 19.281 31.1658 18.6615 30.2191 18.6833C29.2702 18.7055 28.4491 19.3646 28.2224 20.2863L27.1571 24.6162L25.5556 16.7206C25.3578 15.7458 24.5251 15.0519 23.5286 15.0329L23.4904 15.0326C22.515 15.0326 21.6731 15.6948 21.4432 16.643L20.1029 22.1694L19.2156 19.0114C18.9918 18.215 18.3187 17.621 17.5004 17.4979C16.6825 17.3756 15.8645 17.745 15.4164 18.4399L12.8918 22.3564H10.7968C10.3919 22.3564 10.0637 22.6847 10.0637 23.0896C10.0637 23.4944 10.3919 23.8227 10.7968 23.8227H13.2915C13.5406 23.8227 13.7728 23.6961 13.9077 23.4867L16.6488 19.2343C16.7851 19.0229 17.0338 18.9109 17.2826 18.9479C17.5313 18.9853 17.736 19.1659 17.8041 19.4081L19.4492 25.2636C19.5394 25.5846 19.8369 25.8065 20.1682 25.7982C20.5016 25.7923 20.7889 25.5621 20.8675 25.2381L22.8681 16.9887C22.938 16.7003 23.1939 16.4989 23.4904 16.4989L23.5027 16.499C23.8052 16.5048 24.0584 16.7158 24.1186 17.0122L26.3697 28.1104C26.4379 28.4467 26.7302 28.6906 27.0731 28.6978C27.4189 28.7061 27.7182 28.473 27.8001 28.1399L29.6461 20.6367C29.715 20.3564 29.9647 20.1561 30.2535 20.1493C30.5442 20.1412 30.8006 20.3311 30.8825 20.6079L32.0559 24.5707C32.1366 24.8436 32.368 25.0449 32.6493 25.0875C32.9304 25.1298 33.2112 25.0059 33.3689 24.769L34.2955 23.3782C34.4146 23.1995 34.614 23.0928 34.8287 23.0928H47.8931C48.2463 23.0928 48.5337 23.3802 48.5337 23.7334C48.5337 24.0866 48.2463 24.3737 47.8931 24.3737Z" fill="#3B3B3B"/>
</svg>
