<svg width="50" height="51" viewBox="0 0 50 51" fill="none" xmlns="http://www.w3.org/2000/svg">
<g clip-path="url(#clip0_211_2192)">
<path d="M46.465 13.4041C44.0758 10.4351 40.7615 8.8 37.1328 8.8C36.4311 8.8 35.732 8.84863 35.046 8.94395C34.1931 4.1502 30.0128 0.5 25 0.5C21.7105 0.5 18.604 2.10771 16.6898 4.80059C16.4556 5.13027 16.5329 5.5874 16.8626 5.82178C17.1924 6.05605 17.6495 5.97881 17.8839 5.64912C19.5237 3.34209 22.184 1.96475 25 1.96475C29.8194 1.96475 33.7402 5.90713 33.7402 10.7529C33.7402 15.5987 29.8194 19.5411 25 19.5411C20.1806 19.5411 16.2598 15.5987 16.2598 10.7529C16.2598 9.85215 16.3946 8.96416 16.6605 8.11357C16.7812 7.72754 16.5661 7.3167 16.1801 7.196C15.794 7.07549 15.3832 7.29053 15.2625 7.67637C15.1325 8.09199 15.0311 8.51543 14.9551 8.94395C14.2687 8.84863 13.5692 8.7999 12.8671 8.7999C9.23848 8.7999 5.92412 10.4351 3.53486 13.404C1.25537 16.2368 0 20.0191 0 24.0544C0 28.2937 1.39561 32.5639 4.14824 36.7464C7.1543 41.3143 11.7139 45.6472 17.7001 49.6247C18.5757 50.2066 19.5603 50.5 20.5511 50.5C21.3852 50.5 22.2236 50.2921 23.0047 49.8734C23.8575 49.4163 24.5389 48.7632 25.0072 47.9833C25.9151 49.4871 27.5684 50.4951 29.453 50.4951C30.4586 50.4951 31.443 50.1941 32.2998 49.6247C37.5587 46.1305 41.7318 42.347 44.7033 38.3794C44.9458 38.0557 44.88 37.5967 44.5562 37.3542C44.2323 37.1117 43.7731 37.1777 43.5309 37.5015C40.6598 41.335 36.6083 45.0034 31.489 48.4049C30.873 48.8141 30.169 49.0305 29.4529 49.0305C27.6636 49.0305 25.7322 47.6133 25.7322 45.3238C25.7322 43.9974 26.4427 42.7707 27.5866 42.1225C29.724 40.9106 33.2729 38.2902 36.2404 34.8934C38.5843 32.2105 41.2516 28.2114 40.649 24.3951C40.2096 21.6134 39.0968 19.8843 37.3419 19.2555C33.7495 17.9686 28.5752 21.8939 25.8104 24.3484C25.3484 24.7588 24.6515 24.7588 24.1892 24.3484C21.5868 22.038 16.6881 18.2872 13.1185 19.12C11.6883 19.4539 10.6266 20.4515 9.9627 22.085C9.81035 22.4597 9.99072 22.8869 10.3655 23.0392C10.7403 23.1915 11.1675 23.011 11.3197 22.6364C11.8009 21.4525 12.4981 20.7688 13.4515 20.5463C16.489 19.8378 21.2921 23.7352 23.2166 25.4437C24.2332 26.3461 25.7663 26.3461 26.783 25.4437C27.9704 24.3896 29.7889 22.9058 31.7091 21.823C33.8587 20.611 35.6356 20.2001 36.8478 20.6343C38.0605 21.0687 38.8525 22.4109 39.202 24.6235C39.7165 27.8808 37.2755 31.482 35.1372 33.9297C32.2906 37.188 28.9015 39.6931 26.8642 40.8481C26.0837 41.2904 25.4472 41.9245 24.9997 42.6727C24.5522 41.9245 23.9157 41.2905 23.1354 40.8482C21.2339 39.7701 18.0276 37.4251 15.2492 34.3643C13.1667 32.0699 10.6919 28.6605 10.7291 25.4475C10.7337 25.0431 10.4097 24.7114 10.0052 24.7067C10.0022 24.7067 9.99932 24.7067 9.99648 24.7067C9.5959 24.7067 9.26894 25.0291 9.26435 25.4307C9.22168 29.1191 11.9056 32.8601 14.1646 35.3487C17.0596 38.538 20.4171 40.991 22.413 42.1226C23.5568 42.7708 24.2673 43.9975 24.2673 45.3239C24.2673 46.7082 23.5365 47.9265 22.3123 48.5826C21.0871 49.2393 19.6659 49.1729 18.5105 48.405C7.51856 41.1011 1.46484 32.4532 1.46484 24.0544C1.46484 16.193 6.3667 10.2646 12.8672 10.2646C13.5185 10.2646 14.1666 10.3104 14.8016 10.401C14.7977 10.5181 14.7949 10.6354 14.7949 10.7529C14.7949 16.4063 19.3729 21.0059 25 21.0059C30.6271 21.0059 35.2051 16.4064 35.2051 10.7529C35.2051 10.6351 35.2023 10.5179 35.1984 10.401C35.8334 10.3104 36.4815 10.2646 37.1328 10.2646C43.6332 10.2646 48.5352 16.193 48.5352 24.0544C48.5352 27.6713 47.4262 31.3448 45.2388 34.9728C45.0299 35.3191 45.1414 35.7692 45.4879 35.978C45.6062 36.0493 45.7366 36.0833 45.8653 36.0833C46.1136 36.0833 46.3557 35.957 46.4933 35.7289C48.8202 31.8695 50 27.9416 50 24.0544C50 20.0191 48.7446 16.2368 46.465 13.4041Z" fill="#3B3B3B"/>
<path d="M22.8842 9.5246C22.7348 9.14862 22.3091 8.96493 21.9331 9.11424C20.3285 9.75145 19.097 8.70243 19.0375 8.65047C18.7371 8.3827 18.2762 8.40731 18.0063 8.70692C17.7355 9.00731 17.7594 9.4704 18.0598 9.7412C18.1203 9.79559 19.2442 10.7868 20.8888 10.7868C21.3761 10.7868 21.9092 10.6997 22.4739 10.4755C22.8498 10.3262 23.0334 9.90047 22.8842 9.5246Z" fill="#3B3B3B"/>
<path d="M31.9956 8.70526C31.7246 8.40487 31.2634 8.37928 30.963 8.65008C30.9113 8.69539 29.677 9.7536 28.0669 9.11434C27.6908 8.96502 27.2652 9.14871 27.1158 9.52469C26.9666 9.90057 27.1503 10.3264 27.5262 10.4756C28.0909 10.6998 28.6237 10.7868 29.1112 10.7868C30.7558 10.7868 31.8799 9.79559 31.9403 9.74119C32.2406 9.47039 32.2665 9.00565 31.9956 8.70526Z" fill="#3B3B3B"/>
</g>
<defs>
<clipPath id="clip0_211_2192">
<rect width="50" height="50" fill="white" transform="translate(0 0.5)"/>
</clipPath>
</defs>
</svg>
