<svg width="50" height="51" viewBox="0 0 50 51" fill="none" xmlns="http://www.w3.org/2000/svg">
<g clip-path="url(#clip0_211_2225)">
<path d="M46.3379 0.5H32.4219C30.8064 0.5 29.4922 1.81426 29.4922 3.42969C29.4922 5.04512 30.8064 6.35938 32.4219 6.35938H39.9974L31.5333 14.8234C28.1141 12.2864 24.0631 10.9492 19.7754 10.9492C8.87119 10.9492 0 19.8204 0 30.7246C0 41.6288 8.87119 50.5 19.7754 50.5C30.6796 50.5 39.5508 41.6288 39.5508 30.7246C39.5508 26.4369 38.2136 22.3858 35.6765 18.9667L44.1406 10.5025V18.0781C44.1406 19.6936 45.4549 21.0078 47.0703 21.0078C48.6857 21.0078 50 19.6936 50 18.0781V4.16211C50 2.14277 48.3572 0.5 46.3379 0.5ZM48.5352 18.0781C48.5352 18.8858 47.878 19.543 47.0703 19.543C46.2626 19.543 45.6055 18.8858 45.6055 18.0781V8.73438C45.6055 8.43809 45.4271 8.17109 45.1533 8.05771C44.8796 7.94434 44.5647 8.00703 44.3551 8.2165L34.1865 18.385C33.9235 18.6479 33.8995 19.0665 34.1306 19.3579C36.7182 22.6212 38.0859 26.5518 38.0859 30.7246C38.0859 40.8211 29.8719 49.0352 19.7754 49.0352C9.67891 49.0352 1.46484 40.8211 1.46484 30.7246C1.46484 20.6281 9.67891 12.4141 19.7754 12.4141C23.9481 12.4141 27.8787 13.7817 31.1421 16.3693C31.4336 16.6004 31.8521 16.5764 32.1151 16.3133L42.2835 6.14482C42.493 5.93535 42.5556 5.62031 42.4422 5.34668C42.3289 5.07295 42.0617 4.89453 41.7655 4.89453H32.4219C31.6142 4.89453 30.957 4.2374 30.957 3.42969C30.957 2.62197 31.6142 1.96484 32.4219 1.96484H46.3379C47.5494 1.96484 48.5352 2.95049 48.5352 4.16211V18.0781Z" fill="#3B3B3B"/>
<path d="M19.7754 15.3438C16.2346 15.3438 12.7776 16.5769 10.0414 18.816C9.72832 19.0722 9.68223 19.5336 9.93838 19.8467C10.1945 20.1598 10.6561 20.2059 10.969 19.9497C13.4443 17.9241 16.5718 16.8086 19.7754 16.8086C27.4487 16.8086 33.6914 23.0513 33.6914 30.7246C33.6914 38.3979 27.4487 44.6406 19.7754 44.6406C12.1021 44.6406 5.85938 38.3979 5.85938 30.7246C5.85938 27.521 6.9749 24.3935 9.00049 21.9183C9.25664 21.6052 9.21055 21.1437 8.89756 20.8876C8.58457 20.6314 8.12305 20.6776 7.86689 20.9905C5.62764 23.7269 4.39453 27.1838 4.39453 30.7246C4.39453 39.2057 11.2943 46.1055 19.7754 46.1055C28.2564 46.1055 35.1562 39.2057 35.1562 30.7246C35.1562 22.2436 28.2564 15.3438 19.7754 15.3438Z" fill="#3B3B3B"/>
</g>
<defs>
<clipPath id="clip0_211_2225">
<rect width="50" height="50" fill="white" transform="translate(0 0.5)"/>
</clipPath>
</defs>
</svg>
