<svg width="50" height="51" viewBox="0 0 50 51" fill="none" xmlns="http://www.w3.org/2000/svg">
<g clip-path="url(#clip0_211_2255)">
<path d="M25 0.5C15.7112 0.5 8.1543 8.05693 8.1543 17.3457C8.1543 21.4438 9.64346 25.3935 12.3475 28.4669C14.8845 31.3506 18.3173 33.2768 22.0703 33.936V38.6836H19.043C17.4275 38.6836 16.1133 39.9979 16.1133 41.6133C16.1133 42.3958 16.4181 43.1315 16.9714 43.6849C17.5247 44.2382 18.2604 44.543 19.043 44.543H22.0703V47.5703C22.0703 49.1857 23.3846 50.5 25 50.5C26.6154 50.5 27.9297 49.1857 27.9297 47.5703V44.543H30.957C31.7396 44.543 32.4753 44.2382 33.0286 43.6849C33.5819 43.1314 33.8867 42.3958 33.8867 41.6133C33.8867 39.9979 32.5725 38.6836 30.957 38.6836H27.9297V33.9361C31.6827 33.2769 35.1154 31.3506 37.6525 28.467C40.3565 25.3935 41.8457 21.4438 41.8457 17.3457C41.8457 8.05693 34.2888 0.5 25 0.5ZM27.0982 32.5835C26.7354 32.633 26.4648 32.943 26.4648 33.3092V39.416C26.4648 39.8205 26.7927 40.1484 27.1973 40.1484H30.957C31.7647 40.1484 32.4219 40.8056 32.4219 41.6133C32.4219 42.0045 32.2694 42.3724 31.9928 42.6491C31.7161 42.9258 31.3483 43.0781 30.957 43.0781H27.1973C26.7927 43.0781 26.4648 43.4061 26.4648 43.8105V47.5703C26.4648 48.378 25.8077 49.0352 25 49.0352C24.1923 49.0352 23.5352 48.378 23.5352 47.5703V43.8105C23.5352 43.4061 23.2073 43.0781 22.8027 43.0781H19.043C18.6517 43.0781 18.2839 42.9258 18.0072 42.6491C17.7306 42.3724 17.5781 42.0045 17.5781 41.6133C17.5781 40.8056 18.2353 40.1484 19.043 40.1484H22.8027C23.2073 40.1484 23.5352 39.8205 23.5352 39.416V33.3092C23.5352 32.943 23.2646 32.633 22.9018 32.5835C15.3294 31.5508 9.61914 25 9.61914 17.3457C9.61914 8.86465 16.5189 1.96484 25 1.96484C33.4811 1.96484 40.3809 8.86465 40.3809 17.3457C40.3809 25 34.6706 31.5508 27.0982 32.5835Z" fill="#3B3B3B"/>
<path d="M25 4.89453C22.2065 4.89453 19.5663 5.79902 17.3649 7.51025C17.0455 7.7585 16.9879 8.21865 17.2361 8.53799C17.4844 8.85732 17.9446 8.91494 18.2639 8.6667C20.2059 7.15723 22.5352 6.35938 25 6.35938C31.0578 6.35938 35.9863 11.2878 35.9863 17.3457C35.9863 23.4036 31.0578 28.332 25 28.332C18.9422 28.332 14.0137 23.4036 14.0137 17.3457C14.0137 14.8808 14.8115 12.5515 16.3211 10.6096C16.5693 10.2901 16.5116 9.83008 16.1923 9.58184C15.873 9.33359 15.4129 9.39111 15.1646 9.71055C13.4533 11.9119 12.5488 14.5521 12.5488 17.3457C12.5488 24.2113 18.1344 29.7969 25 29.7969C31.8656 29.7969 37.4512 24.2113 37.4512 17.3457C37.4512 10.4801 31.8656 4.89453 25 4.89453Z" fill="#3B3B3B"/>
</g>
<defs>
<clipPath id="clip0_211_2255">
<rect width="50" height="50" fill="white" transform="translate(0 0.5)"/>
</clipPath>
</defs>
</svg>
