<svg width="50" height="51" viewBox="0 0 50 51" fill="none" xmlns="http://www.w3.org/2000/svg">
<g clip-path="url(#clip0_211_2274)">
<path d="M37.1794 13.5004C36.8562 13.2566 36.3965 13.321 36.1527 13.644C36.0581 13.7694 35.914 13.8413 35.7575 13.8413C35.6017 13.8413 35.4581 13.7699 35.3635 13.6456C35.1184 13.3234 34.6584 13.2609 34.3362 13.5058C34.014 13.7509 33.9514 14.2108 34.1964 14.5331C34.5707 15.0251 35.1396 15.3074 35.7574 15.3074C36.3689 15.3074 36.9542 15.0156 37.3229 14.5271C37.5668 14.2039 37.5025 13.7443 37.1794 13.5004Z" fill="#3B3B3B"/>
<path d="M38.846 17.0476C40.8755 15.9472 42.2569 13.7975 42.2569 11.3311C42.2569 7.74813 39.3419 4.83317 35.759 4.83317C32.176 4.83317 29.261 7.74813 29.261 11.3311C29.261 13.9259 30.7903 16.1693 32.9944 17.2101C32.923 17.266 32.837 17.3053 32.7411 17.3199L26.7099 18.2406V11.0804C26.7099 10.6756 26.3817 10.3473 25.9768 10.3473C25.5719 10.3473 25.2437 10.6755 25.2437 11.0804V48.066C25.2437 48.5523 24.8479 48.9481 24.3616 48.9481C23.8752 48.9481 23.4794 48.5523 23.4794 48.066V2.84829C23.4794 2.36192 23.8752 1.96617 24.3616 1.96617C24.8479 1.96617 25.2437 2.36192 25.2437 2.84829V7.65144C25.2437 8.05627 25.5718 8.38452 25.9768 8.38452C26.3816 8.38452 26.7099 8.05636 26.7099 7.65144V2.84829C26.7098 1.55343 25.6563 0.5 24.3616 0.5C23.0713 0.5 22.0211 1.54601 22.0137 2.83452C19.1271 1.81645 16.1687 2.00836 13.2037 3.41144C11.38 4.27462 8.54466 4.79577 6.62971 3.90055C6.17468 3.68793 5.64895 3.7227 5.22322 3.99363C4.79231 4.26788 4.53516 4.7359 4.53516 5.24581V14.9076C4.53516 15.3768 4.76008 15.8223 5.13698 16.0995C6.21844 16.8948 7.60648 17.2177 9.03749 17.2177C10.7189 17.2177 12.4595 16.7719 13.8309 16.1229C16.5949 14.8149 19.3452 14.7036 22.0133 15.7887V18.9539C21.2911 18.9779 20.6203 19.275 20.1157 19.7978C19.5894 20.3433 19.3144 21.0615 19.3413 21.8204C19.3919 23.2445 20.5768 24.4115 22.0133 24.4849V48.066C22.0133 49.3608 23.0667 50.4142 24.3616 50.4142C25.6564 50.4142 26.7099 49.3608 26.7099 48.066V24.4886H29.8849L29.8818 33.6585C29.8818 34.0633 30.2099 34.3916 30.6149 34.3916C31.0198 34.3916 31.3479 34.0634 31.3479 33.6585L31.3513 24.4392C31.3521 24.0611 31.2056 23.7054 30.9385 23.4377C30.6715 23.17 30.3162 23.0225 29.9379 23.0225H26.71V19.7237L32.9625 18.7692C33.6259 18.6679 34.1661 18.2575 34.4502 17.6966C34.8731 17.7835 35.3109 17.8291 35.7592 17.8291C36.2641 17.8291 36.7552 17.7693 37.2273 17.6597C37.5204 18.0676 37.9647 18.3664 38.4881 18.4695C41.6816 19.0985 43.9993 21.9214 43.9993 25.1814V33.9953C43.9993 34.7135 43.415 35.2977 42.6969 35.2977C41.9788 35.2977 41.3945 34.7135 41.3945 33.9953L41.3631 24.0673C41.3616 23.663 41.0338 23.3346 40.6287 23.3369C40.2244 23.3376 39.897 23.6656 39.897 24.07V47.2639C39.897 48.2398 39.1031 49.0337 38.1271 49.0337C37.1512 49.0337 36.3572 48.2398 36.3572 47.2637L36.3537 35.519C36.3536 35.1142 36.0254 34.7861 35.6206 34.7861C35.2157 34.7862 34.8876 35.1144 34.8876 35.5192V47.2639C34.8876 48.2398 34.0936 49.0337 33.1177 49.0337C32.1417 49.0337 31.3477 48.2398 31.3477 47.2639V37.0712C31.3477 36.6664 31.0196 36.3382 30.6147 36.3382C30.2097 36.3382 29.8816 36.6663 29.8816 37.0712V47.264C29.8816 49.0483 31.3332 50.5 33.1176 50.5C34.1261 50.5 35.0283 50.0363 35.6222 49.3108C36.2161 50.0362 37.1184 50.5 38.1269 50.5C39.9112 50.5 41.3629 49.0484 41.3629 47.264V36.4209C41.7587 36.6395 42.2134 36.7639 42.6967 36.7639C44.2232 36.7639 45.4652 35.522 45.4652 33.9954V25.1815C45.4653 21.2486 42.6859 17.841 38.846 17.0476ZM22.0133 23.0145C21.358 22.9457 20.8295 22.4133 20.8065 21.7683C20.7938 21.4106 20.9231 21.0724 21.1707 20.8158C21.3963 20.582 21.6928 20.4453 22.0133 20.4224V23.0145ZM22.0133 14.2195C19.1269 13.2017 16.1684 13.3948 13.2037 14.7977C9.91717 16.3531 7.09832 15.7221 6.00553 14.9184C6.00338 14.9169 6.00123 14.9127 6.00123 14.9077V5.24591C6.00123 5.23546 6.00875 5.23097 6.01012 5.2294C8.36691 6.3304 11.6361 5.77546 13.8308 4.73677C16.5949 3.42873 19.3452 3.31651 22.0132 4.40168L22.0133 14.2195ZM35.759 16.363C32.9843 16.363 30.7272 14.1057 30.7272 11.3311C30.7272 8.55651 32.9844 6.29924 35.759 6.29924C38.5335 6.29924 40.7908 8.55651 40.7908 11.3311C40.7908 14.1057 38.5335 16.363 35.759 16.363Z" fill="#3B3B3B"/>
</g>
<defs>
<clipPath id="clip0_211_2274">
<rect width="50" height="50" fill="white" transform="translate(0 0.5)"/>
</clipPath>
</defs>
</svg>
