<svg width="50" height="51" viewBox="0 0 50 51" fill="none" xmlns="http://www.w3.org/2000/svg">
<path d="M30.7919 42.1668H20.3753C16.6253 42.1668 9.54199 40.271 9.54199 33.0835C9.54199 25.896 16.6253 24.0002 20.3753 24.0002H29.6252C29.9377 24.0002 37.3336 23.896 37.3336 18.0418C37.3336 12.1877 29.9377 12.0835 29.6252 12.0835H19.2087C18.7943 12.0835 18.3968 11.9189 18.1038 11.6259C17.8108 11.3328 17.6462 10.9354 17.6462 10.521C17.6462 10.1066 17.8108 9.70916 18.1038 9.41614C18.3968 9.12312 18.7943 8.9585 19.2087 8.9585H29.6252C33.3752 8.9585 40.4586 10.8543 40.4586 18.0418C40.4586 25.2293 33.3752 27.1252 29.6252 27.1252H20.3753C20.0628 27.1252 12.667 27.2293 12.667 33.0835C12.667 38.9377 20.0628 39.0418 20.3753 39.0418H30.7919C31.2063 39.0418 31.6038 39.2064 31.8967 39.4995C32.1898 39.7925 32.3544 40.19 32.3544 40.6043C32.3544 41.0187 32.1898 41.4162 31.8967 41.7091C31.6038 42.0022 31.2063 42.1668 30.7919 42.1668Z" fill="#3B3B3B"/>
<path d="M13.4167 17.8126C11.9649 17.8002 10.5492 17.3584 9.34808 16.5429C8.14696 15.7273 7.21408 14.5745 6.66704 13.2297C6.11998 11.8848 5.98323 10.4082 6.27402 8.98574C6.56479 7.56332 7.2701 6.25878 8.30104 5.23653C9.33198 4.21426 10.6424 3.52003 12.0673 3.2413C13.4921 2.96257 14.9676 3.1118 16.3077 3.67022C17.6479 4.22863 18.7928 5.17122 19.5981 6.37922C20.4035 7.5872 20.8333 9.00655 20.8333 10.4584C20.8333 11.4294 20.6411 12.3909 20.2676 13.2872C19.8941 14.1836 19.3468 14.9971 18.6573 15.6808C17.9678 16.3645 17.1497 16.9049 16.2502 17.2708C15.3507 17.6367 14.3877 17.8208 13.4167 17.8126ZM13.4167 6.22924C12.5926 6.22924 11.787 6.47359 11.1018 6.93145C10.4166 7.38928 9.88254 8.04003 9.56717 8.80138C9.25181 9.56274 9.16929 10.4005 9.33006 11.2088C9.49083 12.017 9.88769 12.7594 10.4704 13.3422C11.0531 13.9249 11.7955 14.3217 12.6038 14.4825C13.4121 14.6433 14.2498 14.5608 15.0112 14.2454C15.7725 13.93 16.4233 13.396 16.8811 12.7108C17.339 12.0256 17.5833 11.22 17.5833 10.3959C17.5833 9.84872 17.4756 9.3069 17.2662 8.80138C17.0568 8.29586 16.7499 7.83653 16.363 7.44961C15.976 7.06272 15.5167 6.7558 15.0112 6.5464C14.5057 6.33701 13.9639 6.22924 13.4167 6.22924Z" fill="#3B3B3B"/>
<path d="M36.583 47.8958C35.1276 47.9 33.7037 47.4721 32.4916 46.6665C31.2795 45.8611 30.3337 44.714 29.7739 43.3704C29.2141 42.0271 29.0653 40.5477 29.3468 39.1198C29.6283 37.6919 30.327 36.3794 31.3547 35.349C32.3824 34.3183 33.6926 33.6158 35.1199 33.3304C36.547 33.0448 38.0268 33.1894 39.3718 33.7452C40.7168 34.3013 41.8666 35.244 42.6755 36.4538C43.4845 37.6635 43.9164 39.0863 43.9164 40.5417C43.9164 42.4885 43.1445 44.3558 41.7697 45.7344C40.3951 47.1131 38.5299 47.8902 36.583 47.8958ZM36.583 36.3125C35.7589 36.3125 34.9535 36.5569 34.2682 37.0148C33.583 37.4725 33.0489 38.1233 32.7335 38.8846C32.4182 39.6461 32.3357 40.4838 32.4964 41.2921C32.6572 42.1002 33.0541 42.8427 33.6368 43.4254C34.2195 44.0081 34.962 44.405 35.7701 44.5658C36.5785 44.7265 37.4162 44.644 38.1776 44.3286C38.9389 44.0133 39.5897 43.4792 40.0474 42.794C40.5053 42.1088 40.7497 41.3033 40.7497 40.4792C40.7497 39.3742 40.3108 38.3142 39.5293 37.5329C38.7478 36.7515 37.688 36.3125 36.583 36.3125Z" fill="#3B3B3B"/>
</svg>
