<svg width="50" height="51" viewBox="0 0 50 51" fill="none" xmlns="http://www.w3.org/2000/svg">
<path d="M38.6044 40.5834H11.2501C10.9227 40.5863 10.6028 40.4849 10.3369 40.2938C10.0709 40.103 9.87271 39.8322 9.77094 39.5209L3.12511 19.2501C3.02329 18.9586 3.01261 18.643 3.09448 18.3453C3.17633 18.0476 3.3469 17.7818 3.58344 17.5834C3.81706 17.3784 4.10721 17.2488 4.41579 17.2117C4.72436 17.1745 5.03698 17.2314 5.31261 17.3751L17.4376 23.4167L23.6877 11.2917C23.8319 11.05 24.0362 10.8499 24.2808 10.7109C24.5256 10.5719 24.8021 10.4988 25.0835 10.4988C25.365 10.4988 25.6414 10.5719 25.8862 10.7109C26.1308 10.8499 26.3352 11.05 26.4794 11.2917L32.7294 23.4376L44.8752 17.3959C45.1477 17.254 45.4566 17.198 45.7616 17.2352C46.0666 17.2724 46.3531 17.4011 46.5835 17.6042C46.7829 17.8228 46.9162 18.0935 46.9679 18.3849C47.0196 18.6762 46.9875 18.9763 46.8752 19.2501L40.0835 39.5001C39.9854 39.8153 39.7887 40.0905 39.5225 40.2855C39.2562 40.4805 38.9344 40.5849 38.6044 40.5834ZM12.5001 37.4584H37.5002L42.7294 21.8542L32.5835 26.8959C32.4019 26.9888 32.2035 27.0449 32 27.0605C31.7966 27.0763 31.5921 27.0513 31.3981 26.9874C31.2044 26.9234 31.0252 26.8217 30.871 26.688C30.7169 26.5542 30.5908 26.3913 30.5002 26.2084L25.0002 15.4167L19.5209 26.2084C19.4303 26.3913 19.3042 26.5542 19.15 26.688C18.9959 26.8217 18.8167 26.9234 18.6229 26.9874C18.4291 27.0513 18.2246 27.0763 18.0211 27.0605C17.8176 27.0449 17.6193 26.9888 17.4376 26.8959L7.25011 21.7917L12.5001 37.4584Z" fill="#3B3B3B"/>
<path d="M25.0001 31.1667C24.5874 31.1613 24.1931 30.9951 23.9012 30.7032C23.6093 30.4113 23.4431 30.017 23.4376 29.6042C23.4349 29.4001 23.4726 29.1974 23.5489 29.0078C23.6251 28.8184 23.7383 28.6459 23.8818 28.5007C24.0251 28.3553 24.196 28.2399 24.3845 28.1611C24.5728 28.0824 24.7751 28.0417 24.9793 28.0417C25.3937 28.0417 25.7912 28.2063 26.0841 28.4995C26.3772 28.7924 26.5418 29.1899 26.5418 29.6042C26.5418 30.0186 26.3772 30.4161 26.0841 30.709C25.7912 31.0022 25.3937 31.1667 24.9793 31.1667H25.0001Z" fill="#3B3B3B"/>
</svg>
