<svg width="50" height="51" viewBox="0 0 50 51" fill="none" xmlns="http://www.w3.org/2000/svg">
<path fill-rule="evenodd" clip-rule="evenodd" d="M8.33366 25.5001C8.33366 21.0798 10.0896 16.8406 13.2152 13.715C16.3408 10.5894 20.5801 8.83342 25.0003 8.83342C29.4205 8.83342 33.6599 10.5894 36.7855 13.715C39.911 16.8406 41.667 21.0798 41.667 25.5001C41.667 29.9203 39.911 34.1597 36.7855 37.2853C33.6599 40.4107 29.4205 42.1668 25.0003 42.1668C20.5801 42.1668 16.3408 40.4107 13.2152 37.2853C10.0896 34.1597 8.33366 29.9203 8.33366 25.5001ZM25.0003 4.66675C13.4941 4.66675 4.16699 13.9938 4.16699 25.5001C4.16699 37.0063 13.4941 46.3334 25.0003 46.3334C36.5066 46.3334 45.8337 37.0063 45.8337 25.5001C45.8337 13.9938 36.5066 4.66675 25.0003 4.66675ZM20.7649 31.2168C20.6262 30.6828 20.2814 30.2259 19.8061 29.9459C19.3309 29.6657 18.764 29.5857 18.2298 29.723C17.6956 29.8603 17.2376 30.204 16.9564 30.6784C16.6751 31.153 16.5935 31.7197 16.7295 32.2542C17.6441 35.9167 21.4232 38.0001 25.0003 38.0001C28.7191 38.0001 32.192 35.8918 33.2712 32.2501C33.3943 31.7197 33.3051 31.1624 33.0224 30.697C32.7397 30.2318 32.2862 29.8955 31.7587 29.7605C31.2312 29.6255 30.672 29.7022 30.2003 29.9745C29.7289 30.2465 29.3826 30.6926 29.2357 31.2168C28.6941 33.0293 26.7503 33.8334 25.0003 33.8334C23.2503 33.8334 21.3087 33.0313 20.7649 31.2168ZM21.8753 21.3334C21.8753 22.1622 21.5462 22.9572 20.9601 23.5432C20.374 24.1292 19.5791 24.4584 18.7503 24.4584C17.9215 24.4584 17.1267 24.1292 16.5406 23.5432C15.9546 22.9572 15.6253 22.1622 15.6253 21.3334C15.6253 20.5046 15.9546 19.7097 16.5406 19.1237C17.1267 18.5377 17.9215 18.2084 18.7503 18.2084C19.5791 18.2084 20.374 18.5377 20.9601 19.1237C21.5462 19.7097 21.8753 20.5046 21.8753 21.3334ZM31.2503 24.4584C32.0791 24.4584 32.8741 24.1292 33.4601 23.5432C34.0462 22.9572 34.3753 22.1622 34.3753 21.3334C34.3753 20.5046 34.0462 19.7097 33.4601 19.1237C32.8741 18.5377 32.0791 18.2084 31.2503 18.2084C30.4216 18.2084 29.6266 18.5377 29.0405 19.1237C28.4545 19.7097 28.1253 20.5046 28.1253 21.3334C28.1253 22.1622 28.4545 22.9572 29.0405 23.5432C29.6266 24.1292 30.4216 24.4584 31.2503 24.4584Z" fill="#3B3B3B"/>
</svg>
