<svg width="50" height="51" viewBox="0 0 50 51" fill="none" xmlns="http://www.w3.org/2000/svg">
<path d="M19.1025 21.9615C16.0442 16.9108 9.9234 12.3735 4.2476 12.2223C2.12236 12.2032 1.15902 13.0019 0.724482 13.673C-0.186111 15.0795 -0.238561 16.6146 0.568501 18.2354C0.972275 19.0461 1.58839 19.8832 2.30042 20.7502C2.07167 20.9553 1.90524 21.1724 1.78471 21.374C0.850674 22.9352 1.59454 25.0667 3.93456 27.5933C3.8071 27.7466 3.70796 27.8987 3.631 28.0401C3.12281 28.9731 2.27102 31.389 5.33009 33.6645C5.89083 34.0817 6.49737 34.4646 7.142 34.8089C7.21574 35.6274 7.6998 36.7243 9.47049 37.5914C10.983 38.3321 13.2052 38.7738 15.4176 38.7738H15.4331C18.6774 38.8712 24.119 37.444 23.4302 32.6636C23.1069 30.423 22.0938 26.7474 19.1025 21.9615ZM18.6111 35.3929C16.6406 36.1948 11.53 35.8879 10.0999 34.5316C10.2403 34.1968 10.252 33.8203 10.1299 33.4756C9.99587 33.0972 9.71253 32.7905 9.34596 32.6269C8.51487 32.2562 7.75225 31.8142 7.0791 31.3135C5.76073 30.3327 6.0261 29.7704 6.19332 29.4618C6.2318 29.4322 6.35721 29.3644 6.60627 29.3118C7.14298 29.1982 7.57127 28.7943 7.71602 28.2651C7.86077 27.736 7.69785 27.1702 7.29378 26.7993C4.91978 24.6198 4.37828 23.2905 4.32876 22.8976C4.41081 22.8657 4.56796 22.8217 4.8388 22.8015C6.02649 22.7258 6.62571 21.2695 5.83603 20.3798C3.19284 17.3362 2.53678 16.3328 3.15192 15.3172C3.32167 15.2235 4.04942 15.0165 5.50532 15.2864C8.62036 15.8639 13.3998 18.3654 16.618 23.5146C19.3388 27.8677 20.2472 31.1201 20.5303 33.082C20.5988 33.5589 20.7599 34.6759 18.6111 35.3929Z" fill="#3B3B3B"/>
<path d="M49.275 13.673C48.8676 13.0044 47.7969 12.1879 45.7519 12.2222C35.2778 12.7408 27.8394 24.3955 26.5694 32.6637C25.8801 37.4466 31.3276 38.8713 34.5665 38.7738H34.582C37.6894 38.7829 42.563 37.7977 42.8576 34.8089C43.5023 34.4646 44.1088 34.0817 44.6695 33.6645C47.7286 31.3888 46.8769 28.973 46.3687 28.0403C46.2918 27.8988 46.1925 27.7466 46.0651 27.5933C48.4051 25.0666 49.1489 22.9352 48.2149 21.374C48.0944 21.1724 47.928 20.9553 47.6992 20.7502C48.4112 19.8832 49.0274 19.0461 49.4311 18.2354C50.2381 16.6146 50.1856 15.0795 49.275 13.673ZM44.1637 20.3799C43.3737 21.27 43.9737 22.726 45.1609 22.8016C45.4317 22.8218 45.5889 22.8658 45.671 22.8977C45.6213 23.2905 45.0798 24.6198 42.7059 26.7994C42.3018 27.1703 42.1389 27.7361 42.2837 28.2652C42.4285 28.7944 42.8567 29.1983 43.3934 29.3119C43.6424 29.3645 43.7679 29.4323 43.8064 29.4619C43.9735 29.7702 44.2395 30.3325 42.9206 31.3135C42.2475 31.8143 41.4848 32.2562 40.6538 32.627C40.2872 32.7905 40.0053 33.1005 39.8712 33.4788C39.7499 33.8213 39.7618 34.1977 39.8999 34.5314C38.4735 35.8878 33.3525 36.1946 31.3884 35.3929C29.2396 34.6759 29.4007 33.5589 29.4696 33.082C29.7525 31.1201 30.661 27.8677 33.3818 23.5146C36.6 18.3654 41.3796 15.8639 44.4945 15.2864C45.2506 15.1272 46.4248 15.0879 46.8479 15.3172C47.4629 16.3328 46.8069 17.3362 44.1637 20.3799Z" fill="#3B3B3B"/>
</svg>
