<svg width="50" height="51" viewBox="0 0 50 51" fill="none" xmlns="http://www.w3.org/2000/svg">
<g clip-path="url(#clip0_295_2582)">
<path d="M49.0356 24.1233L37.7811 20.0309L40.5109 11.8422C40.6864 11.3158 40.5495 10.7352 40.1569 10.3431C39.7648 9.95053 39.1842 9.81358 38.6578 9.98906L30.4691 12.7189L26.3767 1.46436C26.1662 0.885284 25.6161 0.5 25 0.5C24.3839 0.5 23.8338 0.885284 23.6233 1.46436L19.5309 12.7189L11.3422 9.98906C10.8158 9.81358 10.2356 9.95091 9.84306 10.3431C9.45053 10.7352 9.31358 11.3158 9.48906 11.8422L12.2189 20.0309L0.964355 24.1233C0.385284 24.3338 0 24.8839 0 25.5C0 26.1161 0.385284 26.6662 0.964355 26.8767L12.2189 30.9691L9.48906 39.1581C9.31358 39.6842 9.45053 40.2648 9.84306 40.6569C10.2356 41.0495 10.8158 41.1864 11.3422 41.0109L19.5309 38.2815L23.6233 49.536C23.8338 50.1147 24.3839 50.5 25 50.5C25.6161 50.5 26.1662 50.1147 26.3767 49.5356L30.4691 38.2811L38.6581 41.0109C39.1842 41.1864 39.7648 41.0495 40.1569 40.6569C40.5495 40.2648 40.6864 39.6842 40.5109 39.1578L37.7815 30.9691L49.036 26.8767C49.6147 26.6662 50 26.1161 50 25.5C50 24.8839 49.6147 24.3338 49.0356 24.1233ZM36.805 13.695L35.0269 19.0291L32.4192 18.0808L31.4709 15.4731L36.805 13.695ZM18.5291 15.4731L17.5808 18.0808L14.9731 19.0291L13.195 13.695L18.5291 15.4731ZM13.195 37.305L14.9731 31.9709L17.5808 32.9192L18.5291 35.5269L13.195 37.305ZM31.4709 35.5269L32.4192 32.9192L35.0269 31.9709L36.805 37.305L31.4709 35.5269ZM30.7755 30.3996C30.3684 30.5476 30.0476 30.8684 29.8996 31.2755L25 44.7486L20.1004 31.2755C19.9524 30.868 19.6316 30.5472 19.2245 30.3992L5.75142 25.5L19.2245 20.6004C19.632 20.4524 19.9528 20.1316 20.1008 19.7245L25 6.25142L29.8996 19.7245C30.0476 20.132 30.3684 20.4528 30.7755 20.6008L44.2486 25.5L30.7755 30.3996Z" fill="#3B3B3B"/>
</g>
<defs>
<clipPath id="clip0_295_2582">
<rect width="50" height="50" fill="white" transform="translate(0 0.5)"/>
</clipPath>
</defs>
</svg>
