<svg width="51" height="50" viewBox="0 0 51 50" fill="none" xmlns="http://www.w3.org/2000/svg">
<g clip-path="url(#clip0_1000_12181)">
<path d="M19.7275 21.4617C16.6692 16.411 10.5484 11.8736 4.8726 11.7224C2.74736 11.7034 1.78402 12.5021 1.34948 13.1732C0.438889 14.5797 0.386439 16.1147 1.1935 17.7356C1.59728 18.5463 2.21339 19.3834 2.92542 20.2504C2.69667 20.4555 2.53024 20.6726 2.40971 20.8742C1.47567 22.4354 2.21954 24.5669 4.55956 27.0935C4.4321 27.2468 4.33296 27.3988 4.256 27.5403C3.74781 28.4733 2.89602 30.8891 5.95509 33.1647C6.51583 33.5819 7.12237 33.9648 7.767 34.3091C7.84074 35.1276 8.3248 36.2245 10.0955 37.0916C11.608 37.8323 13.8302 38.274 16.0426 38.274H16.0581C19.3024 38.3714 24.744 36.9442 24.0552 32.1638C23.7319 29.9232 22.7188 26.2476 19.7275 21.4617ZM19.2361 34.8931C17.2656 35.695 12.155 35.3881 10.7249 34.0318C10.8653 33.697 10.877 33.3205 10.7549 32.9758C10.6209 32.5974 10.3375 32.2906 9.97096 32.1271C9.13987 31.7564 8.37725 31.3144 7.7041 30.8136C6.38573 29.8329 6.6511 29.2706 6.81832 28.962C6.8568 28.9324 6.98221 28.8646 7.23127 28.812C7.76798 28.6984 8.19627 28.2945 8.34102 27.7653C8.48577 27.2362 8.32285 26.6704 7.91878 26.2995C5.54478 24.12 5.00328 22.7907 4.95376 22.3978C5.03581 22.3659 5.19296 22.3219 5.4638 22.3017C6.65149 22.226 7.25071 20.7697 6.46103 19.88C3.81784 16.8363 3.16178 15.833 3.77692 14.8174C3.94667 14.7237 4.67442 14.5166 6.13032 14.7866C9.24536 15.3641 14.0248 17.8656 17.243 23.0148C19.9638 27.3679 20.8722 30.6203 21.1553 32.5822C21.2238 33.0591 21.3849 34.1761 19.2361 34.8931Z" fill="#240028"/>
<path d="M49.9 13.1731C49.4926 12.5045 48.4219 11.688 46.3769 11.7224C35.9028 12.2409 28.4644 23.8956 27.1944 32.1638C26.5051 36.9468 31.9526 38.3714 35.1915 38.2739H35.207C38.3144 38.283 43.188 37.2978 43.4826 34.309C44.1273 33.9647 44.7338 33.5818 45.2945 33.1646C48.3536 30.889 47.5019 28.4732 46.9937 27.5404C46.9168 27.399 46.8175 27.2467 46.6901 27.0934C49.0301 24.5667 49.7739 22.4353 48.8399 20.8741C48.7194 20.6725 48.553 20.4554 48.3242 20.2503C49.0362 19.3833 49.6524 18.5462 50.0561 17.7355C50.8631 16.1148 50.8106 14.5797 49.9 13.1731ZM44.7887 19.88C43.9987 20.7701 44.5987 22.2261 45.7859 22.3017C46.0567 22.3219 46.2139 22.3659 46.296 22.3978C46.2463 22.7906 45.7048 24.1199 43.3309 26.2995C42.9268 26.6704 42.7639 27.2362 42.9087 27.7653C43.0535 28.2945 43.4817 28.6984 44.0184 28.812C44.2674 28.8646 44.3929 28.9324 44.4314 28.962C44.5985 29.2704 44.8645 29.8326 43.5456 30.8137C42.8725 31.3144 42.1098 31.7563 41.2788 32.1272C40.9122 32.2907 40.6303 32.6007 40.4962 32.9789C40.3749 33.3214 40.3868 33.6978 40.5249 34.0316C39.0985 35.3879 33.9775 35.6947 32.0134 34.893C29.8646 34.176 30.0257 33.059 30.0946 32.5821C30.3775 30.6202 31.286 27.3678 34.0068 23.0147C37.225 17.8655 42.0046 15.3641 45.1195 14.7865C45.8756 14.6273 47.0498 14.5881 47.4729 14.8173C48.0879 15.8329 47.4319 16.8364 44.7887 19.88Z" fill="#240028"/>
</g>
<defs>
<clipPath id="clip0_1000_12181">
<rect width="50" height="50" fill="white" transform="translate(0.625)"/>
</clipPath>
</defs>
</svg>
