<svg width="41" height="40" viewBox="0 0 41 40" fill="none" xmlns="http://www.w3.org/2000/svg">
<path d="M25.5077 33.3333H17.1745C14.1745 33.3333 8.50781 31.8167 8.50781 26.0667C8.50781 20.3167 14.1745 18.8 17.1745 18.8H24.5744C24.8244 18.8 30.7411 18.7167 30.7411 14.0333C30.7411 9.35 24.8244 9.26666 24.5744 9.26666H16.2411C15.9096 9.26666 15.5917 9.13496 15.3573 8.90055C15.1228 8.66613 14.9911 8.34818 14.9911 8.01666C14.9911 7.68515 15.1228 7.3672 15.3573 7.13278C15.5917 6.89836 15.9096 6.76666 16.2411 6.76666H24.5744C27.5744 6.76666 33.2411 8.28333 33.2411 14.0333C33.2411 19.7833 27.5744 21.3 24.5744 21.3H17.1745C16.9245 21.3 11.0078 21.3833 11.0078 26.0667C11.0078 30.75 16.9245 30.8333 17.1745 30.8333H25.5077C25.8392 30.8333 26.1572 30.965 26.3916 31.1995C26.6261 31.4338 26.7577 31.7518 26.7577 32.0833C26.7577 32.4148 26.6261 32.7328 26.3916 32.9672C26.1572 33.2017 25.8392 33.3333 25.5077 33.3333Z" fill="#240028"/>
<path d="M11.6077 13.85C10.4463 13.8401 9.3138 13.4867 8.35288 12.8343C7.39198 12.1818 6.64568 11.2596 6.20805 10.1837C5.7704 9.10784 5.661 7.92651 5.89363 6.78856C6.12625 5.65062 6.6905 4.60699 7.51525 3.78919C8.34 2.97137 9.38836 2.41599 10.5282 2.193C11.6681 1.97002 12.8485 2.0894 13.9206 2.53614C14.9927 2.98287 15.9086 3.73694 16.5529 4.70334C17.1972 5.66972 17.541 6.80521 17.5411 7.96669C17.5411 8.74352 17.3873 9.51267 17.0885 10.2297C16.7897 10.9468 16.3519 11.5976 15.8003 12.1446C15.2486 12.6916 14.5941 13.1239 13.8746 13.4166C13.155 13.7093 12.3846 13.8566 11.6077 13.85ZM11.6077 4.58335C10.9485 4.58335 10.304 4.77884 9.75585 5.14512C9.20768 5.51139 8.78045 6.03199 8.52815 6.64107C8.27586 7.25016 8.20985 7.92037 8.33846 8.56699C8.46708 9.21359 8.78456 9.80752 9.25073 10.2737C9.71691 10.7399 10.3108 11.0574 10.9574 11.186C11.6041 11.3146 12.2743 11.2486 12.8834 10.9963C13.4924 10.744 14.013 10.3167 14.3793 9.76859C14.7456 9.22042 14.9411 8.57596 14.9411 7.91669C14.9411 7.47894 14.8549 7.04549 14.6873 6.64107C14.5198 6.23666 14.2743 5.86919 13.9648 5.55965C13.6552 5.25014 13.2878 5.0046 12.8834 4.83709C12.4789 4.66957 12.0455 4.58335 11.6077 4.58335Z" fill="#240028"/>
<path d="M30.1412 37.9167C28.9769 37.92 27.8377 37.5777 26.8681 36.9332C25.8984 36.2889 25.1417 35.3712 24.6939 34.2964C24.2461 33.2217 24.1271 32.0382 24.3522 30.8959C24.5774 29.7535 25.1364 28.7035 25.9586 27.8792C26.7807 27.0547 27.8289 26.4927 28.9707 26.2644C30.1124 26.0359 31.2962 26.1515 32.3722 26.5962C33.4482 27.041 34.3681 27.7952 35.0152 28.763C35.6624 29.7309 36.0079 30.869 36.0079 32.0334C36.0079 33.5909 35.3904 35.0847 34.2906 36.1875C33.1909 37.2905 31.6987 37.9122 30.1412 37.9167ZM30.1412 28.65C29.4819 28.65 28.8376 28.8455 28.2894 29.2119C27.7412 29.578 27.3139 30.0987 27.0616 30.7077C26.8094 31.3169 26.7434 31.987 26.8719 32.6337C27.0006 33.2802 27.3181 33.8742 27.7842 34.3404C28.2504 34.8065 28.8444 35.124 29.4909 35.2527C30.1376 35.3812 30.8077 35.3152 31.4169 35.0629C32.0259 34.8107 32.5466 34.3834 32.9127 33.8352C33.2791 33.287 33.4746 32.6427 33.4746 31.9834C33.4746 31.0994 33.1234 30.2514 32.4982 29.6264C31.8731 29.0012 31.0252 28.65 30.1412 28.65Z" fill="#240028"/>
</svg>
