<svg width="51" height="50" viewBox="0 0 51 50" fill="none" xmlns="http://www.w3.org/2000/svg">
<g clip-path="url(#clip0_1000_12186)">
<path d="M49.4106 23.6233L38.1561 19.5309L40.8859 11.3422C41.0614 10.8158 40.9245 10.2352 40.5319 9.84306C40.1398 9.45053 39.5592 9.31358 39.0328 9.48906L30.8441 12.2189L26.7517 0.964355C26.5412 0.385284 25.9911 0 25.375 0C24.7589 0 24.2088 0.385284 23.9983 0.964355L19.9059 12.2189L11.7172 9.48906C11.1908 9.31358 10.6106 9.45091 10.2181 9.84306C9.82553 10.2352 9.68858 10.8158 9.86406 11.3422L12.5939 19.5309L1.33936 23.6233C0.760284 23.8338 0.375 24.3839 0.375 25C0.375 25.6161 0.760284 26.1662 1.33936 26.3767L12.5939 30.4691L9.86406 38.6581C9.68858 39.1842 9.82553 39.7648 10.2181 40.1569C10.6106 40.5495 11.1908 40.6864 11.7172 40.5109L19.9059 37.7815L23.9983 49.036C24.2088 49.6147 24.7589 50 25.375 50C25.9911 50 26.5412 49.6147 26.7517 49.0356L30.8441 37.7811L39.0331 40.5109C39.5592 40.6864 40.1398 40.5495 40.5319 40.1569C40.9245 39.7648 41.0614 39.1842 40.8859 38.6578L38.1565 30.4691L49.411 26.3767C49.9897 26.1662 50.375 25.6161 50.375 25C50.375 24.3839 49.9897 23.8338 49.4106 23.6233ZM37.18 13.195L35.4019 18.5291L32.7942 17.5808L31.8459 14.9731L37.18 13.195ZM18.9041 14.9731L17.9558 17.5808L15.3481 18.5291L13.57 13.195L18.9041 14.9731ZM13.57 36.805L15.3481 31.4709L17.9558 32.4192L18.9041 35.0269L13.57 36.805ZM31.8459 35.0269L32.7942 32.4192L35.4019 31.4709L37.18 36.805L31.8459 35.0269ZM31.1505 29.8996C30.7434 30.0476 30.4226 30.3684 30.2746 30.7755L25.375 44.2486L20.4754 30.7755C20.3274 30.368 20.0066 30.0472 19.5995 29.8992L6.12642 25L19.5995 20.1004C20.007 19.9524 20.3278 19.6316 20.4758 19.2245L25.375 5.75142L30.2746 19.2245C30.4226 19.632 30.7434 19.9528 31.1505 20.1008L44.6236 25L31.1505 29.8996Z" fill="#240028"/>
</g>
<defs>
<clipPath id="clip0_1000_12186">
<rect width="50" height="50" fill="white" transform="translate(0.375)"/>
</clipPath>
</defs>
</svg>
