<svg width="96" height="100" viewBox="0 0 96 100" fill="none" xmlns="http://www.w3.org/2000/svg">
<g opacity="0.5" clip-path="url(#clip0_997_2991)">
<path d="M4.49463 8.34285C4.40417 8.34285 4.30806 8.30885 4.24021 8.23518L-46.9261 -46.3148C-47.0561 -46.4565 -47.0504 -46.6775 -46.9091 -46.8078C-46.7678 -46.9382 -46.5473 -46.9325 -46.4172 -46.7908L4.74904 7.75916C4.87908 7.90083 4.87342 8.12184 4.73208 8.25218C4.66424 8.31452 4.57943 8.34853 4.49463 8.34853V8.34285Z" fill="url(#paint0_linear_997_2991)"/>
<path d="M4.49425 8.34853C4.39248 8.34853 4.29072 8.30319 4.22287 8.21819L-52.6763 -63.5253C-52.795 -63.6783 -52.7724 -63.8937 -52.6198 -64.0183C-52.4671 -64.1373 -52.2523 -64.1147 -52.1279 -63.9617L4.77694 7.78184C4.89566 7.93484 4.87305 8.15018 4.72039 8.27486C4.6582 8.32586 4.57906 8.34853 4.50556 8.34853H4.49425Z" fill="url(#paint1_linear_997_2991)"/>
<path d="M4.49413 8.34286C4.38106 8.34286 4.27364 8.28619 4.2058 8.18985L-37.2813 -54.0785C-37.3887 -54.2372 -37.3435 -54.4582 -37.1852 -54.5602C-37.0269 -54.6679 -36.8064 -54.6225 -36.7046 -54.4639L4.78247 7.79884C4.88989 7.95752 4.84466 8.17852 4.68636 8.28053C4.62416 8.32019 4.56198 8.3372 4.49413 8.3372V8.34286Z" fill="url(#paint2_linear_997_2991)"/>
<path d="M4.49429 8.34852C4.36991 8.34852 4.25117 8.28618 4.18898 8.16717L-40.1193 -72.0031C-40.2098 -72.1731 -40.1532 -72.3828 -39.9836 -72.4791C-39.814 -72.5698 -39.6048 -72.5131 -39.5087 -72.3431L4.80524 7.82715C4.89571 7.99716 4.83916 8.20684 4.66955 8.30318C4.61867 8.33151 4.55648 8.34852 4.49994 8.34852H4.49429Z" fill="url(#paint3_linear_997_2991)"/>
<path d="M4.49463 8.34283C4.3646 8.34283 4.23456 8.26349 4.17802 8.13882L-26.4878 -60.1308C-26.567 -60.3065 -26.4878 -60.5162 -26.3126 -60.5955C-26.1373 -60.6749 -25.9281 -60.5955 -25.8489 -60.4199L4.81689 7.84981C4.89604 8.02548 4.81689 8.23515 4.64162 8.31449C4.5964 8.33716 4.54551 8.34283 4.50028 8.34283H4.49463Z" fill="url(#paint4_linear_997_2991)"/>
<path d="M4.49462 8.34851C4.35327 8.34851 4.21758 8.25784 4.1667 8.11617L-26.3408 -78.2877C-26.403 -78.4691 -26.3126 -78.6674 -26.126 -78.7354C-25.9451 -78.7978 -25.7472 -78.7071 -25.6794 -78.5201L4.82818 7.87815C4.89038 8.05949 4.79991 8.25784 4.61334 8.32584C4.57376 8.33717 4.53419 8.34851 4.49462 8.34851Z" fill="url(#paint5_linear_997_2991)"/>
<path d="M4.49404 8.34285C4.34139 8.34285 4.20004 8.24084 4.15481 8.08218L-14.853 -64.3244C-14.9039 -64.5114 -14.7908 -64.7041 -14.6043 -64.7494C-14.4177 -64.8004 -14.2255 -64.6871 -14.1802 -64.5L4.82761 7.90649C4.87849 8.0935 4.76542 8.28618 4.57884 8.33151C4.55058 8.33718 4.51666 8.34285 4.48839 8.34285H4.49404Z" fill="url(#paint6_linear_997_2991)"/>
<path d="M4.49394 8.34853C4.32998 8.34853 4.18298 8.22951 4.14906 8.0595L-11.7153 -82.2036C-11.7492 -82.3963 -11.6192 -82.5719 -11.4326 -82.6059C-11.2404 -82.6399 -11.0651 -82.5153 -11.0312 -82.3226L4.83315 7.9405C4.86708 8.13318 4.74269 8.30885 4.55047 8.34285C4.52785 8.34285 4.5109 8.34285 4.48829 8.34285L4.49394 8.34853Z" fill="url(#paint7_linear_997_2991)"/>
<path d="M4.49454 8.34284C4.31927 8.34284 4.16662 8.20683 4.14966 8.02549L-2.6744 -66.5345C-2.69136 -66.7272 -2.55001 -66.8972 -2.35779 -66.9142C-2.17121 -66.9312 -1.99595 -66.7895 -1.97899 -66.5968L4.84506 7.96316C4.86203 8.15583 4.72068 8.32584 4.52846 8.34284C4.51715 8.34284 4.50584 8.34284 4.49454 8.34284Z" fill="url(#paint8_linear_997_2991)"/>
<path d="M4.49393 8.34852C4.30171 8.34852 4.1434 8.18984 4.1434 7.99716L4.05859 -83.6486C4.05859 -83.8413 4.2169 -84 4.40912 -84C4.60135 -84 4.75966 -83.8413 4.75966 -83.6486L4.84446 7.99716C4.84446 8.18984 4.68616 8.34852 4.49393 8.34852Z" fill="url(#paint9_linear_997_2991)"/>
<path d="M4.49472 8.34286C4.49472 8.34286 4.47775 8.34286 4.46645 8.34286C4.27422 8.32586 4.13288 8.16151 4.14419 7.96884L9.68484 -66.6988C9.7018 -66.8915 9.87141 -67.0332 10.058 -67.0218C10.2502 -67.0048 10.3916 -66.8405 10.3803 -66.6478L4.83959 8.01984C4.82829 8.20119 4.67564 8.34286 4.49472 8.34286Z" fill="url(#paint10_linear_997_2991)"/>
<path d="M4.49479 8.34853C4.49479 8.34853 4.46087 8.34853 4.43825 8.34853C4.24602 8.3202 4.11599 8.13885 4.14991 7.95184L18.4595 -82.5776C18.4878 -82.7703 18.6687 -82.8949 18.8553 -82.8666C19.0475 -82.8383 19.1775 -82.6569 19.1436 -82.4699L4.83401 8.05385C4.80574 8.22385 4.65875 8.34853 4.48914 8.34853H4.49479Z" fill="url(#paint11_linear_997_2991)"/>
<path d="M4.49469 8.34284C4.49469 8.34284 4.43815 8.34284 4.40988 8.3315C4.22331 8.28617 4.11023 8.09917 4.15546 7.91216L21.9138 -64.8117C21.9591 -64.9987 22.1456 -65.1121 22.3322 -65.0667C22.5188 -65.0214 22.6319 -64.8344 22.5866 -64.6474L4.82826 8.0765C4.78868 8.23517 4.64734 8.34284 4.48904 8.34284H4.49469Z" fill="url(#paint12_linear_997_2991)"/>
<path d="M4.49446 8.34851C4.46054 8.34851 4.42097 8.3485 4.38139 8.3315C4.20047 8.26917 4.09871 8.07082 4.1609 7.88949L33.1815 -79.0301C33.2437 -79.2114 33.4416 -79.3134 33.6225 -79.2511C33.8034 -79.1888 33.9052 -78.9904 33.843 -78.8091L4.82803 8.10483C4.77715 8.25217 4.64146 8.34284 4.50012 8.34284L4.49446 8.34851Z" fill="url(#paint13_linear_997_2991)"/>
<path d="M4.49483 8.34286C4.4496 8.34286 4.40437 8.33152 4.35914 8.31452C4.18387 8.24085 4.09907 8.03117 4.17822 7.8555L33.6624 -60.9355C33.7359 -61.1112 33.9451 -61.1962 34.1204 -61.1169C34.2957 -61.0432 34.3805 -60.8335 34.3013 -60.6579L4.81709 8.13318C4.76055 8.26352 4.63052 8.34286 4.49483 8.34286Z" fill="url(#paint14_linear_997_2991)"/>
<path d="M4.49423 8.34851C4.4377 8.34851 4.38115 8.33717 4.33027 8.30884C4.16066 8.21816 4.09847 8.00848 4.18893 7.83848L47.1121 -73.0911C47.2025 -73.2612 47.4117 -73.3235 47.5813 -73.2328C47.7509 -73.1421 47.8131 -72.9325 47.7227 -72.7625L4.79953 8.1615C4.73734 8.2805 4.61862 8.34851 4.49423 8.34851Z" fill="url(#paint15_linear_997_2991)"/>
<path d="M4.49407 8.34285C4.43187 8.34285 4.36403 8.32585 4.30749 8.28618C4.14353 8.18418 4.09831 7.96316 4.20573 7.80449L44.6129 -55.1666C44.7147 -55.3309 44.9352 -55.3763 45.0935 -55.2686C45.2575 -55.1666 45.3027 -54.9456 45.1953 -54.7869L4.78806 8.18417C4.72022 8.28618 4.60714 8.34285 4.49407 8.34285Z" fill="url(#paint16_linear_997_2991)"/>
<path d="M4.49428 8.34851C4.42078 8.34851 4.34728 8.32584 4.28509 8.27484C4.13244 8.15583 4.10417 7.94049 4.2229 7.78748L59.8839 -64.9251C60.0026 -65.0781 60.2175 -65.1064 60.3701 -64.9874C60.5228 -64.8684 60.551 -64.6531 60.4323 -64.5001L4.77131 8.2125C4.70347 8.30317 4.6017 8.34851 4.49428 8.34851Z" fill="url(#paint17_linear_997_2991)"/>
<path d="M4.49469 8.34285C4.40988 8.34285 4.32507 8.31451 4.26288 8.25218C4.12154 8.12184 4.11024 7.90083 4.24027 7.75916L54.4624 -47.6692C54.5924 -47.8109 54.8129 -47.8222 54.9543 -47.6919C55.0956 -47.5616 55.1069 -47.3405 54.9769 -47.1989L4.75476 8.22952C4.68691 8.30318 4.5908 8.34285 4.49469 8.34285Z" fill="url(#paint18_linear_997_2991)"/>
<path d="M4.49436 8.34852C4.4039 8.34852 4.30779 8.30884 4.23995 8.23517C4.10991 8.0935 4.11557 7.87249 4.25691 7.74215L71.1236 -54.7699C71.2649 -54.9002 71.4854 -54.8946 71.6155 -54.7529C71.7455 -54.6112 71.7399 -54.3902 71.5985 -54.2599L4.73182 8.25217C4.66398 8.31451 4.57917 8.34852 4.49436 8.34852Z" fill="url(#paint19_linear_997_2991)"/>
<path d="M4.49469 8.34285C4.39293 8.34285 4.29116 8.29752 4.22332 8.21252C4.10459 8.05951 4.13285 7.84417 4.27985 7.71949L62.9373 -38.6418C63.09 -38.7608 63.3048 -38.7324 63.4292 -38.5851C63.5479 -38.4321 63.5197 -38.2168 63.3727 -38.0921L4.71519 8.26919C4.653 8.32019 4.57384 8.34285 4.50035 8.34285H4.49469Z" fill="url(#paint20_linear_997_2991)"/>
<path d="M4.49435 8.34852C4.38127 8.34852 4.2682 8.29184 4.20601 8.18983C4.09859 8.03116 4.14382 7.81015 4.30212 7.70815L80.5427 -42.8863C80.701 -42.994 80.9215 -42.9487 81.0233 -42.79C81.1307 -42.6313 81.0855 -42.4103 80.9271 -42.3083L4.68657 8.28618C4.63003 8.32585 4.56219 8.34285 4.49435 8.34285V8.34852Z" fill="url(#paint21_linear_997_2991)"/>
<path d="M4.4944 8.34285C4.37002 8.34285 4.25129 8.27485 4.1891 8.16151C4.09864 7.9915 4.16083 7.78182 4.32479 7.68548L69.8063 -28.3393C69.9759 -28.4299 70.1851 -28.3676 70.2812 -28.2033C70.3717 -28.0333 70.3095 -27.8236 70.1455 -27.7272L4.66402 8.29751C4.61313 8.32585 4.55094 8.34285 4.4944 8.34285Z" fill="url(#paint22_linear_997_2991)"/>
<path d="M4.4948 8.34852C4.35911 8.34852 4.23473 8.26918 4.17819 8.13884C4.09904 7.96317 4.17819 7.75349 4.35346 7.67982L87.8817 -29.6143C88.057 -29.6937 88.2605 -29.6143 88.3397 -29.4387C88.4188 -29.263 88.3397 -29.0533 88.1644 -28.9796L4.63615 8.31451C4.59092 8.33718 4.54003 8.34285 4.4948 8.34285V8.34852Z" fill="url(#paint23_linear_997_2991)"/>
<path d="M4.4943 8.34285C4.35296 8.34285 4.21727 8.25217 4.16638 8.1105C4.10419 7.92916 4.20031 7.73081 4.38123 7.66848L74.9002 -17.0281C75.0811 -17.0904 75.279 -16.9941 75.3412 -16.8127C75.4034 -16.6314 75.3073 -16.433 75.1264 -16.3707L4.60737 8.32585C4.5678 8.33718 4.52822 8.34285 4.4943 8.34285Z" fill="url(#paint24_linear_997_2991)"/>
<path d="M4.49401 8.34851C4.34136 8.34851 4.20001 8.2465 4.15478 8.08783C4.1039 7.90082 4.21698 7.70814 4.40355 7.66281L92.924 -15.3053C93.1106 -15.3507 93.3028 -15.243 93.3481 -15.056C93.3989 -14.869 93.2859 -14.6763 93.0993 -14.6309L4.57881 8.33717C4.55054 8.34284 4.52228 8.34851 4.49401 8.34851Z" fill="url(#paint25_linear_997_2991)"/>
<path d="M4.4948 8.34286C4.33084 8.34286 4.18384 8.22385 4.14992 8.05385C4.116 7.86117 4.24603 7.68549 4.43261 7.65149L78.0499 -5.04813C78.2364 -5.08213 78.4174 -4.95179 78.4513 -4.76478C78.4852 -4.5721 78.3552 -4.39643 78.1686 -4.36243L4.55133 8.33719C4.55133 8.33719 4.51176 8.33719 4.48915 8.33719L4.4948 8.34286Z" fill="url(#paint26_linear_997_2991)"/>
<path d="M4.4947 8.34851C4.31378 8.34851 4.16678 8.21249 4.14982 8.03115C4.13286 7.83847 4.2742 7.66847 4.46643 7.65147L95.5537 -0.361593C95.7403 -0.378594 95.9156 -0.236922 95.9325 -0.0442455C95.9495 0.148431 95.8081 0.318447 95.6159 0.335447L4.52862 8.34851C4.52862 8.34851 4.506 8.34851 4.50035 8.34851H4.4947Z" fill="url(#paint27_linear_997_2991)"/>
<path d="M4.49408 8.34286C4.30186 8.34286 4.14921 8.18985 4.14355 7.99717C4.14355 7.8045 4.29621 7.64582 4.48843 7.64582L79.1855 7.30014C79.3778 7.30014 79.5361 7.45315 79.5361 7.64582C79.5361 7.8385 79.3834 7.99717 79.1912 7.99717L4.49408 8.34286Z" fill="url(#paint28_linear_997_2991)"/>
<path d="M95.6547 15.5115C95.6547 15.5115 95.6378 15.5115 95.6264 15.5115L4.47133 8.34852C4.2791 8.33152 4.13776 8.16718 4.14907 7.9745C4.16603 7.78183 4.33565 7.63448 4.52222 7.65148L95.6773 14.8145C95.8696 14.8315 96.0109 14.9958 95.9996 15.1885C95.9826 15.3699 95.83 15.5115 95.6547 15.5115Z" fill="url(#paint29_linear_997_2991)"/>
<path d="M78.2247 20.3568C78.2247 20.3568 78.1851 20.3568 78.1682 20.3568L4.43784 8.34283C4.24561 8.3145 4.12124 8.13316 4.1495 7.94049C4.17777 7.74781 4.35869 7.62313 4.55091 7.65147L78.2812 19.6654C78.4735 19.6937 78.5979 19.8751 78.5696 20.0677C78.5413 20.2378 78.3943 20.3624 78.2247 20.3624V20.3568Z" fill="url(#paint30_linear_997_2991)"/>
<path d="M93.2244 30.4892C93.2244 30.4892 93.1678 30.4892 93.1396 30.4779L4.40988 8.33717C4.22331 8.29183 4.11023 8.09915 4.15546 7.91214C4.20069 7.72514 4.39292 7.6118 4.57949 7.65713L93.3092 29.7979C93.4958 29.8432 93.6088 30.0359 93.5636 30.2229C93.524 30.3816 93.3827 30.4892 93.2244 30.4892Z" fill="url(#paint31_linear_997_2991)"/>
<path d="M75.2396 32.382C75.2 32.382 75.1661 32.3763 75.1265 32.365L4.38139 8.32584C4.20047 8.2635 4.09871 8.06516 4.1609 7.88382C4.22309 7.70248 4.42097 7.60614 4.60189 7.66281L75.347 31.702C75.528 31.7643 75.6241 31.9627 75.5675 32.144C75.5167 32.2913 75.381 32.382 75.2396 32.382Z" fill="url(#paint32_linear_997_2991)"/>
<path d="M88.3621 44.8606C88.3169 44.8606 88.266 44.8493 88.2208 44.8323L4.35329 8.32016C4.17802 8.24083 4.09321 8.03682 4.17236 7.86114C4.25152 7.68547 4.45506 7.60612 4.63032 7.6798L88.4978 44.1919C88.673 44.2713 88.7579 44.4753 88.6787 44.6509C88.6222 44.7813 88.4921 44.8606 88.3564 44.8606H88.3621Z" fill="url(#paint33_linear_997_2991)"/>
<path d="M70.3093 43.7556C70.2528 43.7556 70.1963 43.7443 70.1454 43.7159L4.33027 8.30319C4.16066 8.21252 4.09847 8.00284 4.18893 7.83283C4.27939 7.66283 4.49423 7.60049 4.65819 7.69116L70.4733 43.1039C70.6429 43.1946 70.7051 43.4042 70.6146 43.5742C70.5524 43.6932 70.4337 43.7556 70.3093 43.7556Z" fill="url(#paint34_linear_997_2991)"/>
<path d="M81.2041 58.229C81.1419 58.229 81.0741 58.212 81.0175 58.1723L4.31335 8.2862C4.14939 8.17853 4.10417 7.96318 4.21159 7.80451C4.31901 7.64017 4.53385 7.59484 4.69215 7.70251L81.3963 57.5886C81.5603 57.6963 81.6055 57.9116 81.4981 58.0703C81.4303 58.1723 81.3172 58.229 81.2041 58.229Z" fill="url(#paint35_linear_997_2991)"/>
<path d="M63.5756 54.1544C63.5021 54.1544 63.4286 54.1318 63.3607 54.0808L4.27923 8.26919C4.12658 8.15019 4.09831 7.92918 4.21704 7.78184C4.33577 7.62883 4.55061 7.60049 4.70326 7.7195L63.7848 53.5311C63.9374 53.6501 63.9657 53.8711 63.847 54.0184C63.7791 54.1091 63.6773 54.1544 63.5699 54.1544H63.5756Z" fill="url(#paint36_linear_997_2991)"/>
<path d="M71.9379 70.2315C71.8531 70.2315 71.7682 70.2032 71.7004 70.1409L4.25703 8.25217C4.11569 8.12183 4.10437 7.90082 4.23441 7.75915C4.36445 7.61748 4.58495 7.60615 4.72629 7.73649L72.1697 69.6252C72.311 69.7555 72.3223 69.9765 72.1923 70.1182C72.1244 70.1919 72.0283 70.2315 71.9379 70.2315Z" fill="url(#paint37_linear_997_2991)"/>
<path d="M55.2253 63.3009C55.1292 63.3009 55.0387 63.2612 54.9709 63.1876L4.23995 8.22953C4.10991 8.08785 4.11557 7.86684 4.25691 7.7365C4.39825 7.60616 4.61874 7.61183 4.74878 7.7535L55.4797 62.7115C55.6098 62.8532 55.6041 63.0742 55.4628 63.2046C55.3949 63.2669 55.3101 63.2952 55.2253 63.2952V63.3009Z" fill="url(#paint38_linear_997_2991)"/>
<path d="M60.8281 80.5397C60.7263 80.5397 60.6245 80.4944 60.551 80.4037L4.2229 8.2125C4.10417 8.0595 4.13244 7.84415 4.28509 7.72515C4.43774 7.60614 4.65258 7.63448 4.77131 7.78748L61.0994 79.9787C61.2182 80.1317 61.1899 80.347 61.0373 80.466C60.9751 80.517 60.8959 80.5397 60.8224 80.5397H60.8281Z" fill="url(#paint39_linear_997_2991)"/>
<path d="M45.4844 70.9343C45.3713 70.9343 45.2582 70.8776 45.1904 70.7756L4.20084 8.18419C4.09342 8.02552 4.13866 7.80451 4.30261 7.70251C4.46092 7.59484 4.68141 7.64017 4.78318 7.80451L45.7727 70.3959C45.8802 70.5546 45.8349 70.7756 45.671 70.8776C45.6144 70.9173 45.5466 70.9343 45.4787 70.9343H45.4844Z" fill="url(#paint40_linear_997_2991)"/>
<path d="M48.1693 88.8645C48.0449 88.8645 47.9262 88.7965 47.864 88.6831L4.18893 8.16151C4.09847 7.99151 4.16066 7.78182 4.33027 7.68548C4.49988 7.59481 4.70908 7.65715 4.80519 7.82716L48.4803 88.3488C48.5707 88.5188 48.5085 88.7285 48.3389 88.8248C48.288 88.8531 48.2315 88.8645 48.175 88.8645H48.1693Z" fill="url(#paint41_linear_997_2991)"/>
<path d="M34.6178 76.8562C34.4821 76.8562 34.3577 76.7768 34.3012 76.6465L4.17809 8.13316C4.09894 7.95748 4.17809 7.75347 4.35901 7.67414C4.53427 7.5948 4.73781 7.67413 4.81696 7.85547L34.94 76.3688C35.0192 76.5445 34.94 76.7485 34.7591 76.8278C34.7139 76.8505 34.6687 76.8562 34.6178 76.8562Z" fill="url(#paint42_linear_997_2991)"/>
<path d="M34.3179 94.9848C34.171 94.9848 34.0409 94.8941 33.99 94.7468L4.17224 8.10485C4.11005 7.92351 4.20617 7.72516 4.38709 7.66283C4.56801 7.60049 4.76589 7.69683 4.82808 7.87817L34.6459 94.5201C34.7081 94.7014 34.6119 94.8997 34.431 94.9621C34.3914 94.9734 34.3575 94.9791 34.3179 94.9791V94.9848Z" fill="url(#paint43_linear_997_2991)"/>
<path d="M22.9259 80.9024C22.7675 80.9024 22.6262 80.7947 22.5866 80.6417L4.15546 8.08215C4.11023 7.89515 4.22331 7.70814 4.40988 7.65713C4.59645 7.6118 4.78868 7.72514 4.83391 7.91214L23.2651 80.4717C23.3103 80.6587 23.1972 80.8457 23.0107 80.8967C22.9824 80.9024 22.9541 80.9081 22.9259 80.9081V80.9024Z" fill="url(#paint44_linear_997_2991)"/>
<path d="M19.6411 98.7306C19.4715 98.7306 19.3245 98.6116 19.2963 98.4416L4.14991 8.05949C4.11599 7.86681 4.24602 7.69114 4.43825 7.65714C4.62482 7.62881 4.80575 7.75348 4.83967 7.94615L19.986 98.3282C20.0199 98.5209 19.8899 98.6966 19.6977 98.7306C19.6807 98.7306 19.6581 98.7306 19.6411 98.7306Z" fill="url(#paint45_linear_997_2991)"/>
<path d="M10.7249 82.9538C10.544 82.9538 10.3913 82.8178 10.38 82.6365L4.14396 8.02548C4.127 7.83281 4.26834 7.6628 4.46057 7.6458C4.64714 7.63447 4.8224 7.77047 4.83936 7.96315L11.0754 82.5741C11.0924 82.7668 10.951 82.9368 10.7588 82.9538C10.7475 82.9538 10.7419 82.9538 10.7306 82.9538H10.7249Z" fill="url(#paint46_linear_997_2991)"/>
<path d="M4.55627 100C4.36405 100 4.20575 99.8413 4.20575 99.6487L4.14355 7.99716C4.14355 7.80448 4.30186 7.64581 4.49408 7.64581C4.68631 7.64581 4.84461 7.80448 4.84461 7.99716L4.9068 99.6487C4.9068 99.8413 4.7485 100 4.55627 100Z" fill="url(#paint47_linear_997_2991)"/>
<path d="M-1.64007 82.9652C-1.64007 82.9652 -1.65703 82.9652 -1.66834 82.9652C-1.86057 82.9482 -2.00191 82.7781 -1.98495 82.5911L4.14935 7.96882C4.16632 7.77614 4.33593 7.63447 4.5225 7.65147C4.71473 7.66847 4.85607 7.83848 4.83911 8.02549L-1.29519 82.6478C-1.31215 82.8292 -1.4648 82.9708 -1.64007 82.9708V82.9652Z" fill="url(#paint48_linear_997_2991)"/>
<path d="M-10.533 98.7533C-10.533 98.7533 -10.5725 98.7533 -10.5895 98.7533C-10.7817 98.7193 -10.9061 98.5436 -10.8778 98.3509L4.14978 7.94615C4.1837 7.75348 4.35897 7.62881 4.55119 7.65714C4.74342 7.69114 4.86781 7.86681 4.83954 8.05949L-10.1881 98.4642C-10.2164 98.6343 -10.3633 98.7533 -10.533 98.7533Z" fill="url(#paint49_linear_997_2991)"/>
<path d="M-13.8403 80.9251C-13.8685 80.9251 -13.8968 80.9251 -13.9251 80.9137C-14.1117 80.8684 -14.2247 80.6757 -14.1795 80.4887L4.15555 7.9065C4.20078 7.71949 4.39301 7.60615 4.57958 7.65149C4.76615 7.69682 4.87923 7.8895 4.834 8.07651L-13.5011 80.6587C-13.5406 80.8174 -13.682 80.9194 -13.8403 80.9194V80.9251Z" fill="url(#paint50_linear_997_2991)"/>
<path d="M-25.2108 95.0244C-25.2504 95.0244 -25.2843 95.0187 -25.3239 95.0074C-25.5048 94.9451 -25.6009 94.7467 -25.5387 94.5654L4.16602 7.88382C4.22821 7.70248 4.42609 7.60614 4.60701 7.66847C4.78793 7.73081 4.88404 7.92915 4.82185 8.11049L-24.8829 94.7921C-24.9337 94.9394 -25.0694 95.0301 -25.2108 95.0301V95.0244Z" fill="url(#paint51_linear_997_2991)"/>
<path d="M-25.538 76.8959C-25.5833 76.8959 -25.6342 76.8845 -25.6794 76.8675C-25.8547 76.7882 -25.9338 76.5842 -25.8603 76.4085L4.17232 7.85549C4.25147 7.67981 4.45501 7.60048 4.63028 7.67415C4.80554 7.75349 4.88469 7.9575 4.81119 8.13317L-25.2214 76.6862C-25.278 76.8165 -25.408 76.8959 -25.538 76.8959Z" fill="url(#paint52_linear_997_2991)"/>
<path d="M-39.0732 88.9268C-39.1297 88.9268 -39.1862 88.9155 -39.2371 88.8871C-39.4067 88.7965 -39.4689 88.5811 -39.3785 88.4111L4.1892 7.83283C4.27966 7.66283 4.49451 7.60049 4.66412 7.69116C4.83373 7.78183 4.89592 7.99718 4.80546 8.16152L-38.7622 88.7398C-38.8244 88.8588 -38.9431 88.9211 -39.0675 88.9211L-39.0732 88.9268Z" fill="url(#paint53_linear_997_2991)"/>
<path d="M-36.4105 70.9909C-36.4783 70.9909 -36.5405 70.9739 -36.6027 70.9342C-36.761 70.8266 -36.8062 70.6112 -36.7044 70.4525L4.20031 7.80448C4.30773 7.6458 4.52257 7.60047 4.68087 7.70248C4.83918 7.81015 4.88441 8.02549 4.78264 8.18416L-36.1221 70.8322C-36.19 70.9342 -36.303 70.9909 -36.4161 70.9909H-36.4105Z" fill="url(#paint54_linear_997_2991)"/>
<path d="M-51.7374 80.6134C-51.8109 80.6134 -51.89 80.5907 -51.9522 80.5397C-52.1049 80.4207 -52.1331 80.1997 -52.0144 80.0524L4.22327 7.78184C4.342 7.62883 4.5625 7.60049 4.7095 7.7195C4.86215 7.83851 4.89042 8.05952 4.77169 8.20686L-51.466 80.4774C-51.5338 80.5681 -51.6356 80.6134 -51.743 80.6134H-51.7374Z" fill="url(#paint55_linear_997_2991)"/>
<path d="M-46.1636 63.3689C-46.2484 63.3689 -46.3332 63.3405 -46.401 63.2782C-46.5424 63.1479 -46.5537 62.9268 -46.418 62.7852L4.23945 7.75915C4.36949 7.61748 4.58998 7.61181 4.73132 7.74215C4.87267 7.87249 4.88397 8.0935 4.74828 8.23517L-45.9092 63.2612C-45.977 63.3349 -46.0731 63.3745 -46.1636 63.3745V63.3689Z" fill="url(#paint56_linear_997_2991)"/>
<path d="M-62.8647 70.3222C-62.9608 70.3222 -63.0513 70.2825 -63.1191 70.2089C-63.2491 70.0672 -63.2378 69.8462 -63.0965 69.7158L4.26207 7.73649C4.40341 7.60615 4.62391 7.61748 4.75394 7.75915C4.88398 7.90082 4.87267 8.12183 4.73133 8.25217L-62.6272 70.2315C-62.6951 70.2939 -62.7799 70.3222 -62.8647 70.3222Z" fill="url(#paint57_linear_997_2991)"/>
<path d="M-54.5303 54.2338C-54.6321 54.2338 -54.7395 54.1884 -54.8074 54.0978C-54.9261 53.9448 -54.8978 53.7237 -54.7452 53.6104L4.27978 7.7195C4.43243 7.60049 4.65292 7.62883 4.766 7.78184C4.88473 7.93484 4.85646 8.15586 4.70381 8.26919L-54.3212 54.1601C-54.3833 54.2111 -54.4625 54.2338 -54.536 54.2338H-54.5303Z" fill="url(#paint58_linear_997_2991)"/>
<path d="M-72.1423 58.331C-72.2554 58.331 -72.3685 58.2743 -72.4363 58.1723C-72.5437 58.008 -72.4929 57.7926 -72.3346 57.6906L4.30743 7.70251C4.46574 7.59484 4.68623 7.64017 4.788 7.80451C4.89542 7.96885 4.85019 8.1842 4.68623 8.2862L-71.9558 58.2743C-72.0123 58.314 -72.0801 58.331 -72.148 58.331H-72.1423Z" fill="url(#paint59_linear_997_2991)"/>
<path d="M-61.2753 43.8406C-61.3997 43.8406 -61.5184 43.7726 -61.5806 43.6593C-61.6711 43.4892 -61.6089 43.2796 -61.4393 43.1889L4.3306 7.69116C4.50021 7.60049 4.7094 7.66283 4.79987 7.83283C4.89033 8.00284 4.82813 8.21252 4.65852 8.30319L-61.1113 43.8009C-61.1622 43.8293 -61.2188 43.8406 -61.2753 43.8406Z" fill="url(#paint60_linear_997_2991)"/>
<path d="M-79.3219 44.974C-79.4576 44.974 -79.582 44.8946 -79.6442 44.7643C-79.7233 44.5886 -79.6442 44.3846 -79.4633 44.3053L4.35332 7.67981C4.52859 7.60047 4.73778 7.67981 4.81128 7.86116C4.89043 8.03683 4.81128 8.24651 4.63036 8.32018L-79.1806 44.94C-79.2258 44.957 -79.271 44.9683 -79.3219 44.9683V44.974Z" fill="url(#paint61_linear_997_2991)"/>
<path d="M-66.2166 32.4784C-66.3636 32.4784 -66.4993 32.3877 -66.5446 32.2404C-66.6067 32.059 -66.5106 31.8607 -66.3297 31.7983L4.38152 7.66283C4.56243 7.60049 4.76031 7.69683 4.8225 7.87817C4.8847 8.05952 4.78858 8.25786 4.60766 8.32019L-66.1036 32.4557C-66.1431 32.467 -66.1771 32.4727 -66.2166 32.4727V32.4784Z" fill="url(#paint62_linear_997_2991)"/>
<path d="M-84.2016 30.6083C-84.3599 30.6083 -84.5013 30.5006 -84.5408 30.3419C-84.5861 30.1549 -84.473 29.9679 -84.2864 29.9169L4.415 7.65713C4.60157 7.6118 4.78815 7.72514 4.83903 7.91214C4.88991 8.09915 4.77119 8.28616 4.58461 8.33717L-84.1168 30.5969C-84.1451 30.6026 -84.1733 30.6083 -84.2016 30.6083Z" fill="url(#paint63_linear_997_2991)"/>
<path d="M-69.2191 20.4531C-69.3887 20.4531 -69.5357 20.3341 -69.564 20.1584C-69.5979 19.9657 -69.4678 19.7901 -69.2756 19.7561L4.43775 7.64581C4.62432 7.6118 4.80524 7.74214 4.83917 7.93482C4.86744 8.12749 4.74305 8.30317 4.55083 8.33717L-69.1625 20.4474C-69.1625 20.4474 -69.2021 20.4474 -69.2191 20.4474V20.4531Z" fill="url(#paint64_linear_997_2991)"/>
<path d="M-86.6499 15.6305C-86.8308 15.6305 -86.9835 15.4945 -86.9948 15.3075C-87.0117 15.1149 -86.8647 14.9448 -86.6725 14.9335L4.47697 7.65148C4.66354 7.63448 4.83881 7.78183 4.85011 7.9745C4.86707 8.16718 4.72008 8.33719 4.52785 8.34852L-86.6216 15.6305C-86.6216 15.6305 -86.6386 15.6305 -86.6499 15.6305Z" fill="url(#paint65_linear_997_2991)"/>
<path d="M4.49429 8.34286L-70.2028 8.09352C-70.3951 8.09352 -70.5534 7.93484 -70.5477 7.74217C-70.5477 7.54949 -70.3894 7.39648 -70.1972 7.39648L4.49993 7.64583C4.69216 7.64583 4.85046 7.8045 4.84481 7.99718C4.84481 8.18986 4.68651 8.34286 4.49429 8.34286Z" fill="url(#paint66_linear_997_2991)"/>
<path d="M4.49466 8.34851C4.49466 8.34851 4.47204 8.34851 4.46638 8.34851L-86.6322 0.454457C-86.8244 0.437456 -86.9658 0.267449 -86.9488 0.0747731C-86.9319 -0.117903 -86.7622 -0.259575 -86.57 -0.242574L4.52858 7.64581C4.7208 7.66281 4.86214 7.83282 4.84518 8.02549C4.82822 8.20684 4.67558 8.34284 4.50031 8.34284L4.49466 8.34851Z" fill="url(#paint67_linear_997_2991)"/>
<path d="M4.49463 8.34285C4.49463 8.34285 4.45505 8.34285 4.43809 8.34285L-69.1961 -4.25476C-69.3883 -4.28876 -69.5127 -4.47011 -69.4788 -4.65712C-69.4449 -4.84979 -69.264 -4.97447 -69.0774 -4.94046L4.55682 7.65716C4.74905 7.69116 4.87343 7.8725 4.83951 8.05951C4.81124 8.22952 4.66425 8.34853 4.49463 8.34853V8.34285Z" fill="url(#paint68_linear_997_2991)"/>
<path d="M4.49413 8.34851C4.46586 8.34851 4.43758 8.34851 4.40932 8.33717L-84.1394 -14.5119C-84.326 -14.5573 -84.4391 -14.75 -84.3882 -14.937C-84.343 -15.124 -84.1507 -15.2373 -83.9642 -15.1863L4.58459 7.6628C4.77116 7.70814 4.88423 7.90081 4.83335 8.08782C4.79377 8.2465 4.65244 8.34851 4.49413 8.34851Z" fill="url(#paint69_linear_997_2991)"/>
<path d="M4.4947 8.34284C4.45512 8.34284 4.41555 8.33718 4.38162 8.32584L-66.1657 -16.28C-66.3466 -16.3424 -66.4427 -16.5407 -66.3805 -16.722C-66.3183 -16.9034 -66.1204 -16.9997 -65.9395 -16.9374L4.60777 7.66848C4.78869 7.73081 4.88481 7.92916 4.82262 8.1105C4.77174 8.25217 4.63604 8.34284 4.4947 8.34284Z" fill="url(#paint70_linear_997_2991)"/>
<path d="M4.49406 8.34853C4.44882 8.34853 4.39794 8.33719 4.35271 8.32019L-79.2208 -28.8663C-79.396 -28.9456 -79.4752 -29.1496 -79.396 -29.3253C-79.3169 -29.501 -79.1133 -29.5803 -78.9381 -29.501L4.6354 7.67982C4.81066 7.75916 4.88982 7.96317 4.81066 8.13885C4.75413 8.26918 4.62409 8.34853 4.49406 8.34853Z" fill="url(#paint71_linear_997_2991)"/>
<path d="M4.4942 8.34285C4.43767 8.34285 4.38113 8.33151 4.32459 8.29751L-61.2078 -27.6366C-61.3774 -27.7273 -61.4396 -27.9426 -61.3492 -28.1126C-61.2587 -28.2826 -61.0439 -28.3449 -60.8742 -28.2543L4.65816 7.67981C4.82777 7.77048 4.88997 7.98582 4.79385 8.15583C4.73166 8.26917 4.61294 8.33718 4.48856 8.33718L4.4942 8.34285Z" fill="url(#paint72_linear_997_2991)"/>
<path d="M4.49388 8.34853C4.42603 8.34853 4.36385 8.33153 4.30165 8.29186L-72.0011 -42.2063C-72.1594 -42.3139 -72.2047 -42.5293 -72.1029 -42.688C-71.9955 -42.8466 -71.7806 -42.892 -71.6223 -42.7843L4.6861 7.70816C4.84441 7.81584 4.88963 8.03117 4.78222 8.18985C4.71437 8.29185 4.60696 8.34853 4.49388 8.34853Z" fill="url(#paint73_linear_997_2991)"/>
<path d="M4.49444 8.34286C4.42094 8.34286 4.34179 8.3202 4.27959 8.2692L-54.4401 -38.0127C-54.5927 -38.1317 -54.6153 -38.3528 -54.4966 -38.5001C-54.3779 -38.6531 -54.1574 -38.6758 -54.0104 -38.5568L4.70928 7.72517C4.86193 7.84417 4.88454 8.06518 4.76582 8.21252C4.69797 8.29753 4.59621 8.34853 4.49444 8.34853V8.34286Z" fill="url(#paint74_linear_997_2991)"/>
<path d="M4.49392 8.34851C4.40911 8.34851 4.3243 8.32018 4.25646 8.25784L-62.6894 -54.1692C-62.8307 -54.2996 -62.8364 -54.5206 -62.7063 -54.6622C-62.5763 -54.8039 -62.3558 -54.8096 -62.2145 -54.6792L4.73702 7.74215C4.87836 7.87249 4.88402 8.09349 4.75398 8.23517C4.68613 8.30884 4.59003 8.34851 4.49957 8.34851H4.49392Z" fill="url(#paint75_linear_997_2991)"/>
</g>
<defs>
<linearGradient id="paint0_linear_997_2991" x1="-47.8362" y1="-20.1" x2="5.65107" y2="-18.451" gradientUnits="userSpaceOnUse">
<stop stop-color="#AA8C5F"/>
<stop offset="0.08" stop-color="#B19465"/>
<stop offset="0.51" stop-color="#DBC086"/>
<stop offset="1" stop-color="#AA8C5F"/>
</linearGradient>
<linearGradient id="paint1_linear_997_2991" x1="-53.836" y1="-28.7903" x2="5.91831" y2="-26.948" gradientUnits="userSpaceOnUse">
<stop stop-color="#AA8C5F"/>
<stop offset="0.08" stop-color="#B19465"/>
<stop offset="0.51" stop-color="#DBC086"/>
<stop offset="1" stop-color="#AA8C5F"/>
</linearGradient>
<linearGradient id="paint2_linear_997_2991" x1="-40.5719" y1="-25.9194" x2="8.08133" y2="-20.3718" gradientUnits="userSpaceOnUse">
<stop stop-color="#AA8C5F"/>
<stop offset="0.08" stop-color="#B19465"/>
<stop offset="0.51" stop-color="#DBC086"/>
<stop offset="1" stop-color="#AA8C5F"/>
</linearGradient>
<linearGradient id="paint3_linear_997_2991" x1="-46.9585" y1="-37.9363" x2="11.6782" y2="-26.2894" gradientUnits="userSpaceOnUse">
<stop stop-color="#AA8C5F"/>
<stop offset="0.08" stop-color="#B19465"/>
<stop offset="0.51" stop-color="#DBC086"/>
<stop offset="1" stop-color="#AA8C5F"/>
</linearGradient>
<linearGradient id="paint4_linear_997_2991" x1="-34.3659" y1="-32.903" x2="12.7077" y2="-19.4275" gradientUnits="userSpaceOnUse">
<stop stop-color="#AA8C5F"/>
<stop offset="0.08" stop-color="#B19465"/>
<stop offset="0.51" stop-color="#DBC086"/>
<stop offset="1" stop-color="#AA8C5F"/>
</linearGradient>
<linearGradient id="paint5_linear_997_2991" x1="-38.7011" y1="-45.8362" x2="17.2222" y2="-24.687" gradientUnits="userSpaceOnUse">
<stop stop-color="#AA8C5F"/>
<stop offset="0.08" stop-color="#B19465"/>
<stop offset="0.51" stop-color="#DBC086"/>
<stop offset="1" stop-color="#AA8C5F"/>
</linearGradient>
<linearGradient id="paint6_linear_997_2991" x1="-27.0982" y1="-38.7852" x2="17.1332" y2="-17.7276" gradientUnits="userSpaceOnUse">
<stop stop-color="#AA8C5F"/>
<stop offset="0.08" stop-color="#B19465"/>
<stop offset="0.51" stop-color="#DBC086"/>
<stop offset="1" stop-color="#AA8C5F"/>
</linearGradient>
<linearGradient id="paint7_linear_997_2991" x1="-29.273" y1="-52.2228" x2="22.4154" y2="-22.1372" gradientUnits="userSpaceOnUse">
<stop stop-color="#AA8C5F"/>
<stop offset="0.08" stop-color="#B19465"/>
<stop offset="0.51" stop-color="#DBC086"/>
<stop offset="1" stop-color="#AA8C5F"/>
</linearGradient>
<linearGradient id="paint8_linear_997_2991" x1="-18.9916" y1="-43.3631" x2="21.1718" y2="-15.2955" gradientUnits="userSpaceOnUse">
<stop stop-color="#AA8C5F"/>
<stop offset="0.08" stop-color="#B19465"/>
<stop offset="0.51" stop-color="#DBC086"/>
<stop offset="1" stop-color="#AA8C5F"/>
</linearGradient>
<linearGradient id="paint9_linear_997_2991" x1="-18.2883" y1="-56.8358" x2="27.3402" y2="-18.9754" gradientUnits="userSpaceOnUse">
<stop stop-color="#AA8C5F"/>
<stop offset="0.08" stop-color="#B19465"/>
<stop offset="0.51" stop-color="#DBC086"/>
<stop offset="1" stop-color="#AA8C5F"/>
</linearGradient>
<linearGradient id="paint10_linear_997_2991" x1="-10.2333" y1="-46.5323" x2="24.7625" y2="-12.2102" gradientUnits="userSpaceOnUse">
<stop stop-color="#AA8C5F"/>
<stop offset="0.08" stop-color="#B19465"/>
<stop offset="0.51" stop-color="#DBC086"/>
<stop offset="1" stop-color="#AA8C5F"/>
</linearGradient>
<linearGradient id="paint11_linear_997_2991" x1="-7.82008" y1="-59.9718" x2="31.3045" y2="-14.6713" gradientUnits="userSpaceOnUse">
<stop stop-color="#AA8C5F"/>
<stop offset="0.08" stop-color="#B19465"/>
<stop offset="0.51" stop-color="#DBC086"/>
<stop offset="1" stop-color="#AA8C5F"/>
</linearGradient>
<linearGradient id="paint12_linear_997_2991" x1="-1.04903" y1="-48.2192" x2="27.8141" y2="-8.57057" gradientUnits="userSpaceOnUse">
<stop stop-color="#AA8C5F"/>
<stop offset="0.08" stop-color="#B19465"/>
<stop offset="0.51" stop-color="#DBC086"/>
<stop offset="1" stop-color="#AA8C5F"/>
</linearGradient>
<linearGradient id="paint13_linear_997_2991" x1="3.54483" y1="-61.0651" x2="34.6644" y2="-9.90131" gradientUnits="userSpaceOnUse">
<stop stop-color="#AA8C5F"/>
<stop offset="0.08" stop-color="#B19465"/>
<stop offset="0.51" stop-color="#DBC086"/>
<stop offset="1" stop-color="#AA8C5F"/>
</linearGradient>
<linearGradient id="paint14_linear_997_2991" x1="8.31014" y1="-48.3383" x2="30.2384" y2="-4.45966" gradientUnits="userSpaceOnUse">
<stop stop-color="#AA8C5F"/>
<stop offset="0.08" stop-color="#B19465"/>
<stop offset="0.51" stop-color="#DBC086"/>
<stop offset="1" stop-color="#AA8C5F"/>
</linearGradient>
<linearGradient id="paint15_linear_997_2991" x1="14.8531" y1="-60.2804" x2="37.0911" y2="-4.67029" gradientUnits="userSpaceOnUse">
<stop stop-color="#AA8C5F"/>
<stop offset="0.08" stop-color="#B19465"/>
<stop offset="0.51" stop-color="#DBC086"/>
<stop offset="1" stop-color="#AA8C5F"/>
</linearGradient>
<linearGradient id="paint16_linear_997_2991" x1="17.5134" y1="-46.9531" x2="31.8895" y2="-0.0404631" gradientUnits="userSpaceOnUse">
<stop stop-color="#AA8C5F"/>
<stop offset="0.08" stop-color="#B19465"/>
<stop offset="0.51" stop-color="#DBC086"/>
<stop offset="1" stop-color="#AA8C5F"/>
</linearGradient>
<linearGradient id="paint17_linear_997_2991" x1="25.9667" y1="-57.6116" x2="38.7079" y2="0.933949" gradientUnits="userSpaceOnUse">
<stop stop-color="#AA8C5F"/>
<stop offset="0.08" stop-color="#B19465"/>
<stop offset="0.51" stop-color="#DBC086"/>
<stop offset="1" stop-color="#AA8C5F"/>
</linearGradient>
<linearGradient id="paint18_linear_997_2991" x1="26.3524" y1="-43.9999" x2="32.7725" y2="4.65213" gradientUnits="userSpaceOnUse">
<stop stop-color="#AA8C5F"/>
<stop offset="0.08" stop-color="#B19465"/>
<stop offset="0.51" stop-color="#DBC086"/>
<stop offset="1" stop-color="#AA8C5F"/>
</linearGradient>
<linearGradient id="paint19_linear_997_2991" x1="36.5436" y1="-53.1523" x2="39.4354" y2="6.69419" gradientUnits="userSpaceOnUse">
<stop stop-color="#AA8C5F"/>
<stop offset="0.08" stop-color="#B19465"/>
<stop offset="0.51" stop-color="#DBC086"/>
<stop offset="1" stop-color="#AA8C5F"/>
</linearGradient>
<linearGradient id="paint20_linear_997_2991" x1="34.7406" y1="-39.7219" x2="33.0325" y2="9.32395" gradientUnits="userSpaceOnUse">
<stop stop-color="#AA8C5F"/>
<stop offset="0.08" stop-color="#B19465"/>
<stop offset="0.51" stop-color="#DBC086"/>
<stop offset="1" stop-color="#AA8C5F"/>
</linearGradient>
<linearGradient id="paint21_linear_997_2991" x1="46.1586" y1="-47.065" x2="39.1113" y2="12.4281" gradientUnits="userSpaceOnUse">
<stop stop-color="#AA8C5F"/>
<stop offset="0.08" stop-color="#B19465"/>
<stop offset="0.51" stop-color="#DBC086"/>
<stop offset="1" stop-color="#AA8C5F"/>
</linearGradient>
<linearGradient id="paint22_linear_997_2991" x1="42.1034" y1="-34.0988" x2="32.3078" y2="13.9789" gradientUnits="userSpaceOnUse">
<stop stop-color="#AA8C5F"/>
<stop offset="0.08" stop-color="#B19465"/>
<stop offset="0.51" stop-color="#DBC086"/>
<stop offset="1" stop-color="#AA8C5F"/>
</linearGradient>
<linearGradient id="paint23_linear_997_2991" x1="54.653" y1="-39.4257" x2="37.8636" y2="18.0791" gradientUnits="userSpaceOnUse">
<stop stop-color="#AA8C5F"/>
<stop offset="0.08" stop-color="#B19465"/>
<stop offset="0.51" stop-color="#DBC086"/>
<stop offset="1" stop-color="#AA8C5F"/>
</linearGradient>
<linearGradient id="paint24_linear_997_2991" x1="48.533" y1="-27.2204" x2="30.9213" y2="18.5766" gradientUnits="userSpaceOnUse">
<stop stop-color="#AA8C5F"/>
<stop offset="0.08" stop-color="#B19465"/>
<stop offset="0.51" stop-color="#DBC086"/>
<stop offset="1" stop-color="#AA8C5F"/>
</linearGradient>
<linearGradient id="paint25_linear_997_2991" x1="61.7395" y1="-30.502" x2="35.6807" y2="23.4217" gradientUnits="userSpaceOnUse">
<stop stop-color="#AA8C5F"/>
<stop offset="0.08" stop-color="#B19465"/>
<stop offset="0.51" stop-color="#DBC086"/>
<stop offset="1" stop-color="#AA8C5F"/>
</linearGradient>
<linearGradient id="paint26_linear_997_2991" x1="53.648" y1="-19.4357" x2="28.7194" y2="22.8028" gradientUnits="userSpaceOnUse">
<stop stop-color="#AA8C5F"/>
<stop offset="0.08" stop-color="#B19465"/>
<stop offset="0.51" stop-color="#DBC086"/>
<stop offset="1" stop-color="#AA8C5F"/>
</linearGradient>
<linearGradient id="paint27_linear_997_2991" x1="67.3403" y1="-20.4581" x2="32.7499" y2="28.4082" gradientUnits="userSpaceOnUse">
<stop stop-color="#AA8C5F"/>
<stop offset="0.08" stop-color="#B19465"/>
<stop offset="0.51" stop-color="#DBC086"/>
<stop offset="1" stop-color="#AA8C5F"/>
</linearGradient>
<linearGradient id="paint28_linear_997_2991" x1="57.4988" y1="-10.9963" x2="25.9438" y2="26.5352" gradientUnits="userSpaceOnUse">
<stop stop-color="#AA8C5F"/>
<stop offset="0.08" stop-color="#B19465"/>
<stop offset="0.51" stop-color="#DBC086"/>
<stop offset="1" stop-color="#AA8C5F"/>
</linearGradient>
<linearGradient id="paint29_linear_997_2991" x1="71.1596" y1="-9.69603" x2="28.9915" y2="32.7722" gradientUnits="userSpaceOnUse">
<stop stop-color="#AA8C5F"/>
<stop offset="0.08" stop-color="#B19465"/>
<stop offset="0.51" stop-color="#DBC086"/>
<stop offset="1" stop-color="#AA8C5F"/>
</linearGradient>
<linearGradient id="paint30_linear_997_2991" x1="59.9972" y1="-1.94618" x2="22.7045" y2="29.853" gradientUnits="userSpaceOnUse">
<stop stop-color="#AA8C5F"/>
<stop offset="0.08" stop-color="#B19465"/>
<stop offset="0.51" stop-color="#DBC086"/>
<stop offset="1" stop-color="#AA8C5F"/>
</linearGradient>
<linearGradient id="paint31_linear_997_2991" x1="73.1642" y1="1.56986" x2="24.5857" y2="36.4855" gradientUnits="userSpaceOnUse">
<stop stop-color="#AA8C5F"/>
<stop offset="0.08" stop-color="#B19465"/>
<stop offset="0.51" stop-color="#DBC086"/>
<stop offset="1" stop-color="#AA8C5F"/>
</linearGradient>
<linearGradient id="paint32_linear_997_2991" x1="60.8839" y1="7.39348" x2="18.8727" y2="32.5974" gradientUnits="userSpaceOnUse">
<stop stop-color="#AA8C5F"/>
<stop offset="0.08" stop-color="#B19465"/>
<stop offset="0.51" stop-color="#DBC086"/>
<stop offset="1" stop-color="#AA8C5F"/>
</linearGradient>
<linearGradient id="paint33_linear_997_2991" x1="73.2166" y1="13.0079" x2="19.5595" y2="39.4301" gradientUnits="userSpaceOnUse">
<stop stop-color="#AA8C5F"/>
<stop offset="0.08" stop-color="#B19465"/>
<stop offset="0.51" stop-color="#DBC086"/>
<stop offset="1" stop-color="#AA8C5F"/>
</linearGradient>
<linearGradient id="paint34_linear_997_2991" x1="60.1188" y1="16.6279" x2="14.5473" y2="34.5555" gradientUnits="userSpaceOnUse">
<stop stop-color="#AA8C5F"/>
<stop offset="0.08" stop-color="#B19465"/>
<stop offset="0.51" stop-color="#DBC086"/>
<stop offset="1" stop-color="#AA8C5F"/>
</linearGradient>
<linearGradient id="paint35_linear_997_2991" x1="71.4287" y1="24.2177" x2="14.1773" y2="41.43" gradientUnits="userSpaceOnUse">
<stop stop-color="#AA8C5F"/>
<stop offset="0.08" stop-color="#B19465"/>
<stop offset="0.51" stop-color="#DBC086"/>
<stop offset="1" stop-color="#AA8C5F"/>
</linearGradient>
<linearGradient id="paint36_linear_997_2991" x1="57.9564" y1="25.7334" x2="10.0589" y2="35.9081" gradientUnits="userSpaceOnUse">
<stop stop-color="#AA8C5F"/>
<stop offset="0.08" stop-color="#B19465"/>
<stop offset="0.51" stop-color="#DBC086"/>
<stop offset="1" stop-color="#AA8C5F"/>
</linearGradient>
<linearGradient id="paint37_linear_997_2991" x1="67.77" y1="35.1701" x2="8.46359" y2="42.7182" gradientUnits="userSpaceOnUse">
<stop stop-color="#AA8C5F"/>
<stop offset="0.08" stop-color="#B19465"/>
<stop offset="0.51" stop-color="#DBC086"/>
<stop offset="1" stop-color="#AA8C5F"/>
</linearGradient>
<linearGradient id="paint38_linear_997_2991" x1="54.3414" y1="34.4422" x2="5.42741" y2="36.5985" gradientUnits="userSpaceOnUse">
<stop stop-color="#AA8C5F"/>
<stop offset="0.08" stop-color="#B19465"/>
<stop offset="0.51" stop-color="#DBC086"/>
<stop offset="1" stop-color="#AA8C5F"/>
</linearGradient>
<linearGradient id="paint39_linear_997_2991" x1="62.5661" y1="45.3459" x2="2.828" y2="43.0355" gradientUnits="userSpaceOnUse">
<stop stop-color="#AA8C5F"/>
<stop offset="0.08" stop-color="#B19465"/>
<stop offset="0.51" stop-color="#DBC086"/>
<stop offset="1" stop-color="#AA8C5F"/>
</linearGradient>
<linearGradient id="paint40_linear_997_2991" x1="49.3344" y1="42.3076" x2="0.731626" y2="36.3796" gradientUnits="userSpaceOnUse">
<stop stop-color="#AA8C5F"/>
<stop offset="0.08" stop-color="#B19465"/>
<stop offset="0.51" stop-color="#DBC086"/>
<stop offset="1" stop-color="#AA8C5F"/>
</linearGradient>
<linearGradient id="paint41_linear_997_2991" x1="55.5937" y1="54.2766" x2="-2.94272" y2="42.1613" gradientUnits="userSpaceOnUse">
<stop stop-color="#AA8C5F"/>
<stop offset="0.08" stop-color="#B19465"/>
<stop offset="0.51" stop-color="#DBC086"/>
<stop offset="1" stop-color="#AA8C5F"/>
</linearGradient>
<linearGradient id="paint42_linear_997_2991" x1="43.0333" y1="49.1667" x2="-3.93119" y2="35.3143" gradientUnits="userSpaceOnUse">
<stop stop-color="#AA8C5F"/>
<stop offset="0.08" stop-color="#B19465"/>
<stop offset="0.51" stop-color="#DBC086"/>
<stop offset="1" stop-color="#AA8C5F"/>
</linearGradient>
<linearGradient id="paint43_linear_997_2991" x1="47.2166" y1="62.1355" x2="-8.54133" y2="40.5365" gradientUnits="userSpaceOnUse">
<stop stop-color="#AA8C5F"/>
<stop offset="0.08" stop-color="#B19465"/>
<stop offset="0.51" stop-color="#DBC086"/>
<stop offset="1" stop-color="#AA8C5F"/>
</linearGradient>
<linearGradient id="paint44_linear_997_2991" x1="35.6001" y1="55.006" x2="-8.45667" y2="33.5966" gradientUnits="userSpaceOnUse">
<stop stop-color="#AA8C5F"/>
<stop offset="0.08" stop-color="#B19465"/>
<stop offset="0.51" stop-color="#DBC086"/>
<stop offset="1" stop-color="#AA8C5F"/>
</linearGradient>
<linearGradient id="paint45_linear_997_2991" x1="37.7311" y1="68.4478" x2="-13.7201" y2="37.9453" gradientUnits="userSpaceOnUse">
<stop stop-color="#AA8C5F"/>
<stop offset="0.08" stop-color="#B19465"/>
<stop offset="0.51" stop-color="#DBC086"/>
<stop offset="1" stop-color="#AA8C5F"/>
</linearGradient>
<linearGradient id="paint46_linear_997_2991" x1="27.6134" y1="59.5784" x2="-12.3246" y2="31.1993" gradientUnits="userSpaceOnUse">
<stop stop-color="#AA8C5F"/>
<stop offset="0.08" stop-color="#B19465"/>
<stop offset="0.51" stop-color="#DBC086"/>
<stop offset="1" stop-color="#AA8C5F"/>
</linearGradient>
<linearGradient id="paint47_linear_997_2991" x1="27.3391" y1="73.2511" x2="-18.4003" y2="34.675" gradientUnits="userSpaceOnUse">
<stop stop-color="#AA8C5F"/>
<stop offset="0.08" stop-color="#B19465"/>
<stop offset="0.51" stop-color="#DBC086"/>
<stop offset="1" stop-color="#AA8C5F"/>
</linearGradient>
<linearGradient id="paint48_linear_997_2991" x1="18.7356" y1="62.6387" x2="-15.9862" y2="28.0461" gradientUnits="userSpaceOnUse">
<stop stop-color="#AA8C5F"/>
<stop offset="0.08" stop-color="#B19465"/>
<stop offset="0.51" stop-color="#DBC086"/>
<stop offset="1" stop-color="#AA8C5F"/>
</linearGradient>
<linearGradient id="paint49_linear_997_2991" x1="16.3233" y1="76.1144" x2="-22.4405" y2="30.4961" gradientUnits="userSpaceOnUse">
<stop stop-color="#AA8C5F"/>
<stop offset="0.08" stop-color="#B19465"/>
<stop offset="0.51" stop-color="#DBC086"/>
<stop offset="1" stop-color="#AA8C5F"/>
</linearGradient>
<linearGradient id="paint50_linear_997_2991" x1="9.55023" y1="64.2204" x2="-18.9943" y2="24.3546" gradientUnits="userSpaceOnUse">
<stop stop-color="#AA8C5F"/>
<stop offset="0.08" stop-color="#B19465"/>
<stop offset="0.51" stop-color="#DBC086"/>
<stop offset="1" stop-color="#AA8C5F"/>
</linearGradient>
<linearGradient id="paint51_linear_997_2991" x1="4.89352" y1="77.0634" x2="-25.8143" y2="25.6502" gradientUnits="userSpaceOnUse">
<stop stop-color="#AA8C5F"/>
<stop offset="0.08" stop-color="#B19465"/>
<stop offset="0.51" stop-color="#DBC086"/>
<stop offset="1" stop-color="#AA8C5F"/>
</linearGradient>
<linearGradient id="paint52_linear_997_2991" x1="0.236289" y1="64.3162" x2="-21.3388" y2="20.2619" gradientUnits="userSpaceOnUse">
<stop stop-color="#AA8C5F"/>
<stop offset="0.08" stop-color="#B19465"/>
<stop offset="0.51" stop-color="#DBC086"/>
<stop offset="1" stop-color="#AA8C5F"/>
</linearGradient>
<linearGradient id="paint53_linear_997_2991" x1="-6.48507" y1="76.1927" x2="-28.2796" y2="20.3943" gradientUnits="userSpaceOnUse">
<stop stop-color="#AA8C5F"/>
<stop offset="0.08" stop-color="#B19465"/>
<stop offset="0.51" stop-color="#DBC086"/>
<stop offset="1" stop-color="#AA8C5F"/>
</linearGradient>
<linearGradient id="paint54_linear_997_2991" x1="-8.95882" y1="62.8885" x2="-22.9655" y2="15.8637" gradientUnits="userSpaceOnUse">
<stop stop-color="#AA8C5F"/>
<stop offset="0.08" stop-color="#B19465"/>
<stop offset="0.51" stop-color="#DBC086"/>
<stop offset="1" stop-color="#AA8C5F"/>
</linearGradient>
<linearGradient id="paint55_linear_997_2991" x1="-17.5194" y1="73.3963" x2="-29.7892" y2="14.7497" gradientUnits="userSpaceOnUse">
<stop stop-color="#AA8C5F"/>
<stop offset="0.08" stop-color="#B19465"/>
<stop offset="0.51" stop-color="#DBC086"/>
<stop offset="1" stop-color="#AA8C5F"/>
</linearGradient>
<linearGradient id="paint56_linear_997_2991" x1="-17.856" y1="59.8899" x2="-23.8929" y2="11.1886" gradientUnits="userSpaceOnUse">
<stop stop-color="#AA8C5F"/>
<stop offset="0.08" stop-color="#B19465"/>
<stop offset="0.51" stop-color="#DBC086"/>
<stop offset="1" stop-color="#AA8C5F"/>
</linearGradient>
<linearGradient id="paint57_linear_997_2991" x1="-27.9706" y1="68.9436" x2="-30.3808" y2="9.07575" gradientUnits="userSpaceOnUse">
<stop stop-color="#AA8C5F"/>
<stop offset="0.08" stop-color="#B19465"/>
<stop offset="0.51" stop-color="#DBC086"/>
<stop offset="1" stop-color="#AA8C5F"/>
</linearGradient>
<linearGradient id="paint58_linear_997_2991" x1="-26.0446" y1="55.4893" x2="-23.9418" y2="6.45885" gradientUnits="userSpaceOnUse">
<stop stop-color="#AA8C5F"/>
<stop offset="0.08" stop-color="#B19465"/>
<stop offset="0.51" stop-color="#DBC086"/>
<stop offset="1" stop-color="#AA8C5F"/>
</linearGradient>
<linearGradient id="paint59_linear_997_2991" x1="-37.5854" y1="62.6907" x2="-30.0588" y2="3.25098" gradientUnits="userSpaceOnUse">
<stop stop-color="#AA8C5F"/>
<stop offset="0.08" stop-color="#B19465"/>
<stop offset="0.51" stop-color="#DBC086"/>
<stop offset="1" stop-color="#AA8C5F"/>
</linearGradient>
<linearGradient id="paint60_linear_997_2991" x1="-33.4899" y1="49.7227" x2="-23.3055" y2="1.71459" gradientUnits="userSpaceOnUse">
<stop stop-color="#AA8C5F"/>
<stop offset="0.08" stop-color="#B19465"/>
<stop offset="0.51" stop-color="#DBC086"/>
<stop offset="1" stop-color="#AA8C5F"/>
</linearGradient>
<linearGradient id="paint61_linear_997_2991" x1="-46.0276" y1="54.9759" x2="-28.7747" y2="-2.39686" gradientUnits="userSpaceOnUse">
<stop stop-color="#AA8C5F"/>
<stop offset="0.08" stop-color="#B19465"/>
<stop offset="0.51" stop-color="#DBC086"/>
<stop offset="1" stop-color="#AA8C5F"/>
</linearGradient>
<linearGradient id="paint62_linear_997_2991" x1="-39.7901" y1="42.942" x2="-21.823" y2="-2.70392" gradientUnits="userSpaceOnUse">
<stop stop-color="#AA8C5F"/>
<stop offset="0.08" stop-color="#B19465"/>
<stop offset="0.51" stop-color="#DBC086"/>
<stop offset="1" stop-color="#AA8C5F"/>
</linearGradient>
<linearGradient id="paint63_linear_997_2991" x1="-53.0507" y1="46.0491" x2="-26.5689" y2="-7.66719" gradientUnits="userSpaceOnUse">
<stop stop-color="#AA8C5F"/>
<stop offset="0.08" stop-color="#B19465"/>
<stop offset="0.51" stop-color="#DBC086"/>
<stop offset="1" stop-color="#AA8C5F"/>
</linearGradient>
<linearGradient id="paint64_linear_997_2991" x1="-44.936" y1="35.1204" x2="-19.6794" y2="-6.91535" gradientUnits="userSpaceOnUse">
<stop stop-color="#AA8C5F"/>
<stop offset="0.08" stop-color="#B19465"/>
<stop offset="0.51" stop-color="#DBC086"/>
<stop offset="1" stop-color="#AA8C5F"/>
</linearGradient>
<linearGradient id="paint65_linear_997_2991" x1="-58.5064" y1="35.9662" x2="-23.5284" y2="-12.6152" gradientUnits="userSpaceOnUse">
<stop stop-color="#AA8C5F"/>
<stop offset="0.08" stop-color="#B19465"/>
<stop offset="0.51" stop-color="#DBC086"/>
<stop offset="1" stop-color="#AA8C5F"/>
</linearGradient>
<linearGradient id="paint66_linear_997_2991" x1="-48.7188" y1="26.5599" x2="-16.8741" y2="-10.7176" gradientUnits="userSpaceOnUse">
<stop stop-color="#AA8C5F"/>
<stop offset="0.08" stop-color="#B19465"/>
<stop offset="0.51" stop-color="#DBC086"/>
<stop offset="1" stop-color="#AA8C5F"/>
</linearGradient>
<linearGradient id="paint67_linear_997_2991" x1="-62.2306" y1="25.174" x2="-19.7277" y2="-16.9495" gradientUnits="userSpaceOnUse">
<stop stop-color="#AA8C5F"/>
<stop offset="0.08" stop-color="#B19465"/>
<stop offset="0.51" stop-color="#DBC086"/>
<stop offset="1" stop-color="#AA8C5F"/>
</linearGradient>
<linearGradient id="paint68_linear_997_2991" x1="-51.0512" y1="17.4871" x2="-13.5052" y2="-14.0112" gradientUnits="userSpaceOnUse">
<stop stop-color="#AA8C5F"/>
<stop offset="0.08" stop-color="#B19465"/>
<stop offset="0.51" stop-color="#DBC086"/>
<stop offset="1" stop-color="#AA8C5F"/>
</linearGradient>
<linearGradient id="paint69_linear_997_2991" x1="-64.1759" y1="13.8844" x2="-15.3197" y2="-20.6398" gradientUnits="userSpaceOnUse">
<stop stop-color="#AA8C5F"/>
<stop offset="0.08" stop-color="#B19465"/>
<stop offset="0.51" stop-color="#DBC086"/>
<stop offset="1" stop-color="#AA8C5F"/>
</linearGradient>
<linearGradient id="paint70_linear_997_2991" x1="-51.8499" y1="8.15539" x2="-9.64353" y2="-16.7076" gradientUnits="userSpaceOnUse">
<stop stop-color="#AA8C5F"/>
<stop offset="0.08" stop-color="#B19465"/>
<stop offset="0.51" stop-color="#DBC086"/>
<stop offset="1" stop-color="#AA8C5F"/>
</linearGradient>
<linearGradient id="paint71_linear_997_2991" x1="-64.1982" y1="2.46562" x2="-10.3414" y2="-23.5322" gradientUnits="userSpaceOnUse">
<stop stop-color="#AA8C5F"/>
<stop offset="0.08" stop-color="#B19465"/>
<stop offset="0.51" stop-color="#DBC086"/>
<stop offset="1" stop-color="#AA8C5F"/>
</linearGradient>
<linearGradient id="paint72_linear_997_2991" x1="-51.1142" y1="-1.15782" x2="-5.39047" y2="-18.7234" gradientUnits="userSpaceOnUse">
<stop stop-color="#AA8C5F"/>
<stop offset="0.08" stop-color="#B19465"/>
<stop offset="0.51" stop-color="#DBC086"/>
<stop offset="1" stop-color="#AA8C5F"/>
</linearGradient>
<linearGradient id="paint73_linear_997_2991" x1="-62.3482" y1="-8.84541" x2="-4.95044" y2="-25.6014" gradientUnits="userSpaceOnUse">
<stop stop-color="#AA8C5F"/>
<stop offset="0.08" stop-color="#B19465"/>
<stop offset="0.51" stop-color="#DBC086"/>
<stop offset="1" stop-color="#AA8C5F"/>
</linearGradient>
<linearGradient id="paint74_linear_997_2991" x1="-48.8491" y1="-10.2211" x2="-0.873632" y2="-20.02" gradientUnits="userSpaceOnUse">
<stop stop-color="#AA8C5F"/>
<stop offset="0.08" stop-color="#B19465"/>
<stop offset="0.51" stop-color="#DBC086"/>
<stop offset="1" stop-color="#AA8C5F"/>
</linearGradient>
<linearGradient id="paint75_linear_997_2991" x1="-58.6564" y1="-19.6521" x2="0.707019" y2="-26.7352" gradientUnits="userSpaceOnUse">
<stop stop-color="#AA8C5F"/>
<stop offset="0.08" stop-color="#B19465"/>
<stop offset="0.51" stop-color="#DBC086"/>
<stop offset="1" stop-color="#AA8C5F"/>
</linearGradient>
<clipPath id="clip0_997_2991">
<rect width="183" height="184" fill="white" transform="translate(-87 -84)"/>
</clipPath>
</defs>
</svg>
