<svg width="51" height="50" viewBox="0 0 51 50" fill="none" xmlns="http://www.w3.org/2000/svg">
<path d="M38.7294 40.0833H11.3751C11.0477 40.0863 10.7278 39.9848 10.4619 39.7938C10.1959 39.6029 9.99771 39.3321 9.89594 39.0208L3.25011 18.75C3.14829 18.4585 3.13761 18.1429 3.21948 17.8452C3.30133 17.5475 3.4719 17.2818 3.70844 17.0833C3.94206 16.8784 4.23221 16.7488 4.54079 16.7116C4.84936 16.6744 5.16198 16.7314 5.43761 16.875L17.5626 22.9167L23.8127 10.7917C23.9569 10.55 24.1612 10.3498 24.4058 10.2108C24.6506 10.0718 24.9271 9.99872 25.2085 9.99872C25.49 9.99872 25.7664 10.0718 26.0112 10.2108C26.2558 10.3498 26.4602 10.55 26.6044 10.7917L32.8544 22.9375L45.0002 16.8958C45.2727 16.754 45.5816 16.6979 45.8866 16.7351C46.1916 16.7723 46.4781 16.901 46.7085 17.1042C46.9079 17.3227 47.0412 17.5935 47.0929 17.8848C47.1446 18.1762 47.1125 18.4762 47.0002 18.75L40.2085 39C40.1104 39.3152 39.9137 39.5904 39.6475 39.7854C39.3812 39.9804 39.0594 40.0848 38.7294 40.0833ZM12.6251 36.9583H37.6252L42.8544 21.3542L32.7085 26.3958C32.5269 26.4888 32.3285 26.5448 32.125 26.5604C31.9216 26.5763 31.7171 26.5513 31.5231 26.4873C31.3294 26.4233 31.1502 26.3217 30.996 26.1879C30.8419 26.0542 30.7158 25.8913 30.6252 25.7083L25.1252 14.9167L19.6459 25.7083C19.5553 25.8913 19.4292 26.0542 19.275 26.1879C19.1209 26.3217 18.9417 26.4233 18.7479 26.4873C18.5541 26.5513 18.3496 26.5763 18.1461 26.5604C17.9426 26.5448 17.7443 26.4888 17.5626 26.3958L7.37511 21.2917L12.6251 36.9583Z" fill="#240028"/>
<path d="M25.1251 30.6667C24.7124 30.6613 24.3181 30.495 24.0262 30.2031C23.7343 29.9113 23.5681 29.5169 23.5626 29.1042C23.5599 28.9 23.5976 28.6973 23.6739 28.5077C23.7501 28.3184 23.8633 28.1459 24.0068 28.0006C24.1501 27.8552 24.321 27.7398 24.5095 27.6611C24.6978 27.5823 24.9001 27.5417 25.1043 27.5417C25.5187 27.5417 25.9162 27.7063 26.2091 27.9994C26.5022 28.2923 26.6668 28.6898 26.6668 29.1042C26.6668 29.5186 26.5022 29.9161 26.2091 30.209C25.9162 30.5021 25.5187 30.6667 25.1043 30.6667H25.1251Z" fill="#240028"/>
</svg>
