<svg width="40" height="40" viewBox="0 0 40 40" fill="none" xmlns="http://www.w3.org/2000/svg">
<g clip-path="url(#clip0_1123_925)">
<path d="M19.9995 10.3091C14.6559 10.3091 10.3086 14.6564 10.3086 20C10.3086 25.3436 14.6559 29.691 19.9995 29.691C25.3431 29.691 29.6905 25.3436 29.6905 20C29.6905 14.6564 25.3431 10.3091 19.9995 10.3091ZM19.9995 27.3472C15.9483 27.3472 12.6523 24.0513 12.6523 20C12.6523 15.9488 15.9483 12.6528 19.9995 12.6528C24.0508 12.6528 27.3467 15.9488 27.3467 20C27.3467 24.0513 24.0508 27.3472 19.9995 27.3472Z" fill="#240028"/>
<path d="M37.3247 10.0025C39.0159 7.95977 38.9061 4.9182 36.994 3.00609C35.0818 1.09398 32.0403 0.984219 29.9976 2.67539C26.9662 0.922656 23.5299 0 20 0C14.6578 0 9.63539 2.08039 5.85781 5.85781C2.08039 9.63539 0 14.6578 0 20C0 25.3422 2.08039 30.3646 5.85781 34.1422C9.63539 37.9196 14.6578 40 20 40C25.3422 40 30.3646 37.9196 34.1422 34.1422C37.9196 30.3646 40 25.3422 40 20C40 16.47 39.0773 13.0337 37.3247 10.0025ZM33.3135 3.82664C34.0462 3.82664 34.7789 4.10547 35.3366 4.66328C36.4522 5.77883 36.4522 7.59414 35.3366 8.70969C34.2211 9.82531 32.4059 9.82523 31.2903 8.70969C30.1748 7.59414 30.1748 5.77883 31.2903 4.66328C31.8481 4.10555 32.5808 3.82664 33.3135 3.82664ZM32.4848 32.4848C29.15 35.8197 24.7162 37.6562 20 37.6562C15.2838 37.6562 10.85 35.8197 7.51516 32.4848C4.18031 29.15 2.34375 24.7162 2.34375 20C2.34375 15.2838 4.18031 10.85 7.51516 7.51516C10.85 4.18031 15.2838 2.34375 20 2.34375C23.0163 2.34375 25.9542 3.10641 28.5651 4.55727C27.7096 6.47094 28.0648 8.79875 29.633 10.367C30.6477 11.3816 31.9806 11.889 33.3135 11.889C34.0406 11.889 34.7673 11.7368 35.4427 11.4349C36.8936 14.0458 37.6562 16.9837 37.6562 20C37.6562 24.7162 35.8197 29.15 32.4848 32.4848Z" fill="#240028"/>
</g>
<defs>
<clipPath id="clip0_1123_925">
<rect width="40" height="40" fill="white"/>
</clipPath>
</defs>
</svg>
