<svg width="32" height="32" viewBox="0 0 32 32" fill="none" xmlns="http://www.w3.org/2000/svg">
<g clip-path="url(#clip0_1123_633)">
<path d="M11 17.5C12.3625 17.5 14.6675 18.165 15.367 18.3975C15.5025 18.4425 18.701 19.5 21 19.5C24.86 19.5 28 16.36 28 12.5C28 8.64 24.86 5.5 21 5.5C18.839 5.5 17.4755 5.982 16.2725 6.4075C15.301 6.7515 14.599 7 13.5 7C13.3775 7 13.2645 6.9555 13.177 6.8805C13.5905 6.604 14 6.1445 14 5.5C14 4.0485 12.9755 1.971 11.5 1.573V1.207L11.8535 0.853503C12.049 0.658003 12.049 0.342003 11.8535 0.146503C11.658 -0.0489971 11.342 -0.0489971 11.1465 0.146503L11 0.293003L10.8535 0.146503C10.658 -0.0489971 10.342 -0.0489971 10.1465 0.146503C9.951 0.342003 9.951 0.658003 10.1465 0.853503L10.5 1.207V1.573C9.0245 1.971 8 4.0485 8 5.5C8 6.2525 8.5575 6.754 9.0335 7.011C9.2875 9.272 11.193 11 13.5 11C15.2845 11 16.5175 10.564 17.6075 10.179C18.637 9.8145 19.5265 9.5 21 9.5C22.6545 9.5 24 10.8455 24 12.5C24 14.1545 22.6545 15.5 21 15.5C19.6375 15.5 17.3325 14.835 16.633 14.6025C16.4975 14.5575 13.299 13.5 11 13.5C7.14 13.5 4 16.64 4 20.5C4 24.36 7.14 27.5 11 27.5C12.8845 27.5 14.4025 26.893 15.7425 26.357C16.892 25.897 17.885 25.5 19 25.5C19.7195 25.5 20 25.78 20 26.5C20 28.6535 16.5295 29.5575 14.665 30.0425C13.4875 30.3495 13 30.4765 13 31C13 32 14.155 32 14.998 32C15.05 32 15.101 31.998 15.154 31.994C19.004 31.698 23.5 29.9505 23.5 26C23.5 23.519 21.4815 21.5 19 21.5C17.115 21.5 15.5975 22.107 14.2575 22.643C13.108 23.103 12.1155 23.5 11 23.5C9.3455 23.5 8 22.1545 8 20.5C8 18.8455 9.3455 17.5 11 17.5ZM7 20.5C7 22.7055 8.7945 24.5 11 24.5C12.3075 24.5 13.3835 24.0695 14.63 23.571C15.8855 23.069 17.308 22.5 19 22.5C20.9295 22.5 22.5 24.07 22.5 26C22.5 29.494 17.834 30.785 15.0775 30.997C15.0375 31 14.998 30.9995 14.9575 31C17.093 30.444 21 29.408 21 26.5C21 25.229 20.271 24.5 19 24.5C17.6925 24.5 16.6165 24.9305 15.37 25.429C14.115 25.931 12.692 26.5 11 26.5C8.5805 26.5 6.496 25.0575 5.548 22.99C5.801 22.965 6 22.759 6 22.5C6 22.224 5.7765 22 5.5 22H5.197C5.1135 21.676 5.0535 21.3425 5.025 21H5.5C5.7765 21 6 20.776 6 20.5C6 20.224 5.7765 20 5.5 20H5.0255C5.054 19.657 5.114 19.324 5.1975 19H5.5C5.7765 19 6 18.776 6 18.5C6 18.241 5.801 18.035 5.548 18.0095C6.496 15.9425 8.5805 14.5 11 14.5C13.138 14.5 16.1875 15.5085 16.317 15.5515C17.1105 15.815 19.498 16.5 21 16.5C23.2055 16.5 25 14.7055 25 12.5C25 10.2945 23.2055 8.5 21 8.5C19.3545 8.5 18.297 8.8745 17.2725 9.2365C16.2605 9.5945 15.1135 10 13.5 10C11.625 10 10.0915 8.531 10.0085 6.6555C9.9995 6.452 9.8685 6.2745 9.6765 6.2065C9.6695 6.204 9 5.9465 9 5.5C9 4.261 10.034 2.5 11 2.5C11.966 2.5 13 4.261 13 5.5C13 5.9355 12.3505 6.191 12.3465 6.1925C12.12 6.274 11.9835 6.506 12.0235 6.744C12.143 7.4715 12.764 8 13.5 8C14.7705 8 15.621 7.699 16.6065 7.3505C17.7335 6.952 19.0105 6.5 21 6.5C23.4195 6.5 25.504 7.9425 26.452 10.01C26.199 10.035 26 10.241 26 10.5C26 10.776 26.2235 11 26.5 11H26.8025C26.886 11.324 26.946 11.6575 26.9745 12H26.5C26.2235 12 26 12.224 26 12.5C26 12.776 26.2235 13 26.5 13H26.9745C26.946 13.343 26.886 13.676 26.8025 14H26.5C26.2235 14 26 14.224 26 14.5C26 14.759 26.199 14.965 26.452 14.99C25.504 17.0575 23.4195 18.5 21 18.5C18.862 18.5 15.8125 17.4915 15.683 17.4485C14.8895 17.185 12.502 16.5 11 16.5C8.7945 16.5 7 18.2945 7 20.5Z" fill="#240028"/>
</g>
<defs>
<clipPath id="clip0_1123_633">
<rect width="32" height="32" fill="white"/>
</clipPath>
</defs>
</svg>
