<svg width="40" height="41" viewBox="0 0 40 41" fill="none" xmlns="http://www.w3.org/2000/svg">
<g clip-path="url(#clip0_1123_789)">
<path d="M20 1.83292C25.5126 1.83256 30.7421 4.27344 34.2823 8.49946H23.6663C22.2356 8.49751 20.8244 8.16459 19.544 7.52592L18.3854 6.94655C15.4089 5.48881 11.9258 5.48881 8.94938 6.94655L7.78958 7.52592C7.2285 7.79776 6.63777 8.00355 6.02981 8.13938C9.5655 4.12944 14.6537 1.83239 20 1.83292ZM19.0515 39.1395C18.4428 39.1088 17.8423 39.0477 17.2516 38.9593C16.1335 38.6301 15.3336 37.9451 15.3336 37.1637C15.3336 36.0797 16.8602 35.1637 18.6667 35.1637C20.4732 35.1637 21.9996 36.0797 21.9996 37.1637C21.9996 38.1688 20.6823 39.0195 19.0515 39.1395ZM22.5978 38.9788C23.061 38.487 23.3231 37.8393 23.3331 37.1637C23.3331 35.297 21.2834 33.8308 18.6667 33.8308C16.0504 33.8308 14.0003 35.297 14.0003 37.1637C14.0025 37.541 14.088 37.9133 14.2512 38.2535C9.61397 36.7402 5.74909 33.4799 3.47619 29.1642H16.9089C18.739 29.1992 20.4819 29.9529 21.7606 31.2629C24.3467 33.7977 28.4856 33.7977 31.0717 31.2629C32.3506 29.9531 34.0932 29.1994 35.9233 29.1642H36.5236C33.7272 34.4819 28.5477 38.1328 22.5996 38.9788H22.5978ZM37.7105 26.3798C37.6825 26.4627 37.655 26.5451 37.6266 26.6271C37.4877 27.0272 37.3386 27.4192 37.1725 27.8084L37.1626 27.8311H35.9233C33.7441 27.8652 31.666 28.756 30.1385 30.31C28.071 32.3377 24.7612 32.3377 22.6937 30.31C21.1662 28.7555 19.088 27.8652 16.9089 27.8311H2.83734L2.82722 27.8075C2.66138 27.4192 2.51206 27.0245 2.37356 26.6271C2.34462 26.5451 2.31763 26.4627 2.28923 26.3798C2.15606 25.9799 2.03141 25.5733 1.92541 25.1648H16.9089C19.088 25.1305 21.1662 24.24 22.6937 22.6854C24.7612 20.658 28.071 20.658 30.1385 22.6854C31.666 24.24 33.7441 25.1305 35.9233 25.1648H38.0745C37.9683 25.5733 37.8444 25.9778 37.7105 26.3798ZM38.6649 20.4982C38.6635 21.6165 38.5619 22.7317 38.3611 23.8315H35.9233C34.0932 23.7965 32.3503 23.0426 31.0715 21.7329C28.4854 19.198 24.3466 19.198 21.7604 21.7329C20.4819 23.0426 18.739 23.7967 16.9089 23.8315H1.63884C1.43802 22.7317 1.33628 21.6165 1.33486 20.4982C1.33486 20.0499 1.35634 19.606 1.38759 19.1651H11.7336C14.6477 19.1614 17.4739 18.1699 19.7517 16.3526C21.7917 14.725 24.3229 13.8363 26.9325 13.8326H27.0658C29.6768 13.8356 32.2098 14.7242 34.2505 16.3526C35.5351 17.3697 37.0012 18.1326 38.571 18.6014C38.6345 19.2317 38.6658 19.8647 38.6649 20.4982ZM38.357 17.1433C37.1731 16.7148 36.0669 16.096 35.082 15.3114C32.8048 13.4947 29.9788 12.5035 27.0658 12.4991H26.9325C24.019 12.5028 21.1923 13.4945 18.9146 15.3114C16.8748 16.9394 14.3437 17.8279 11.7342 17.832H1.52804C1.95009 14.8997 3.06799 12.111 4.78851 9.69921C6.03532 9.57705 7.25229 9.24467 8.3883 8.71608L9.5481 8.13689C12.1488 6.86363 15.1914 6.86363 17.7921 8.13689L18.9506 8.71608C20.4153 9.44726 22.0294 9.82936 23.6663 9.83274H35.3041C36.8359 12.0215 37.8773 14.5151 38.357 17.1433ZM20 0.500002C12.8595 0.505328 6.2633 4.31587 2.6921 10.4991H2.66795V10.5412C-2.37608 19.2931 -0.0861275 30.4336 8.00105 36.4865V36.4971H8.01472C15.115 41.8299 24.8849 41.8299 31.9849 36.4971H31.9991V36.4865C40.833 29.8638 42.6257 17.334 36.0032 8.49964C32.2263 3.46182 26.2967 0.497516 20 0.500002Z" fill="#240028"/>
<path d="M26.4157 22.498C24.2069 22.498 22.416 24.2889 22.416 26.4977C22.416 28.707 24.2069 30.4973 26.4157 30.4973C28.6246 30.4973 30.4155 28.707 30.4155 26.4977C30.4132 24.2898 28.6238 22.5004 26.4157 22.498ZM26.4157 29.1642C24.943 29.1642 23.7495 27.9705 23.7495 26.4977C23.7495 25.0254 24.943 23.8313 26.4157 23.8313C27.8885 23.8313 29.082 25.0254 29.082 26.4977C29.082 27.9705 27.8885 29.1642 26.4157 29.1642Z" fill="#240028"/>
<path d="M13.3345 9.16602C11.8619 9.16602 10.668 10.3597 10.668 11.8324C10.668 13.305 11.8619 14.4991 13.3345 14.4991C14.807 14.4991 16.0007 13.305 16.0007 11.8324C16.0007 10.3597 14.807 9.16602 13.3345 9.16602ZM13.3345 13.1657C12.598 13.1657 12.0012 12.5689 12.0012 11.8324C12.0012 11.0962 12.598 10.4995 13.3345 10.4995C14.0707 10.4995 14.6676 11.0962 14.6676 11.8324C14.6676 12.5689 14.0707 13.1657 13.3345 13.1657Z" fill="#240028"/>
</g>
<defs>
<clipPath id="clip0_1123_789">
<rect width="40" height="40" fill="white" transform="translate(0 0.5)"/>
</clipPath>
</defs>
</svg>
