<svg width="40" height="40" viewBox="0 0 40 40" fill="none" xmlns="http://www.w3.org/2000/svg">
<g clip-path="url(#clip0_1123_733)">
<path d="M5.62495 15.625C7.33659 15.6653 9.02829 16.002 10.625 16.62V17.5C10.625 17.6658 10.6909 17.8247 10.8081 17.9419L11.625 18.76C10.375 20.1088 6.87495 24.175 6.87495 27.5C6.87495 30.9238 11.8318 35.0713 13.4862 36.3606L11.3868 38.9856C11.3136 39.0776 11.2678 39.1883 11.2546 39.3051C11.2415 39.422 11.2616 39.5401 11.3125 39.646C11.3635 39.752 11.4433 39.8414 11.5428 39.904C11.6423 39.9666 11.7574 39.9999 11.875 40H28.125C28.2427 40.0001 28.3581 39.9668 28.4578 39.9042C28.5575 39.8415 28.6375 39.7519 28.6885 39.6458C28.7395 39.5396 28.7595 39.4212 28.7462 39.3042C28.7328 39.1872 28.6867 39.0763 28.6131 38.9844L26.5137 36.3594C28.1681 35.0713 33.125 30.9238 33.125 27.5C33.125 24.175 29.625 20.1088 28.375 18.76L29.1931 17.9419C29.3098 17.8245 29.3752 17.6656 29.375 17.5V15.625C29.375 15.4593 29.3091 15.3003 29.1919 15.1831C29.0747 15.0659 28.9157 15 28.75 15H28.405C29.8578 14.0392 31.4982 13.398 33.2175 13.1188C33.3326 13.1024 33.441 13.0543 33.5303 12.9797C33.6196 12.9052 33.6863 12.8072 33.723 12.6968C33.7596 12.5863 33.7647 12.4679 33.7377 12.3547C33.7106 12.2416 33.6525 12.1382 33.57 12.0563C32.8769 11.3703 32.0291 10.861 31.098 10.5712C30.167 10.2814 29.1799 10.2197 28.22 10.3913C28.6568 9.24575 28.837 8.01838 28.7481 6.79564C28.7368 6.70511 28.7058 6.61816 28.6573 6.54088C28.6088 6.4636 28.544 6.39788 28.4674 6.34832C28.3908 6.29877 28.3043 6.26658 28.2139 6.25402C28.1236 6.24147 28.0315 6.24885 27.9443 6.27564C27.4331 6.43314 26.9475 6.60418 26.4875 6.78877C25.1265 4.01072 22.9897 1.68657 20.3356 0.097517C20.2353 0.0336696 20.1188 -0.000244141 20 -0.000244141C19.8811 -0.000244141 19.7646 0.0336696 19.6643 0.097517C14.2137 3.56627 12.9106 7.78502 12.6018 9.65564C11.9593 9.46987 11.2938 9.3754 10.625 9.37502C10.5299 9.37502 10.4362 9.39668 10.3508 9.43835C10.2654 9.48002 10.1907 9.54061 10.1322 9.61551C10.0738 9.69041 10.0332 9.77764 10.0135 9.87059C9.99384 9.96353 9.99562 10.0597 10.0187 10.1519C10.0343 10.2144 10.2062 10.8794 10.5306 11.8013C9.15558 11.71 7.2137 12.1863 5.15058 14.5931C5.07276 14.6839 5.02259 14.795 5.00603 14.9134C4.98947 15.0318 5.0072 15.1525 5.05713 15.2611C5.10707 15.3697 5.1871 15.4617 5.28774 15.5262C5.38838 15.5907 5.50541 15.625 5.62495 15.625ZM26.825 38.75H13.1756L14.6756 36.875H25.3243L26.825 38.75ZM31.875 27.5C31.875 30.2375 27.355 34.1819 25.4175 35.625H14.5825C12.645 34.1819 8.12495 30.2375 8.12495 27.5C8.12495 24.4244 11.9143 20.2694 12.7656 19.375H16.25C16.4157 19.375 16.5747 19.3092 16.6919 19.192C16.8091 19.0747 16.875 18.9158 16.875 18.75C16.875 18.5843 16.8091 18.4253 16.6919 18.3081C16.5747 18.1909 16.4157 18.125 16.25 18.125H12.7587L11.875 17.2413V16.25H28.125V17.2413L27.2412 18.125H18.75C18.5842 18.125 18.4252 18.1909 18.308 18.3081C18.1908 18.4253 18.125 18.5843 18.125 18.75C18.125 18.9158 18.1908 19.0747 18.308 19.192C18.4252 19.3092 18.5842 19.375 18.75 19.375H27.2343C28.0856 20.2694 31.875 24.4244 31.875 27.5ZM31.6825 12.1688C30.2312 12.5513 27.9675 13.3844 26.5937 15H24.9762C26.0345 14.0948 26.9206 13.0059 27.5918 11.7856C28.9523 11.3661 30.4236 11.5039 31.6825 12.1688ZM22.9256 15H19.5962C20.18 13.4169 22.0818 9.69064 27.5131 7.73752C27.4287 9.18752 26.7662 12.3688 22.9256 15ZM20 1.37064C22.2954 2.81233 24.1447 4.86397 25.3412 7.29627C20.6062 9.58627 18.9037 13.1438 18.3631 14.7163C17.3241 12.7681 15.7342 11.1692 13.7918 10.1194C13.9675 8.73127 14.91 4.75002 20 1.37064ZM17.0743 15H13.4875C12.618 13.6641 11.9411 12.2123 11.4768 10.6875C14.3662 11.1156 16.25 13.6356 17.0743 15ZM11.0568 13.1438C11.3293 13.7819 11.6425 14.4019 11.9943 15H11.25C11.142 15.0011 11.0362 15.0305 10.9432 15.0854C10.8501 15.1402 10.7732 15.2186 10.72 15.3125C9.5253 14.8762 8.28092 14.5904 7.01558 14.4619C8.6437 13 10.0518 12.8888 11.0568 13.1438Z" fill="#240028"/>
<path d="M23.125 29.375V26.875C23.125 26.7092 23.0592 26.5503 22.9419 26.4331C22.8247 26.3158 22.6658 26.25 22.5 26.25H20.625V25H22.5C22.6658 25 22.8247 24.9342 22.9419 24.8169C23.0592 24.6997 23.125 24.5408 23.125 24.375C23.125 24.2092 23.0592 24.0503 22.9419 23.9331C22.8247 23.8158 22.6658 23.75 22.5 23.75H20C19.8342 23.75 19.6753 23.8158 19.5581 23.9331C19.4408 24.0503 19.375 24.2092 19.375 24.375V26.25H18.125V24.375C18.125 24.2092 18.0592 24.0503 17.9419 23.9331C17.8247 23.8158 17.6658 23.75 17.5 23.75C17.3342 23.75 17.1753 23.8158 17.0581 23.9331C16.9408 24.0503 16.875 24.2092 16.875 24.375V26.875C16.875 27.0408 16.9408 27.1997 17.0581 27.3169C17.1753 27.4342 17.3342 27.5 17.5 27.5H19.375V28.75H17.5C17.3342 28.75 17.1753 28.8158 17.0581 28.9331C16.9408 29.0503 16.875 29.2092 16.875 29.375C16.875 29.5408 16.9408 29.6997 17.0581 29.8169C17.1753 29.9342 17.3342 30 17.5 30H20C20.1658 30 20.3247 29.9342 20.4419 29.8169C20.5592 29.6997 20.625 29.5408 20.625 29.375V27.5H21.875V29.375C21.875 29.5408 21.9408 29.6997 22.0581 29.8169C22.1753 29.9342 22.3342 30 22.5 30C22.6658 30 22.8247 29.9342 22.9419 29.8169C23.0592 29.6997 23.125 29.5408 23.125 29.375Z" fill="#240028"/>
<path d="M13.75 22.5C14.0952 22.5 14.375 22.2202 14.375 21.875C14.375 21.5298 14.0952 21.25 13.75 21.25C13.4048 21.25 13.125 21.5298 13.125 21.875C13.125 22.2202 13.4048 22.5 13.75 22.5Z" fill="#240028"/>
<path d="M23.125 22.5C23.4702 22.5 23.75 22.2202 23.75 21.875C23.75 21.5298 23.4702 21.25 23.125 21.25C22.7798 21.25 22.5 21.5298 22.5 21.875C22.5 22.2202 22.7798 22.5 23.125 22.5Z" fill="#240028"/>
<path d="M26.25 22.5C26.5952 22.5 26.875 22.2202 26.875 21.875C26.875 21.5298 26.5952 21.25 26.25 21.25C25.9048 21.25 25.625 21.5298 25.625 21.875C25.625 22.2202 25.9048 22.5 26.25 22.5Z" fill="#240028"/>
<path d="M16.875 22.5C17.2202 22.5 17.5 22.2202 17.5 21.875C17.5 21.5298 17.2202 21.25 16.875 21.25C16.5298 21.25 16.25 21.5298 16.25 21.875C16.25 22.2202 16.5298 22.5 16.875 22.5Z" fill="#240028"/>
<path d="M20 22.5C20.3452 22.5 20.625 22.2202 20.625 21.875C20.625 21.5298 20.3452 21.25 20 21.25C19.6548 21.25 19.375 21.5298 19.375 21.875C19.375 22.2202 19.6548 22.5 20 22.5Z" fill="#240028"/>
<path d="M13.75 32.5C14.0952 32.5 14.375 32.2202 14.375 31.875C14.375 31.5298 14.0952 31.25 13.75 31.25C13.4048 31.25 13.125 31.5298 13.125 31.875C13.125 32.2202 13.4048 32.5 13.75 32.5Z" fill="#240028"/>
<path d="M23.125 32.5C23.4702 32.5 23.75 32.2202 23.75 31.875C23.75 31.5298 23.4702 31.25 23.125 31.25C22.7798 31.25 22.5 31.5298 22.5 31.875C22.5 32.2202 22.7798 32.5 23.125 32.5Z" fill="#240028"/>
<path d="M26.25 32.5C26.5952 32.5 26.875 32.2202 26.875 31.875C26.875 31.5298 26.5952 31.25 26.25 31.25C25.9048 31.25 25.625 31.5298 25.625 31.875C25.625 32.2202 25.9048 32.5 26.25 32.5Z" fill="#240028"/>
<path d="M16.875 32.5C17.2202 32.5 17.5 32.2202 17.5 31.875C17.5 31.5298 17.2202 31.25 16.875 31.25C16.5298 31.25 16.25 31.5298 16.25 31.875C16.25 32.2202 16.5298 32.5 16.875 32.5Z" fill="#240028"/>
<path d="M20 32.5C20.3452 32.5 20.625 32.2202 20.625 31.875C20.625 31.5298 20.3452 31.25 20 31.25C19.6548 31.25 19.375 31.5298 19.375 31.875C19.375 32.2202 19.6548 32.5 20 32.5Z" fill="#240028"/>
<path d="M16.2501 10.625C16.3941 10.6249 16.5336 10.5751 16.6451 10.484C16.7566 10.3929 16.8332 10.2661 16.862 10.125C16.9422 9.72697 17.0465 9.33415 17.1745 8.94879C17.2003 8.87082 17.2105 8.78853 17.2044 8.70663C17.1984 8.62473 17.1763 8.54482 17.1394 8.47146C17.1025 8.39811 17.0515 8.33274 16.9893 8.27909C16.9271 8.22544 16.855 8.18456 16.777 8.15879C16.699 8.13302 16.6168 8.12286 16.5349 8.12888C16.453 8.13491 16.3731 8.15701 16.2997 8.19393C16.2263 8.23084 16.161 8.28184 16.1073 8.34401C16.0537 8.40618 16.0128 8.47832 15.987 8.55629C15.8439 8.98836 15.7272 9.42876 15.6376 9.87504C15.6212 9.95548 15.6208 10.0384 15.6364 10.119C15.652 10.1996 15.6833 10.2763 15.7286 10.3448C15.7739 10.4133 15.8322 10.4722 15.9002 10.5181C15.9683 10.5641 16.0447 10.5961 16.1251 10.6125C16.1663 10.6211 16.2082 10.6253 16.2501 10.625Z" fill="#240028"/>
<path d="M17.1038 7.42121C17.1755 7.46122 17.2544 7.48671 17.336 7.49621C17.4176 7.50571 17.5002 7.49903 17.5792 7.47657C17.6582 7.45411 17.732 7.41629 17.7964 7.36529C17.8608 7.31429 17.9145 7.2511 17.9544 7.17933C18.2948 6.5517 18.7106 5.968 19.1925 5.44121C19.3063 5.32325 19.3692 5.16533 19.3677 5.00146C19.3661 4.83758 19.3003 4.68087 19.1843 4.56507C19.0684 4.44927 18.9116 4.38365 18.7477 4.38234C18.5838 4.38104 18.426 4.44415 18.3082 4.55808C17.743 5.16499 17.2572 5.84124 16.8625 6.57058C16.8225 6.64227 16.797 6.72114 16.7874 6.8027C16.7779 6.88425 16.7845 6.96689 16.8069 7.04588C16.8293 7.12488 16.8671 7.19868 16.918 7.26308C16.969 7.32748 17.0321 7.38122 17.1038 7.42121Z" fill="#240028"/>
<path d="M21.8748 7.50001C21.8748 7.66577 21.9406 7.82474 22.0579 7.94195C22.1751 8.05916 22.334 8.12501 22.4998 8.12501C22.6656 8.12501 22.8245 8.05916 22.9417 7.94195C23.059 7.82474 23.1248 7.66577 23.1248 7.50001C23.1248 6.10126 21.9086 4.23626 21.7698 4.02814C21.6766 3.89339 21.5341 3.80065 21.3732 3.7699C21.2122 3.73914 21.0456 3.77283 20.9092 3.86371C20.7729 3.95459 20.6777 4.09539 20.6441 4.25578C20.6105 4.41617 20.6413 4.58333 20.7298 4.72126C21.0485 5.20063 21.8748 6.63314 21.8748 7.50001Z" fill="#240028"/>
</g>
<defs>
<clipPath id="clip0_1123_733">
<rect width="40" height="40" fill="white"/>
</clipPath>
</defs>
</svg>
