<svg width="40" height="40" viewBox="0 0 40 40" fill="none" xmlns="http://www.w3.org/2000/svg">
<g clip-path="url(#clip0_1123_930)">
<path d="M39.3693 18.6495C38.4502 17.8981 37.2611 16.6752 36.8159 15.117C36.3651 13.5392 35.3872 12.229 33.9877 11.3279C32.8459 10.5928 31.4633 10.1552 29.9535 10.0463C29.8447 8.53658 29.4072 7.15404 28.672 6.01232C27.771 4.6129 26.4608 3.63485 24.8829 3.18401C23.3247 2.73888 22.1019 1.54979 21.3504 0.630683C20.663 -0.210188 19.3369 -0.210267 18.6495 0.630683C17.8981 1.54979 16.6752 2.73888 15.117 3.18401C13.5391 3.63485 12.229 4.61282 11.3279 6.01232C10.5928 7.15412 10.1552 8.53665 10.0464 10.0464C8.53665 10.1554 7.15404 10.5929 6.01232 11.328C4.6129 12.229 3.63485 13.5392 3.18401 15.1171C2.73888 16.6752 1.54979 17.8981 0.630683 18.6495C-0.210188 19.337 -0.210267 20.6631 0.630683 21.3505C1.54979 22.1019 2.73888 23.3247 3.18409 24.883C3.63485 26.4608 4.61282 27.7709 6.01232 28.6721C7.15404 29.4071 8.53658 29.8447 10.0464 29.9536C10.1553 31.4633 10.5928 32.8459 11.3279 33.9877C12.2289 35.3871 13.5391 36.3651 15.117 36.816C16.6753 37.2611 17.8981 38.4502 18.6495 39.3693C19.3368 40.2101 20.663 40.2103 21.3504 39.3694C22.1019 38.4503 23.3247 37.2611 24.883 36.8159C26.4609 36.365 27.771 35.3871 28.6721 33.9876C29.4071 32.8459 29.8447 31.4633 29.9536 29.9535C31.4633 29.8446 32.8459 29.4071 33.9877 28.672C35.3871 27.7709 36.3651 26.4608 36.816 24.8829C37.2612 23.3247 38.4503 22.1018 39.3694 21.3504C40.2102 20.663 40.2102 19.3369 39.3693 18.6495ZM21.4027 32.1365L31.2156 15.14C31.872 16.6539 32.2175 18.3003 32.2175 20C32.2175 26.2623 27.4812 31.4384 21.4027 32.1365ZM7.78239 20C7.78239 18.2748 8.14256 16.6325 8.79045 15.1431L18.6019 32.137C12.5211 31.4411 7.78239 26.264 7.78239 20ZM23.5513 14.284H29.9048L20.0021 31.436L10.0995 14.284H16.4321C16.8637 14.284 17.2137 13.934 17.2137 13.5024C17.2137 13.0708 16.8637 12.7208 16.4321 12.7208H10.1939C12.4227 9.72605 15.9886 7.78246 20.0001 7.78246C23.2635 7.78246 26.3316 9.05331 28.6392 11.3609C29.0674 11.7891 29.4598 12.2437 29.8151 12.7207H23.5513C23.1197 12.7207 22.7697 13.0707 22.7697 13.5023C22.7697 13.9339 23.1197 14.284 23.5513 14.284ZM15.5465 4.68708C17.494 4.13072 18.967 2.71207 19.8599 1.62006C19.9312 1.53291 20.0688 1.53268 20.1403 1.62014C21.0332 2.71223 22.5064 4.1308 24.4536 4.68708C26.3731 5.23546 27.7212 6.79754 28.2123 8.9302C25.8508 7.17061 22.9987 6.21914 20.0002 6.21914C16.9244 6.21914 14.0809 7.23228 11.7854 8.942C12.2741 6.80332 13.6236 5.23656 15.5465 4.68708ZM4.68715 24.4536C4.13072 22.5061 2.71207 21.033 1.62006 20.1402C1.53299 20.069 1.5326 19.9312 1.62014 19.8598C2.71223 18.9669 4.13072 17.4938 4.68715 15.5463C5.23656 13.6235 6.8034 12.274 8.94208 11.7852C7.23236 14.0806 6.21914 16.9241 6.21914 19.9999C6.21914 23.0756 7.23228 25.9191 8.942 28.2147C6.80332 27.7259 5.23656 26.3764 4.68715 24.4536ZM24.4535 35.3128C22.506 35.8693 21.0329 37.2879 20.14 38.38C20.0688 38.4671 19.9311 38.4673 19.8596 38.3799C18.9668 37.2878 17.4938 35.8693 15.5463 35.3129C13.6234 34.7635 12.2739 33.1967 11.7851 31.0579C14.0806 32.7676 16.924 33.7808 19.9999 33.7808H20.0007C20.0012 33.7808 20.0016 33.7808 20.0021 33.7808C20.0027 33.7808 20.0034 33.7807 20.004 33.7807C23.0782 33.7797 25.9201 32.7668 28.2147 31.0579C27.7258 33.1966 26.3764 34.7633 24.4535 35.3128ZM38.3798 20.1401C37.2878 21.033 35.8693 22.5061 35.3128 24.4536C34.7634 26.3764 33.1966 27.7259 31.0579 28.2147C32.7676 25.9193 33.7808 23.0758 33.7808 20C33.7808 17.0015 32.8294 14.1493 31.0697 11.7878C33.2024 12.2788 34.7644 13.6271 35.3127 15.5465C35.8692 17.494 37.2878 18.967 38.3798 19.8599C38.467 19.931 38.4673 20.0687 38.3798 20.1401Z" fill="#240028"/>
<path d="M21.2099 16.0356H15.4027C14.9711 16.0356 14.6211 16.3856 14.6211 16.8172C14.6211 17.2488 14.9711 17.5988 15.4027 17.5988H20.7463L21.6421 19.2588C21.6488 19.2712 21.6692 19.3091 21.64 19.358C21.6108 19.4069 21.5679 19.4069 21.5538 19.4069H19.5176C18.9457 19.4069 18.421 19.695 18.1139 20.1773C17.807 20.6597 17.7684 21.2571 18.0108 21.7753C18.7908 23.4429 19.2205 24.9514 19.2205 26.0231C19.2205 26.4547 19.5705 26.8047 20.0021 26.8047C20.4337 26.8047 20.7837 26.4547 20.7837 26.0231C20.7837 24.3623 20.0458 22.4362 19.4268 21.1131C19.421 21.1007 19.4034 21.063 19.4329 21.0165C19.4624 20.9702 19.504 20.9702 19.5177 20.9702H21.5539C22.1453 20.9702 22.6793 20.6669 22.9824 20.1591C23.2856 19.6511 23.2988 19.0371 23.0178 18.5165L22.5226 17.5988H24.8959C25.3275 17.5988 25.6775 17.2488 25.6775 16.8172C25.6775 16.3856 25.3275 16.0356 24.8959 16.0356H21.2178C21.2151 16.0355 21.2125 16.0356 21.2099 16.0356Z" fill="#240028"/>
<path d="M19.3161 13.8009C19.4774 14.1946 19.9449 14.387 20.3369 14.2237C20.7303 14.0599 20.9226 13.5981 20.7598 13.2037C20.5974 12.8106 20.1321 12.6172 19.739 12.7809C19.3469 12.9441 19.1521 13.4075 19.3161 13.8009Z" fill="#240028"/>
</g>
<defs>
<clipPath id="clip0_1123_930">
<rect width="40" height="40" fill="white"/>
</clipPath>
</defs>
</svg>
