<svg width="40" height="41" viewBox="0 0 40 41" fill="none" xmlns="http://www.w3.org/2000/svg">
<path d="M26.2445 15.8539C24.7808 13.8893 22.4459 12.7164 19.9991 12.7164C19.5659 12.7164 19.2148 13.0677 19.2148 13.5007C19.2148 13.9338 19.566 14.285 19.9991 14.285C21.9821 14.285 23.8 15.1985 24.9867 16.791C25.1407 16.9976 25.377 17.1067 25.6162 17.1067C25.7791 17.1067 25.9434 17.0561 26.0841 16.9513C26.4316 16.6925 26.5034 16.2013 26.2445 15.8539Z" fill="#240028"/>
<path d="M36.743 15.9455C34.8873 14.8003 32.3027 13.8655 29.2541 13.2357C28.207 11.9048 26.8687 10.7993 25.3661 10.028C23.7191 9.18238 21.8634 8.73535 20.0001 8.73535C18.1367 8.73535 16.2811 9.1823 14.6341 10.0279C13.1316 10.7993 11.7931 11.9048 10.7461 13.2357C7.69742 13.8654 5.11273 14.8002 3.25719 15.9454C1.12625 17.2605 0 18.8354 0 20.5C0 22.1646 1.12625 23.7396 3.25711 25.0546C5.11266 26.1997 7.69719 27.1343 10.7459 27.7641C11.7929 29.0951 13.1313 30.2007 14.6339 30.972C16.2809 31.8175 18.1366 32.2646 19.9999 32.2646C21.8633 32.2646 23.7189 31.8176 25.3659 30.972C26.8686 30.2006 28.207 29.095 29.2541 27.764C32.3026 27.1342 34.8872 26.1996 36.7427 25.0545C38.8737 23.7396 40 22.1646 40 20.5C40 18.8354 38.8738 17.2605 36.743 15.9455ZM9.99398 18.5293C10.2831 17.0538 10.9117 15.634 11.8116 14.4225C11.8137 14.4199 11.8159 14.4176 11.818 14.415C13.7646 11.8023 16.7468 10.3039 20 10.3039C23.2532 10.3039 26.2354 11.8023 28.182 14.415C28.1836 14.417 28.1854 14.4187 28.187 14.4208C29.0877 15.6327 29.7167 17.0532 30.0059 18.5289C30.1321 19.1746 30.1961 19.8378 30.1961 20.5C30.1961 21.0095 30.1577 21.52 30.0826 22.0231C27.6088 22.7893 23.8913 23.242 20 23.242C16.1088 23.242 12.3914 22.7893 9.91727 22.023C9.84219 21.5204 9.80391 21.01 9.80391 20.5C9.80391 19.8376 9.86781 19.1745 9.99398 18.5293ZM20 30.6961C17.4959 30.6961 15.153 29.8075 13.3186 28.2071C15.448 28.5055 17.6859 28.6568 20 28.6568C22.3141 28.6568 24.552 28.5054 26.6814 28.207C24.8471 29.8075 22.5041 30.6961 20 30.6961ZM35.9191 23.7196C34.1625 24.8037 31.6518 25.6907 28.6585 26.2843C26.0056 26.8102 23.0116 27.0882 20 27.0882C16.9884 27.0882 13.9944 26.8102 11.3416 26.2843C8.3482 25.6906 5.83758 24.8037 4.08094 23.7196C2.93484 23.0124 1.56859 21.8796 1.56859 20.5C1.56859 19.1204 2.93469 17.9875 4.08086 17.2802C5.47086 16.4223 7.33453 15.6886 9.53438 15.1253C9.10039 15.9707 8.76883 16.8683 8.55055 17.7897C6.67562 18.5118 5.72555 19.4225 5.72555 20.4999C5.72555 21.6529 6.8125 22.6145 8.95563 23.3582C8.95797 23.3591 8.96031 23.3599 8.96258 23.3607C8.96422 23.3613 8.96578 23.3619 8.9675 23.3625C11.6225 24.2826 15.6437 24.8104 20.0001 24.8104C24.3565 24.8104 28.3777 24.2827 31.0323 23.3626C31.0333 23.3622 31.0343 23.3619 31.0353 23.3615C31.0426 23.3589 31.0499 23.3566 31.057 23.3539C33.1919 22.6106 34.2746 21.6505 34.2746 20.4999C34.2746 19.423 33.3245 18.5125 31.4496 17.7897C31.2314 16.8684 30.8998 15.9707 30.4658 15.1252C32.6656 15.6886 34.5291 16.4222 35.9192 17.2802C37.0653 17.9875 38.4316 19.1203 38.4316 20.4999C38.4314 21.8797 37.0652 23.0124 35.9191 23.7196ZM8.26711 21.3678C7.49547 20.9596 7.29406 20.6242 7.29406 20.5C7.29406 20.376 7.49516 20.0407 8.26711 19.6324C8.24602 19.921 8.23523 20.2107 8.23523 20.5C8.23531 20.7895 8.24602 21.0791 8.26711 21.3678ZM31.7329 19.6328C32.5045 20.0411 32.7059 20.3761 32.7059 20.5C32.7059 20.6241 32.5045 20.9596 31.7327 21.3678C31.7539 21.0789 31.7648 20.7893 31.7648 20.5C31.7647 20.2107 31.7541 19.9214 31.7329 19.6328Z" fill="#240028"/>
<path d="M26.785 17.3628C25.7757 17.3628 25.7739 18.9314 26.785 18.9314C27.7943 18.9314 27.796 17.3628 26.785 17.3628Z" fill="#240028"/>
</svg>
