<svg width="56" height="56" viewBox="0 0 56 56" fill="none" xmlns="http://www.w3.org/2000/svg">
<g clip-path="url(#clip0_917_411)">
<path d="M28 56C43.464 56 56 43.464 56 28C56 12.536 43.464 0 28 0C12.536 0 0 12.536 0 28C0 43.464 12.536 56 28 56Z" fill="url(#paint0_linear_917_411)"/>
<path d="M55.9027 30.3505C54.7083 44.7136 42.6716 56 28 56C26.5827 56.0007 25.1674 55.8943 23.7661 55.6818L12.0783 43.9939L11.5938 43.2283V30.7257L13.9453 30.8L11.5938 28.4474V19.2599L12.0039 18.503L12.7334 18.1213H19.3463V12.7707L20.4859 11.631H35.5141L36.33 12.0291L42.6136 18.3127L43.8102 18.2591L55.9027 30.3505Z" fill="url(#paint1_linear_917_411)"/>
<path d="M35.5137 11.381C35.6961 11.381 35.8773 11.4166 36.0459 11.4865C36.2145 11.5563 36.368 11.6592 36.4971 11.7882C36.6259 11.9171 36.7281 12.0701 36.7979 12.2384C36.8677 12.407 36.9033 12.5881 36.9033 12.7706V17.8712H43.2666C43.4489 17.8711 43.6294 17.9071 43.7979 17.9767C43.9665 18.0464 44.12 18.1485 44.249 18.2775C44.3781 18.4064 44.4809 18.5601 44.5508 18.7286C44.6205 18.897 44.6562 19.0776 44.6562 19.2599V28.6974H32.4268V27.0529C32.4265 26.8172 32.3327 26.5915 32.166 26.4249C31.9992 26.2583 31.7729 26.1642 31.5371 26.1642H24.4629C24.2271 26.1642 24.0008 26.2583 23.834 26.4249C23.6673 26.5915 23.5735 26.8172 23.5732 27.0529V28.6974H11.3438V19.2599C11.3437 19.0776 11.3795 18.8971 11.4492 18.7286C11.5191 18.5601 11.6219 18.4064 11.751 18.2775C11.88 18.1485 12.0335 18.0464 12.2021 17.9767C12.3706 17.9071 12.5511 17.8711 12.7334 17.8712H19.0967V12.7706C19.0967 12.4022 19.2425 12.0488 19.5029 11.7882C19.7635 11.5276 20.1178 11.381 20.4863 11.381H35.5137ZM21.875 17.8712H34.125V14.1593H21.875V17.8712Z" stroke="white" stroke-width="0.5"/>
<path d="M23.0732 30.9756V32.3604C23.0737 32.7285 23.2201 33.0814 23.4805 33.3418C23.741 33.6023 24.0945 33.7487 24.4629 33.749H31.5371C31.9055 33.7487 32.259 33.6023 32.5195 33.3418C32.7799 33.0814 32.9263 32.7285 32.9268 32.3604V30.9756H44.1562V43.2295C44.1562 43.4654 44.0623 43.6916 43.8955 43.8584C43.7287 44.0252 43.5025 44.1191 43.2666 44.1191H12.7334C12.4975 44.1191 12.2713 44.0252 12.1045 43.8584C11.9377 43.6916 11.8438 43.4654 11.8438 43.2295V30.9756H23.0732Z" stroke="white" stroke-width="0.5"/>
<path d="M30.3972 27.9425C30.5353 27.9425 30.6472 28.0544 30.6472 28.1925V31.2208C30.6472 31.3589 30.5353 31.4708 30.3972 31.4708H25.6013C25.4632 31.4708 25.3513 31.3589 25.3513 31.2208V28.1925L25.3562 28.1417C25.3796 28.028 25.4806 27.9425 25.6013 27.9425H30.3972Z" stroke="white" stroke-width="0.5" stroke-linejoin="round"/>
</g>
<defs>
<linearGradient id="paint0_linear_917_411" x1="8.20094" y1="8.20094" x2="47.7991" y2="47.7991" gradientUnits="userSpaceOnUse">
<stop stop-color="#8843FF"/>
<stop offset="1" stop-color="#3418D5"/>
</linearGradient>
<linearGradient id="paint1_linear_917_411" x1="13.662" y1="16.8438" x2="46.2077" y2="49.3894" gradientUnits="userSpaceOnUse">
<stop stop-color="#1E009A"/>
<stop offset="1" stop-color="#8686BF" stop-opacity="0"/>
</linearGradient>
<clipPath id="clip0_917_411">
<rect width="56" height="56" fill="white"/>
</clipPath>
</defs>
</svg>
