<svg width="56" height="56" viewBox="0 0 56 56" fill="none" xmlns="http://www.w3.org/2000/svg">
<g clip-path="url(#clip0_917_425)">
<path d="M28 56C43.464 56 56 43.464 56 28C56 12.536 43.464 0 28 0C12.536 0 0 12.536 0 28C0 43.464 12.536 56 28 56Z" fill="url(#paint0_linear_917_425)"/>
<path d="M55.7747 31.5689C54.1778 44.1219 44.2685 54.0794 31.7395 55.7518L13.5767 37.5955L13.8972 34.0157L12.3091 32.4275L14.2636 29.9119L14.6781 25.2799L12.3091 22.9032L17.231 17.9452L19.4688 20.1732L33.098 19.3857L38.1555 17.9758L39.2131 19.0324L43.0238 18.8136L55.7747 31.5689Z" fill="url(#paint1_linear_917_425)"/>
<path d="M40.9563 18.3202C41.2862 18.3199 41.6134 18.3845 41.9182 18.5106C42.2231 18.6367 42.5003 18.8223 42.7336 19.0555C42.9668 19.2886 43.1514 19.5654 43.2776 19.87C43.4038 20.1748 43.4691 20.502 43.469 20.8319V22.5106C42.3992 22.4222 41.3901 21.9599 40.6252 21.1952C39.8531 20.423 39.3879 19.4016 39.3059 18.3202H40.9563Z" stroke="white" stroke-width="0.75"/>
<path d="M15.1948 18.3202H16.8462C16.8103 18.8003 16.6996 19.2724 16.5151 19.7186C16.2867 20.2711 15.9515 20.7734 15.5288 21.1962C15.1062 21.6188 14.6045 21.9539 14.0522 22.1825C13.6156 22.3632 13.1536 22.4732 12.6841 22.5116V20.8319C12.684 20.5024 12.7486 20.1755 12.8745 19.871C13.0006 19.5663 13.1863 19.2887 13.4194 19.0555C13.6525 18.8225 13.9294 18.6378 14.2339 18.5116C14.5384 18.3854 14.8652 18.3202 15.1948 18.3202Z" stroke="white" stroke-width="0.75"/>
<path d="M12.6841 33.5793C13.7496 33.6664 14.7552 34.1267 15.519 34.886C16.2822 35.6446 16.7473 36.6463 16.8413 37.7102H15.1948C14.8651 37.7102 14.5385 37.645 14.2339 37.5188C13.9294 37.3926 13.6525 37.208 13.4194 36.9749C13.1863 36.7417 13.0006 36.465 12.8745 36.1604C12.7484 35.8558 12.684 35.5291 12.6841 35.1995V33.5793Z" stroke="white" stroke-width="0.75"/>
<path d="M43.4675 35.1995C43.4676 35.5292 43.4032 35.8558 43.2771 36.1604C43.151 36.465 42.9662 36.7417 42.7332 36.9749C42.4999 37.2081 42.2225 37.3936 41.9177 37.5198C41.6131 37.6459 41.2865 37.7103 40.9568 37.7102H39.3103C39.4043 36.6462 39.8703 35.6447 40.6335 34.886C41.3973 34.1269 42.4022 33.6665 43.4675 33.5793V35.1995Z" stroke="white" stroke-width="0.75"/>
<path d="M37.7861 18.3202C37.8719 19.8025 38.4976 21.2066 39.5527 22.2626C40.6007 23.3114 41.9927 23.9366 43.4639 24.0302V32.0575C41.9998 32.1521 40.6145 32.7728 39.5684 33.8134C38.5218 34.8545 37.8938 36.2377 37.792 37.702H18.3604C18.2583 36.2378 17.6305 34.8544 16.584 33.8134C15.538 32.7728 14.1524 32.1524 12.6885 32.0575V24.0302C14.1595 23.9365 15.5518 23.3114 16.5996 22.2626C17.6544 21.2066 18.2798 19.8023 18.3652 18.3202H37.7861ZM30.5527 22.035C29.37 21.5451 28.0681 21.4171 26.8125 21.6669C25.5571 21.9166 24.4042 22.5333 23.499 23.4384C22.5938 24.3436 21.9773 25.4972 21.7275 26.7528C21.4778 28.0083 21.6059 29.3094 22.0957 30.4921C22.5856 31.6748 23.4151 32.6861 24.4795 33.3973C25.5438 34.1085 26.7952 34.4881 28.0752 34.4882C29.7917 34.4882 31.4385 33.8064 32.6523 32.5927C33.8662 31.3788 34.5478 29.7321 34.5479 28.0155C34.5479 26.7354 34.1682 25.4842 33.457 24.4198C32.7458 23.3554 31.7354 22.5249 30.5527 22.035Z" fill="#3496F9" stroke="white" stroke-width="0.75"/>
</g>
<defs>
<linearGradient id="paint0_linear_917_425" x1="8.20094" y1="8.20094" x2="47.7991" y2="47.7991" gradientUnits="userSpaceOnUse">
<stop stop-color="#71B5FD"/>
<stop offset="1" stop-color="#4DA7F5"/>
</linearGradient>
<linearGradient id="paint1_linear_917_425" x1="17.6389" y1="17.5416" x2="47.8472" y2="47.751" gradientUnits="userSpaceOnUse">
<stop stop-color="#067DFA"/>
<stop offset="1" stop-color="#59ABF7" stop-opacity="0"/>
</linearGradient>
<clipPath id="clip0_917_425">
<rect width="56" height="56" fill="white"/>
</clipPath>
</defs>
</svg>
