<svg width="56" height="56" viewBox="0 0 56 56" fill="none" xmlns="http://www.w3.org/2000/svg">
<g clip-path="url(#clip0_917_397)">
<path d="M28 56C43.464 56 56 43.464 56 28C56 12.536 43.464 0 28 0C12.536 0 0 12.536 0 28C0 43.464 12.536 56 28 56Z" fill="url(#paint0_linear_917_397)"/>
<path d="M55.7472 31.7767C54.0694 44.2159 44.2246 54.0641 31.7865 55.7463L15.4502 39.41L12.8252 35.4911L11.2163 29.6614L11.2688 25.3225L12.5813 21.0295L16.0244 16.0125L21.3893 12.4556L25.2174 11.387L30.7069 11.2656L35.5621 12.7969L39.983 16.0169L55.7472 31.7767Z" fill="url(#paint1_linear_917_397)"/>
<path d="M39.9875 16.0126C37.2141 13.2392 33.5648 11.5133 29.6615 11.1289C25.7581 10.7445 21.8423 11.7254 18.5811 13.9045C15.32 16.0836 12.9153 19.3261 11.7768 23.0794C10.6383 26.8328 10.8364 30.8647 12.3375 34.4883C13.8385 38.112 16.5495 41.103 20.0086 42.9519C23.4677 44.8007 27.4609 45.393 31.3077 44.6277C35.1545 43.8625 38.617 41.787 41.1052 38.7551C43.5933 35.7231 44.9532 31.9223 44.9531 28.0001C44.9591 25.7729 44.5233 23.5666 43.6709 21.509C42.8186 19.4513 41.5666 17.5831 39.9875 16.0126ZM28 43.0938C19.6744 43.0938 12.9063 36.3213 12.9063 28.0001C12.9063 19.6788 19.6788 12.9063 28 12.9063C36.3213 12.9063 43.0938 19.6788 43.0938 28.0001C43.0938 36.3213 36.3256 43.0938 28 43.0938Z" fill="white"/>
<path d="M36.5707 27.0726H28.9276V19.4294C28.9276 19.1829 28.8296 18.9464 28.6553 18.7721C28.4809 18.5977 28.2444 18.4998 27.9979 18.4998C27.7513 18.4998 27.5148 18.5977 27.3405 18.7721C27.1661 18.9464 27.0682 19.1829 27.0682 19.4294V27.0726H19.4294C19.1829 27.0726 18.9464 27.1705 18.7721 27.3449C18.5977 27.5192 18.4998 27.7557 18.4998 28.0023C18.4998 28.2488 18.5977 28.4853 18.7721 28.6596C18.9464 28.834 19.1829 28.9319 19.4294 28.9319H27.0726V36.5751C27.0726 36.8216 27.1705 37.0581 27.3449 37.2325C27.5192 37.4068 27.7557 37.5048 28.0023 37.5048C28.2488 37.5048 28.4853 37.4068 28.6596 37.2325C28.834 37.0581 28.9319 36.8216 28.9319 36.5751V28.9276H36.5751C36.8216 28.9276 37.0581 28.8296 37.2325 28.6553C37.4068 28.4809 37.5048 28.2444 37.5048 27.9979C37.5048 27.7513 37.4068 27.5148 37.2325 27.3405C37.0581 27.1661 36.8216 27.0682 36.5751 27.0682L36.5707 27.0726Z" fill="white"/>
</g>
<defs>
<linearGradient id="paint0_linear_917_397" x1="8.20094" y1="8.20094" x2="47.7991" y2="47.7991" gradientUnits="userSpaceOnUse">
<stop stop-color="#55DB58"/>
<stop offset="1" stop-color="#0EA012"/>
</linearGradient>
<linearGradient id="paint1_linear_917_397" x1="16.0168" y1="16.0114" x2="47.8012" y2="47.7958" gradientUnits="userSpaceOnUse">
<stop stop-color="#0D840D"/>
<stop offset="1" stop-color="#0D840D" stop-opacity="0"/>
</linearGradient>
<clipPath id="clip0_917_397">
<rect width="56" height="56" fill="white"/>
</clipPath>
</defs>
</svg>
