<svg width="56" height="56" viewBox="0 0 56 56" fill="none" xmlns="http://www.w3.org/2000/svg">
<g clip-path="url(#clip0_917_383)">
<path d="M28 56C43.464 56 56 43.464 56 28C56 12.536 43.464 0 28 0C12.536 0 0 12.536 0 28C0 43.464 12.536 56 28 56Z" fill="url(#paint0_linear_917_383)"/>
<path d="M54.0642 38.2506C52.6989 41.7111 50.66 44.8659 48.0658 47.532C45.4715 50.1982 42.3736 52.3225 38.9518 53.7819L18.5567 33.3824L15.8376 30.018L13.9148 25.5938L14.0646 21.6749L16.0104 18.4472L18.9121 17.1172L22.5981 17.6149L25.1826 19.8691L27.766 17.6149L30.4184 17.068L33.1374 17.6149L35.2101 19.3933L54.0642 38.2506Z" fill="url(#paint1_linear_917_383)"/>
<path d="M27.1457 26.7663L27.5625 25.9328L27.5701 25.9219C28.5665 24.2889 30.0726 23.3527 31.7034 23.3527C32.1517 23.3496 32.5968 23.4297 33.0159 23.5889C33.2587 23.6841 33.4862 23.7847 33.6929 23.8886C34.7747 24.4355 35.4429 25.153 35.8443 26.215C35.8861 26.324 35.9617 26.4167 36.0599 26.4797C36.1582 26.5427 36.274 26.5726 36.3905 26.565C36.507 26.5574 36.6179 26.5128 36.7072 26.4376C36.7965 26.3624 36.8594 26.2607 36.8867 26.1472C37.0054 25.6558 37.0855 25.1559 37.1262 24.652C37.1262 24.6378 37.1262 24.6236 37.1262 24.6094V23.3045C37.1262 23.2903 37.1262 23.275 37.1262 23.2608C36.785 19.0116 33.9718 16.8164 31.5022 16.5747C31.1226 16.5375 30.7573 16.5189 30.4172 16.5189C27.8086 16.5189 26.4326 17.6181 25.1814 19.0345C23.929 17.6203 22.5564 16.5189 19.9434 16.5189C19.6032 16.5189 19.2379 16.5375 18.8584 16.5747C16.3887 16.8164 13.5756 19.0127 13.2354 23.2608V23.3045V24.6094C13.2343 24.6236 13.2343 24.6378 13.2354 24.652C13.5712 28.9592 16.9476 33.425 23.5572 38.3042C24.0264 38.6536 24.5958 38.8422 25.1808 38.8422C25.7658 38.8422 26.3352 38.6536 26.8045 38.3042C27.3011 37.9378 27.7889 37.5638 28.2614 37.193C28.3568 37.1179 28.4245 37.0131 28.4538 36.8953C28.4831 36.7775 28.4723 36.6533 28.4232 36.5422C26.5781 32.375 26.157 29.1736 27.1457 26.7663ZM26.1559 37.4249C25.8743 37.6341 25.5328 37.7471 25.1819 37.7471C24.8311 37.7471 24.4895 37.6341 24.2079 37.4249C20.8337 34.9333 18.2907 32.5139 16.6512 30.2335C15.2556 28.2931 14.4736 26.3933 14.3281 24.5875V23.3264C14.6267 19.717 16.9389 17.8577 18.9656 17.663C19.3101 17.6302 19.6393 17.6127 19.9445 17.6127C22.1801 17.6127 23.2793 18.4549 24.7636 20.2235C24.8149 20.2846 24.879 20.3338 24.9514 20.3675C25.0237 20.4013 25.1026 20.4188 25.1825 20.4188C25.2623 20.4188 25.3412 20.4013 25.4136 20.3675C25.4859 20.3338 25.55 20.2846 25.6014 20.2235C27.0845 18.4549 28.1837 17.6127 30.4139 17.6127C30.719 17.6127 31.0493 17.6302 31.3928 17.663C33.4195 17.862 35.7328 19.7192 36.0314 23.3264V24.3567C35.5265 23.7483 34.8964 23.2558 34.184 22.913C33.9456 22.7927 33.6853 22.6767 33.4097 22.5695C32.8644 22.3607 32.2851 22.2553 31.7012 22.2589C29.68 22.2589 27.8337 23.3866 26.6339 25.352L26.6153 25.3827C26.6076 25.3947 26.6011 25.4078 26.5945 25.4199L26.157 26.2795C26.1504 26.2927 26.145 26.3047 26.1395 26.3178L26.1264 26.3495C25.0501 28.9669 25.4165 32.3214 27.2453 36.5925C26.8953 36.8714 26.5267 37.1503 26.1559 37.4249Z" fill="white"/>
<path d="M40.427 28.0701L40.3877 28.046C40.1842 27.9169 39.9863 27.8043 39.7992 27.7091C39.2783 27.4265 38.6975 27.272 38.105 27.2585C37.6467 27.2585 37.172 27.3613 36.5661 27.5866L35.6714 27.9246L35.4144 27.0047C35.1092 25.911 34.6663 25.1136 33.4008 24.4738C33.2072 24.3765 32.9983 24.2846 32.7795 24.2004C32.4326 24.0692 32.0644 24.0032 31.6934 24.0057C30.3077 24.0057 29.0116 24.8249 28.1377 26.2555L27.745 27.0354C26.7158 29.5707 27.3972 33.1451 29.8231 37.9608C29.9342 38.1853 30.1149 38.3677 30.3383 38.4809C30.5617 38.5941 30.8157 38.6319 31.0624 38.5886C36.3889 37.6852 39.6713 36.108 41.0975 33.7685L41.4902 32.9908C42.4209 30.6972 41.5973 28.8433 40.427 28.0701ZM40.4959 32.5402L40.1405 33.2347C39.54 34.2005 38.5064 35.0405 37.0681 35.7307C35.515 36.4788 33.4325 37.0782 30.8852 37.5157H30.8644C30.8513 37.5158 30.8385 37.512 30.8276 37.5048C30.8167 37.4976 30.8081 37.4873 30.8031 37.4752C29.6405 35.1663 28.8858 33.1407 28.5631 31.441C28.2645 29.8758 28.3247 28.5458 28.7425 27.4893L29.0936 26.7969C29.763 25.7218 30.708 25.106 31.6934 25.106C31.9297 25.1043 32.1642 25.1454 32.3858 25.2274C32.5717 25.2985 32.7478 25.3761 32.9075 25.456C33.8339 25.9252 34.1106 26.4261 34.3611 27.3055L34.6181 28.2265C34.659 28.3727 34.7299 28.5088 34.8263 28.6262C34.9227 28.7435 35.0424 28.8395 35.1779 28.908C35.3134 28.9765 35.4617 29.0161 35.6133 29.0242C35.7649 29.0322 35.9166 29.0086 36.0586 28.9549L36.9533 28.6169C37.4291 28.4365 37.7845 28.3555 38.105 28.3555C38.5263 28.3686 38.9385 28.481 39.3081 28.6836C39.4645 28.7635 39.6363 28.8597 39.8069 28.9691L39.8353 28.9866C40.6228 29.5171 41.162 30.8438 40.4959 32.5402Z" fill="white"/>
</g>
<defs>
<linearGradient id="paint0_linear_917_383" x1="8.30047" y1="8.30047" x2="46.3925" y2="46.3925" gradientUnits="userSpaceOnUse">
<stop stop-color="#FF567F"/>
<stop offset="1" stop-color="#F4166B"/>
</linearGradient>
<linearGradient id="paint1_linear_917_383" x1="17.5537" y1="17.0592" x2="46.9603" y2="46.4658" gradientUnits="userSpaceOnUse">
<stop stop-color="#B20B43"/>
<stop offset="1" stop-color="#C60063" stop-opacity="0"/>
</linearGradient>
<clipPath id="clip0_917_383">
<rect width="56" height="56" fill="white"/>
</clipPath>
</defs>
</svg>
